<?xml version="1.0" encoding="utf-8"?>
<!-- Generator: Adobe Illustrator 19.1.0, SVG Export Plug-In . SVG Version: 6.00 Build 0)  -->
<!DOCTYPE svg PUBLIC "-//W3C//DTD SVG 1.1//EN" "http://www.w3.org/Graphics/SVG/1.1/DTD/svg11.dtd">
<svg version="1.1" id="Layer_1" xmlns="http://www.w3.org/2000/svg" xmlns:xlink="http://www.w3.org/1999/xlink" x="0px" y="0px"
	 viewBox="0 0 100 100" style="enable-background:new 0 0 100 100;" xml:space="preserve">
<style type="text/css">
	.st0{fill:#F26B21;}
</style>
<g>
	<circle id="XMLID_65_" class="st0" cx="21.9" cy="39.9" r="1"/>
	<g>
		<g id="XMLID_64_">
			<g>
				<path class="st0" d="M41.8,47.2c0.2-0.3,0.6,0,0.5,0.3c-0.5,0.9-1.1,1.5-2.3,1.7c-0.3,0-0.4,0.1-0.6,0.3c-0.4,0.4-1,0.7-1.6,0.7
					c-1.3,0-1.7-1.2-0.8-3.6l1.5-3.6c0.1-0.3,0.3-0.4,0.6-0.4h0.2c0.3,0,0.4,0.1,0.3,0.4l-0.7,1.8c-0.1,0.1,0,0.2,0.1,0.1
					c0.2-0.2,0.6-0.4,0.9-0.4c0.7,0,1,0.4,1,1.2c0,0.5-0.2,1.6-0.8,2.7c-0.1,0.2,0,0.3,0.2,0.2C41,48.4,41.4,47.8,41.8,47.2z
					 M37.8,49.4c0.2,0,0.3-0.1,0.5-0.2c0.2-0.1,0.2-0.3,0-0.4c-0.2-0.2-0.4-0.4-0.6-0.7c-0.1-0.2-0.2-0.1-0.2,0
					C37.4,48.8,37.3,49.4,37.8,49.4z M39.4,45.4c-0.4,0-1.3,0.5-1.3,1.7c0,0.6,0.2,0.9,0.5,1.2c0.2,0.1,0.4,0.1,0.5-0.1
					c0.4-0.8,0.7-1.9,0.7-2.3C39.8,45.6,39.7,45.4,39.4,45.4z"/>
				<path class="st0" d="M46.3,47.2c0.2-0.3,0.6,0,0.4,0.3c-0.7,1.3-1.9,2.6-3.6,2.6c-1.1,0-1.6-0.5-1.6-1.6c0-1.5,1.2-4.1,3-4.1
					c1,0,1.5,0.9,0.9,2.2c-0.5,1.1-1.3,1.4-2.5,1.3c-0.2,0-0.3,0.1-0.4,0.3c-0.1,0.5-0.1,1.3,0.8,1.3C44.4,49.5,45.5,48.5,46.3,47.2
					z M44.4,45.4c-0.7,0-1.2,1.1-1.5,1.6c-0.1,0.2,0,0.3,0.2,0.3c0.8,0,1.1-0.5,1.3-1C44.8,45.7,44.8,45.4,44.4,45.4z"/>
				<path class="st0" d="M46.7,47.5c-0.2,0.3-0.6,0-0.4-0.3c0.4-0.7,1-1.7,1.4-2.6c0.1-0.3,0.3-0.3,0.6-0.2l0.1,0
					c0.3,0.1,0.4,0.3,0.3,0.6c-0.2,1.4-0.1,2.8,0,3.3c0,0.2,0,0.4,0,0.5c0,0.2,0.1,0.2,0.2,0.1c0.5-0.4,1-1.1,1.4-1.8
					c0.2-0.3,0.6,0,0.5,0.3c-0.8,1.3-1.6,2.6-3.3,2.6c-0.6,0-1-0.2-1.2-0.5c-0.1-0.1-0.1-0.3,0-0.4c0.4-0.2,0.5,0.1,0.9,0.1
					c0.4,0,0.6-0.3,0.6-1.3c0-0.5,0-1.1,0-1.8c0-0.2-0.1-0.2-0.2,0C47.2,46.7,46.9,47.2,46.7,47.5z"/>
				<path class="st0" d="M53,47.2c0.2-0.3,0.6,0,0.4,0.3c-0.8,1.4-1.8,2.6-3,2.6c-0.9,0-1.4-0.6-0.6-2.5l1.1-2.8
					c0.1-0.2,0-0.3-0.2-0.3h-0.3c-0.2,0-0.3-0.1-0.2-0.3c0.1-0.2,0.2-0.3,0.4-0.3H51c0.2,0,0.4-0.1,0.5-0.3l0.3-0.8
					c0.1-0.3,0.3-0.4,0.6-0.4h0.2c0.3,0,0.4,0.1,0.3,0.4l-0.3,0.8c-0.1,0.2,0,0.3,0.2,0.3h0.3c0.2,0,0.3,0.1,0.2,0.3
					c-0.1,0.2-0.2,0.3-0.4,0.3h-0.3c-0.2,0-0.4,0.1-0.5,0.3l-1.3,3.2c-0.5,1.2-0.2,1.3,0,1.3C51.4,49.5,52.3,48.5,53,47.2z"/>
				<path class="st0" d="M58.4,47.2c0.2-0.3,0.6,0,0.5,0.3C58,49,57.1,50.2,56,50.2c-0.8,0-1.4-0.6-0.6-2.5l1.1-2.7
					c0.1-0.3,0.3-0.4,0.6-0.4h0.2c0.3,0,0.4,0.1,0.3,0.4l-1.3,3.1c-0.5,1.1-0.3,1.3,0,1.3C56.9,49.5,57.7,48.4,58.4,47.2z M57.8,44
					c-0.4,0-0.6-0.3-0.6-0.6c0-0.4,0.3-0.6,0.6-0.6c0.4,0,0.6,0.3,0.6,0.6C58.4,43.7,58.1,44,57.8,44z"/>
				<path class="st0" d="M63.7,47.2c0.2-0.3,0.6,0,0.5,0.3c-0.8,1.5-1.8,2.6-2.8,2.6c-0.9,0-1.4-0.6-0.6-2.5l0.4-1
					c0.2-0.5,0.4-0.9,0.4-1.1c0-0.1-0.1-0.2-0.3-0.2c-0.2,0-0.6,0.2-1,0.5c-0.1,0.1-0.3,0.3-0.3,0.5l-1.3,3.2
					c-0.1,0.3-0.3,0.4-0.6,0.4h-0.2c-0.3,0-0.4-0.1-0.3-0.4l1.9-4.6c0.1-0.3,0.3-0.3,0.5-0.2l0.2,0.1c0.2,0.1,0.4,0.1,0.6,0
					c0.4-0.3,0.8-0.5,1.2-0.5c0.5,0,0.8,0.3,0.8,0.8c0,0.3-0.1,0.7-0.3,1.3l-0.6,1.6c-0.5,1.2-0.2,1.3,0,1.3
					C62.1,49.5,63,48.4,63.7,47.2z"/>
			</g>
			<g>
				<path class="st0" d="M47.3,57c0.2-0.3,0.6,0,0.5,0.3c-0.5,0.9-1.1,1.5-2.3,1.7c-0.3,0-0.4,0.1-0.6,0.3c-0.4,0.4-1,0.7-1.6,0.7
					c-1.3,0-1.7-1.2-0.8-3.6l1.5-3.6c0.1-0.3,0.3-0.4,0.6-0.4h0.2c0.3,0,0.4,0.1,0.3,0.4l-0.7,1.8c-0.1,0.1,0,0.2,0.1,0.1
					c0.2-0.2,0.6-0.4,0.9-0.4c0.7,0,1,0.4,1,1.2c0,0.5-0.2,1.6-0.8,2.7c-0.1,0.2,0,0.3,0.2,0.2C46.6,58.2,47,57.6,47.3,57z
					 M43.4,59.3c0.2,0,0.3-0.1,0.5-0.2c0.2-0.1,0.2-0.3,0-0.4c-0.2-0.2-0.4-0.4-0.6-0.7c-0.1-0.2-0.2-0.1-0.2,0
					C42.9,58.6,42.9,59.3,43.4,59.3z M44.9,55.2c-0.4,0-1.3,0.5-1.3,1.7c0,0.6,0.2,0.9,0.5,1.2c0.2,0.1,0.4,0.1,0.5-0.1
					c0.4-0.8,0.7-1.9,0.7-2.3C45.4,55.4,45.3,55.2,44.9,55.2z"/>
				<path class="st0" d="M52.5,57c0.2-0.3,0.6,0,0.5,0.3c-0.6,1-1.4,1.6-2.3,1.5c-0.3,0-0.3,0-0.5,0.2c-0.4,0.5-1,0.9-1.7,0.9
					c-0.8,0-1.4-0.5-1.4-1.5c0-1.4,1.1-4.2,3-4.2c0.8,0,1.4,0.5,1.4,1.5c0,0.6-0.2,1.4-0.6,2.2c-0.1,0.2,0,0.3,0.2,0.3
					C51.5,58.2,52,57.8,52.5,57z M48.5,59.3c0.2,0,0.4-0.1,0.6-0.3c0.3-0.3,0.3-0.4,0.2-0.8c0-0.1,0-0.1,0-0.2
					c0-0.3,0.2-0.6,0.5-0.6c0.2-0.1,0.3-0.1,0.4-0.3c0.2-0.5,0.3-1,0.3-1.4c0-0.4-0.2-0.6-0.4-0.6c-0.9,0-2,2.6-2,3.6
					C48,59,48.2,59.3,48.5,59.3z"/>
				<path class="st0" d="M52.9,57.4c-0.2,0.3-0.6,0-0.4-0.3c0.9-1.5,1.4-2.8,2.4-2.8c0.8,0,1,0.7,0.9,1.4c0,0.2,0.1,0.2,0.2,0.1
					l1.3-1.4c0.2-0.2,0.3-0.2,0.5,0c0.2,0.2,0.2,0.3,0,0.4l-1.9,2c-0.2,0.2-0.3,0.3-0.3,0.6c-0.1,0.5-0.2,1-0.2,1.3
					c0,0.2,0,0.5,0.3,0.5c0.5,0,1.5-1,2.3-2.3c0.2-0.3,0.6,0,0.4,0.3c-0.8,1.4-1.9,2.6-3,2.6c-0.7,0-1-0.5-1-1.2
					c0-0.2-0.1-0.2-0.2-0.1l-0.8,0.8c-0.2,0.2-0.4,0.3-0.7,0.3h0c-0.3,0-0.3-0.1-0.1-0.3l1.9-2c0.2-0.2,0.2-0.3,0.3-0.6
					c0.1-0.6,0.2-1.3,0.2-1.6c0-0.2,0-0.3-0.1-0.3C54.2,55.1,53.5,56.4,52.9,57.4z"/>
			</g>
		</g>
		<circle id="XMLID_63_" class="st0" cx="77.8" cy="39.9" r="1"/>
		<path class="st0" d="M50.5,88.1c0-0.3,0.2-0.5,0.5-0.5l0,0c0.3,0,0.5,0.2,0.5,0.5l0,0c0,0.3-0.2,0.5-0.5,0.5l0,0c0,0,0,0,0,0l0,0
			C50.8,88.6,50.5,88.4,50.5,88.1z M48.5,88.1c0-0.3,0.2-0.5,0.5-0.5l0,0c0.3,0,0.5,0.2,0.5,0.5l0,0c0,0.3-0.3,0.5-0.5,0.5l0,0l0,0
			l0,0C48.7,88.6,48.4,88.4,48.5,88.1z M52.6,88.1c0-0.3,0.2-0.5,0.5-0.6l0,0c0.3,0,0.5,0.2,0.6,0.5l0,0c0,0.3-0.2,0.5-0.5,0.6l0,0
			c0,0,0,0,0,0l0,0C52.9,88.5,52.6,88.3,52.6,88.1z M46.9,88.5c-0.3,0-0.5-0.3-0.5-0.6l0,0c0-0.3,0.3-0.5,0.6-0.5l0,0
			c0.3,0,0.5,0.3,0.5,0.6l0,0C47.4,88.3,47.2,88.5,46.9,88.5L46.9,88.5C46.9,88.5,46.9,88.5,46.9,88.5z M54.7,87.9
			c0-0.3,0.2-0.5,0.4-0.6l0,0c0.3,0,0.5,0.2,0.6,0.4l0,0c0,0.3-0.2,0.5-0.4,0.6l0,0c0,0,0,0-0.1,0l0,0
			C54.9,88.3,54.7,88.1,54.7,87.9z M44.8,88.3L44.8,88.3L44.8,88.3c-0.3,0-0.5-0.3-0.4-0.6l0,0c0-0.3,0.3-0.5,0.6-0.4l0,0
			c0.3,0,0.5,0.3,0.4,0.6l0,0C45.3,88.1,45.1,88.3,44.8,88.3L44.8,88.3C44.8,88.3,44.8,88.3,44.8,88.3z M56.7,87.5
			c-0.1-0.3,0.1-0.6,0.4-0.6l0,0c0.3-0.1,0.6,0.1,0.6,0.4l0,0c0.1,0.3-0.1,0.6-0.4,0.6l0,0c0,0-0.1,0-0.1,0l0,0
			C57,88,56.8,87.8,56.7,87.5z M42.7,87.9C42.7,87.9,42.7,87.9,42.7,87.9L42.7,87.9c-0.3-0.1-0.5-0.3-0.4-0.6l0,0
			c0.1-0.3,0.3-0.5,0.6-0.4l0,0c0.3,0.1,0.5,0.3,0.4,0.6l0,0c0,0.2-0.3,0.4-0.5,0.4l0,0C42.7,88,42.7,87.9,42.7,87.9z M58.8,87.1
			c-0.1-0.3,0.1-0.6,0.4-0.6l0,0c0.3-0.1,0.6,0.1,0.6,0.4l0,0c0.1,0.3-0.1,0.6-0.4,0.6l0,0c0,0-0.1,0-0.1,0l0,0
			C59.1,87.5,58.8,87.4,58.8,87.1z M40.6,87.5c-0.3-0.1-0.4-0.4-0.4-0.6l0,0c0.1-0.3,0.4-0.4,0.6-0.4h0c0.3,0.1,0.4,0.4,0.4,0.6l0,0
			c-0.1,0.2-0.3,0.4-0.5,0.4l0,0C40.7,87.5,40.7,87.5,40.6,87.5z M60.8,86.6c-0.1-0.3,0.1-0.6,0.3-0.7l0,0c0.3-0.1,0.6,0.1,0.6,0.3
			l0,0c0.1,0.3-0.1,0.6-0.3,0.7l0,0c-0.1,0-0.1,0-0.2,0l0,0C61.1,87,60.9,86.8,60.8,86.6z M38.6,86.9L38.6,86.9L38.6,86.9
			c-0.3-0.1-0.4-0.4-0.3-0.6l0,0c0.1-0.3,0.4-0.4,0.6-0.3l0,0c0.3,0.1,0.4,0.4,0.3,0.6l0,0c-0.1,0.2-0.3,0.4-0.5,0.4l0,0
			C38.7,86.9,38.6,86.9,38.6,86.9z M62.8,85.9c-0.1-0.3,0-0.6,0.3-0.7l0,0c0.3-0.1,0.6,0,0.7,0.3l0,0c0.1,0.3,0,0.6-0.3,0.7l0,0l0,0
			l0,0c-0.1,0-0.1,0-0.2,0l0,0C63,86.3,62.8,86.2,62.8,85.9z M36.6,86.2c-0.3-0.1-0.4-0.4-0.3-0.7l0,0c0.1-0.3,0.4-0.4,0.7-0.3l0,0
			c0.3,0.1,0.4,0.4,0.3,0.7l0,0c-0.1,0.2-0.3,0.3-0.5,0.3l0,0C36.7,86.2,36.7,86.2,36.6,86.2z M64.7,85.2c-0.1-0.3,0-0.6,0.3-0.7
			l0,0c0.3-0.1,0.6,0,0.7,0.3l0,0c0.1,0.3,0,0.6-0.3,0.7l0,0c-0.1,0-0.1,0-0.2,0l0,0C65,85.5,64.8,85.4,64.7,85.2z M34.6,85.4
			c-0.3-0.1-0.4-0.4-0.3-0.7l0,0c0.1-0.3,0.4-0.4,0.7-0.3l0,0c0.3,0.1,0.4,0.4,0.3,0.7l0,0c-0.1,0.2-0.3,0.3-0.5,0.3l0,0
			C34.8,85.5,34.7,85.4,34.6,85.4z M66.6,84.3c-0.1-0.3,0-0.6,0.2-0.7l0,0c0.3-0.1,0.6,0,0.7,0.2l0,0c0.1,0.3,0,0.6-0.2,0.7l0,0
			c-0.1,0-0.2,0.1-0.2,0.1l0,0C66.9,84.6,66.7,84.5,66.6,84.3z M32.7,84.5L32.7,84.5L32.7,84.5c-0.3-0.1-0.4-0.4-0.2-0.7l0,0
			c0.1-0.3,0.4-0.4,0.7-0.2l0,0c0.3,0.1,0.4,0.4,0.2,0.7l0,0c-0.1,0.2-0.3,0.3-0.5,0.3l0,0C32.9,84.6,32.8,84.5,32.7,84.5z
			 M68.4,83.4c-0.1-0.3-0.1-0.6,0.2-0.7l0,0c0.3-0.1,0.6-0.1,0.7,0.2l0,0c0.1,0.3,0.1,0.6-0.2,0.7l0,0c-0.1,0-0.2,0.1-0.3,0.1l0,0
			C68.7,83.6,68.5,83.5,68.4,83.4z M30.9,83.5C30.9,83.5,30.9,83.5,30.9,83.5L30.9,83.5c-0.3-0.1-0.3-0.5-0.2-0.7l0,0
			c0.1-0.3,0.5-0.3,0.7-0.2l0,0c0.3,0.1,0.3,0.5,0.2,0.7l0,0c-0.1,0.2-0.3,0.3-0.5,0.3l0,0C31.1,83.6,31,83.5,30.9,83.5z M70.2,82.3
			c-0.2-0.2-0.1-0.6,0.1-0.7l0,0c0.2-0.2,0.6-0.1,0.7,0.2l0,0c0.2,0.2,0.1,0.6-0.1,0.7l0,0l0,0l0,0c-0.1,0.1-0.2,0.1-0.3,0.1l0,0
			C70.5,82.5,70.3,82.5,70.2,82.3z M29.1,82.4L29.1,82.4L29.1,82.4c-0.2-0.2-0.3-0.5-0.1-0.7l0,0c0.2-0.2,0.5-0.3,0.7-0.1l0,0
			c0.2,0.2,0.3,0.5,0.1,0.7l0,0c-0.1,0.2-0.3,0.2-0.4,0.2l0,0C29.3,82.5,29.2,82.4,29.1,82.4z M71.9,81.1c-0.2-0.2-0.1-0.6,0.1-0.7
			l0,0c0.2-0.2,0.6-0.1,0.7,0.1l0,0c0.2,0.2,0.1,0.6-0.1,0.7l0,0c-0.1,0.1-0.2,0.1-0.3,0.1l0,0C72.2,81.4,72.1,81.3,71.9,81.1z
			 M27.4,81.2c-0.2-0.2-0.3-0.5-0.1-0.7l0,0c0.2-0.2,0.5-0.3,0.7-0.1l0,0c0.2,0.2,0.3,0.5,0.1,0.7l0,0c-0.1,0.1-0.3,0.2-0.4,0.2l0,0
			C27.6,81.3,27.5,81.2,27.4,81.2z M73.6,79.9c-0.2-0.2-0.1-0.5,0.1-0.7l0,0c0.2-0.2,0.6-0.2,0.7,0.1l0,0c0.2,0.2,0.1,0.5-0.1,0.7
			l0,0c0,0,0,0,0,0l0,0c-0.1,0.1-0.2,0.1-0.3,0.1l0,0C73.9,80.1,73.7,80,73.6,79.9z M25.7,79.9c-0.2-0.2-0.3-0.5-0.1-0.7l0,0
			c0.2-0.2,0.5-0.3,0.7-0.1l0,0c0.2,0.2,0.3,0.5,0.1,0.7l0,0C26.3,79.9,26.2,80,26,80l0,0C25.9,80,25.8,80,25.7,79.9z M75.2,78.5
			c-0.2-0.2-0.2-0.5,0-0.7l0,0c0.2-0.2,0.5-0.2,0.7,0l0,0c0.2,0.2,0.2,0.5,0,0.7l0,0c-0.1,0.1-0.2,0.1-0.4,0.1l0,0
			C75.4,78.7,75.3,78.7,75.2,78.5z M24.1,78.5c-0.2-0.2-0.2-0.5,0-0.7l0,0c0.2-0.2,0.5-0.2,0.7,0l0,0c0.2,0.2,0.2,0.5,0,0.7l0,0
			c-0.1,0.1-0.2,0.2-0.4,0.2l0,0C24.3,78.6,24.2,78.6,24.1,78.5z M76.7,77.1c-0.2-0.2-0.2-0.5,0-0.7l0,0c0.2-0.2,0.5-0.2,0.7,0l0,0
			c0.2,0.2,0.2,0.5,0,0.7l0,0c-0.1,0.1-0.2,0.2-0.4,0.2l0,0C76.9,77.3,76.8,77.2,76.7,77.1z M22.6,77L22.6,77L22.6,77
			c-0.2-0.2-0.2-0.5,0-0.7l0,0c0.2-0.2,0.5-0.2,0.7,0l0,0c0.2,0.2,0.2,0.5,0,0.7l0,0c-0.1,0.1-0.2,0.1-0.4,0.1l0,0
			C22.8,77.2,22.7,77.1,22.6,77z M78.1,75.6c-0.2-0.2-0.2-0.5,0-0.7l0,0c0.2-0.2,0.5-0.2,0.7-0.1l0,0c0.2,0.2,0.2,0.5,0.1,0.7l0,0
			c-0.1,0.1-0.3,0.2-0.4,0.2l0,0C78.4,75.7,78.2,75.7,78.1,75.6z M21.2,75.5c-0.2-0.2-0.2-0.5,0.1-0.7l0,0c0.2-0.2,0.5-0.2,0.7,0
			l0,0c0.2,0.2,0.2,0.5-0.1,0.7l0,0c-0.1,0.1-0.2,0.1-0.3,0.1l0,0C21.4,75.6,21.3,75.6,21.2,75.5z M79.5,74
			c-0.2-0.2-0.3-0.5-0.1-0.7l0,0c0.2-0.2,0.5-0.3,0.7-0.1l0,0c0.2,0.2,0.3,0.5,0.1,0.7l0,0c-0.1,0.1-0.3,0.2-0.4,0.2l0,0
			C79.7,74.1,79.6,74.1,79.5,74z M19.8,73.8c-0.2-0.2-0.1-0.6,0.1-0.7l0,0c0.2-0.2,0.5-0.1,0.7,0.1l0,0c0.2,0.2,0.1,0.6-0.1,0.7l0,0
			C20.5,74,20.4,74,20.3,74l0,0C20.1,74,19.9,74,19.8,73.8z M80.7,72.4c-0.2-0.2-0.3-0.5-0.1-0.7l0,0c0.2-0.2,0.5-0.3,0.7-0.1l0,0
			c0.2,0.2,0.3,0.5,0.1,0.7l0,0c-0.1,0.1-0.3,0.2-0.4,0.2l0,0C80.9,72.5,80.8,72.4,80.7,72.4z M18.6,72.1L18.6,72.1L18.6,72.1
			c-0.2-0.2-0.1-0.6,0.1-0.7l0,0c0.2-0.2,0.6-0.1,0.7,0.1l0,0c0.2,0.2,0.1,0.6-0.1,0.7l0,0c-0.1,0.1-0.2,0.1-0.3,0.1l0,0
			C18.9,72.3,18.7,72.3,18.6,72.1z M81.9,70.6c-0.2-0.2-0.3-0.5-0.2-0.7l0,0c0.1-0.2,0.5-0.3,0.7-0.2l0,0c0.2,0.1,0.3,0.5,0.2,0.7
			l0,0c-0.1,0.2-0.3,0.2-0.4,0.2l0,0C82.1,70.7,82,70.7,81.9,70.6z M17.4,70.4c-0.2-0.3-0.1-0.6,0.2-0.7l0,0
			c0.2-0.1,0.6-0.1,0.7,0.2l0,0c0.1,0.2,0.1,0.6-0.2,0.7l0,0c-0.1,0.1-0.2,0.1-0.3,0.1l0,0C17.7,70.6,17.5,70.5,17.4,70.4z M83,68.9
			c-0.3-0.1-0.3-0.5-0.2-0.7v0c0.1-0.3,0.5-0.3,0.7-0.2l0,0c0.3,0.1,0.3,0.5,0.2,0.7l0,0c-0.1,0.2-0.3,0.3-0.5,0.3l0,0
			C83.1,68.9,83.1,68.9,83,68.9z M16.4,68.5L16.4,68.5L16.4,68.5c-0.1-0.3,0-0.6,0.2-0.7l0,0c0.3-0.1,0.6,0,0.7,0.2l0,0
			c0.1,0.3,0,0.6-0.2,0.7l0,0c-0.1,0-0.2,0.1-0.3,0.1l0,0C16.7,68.8,16.5,68.7,16.4,68.5z M84,67c-0.3-0.1-0.4-0.4-0.3-0.7l0,0
			c0.1-0.3,0.4-0.4,0.7-0.3l0,0c0.3,0.1,0.4,0.4,0.3,0.7l0,0c-0.1,0.2-0.3,0.3-0.5,0.3l0,0C84.1,67.1,84,67,84,67z M15.5,66.7
			c-0.1-0.3,0-0.6,0.3-0.7l0,0c0.3-0.1,0.6,0,0.7,0.3l0,0c0.1,0.3,0,0.6-0.2,0.7l0,0c-0.1,0-0.1,0.1-0.2,0.1l0,0
			C15.7,67,15.5,66.8,15.5,66.7z M84.8,65.1c-0.3-0.1-0.4-0.4-0.3-0.7l0,0c0.1-0.3,0.4-0.4,0.7-0.3l0,0c0.3,0.1,0.4,0.4,0.3,0.7l0,0
			c-0.1,0.2-0.3,0.3-0.5,0.3l0,0C84.9,65.2,84.9,65.1,84.8,65.1z M14.6,64.7C14.6,64.7,14.6,64.7,14.6,64.7L14.6,64.7
			c-0.1-0.3,0-0.6,0.3-0.7l0,0c0.3-0.1,0.6,0,0.7,0.3l0,0c0.1,0.3,0,0.6-0.3,0.7l0,0c-0.1,0-0.1,0-0.2,0l0,0
			C14.9,65.1,14.7,64.9,14.6,64.7z M85.6,63.2c-0.3-0.1-0.4-0.4-0.3-0.7l0,0c0.1-0.3,0.4-0.4,0.7-0.3l0,0c0.3,0.1,0.4,0.4,0.3,0.7
			l0,0l0,0l0,0c-0.1,0.2-0.3,0.4-0.5,0.4l0,0C85.7,63.2,85.6,63.2,85.6,63.2z M13.9,62.7c-0.1-0.3,0.1-0.6,0.3-0.7l0,0
			c0.3-0.1,0.6,0.1,0.7,0.3l0,0c0.1,0.3-0.1,0.6-0.3,0.7l0,0c-0.1,0-0.1,0-0.2,0l0,0C14.2,63.1,13.9,63,13.9,62.7z M86.2,61.2
			c-0.3-0.1-0.4-0.4-0.4-0.6l0,0c0.1-0.3,0.4-0.4,0.6-0.4l0,0c0.3,0.1,0.4,0.4,0.4,0.6l0,0c-0.1,0.2-0.3,0.4-0.5,0.4l0,0
			C86.3,61.2,86.3,61.2,86.2,61.2z M13.3,60.7c-0.1-0.3,0.1-0.6,0.4-0.6l0,0c0.3-0.1,0.6,0.1,0.6,0.4l0,0c0.1,0.3-0.1,0.6-0.4,0.6
			l0,0c0,0-0.1,0-0.1,0l0,0C13.5,61.1,13.3,61,13.3,60.7z M86.8,59.2c-0.3-0.1-0.5-0.3-0.4-0.6l0,0c0.1-0.3,0.3-0.5,0.6-0.4l0,0
			c0.3,0.1,0.5,0.3,0.4,0.6l0,0c-0.1,0.2-0.3,0.4-0.5,0.4l0,0C86.8,59.2,86.8,59.2,86.8,59.2z M12.7,58.7c-0.1-0.3,0.1-0.6,0.4-0.6
			l0,0c0.3-0.1,0.6,0.1,0.6,0.4l0,0c0.1,0.3-0.1,0.6-0.4,0.6l0,0c0,0-0.1,0-0.1,0l0,0C13,59.1,12.8,58.9,12.7,58.7z M87.2,57.2
			c-0.3,0-0.5-0.3-0.4-0.6v0c0-0.3,0.3-0.5,0.6-0.4l0,0c0.3,0,0.5,0.3,0.4,0.6l0,0c0,0,0,0,0,0l0,0C87.7,57,87.5,57.2,87.2,57.2
			L87.2,57.2C87.2,57.2,87.2,57.2,87.2,57.2z M12.3,56.6c0-0.3,0.1-0.5,0.4-0.6l0,0c0.3,0,0.6,0.1,0.6,0.4l0,0
			c0,0.3-0.1,0.5-0.4,0.6l0,0c0,0-0.1,0-0.1,0l0,0C12.6,57.1,12.4,56.9,12.3,56.6z M87.5,55.1c-0.3,0-0.5-0.3-0.5-0.6l0,0
			c0-0.3,0.3-0.5,0.6-0.5l0,0c0.3,0,0.5,0.3,0.5,0.6l0,0l0,0l0,0C88,54.9,87.8,55.1,87.5,55.1L87.5,55.1
			C87.5,55.1,87.5,55.1,87.5,55.1z M12.1,54.5c0-0.3,0.2-0.5,0.5-0.6l0,0c0.3,0,0.5,0.2,0.6,0.5l0,0c0,0.3-0.2,0.5-0.5,0.6l0,0
			c0,0,0,0-0.1,0l0,0C12.3,55,12.1,54.8,12.1,54.5z M87.7,53c-0.3,0-0.5-0.3-0.5-0.5l0,0c0-0.3,0.3-0.5,0.5-0.5l0,0
			c0.3,0,0.5,0.3,0.5,0.5l0,0C88.2,52.8,88,53,87.7,53L87.7,53C87.7,53,87.7,53,87.7,53z M11.9,52.4C11.9,52.4,11.9,52.4,11.9,52.4
			L11.9,52.4c0-0.3,0.2-0.5,0.5-0.5l0,0c0.3,0,0.5,0.2,0.5,0.5l0,0c0,0.3-0.2,0.5-0.5,0.5l0,0c0,0,0,0,0,0l0,0
			C12.1,52.9,11.9,52.7,11.9,52.4z M87.3,50.4c0-0.3,0.2-0.5,0.5-0.5l0,0c0.3,0,0.5,0.2,0.5,0.5l0,0l0,0l0,0c0,0.3-0.2,0.5-0.5,0.5
			l0,0C87.5,50.9,87.3,50.7,87.3,50.4z M12.4,50.8c-0.3,0-0.5-0.2-0.5-0.5l0,0c0-0.3,0.2-0.5,0.5-0.5l0,0c0.3,0,0.5,0.2,0.5,0.5l0,0
			C12.9,50.6,12.6,50.8,12.4,50.8L12.4,50.8C12.4,50.8,12.4,50.8,12.4,50.8z M87.2,48.6c0-0.3,0.2-0.5,0.5-0.5l0,0
			c0.3,0,0.5,0.2,0.5,0.5l0,0c0,0.3-0.2,0.5-0.5,0.5l0,0c0,0,0,0,0,0l0,0C87.5,49.1,87.2,48.9,87.2,48.6z M12.4,48.8
			c-0.3,0-0.5-0.3-0.5-0.5l0,0c0-0.3,0.3-0.5,0.5-0.5l0,0c0.3,0,0.5,0.3,0.5,0.5l0,0C12.9,48.5,12.7,48.8,12.4,48.8L12.4,48.8
			C12.4,48.8,12.4,48.8,12.4,48.8z M87.1,46.5L87.1,46.5c0-0.3,0.2-0.5,0.5-0.6l0,0c0.3,0,0.5,0.2,0.6,0.5l0,0
			c0,0.3-0.2,0.5-0.5,0.6l0,0c0,0,0,0-0.1,0l0,0C87.3,47,87.1,46.8,87.1,46.5z M12.5,46.7c-0.3,0-0.5-0.3-0.5-0.6l0,0
			c0-0.3,0.3-0.5,0.6-0.5l0,0c0.3,0,0.5,0.3,0.5,0.6l0,0C13.1,46.5,12.9,46.7,12.5,46.7L12.5,46.7C12.6,46.7,12.6,46.7,12.5,46.7z
			 M86.8,44.5c0-0.3,0.1-0.5,0.4-0.6l0,0c0.3,0,0.5,0.1,0.6,0.4l0,0c0,0.3-0.1,0.6-0.4,0.6l0,0c0,0-0.1,0-0.1,0l0,0
			C87.1,44.9,86.8,44.8,86.8,44.5z M12.8,44.6c-0.3,0-0.5-0.3-0.4-0.6l0,0c0-0.3,0.3-0.5,0.6-0.4l0,0c0.3,0,0.5,0.3,0.4,0.6l0,0
			C13.4,44.4,13.1,44.6,12.8,44.6L12.8,44.6C12.9,44.6,12.8,44.6,12.8,44.6z M86.4,42.5c-0.1-0.3,0.1-0.6,0.4-0.6l0,0
			c0.3-0.1,0.6,0.1,0.6,0.4l0,0c0,0,0,0,0,0l0,0c0.1,0.3-0.1,0.6-0.4,0.6l0,0c0,0-0.1,0-0.1,0l0,0C86.7,42.9,86.5,42.7,86.4,42.5z
			 M13.2,42.6c-0.3-0.1-0.5-0.3-0.4-0.6l0,0c0.1-0.3,0.3-0.5,0.6-0.4l0,0c0.3,0.1,0.5,0.3,0.4,0.6l0,0c-0.1,0.2-0.3,0.4-0.5,0.4l0,0
			C13.3,42.6,13.2,42.6,13.2,42.6z M85.9,40.5L85.9,40.5c-0.1-0.3,0.1-0.6,0.4-0.6l0,0c0.3-0.1,0.6,0.1,0.6,0.4l0,0l0,0l0,0
			c0.1,0.3-0.1,0.6-0.4,0.6l0,0c0,0-0.1,0-0.1,0l0,0C86.2,40.9,86,40.7,85.9,40.5z M13.7,40.5c-0.3-0.1-0.4-0.4-0.4-0.6l0,0
			c0.1-0.3,0.4-0.4,0.6-0.4l0,0c0.3,0.1,0.4,0.4,0.4,0.6l0,0c-0.1,0.2-0.3,0.4-0.5,0.4l0,0C13.8,40.6,13.7,40.6,13.7,40.5z
			 M85.3,38.5L85.3,38.5c-0.1-0.3,0.1-0.6,0.3-0.7l0,0c0.3-0.1,0.6,0.1,0.7,0.3l0,0l0,0l0,0c0.1,0.3-0.1,0.6-0.3,0.7l0,0
			c-0.1,0-0.1,0-0.2,0l0,0C85.6,38.9,85.4,38.8,85.3,38.5z M14.3,38.6c-0.3-0.1-0.4-0.4-0.3-0.7l0,0c0.1-0.3,0.4-0.4,0.7-0.3l0,0
			c0.3,0.1,0.4,0.4,0.3,0.7l0,0c-0.1,0.2-0.3,0.3-0.5,0.3l0,0C14.4,38.6,14.3,38.6,14.3,38.6z M84.6,36.6L84.6,36.6
			c-0.1-0.3,0-0.6,0.3-0.7l0,0c0.3-0.1,0.6,0,0.7,0.3l0,0c0.1,0.3,0,0.6-0.3,0.7l0,0c-0.1,0-0.1,0-0.2,0l0,0
			C84.9,36.9,84.7,36.8,84.6,36.6z M15,36.6c-0.3-0.1-0.4-0.4-0.3-0.7l0,0l0,0l0,0c0.1-0.3,0.4-0.4,0.7-0.3l0,0
			c0.3,0.1,0.4,0.4,0.3,0.7l0,0c-0.1,0.2-0.3,0.3-0.5,0.3l0,0C15.1,36.6,15,36.6,15,36.6z M83.8,34.7c-0.1-0.3,0-0.6,0.3-0.7l0,0
			c0.3-0.1,0.6,0,0.7,0.3l0,0l0,0l0,0c0.1,0.3,0,0.6-0.3,0.7l0,0c-0.1,0-0.1,0-0.2,0l0,0C84.1,35,83.9,34.9,83.8,34.7z M15.8,34.7
			c-0.3-0.1-0.4-0.4-0.2-0.7l0,0l0,0l0,0c0.1-0.3,0.4-0.4,0.7-0.2l0,0c0.3,0.1,0.4,0.4,0.2,0.7l0,0c-0.1,0.2-0.3,0.3-0.5,0.3l0,0
			C15.9,34.7,15.9,34.7,15.8,34.7z M82.9,32.9L82.9,32.9c-0.1-0.3,0-0.6,0.2-0.7l0,0c0.3-0.1,0.6,0,0.7,0.2l0,0
			c0.1,0.3,0,0.6-0.2,0.7l0,0c-0.1,0-0.2,0.1-0.2,0.1l0,0C83.2,33.2,83,33.1,82.9,32.9z M16.7,32.8c-0.3-0.1-0.3-0.5-0.2-0.7l0,0
			c0.1-0.3,0.5-0.3,0.7-0.2l0,0c0.3,0.1,0.3,0.5,0.2,0.7l0,0c-0.1,0.2-0.3,0.3-0.5,0.3l0,0C16.9,32.9,16.8,32.9,16.7,32.8z
			 M81.9,31.1c-0.1-0.2-0.1-0.6,0.2-0.7l0,0c0.2-0.2,0.6-0.1,0.7,0.2l0,0c0.1,0.2,0.1,0.6-0.2,0.7l0,0c-0.1,0.1-0.2,0.1-0.3,0.1l0,0
			C82.1,31.4,82,31.3,81.9,31.1z M17.7,31c-0.2-0.1-0.3-0.5-0.2-0.7l0,0c0.2-0.2,0.5-0.3,0.7-0.2l0,0c0.2,0.1,0.3,0.5,0.2,0.7l0,0
			c-0.1,0.2-0.3,0.2-0.4,0.2l0,0C17.9,31.1,17.8,31.1,17.7,31z M80.7,29.4c-0.2-0.2-0.1-0.6,0.1-0.7l0,0c0.2-0.2,0.6-0.1,0.7,0.1
			l0,0c0.2,0.2,0.1,0.6-0.1,0.7l0,0c-0.1,0.1-0.2,0.1-0.3,0.1l0,0C81,29.6,80.8,29.6,80.7,29.4z M18.9,29.2
			c-0.2-0.2-0.3-0.5-0.1-0.7l0,0c0.2-0.2,0.5-0.3,0.7-0.1l0,0c0.2,0.2,0.3,0.5,0.1,0.7l0,0c-0.1,0.1-0.3,0.2-0.4,0.2l0,0
			C19.1,29.3,19,29.3,18.9,29.2z M79.5,27.7c-0.2-0.2-0.1-0.6,0.1-0.7l0,0c0.2-0.2,0.5-0.1,0.7,0.1l0,0c0.2,0.2,0.1,0.6-0.1,0.7l0,0
			c-0.1,0.1-0.2,0.1-0.3,0.1l0,0C79.8,27.9,79.6,27.9,79.5,27.7z M20.1,27.6c-0.2-0.2-0.3-0.5-0.1-0.7l0,0l0,0l0,0
			c0.2-0.2,0.5-0.3,0.7-0.1l0,0c0.2,0.2,0.3,0.5,0.1,0.7l0,0c-0.1,0.1-0.3,0.2-0.4,0.2l0,0C20.3,27.7,20.2,27.6,20.1,27.6z
			 M78.2,26.2c-0.2-0.2-0.2-0.5,0.1-0.7l0,0c0.2-0.2,0.5-0.2,0.7,0.1l0,0c0.2,0.2,0.2,0.5-0.1,0.7l0,0c-0.1,0.1-0.2,0.1-0.3,0.1l0,0
			C78.5,26.3,78.4,26.3,78.2,26.2z M21.4,25.9c-0.2-0.2-0.2-0.5,0-0.7l0,0c0.2-0.2,0.5-0.2,0.7,0l0,0c0.2,0.2,0.2,0.5,0,0.7l0,0
			c-0.1,0.1-0.3,0.2-0.4,0.2l0,0C21.6,26.1,21.5,26,21.4,25.9z M76.9,24.6L76.9,24.6c-0.2-0.2-0.2-0.5,0-0.7l0,0
			c0.2-0.2,0.5-0.2,0.7,0l0,0l0,0l0,0c0.2,0.2,0.2,0.5,0,0.7l0,0c-0.1,0.1-0.2,0.1-0.4,0.1l0,0C77.1,24.8,77,24.7,76.9,24.6z
			 M22.8,24.4c-0.2-0.2-0.2-0.5,0-0.7l0,0c0.2-0.2,0.5-0.2,0.7,0l0,0c0.2,0.2,0.2,0.5,0,0.7l0,0c-0.1,0.1-0.2,0.2-0.4,0.2l0,0
			C23,24.5,22.9,24.5,22.8,24.4z M75.4,23.2c-0.2-0.2-0.2-0.5,0-0.7l0,0c0.2-0.2,0.5-0.2,0.7,0l0,0l0,0l0,0c0.2,0.2,0.2,0.5,0,0.7
			l0,0c-0.1,0.1-0.2,0.2-0.4,0.2l0,0C75.6,23.3,75.5,23.3,75.4,23.2z M24.3,22.9c-0.2-0.2-0.2-0.5,0-0.7l0,0c0.2-0.2,0.5-0.2,0.7,0
			l0,0c0.2,0.2,0.2,0.5,0,0.7l0,0c-0.1,0.1-0.2,0.1-0.4,0.1l0,0C24.5,23.1,24.4,23,24.3,22.9z M73.9,21.8L73.9,21.8
			c-0.2-0.2-0.2-0.5-0.1-0.7l0,0c0.2-0.2,0.5-0.3,0.7-0.1l0,0c0.2,0.2,0.3,0.5,0.1,0.7l0,0c-0.1,0.1-0.3,0.2-0.4,0.2l0,0
			C74.1,22,74,21.9,73.9,21.8z M25.8,21.6c-0.2-0.2-0.1-0.5,0.1-0.7l0,0c0,0,0,0,0,0l0,0c0.2-0.2,0.5-0.1,0.7,0.1l0,0
			c0.2,0.2,0.1,0.5-0.1,0.7l0,0c-0.1,0.1-0.2,0.1-0.3,0.1l0,0C26.1,21.7,25.9,21.7,25.8,21.6z M72.3,20.6c-0.2-0.2-0.3-0.5-0.1-0.7
			l0,0c0.2-0.2,0.5-0.3,0.7-0.1l0,0c0.2,0.2,0.3,0.5,0.1,0.7l0,0c-0.1,0.1-0.3,0.2-0.4,0.2l0,0C72.5,20.7,72.3,20.6,72.3,20.6z
			 M27.4,20.3c-0.2-0.2-0.1-0.6,0.1-0.7l0,0c0.2-0.2,0.6-0.1,0.7,0.1l0,0c0.2,0.2,0.1,0.6-0.1,0.7l0,0c-0.1,0.1-0.2,0.1-0.3,0.1l0,0
			C27.7,20.5,27.5,20.4,27.4,20.3z M70.6,19.4c-0.2-0.2-0.3-0.5-0.1-0.7l0,0c0.2-0.2,0.5-0.3,0.7-0.1l0,0c0.2,0.2,0.3,0.5,0.1,0.7
			l0,0c-0.1,0.1-0.3,0.2-0.4,0.2l0,0C70.8,19.5,70.7,19.5,70.6,19.4z M29.1,19.1c-0.2-0.2-0.1-0.6,0.1-0.7l0,0
			c0.2-0.2,0.6-0.1,0.7,0.2l0,0c0.2,0.2,0.1,0.6-0.2,0.7l0,0c-0.1,0.1-0.2,0.1-0.3,0.1l0,0C29.4,19.3,29.2,19.2,29.1,19.1z
			 M68.8,18.3c-0.3-0.1-0.3-0.5-0.2-0.7l0,0c0.1-0.3,0.5-0.3,0.7-0.2l0,0l0,0l0,0c0.2,0.1,0.3,0.5,0.2,0.7l0,0
			c-0.1,0.2-0.3,0.3-0.5,0.3l0,0C69,18.4,68.9,18.4,68.8,18.3z M30.9,17.9c-0.1-0.2-0.1-0.6,0.2-0.7l0,0c0.3-0.1,0.6-0.1,0.7,0.2
			l0,0c0.1,0.3,0.1,0.6-0.2,0.7l0,0c-0.1,0-0.2,0.1-0.3,0.1l0,0C31.2,18.2,31,18.1,30.9,17.9z M67,17.3c-0.3-0.1-0.4-0.4-0.2-0.7
			l0,0c0.1-0.3,0.4-0.4,0.7-0.2l0,0c0.3,0.1,0.4,0.4,0.2,0.7l0,0c-0.1,0.2-0.3,0.3-0.5,0.3l0,0C67.2,17.4,67.1,17.4,67,17.3z
			 M32.7,16.9c-0.1-0.3,0-0.6,0.2-0.7l0,0c0.3-0.1,0.6,0,0.7,0.2l0,0c0.1,0.3,0,0.6-0.2,0.7l0,0c-0.1,0-0.2,0.1-0.2,0.1l0,0
			C33,17.2,32.8,17.1,32.7,16.9z M65.2,16.4c-0.3-0.1-0.4-0.4-0.3-0.7l0,0c0.1-0.3,0.4-0.4,0.7-0.3l0,0c0.3,0.1,0.4,0.4,0.3,0.7l0,0
			c-0.1,0.2-0.3,0.3-0.5,0.3l0,0C65.3,16.5,65.2,16.5,65.2,16.4z M34.6,16c-0.1-0.3,0-0.6,0.3-0.7l0,0c0,0,0,0,0,0l0,0
			c0.3-0.1,0.6,0,0.7,0.3l0,0c0.1,0.3,0,0.6-0.3,0.7l0,0c-0.1,0-0.1,0-0.2,0l0,0C34.9,16.3,34.7,16.2,34.6,16z M63.3,15.7
			C63,15.5,62.9,15.2,63,15l0,0c0.1-0.3,0.4-0.4,0.7-0.3l0,0c0.3,0.1,0.4,0.4,0.3,0.7l0,0c-0.1,0.2-0.3,0.3-0.5,0.3l0,0
			C63.4,15.7,63.3,15.7,63.3,15.7z M36.5,15.2c-0.1-0.3,0-0.6,0.3-0.7l0,0c0.3-0.1,0.6,0,0.7,0.3l0,0c0.1,0.3,0,0.6-0.3,0.7l0,0
			c-0.1,0-0.1,0-0.2,0l0,0C36.8,15.6,36.6,15.4,36.5,15.2z M61.3,15L61.3,15c-0.3-0.1-0.4-0.4-0.3-0.7l0,0c0.1-0.3,0.4-0.4,0.6-0.3
			l0,0c0.3,0.1,0.4,0.4,0.3,0.7l0,0c-0.1,0.2-0.3,0.4-0.5,0.4l0,0C61.4,15,61.4,15,61.3,15z M38.5,14.5c-0.1-0.3,0.1-0.6,0.3-0.6
			l0,0c0.3-0.1,0.6,0.1,0.6,0.3l0,0c0.1,0.3-0.1,0.6-0.3,0.6l0,0c0,0-0.1,0-0.1,0l0,0C38.7,14.9,38.5,14.8,38.5,14.5z M59.4,14.4
			c-0.3-0.1-0.4-0.4-0.4-0.6l0,0c0.1-0.3,0.4-0.4,0.6-0.4l0,0c0.3,0.1,0.4,0.4,0.4,0.6l0,0c-0.1,0.2-0.3,0.4-0.5,0.4l0,0
			C59.4,14.4,59.4,14.4,59.4,14.4z M40.5,14c-0.1-0.3,0.1-0.6,0.4-0.6l0,0l0,0l0,0c0.3-0.1,0.6,0.1,0.6,0.4l0,0
			c0.1,0.3-0.1,0.6-0.4,0.6l0,0c0,0-0.1,0-0.1,0l0,0C40.7,14.3,40.5,14.2,40.5,14z M57.4,14L57.4,14c-0.3-0.1-0.5-0.3-0.4-0.6l0,0
			c0.1-0.3,0.3-0.5,0.6-0.4l0,0c0.3,0.1,0.5,0.3,0.4,0.6l0,0c0,0.3-0.3,0.4-0.5,0.4l0,0C57.4,14,57.4,14,57.4,14z M42.5,13.5
			c-0.1-0.3,0.1-0.6,0.4-0.6l0,0c0.3-0.1,0.6,0.1,0.6,0.4l0,0c0.1,0.3-0.1,0.6-0.4,0.6v0c0,0-0.1,0-0.1,0l0,0
			C42.7,13.9,42.5,13.7,42.5,13.5z M55.3,13.6c-0.3,0-0.5-0.3-0.4-0.6l0,0c0-0.3,0.3-0.5,0.6-0.4l0,0c0.3,0,0.5,0.3,0.4,0.6l0,0
			C55.9,13.4,55.7,13.6,55.3,13.6L55.3,13.6C55.4,13.6,55.4,13.6,55.3,13.6z M44.5,13.1c0-0.3,0.2-0.5,0.4-0.6l0,0c0,0,0,0,0,0l0,0
			c0.3,0,0.5,0.2,0.6,0.4l0,0c0,0.3-0.2,0.5-0.4,0.6l0,0c0,0,0,0-0.1,0l0,0C44.8,13.6,44.6,13.4,44.5,13.1z M53.3,13.4
			c-0.3,0-0.5-0.3-0.5-0.6l0,0c0-0.3,0.3-0.5,0.6-0.5l0,0l0,0l0,0c0.3,0,0.5,0.3,0.5,0.6l0,0C53.8,13.2,53.6,13.4,53.3,13.4
			L53.3,13.4C53.3,13.4,53.3,13.4,53.3,13.4z M46.6,12.9c0-0.3,0.2-0.5,0.5-0.6l0,0c0.3,0,0.5,0.2,0.6,0.5l0,0
			c0,0.3-0.2,0.5-0.5,0.6l0,0c0,0,0,0,0,0l0,0C46.8,13.4,46.6,13.1,46.6,12.9z M51.3,13.3c-0.3,0-0.5-0.3-0.5-0.5l0,0
			c0-0.3,0.3-0.5,0.5-0.5l0,0c0.3,0,0.5,0.3,0.5,0.5l0,0C51.8,13,51.5,13.3,51.3,13.3L51.3,13.3L51.3,13.3z M48.7,12.7
			c0-0.3,0.2-0.5,0.5-0.5l0,0c0.3,0,0.5,0.2,0.5,0.5l0,0c0,0.3-0.2,0.5-0.5,0.5l0,0c0,0,0,0,0,0l0,0C48.9,13.3,48.7,13,48.7,12.7z"
			/>
		<g>
			<path class="st0" d="M19.1,52.5c1.8-0.3,3.3,0.9,3.6,2.6c0.2,1.3-0.4,2.2-1,2.7l-0.7-1c0.4-0.3,0.7-0.9,0.6-1.5
				c-0.2-1.1-1.1-1.7-2.3-1.5c-1.1,0.2-1.8,1.1-1.6,2.2c0.1,0.6,0.6,1.1,1.1,1.2l-0.3,1.2c-0.8-0.3-1.6-0.9-1.9-2.2
				C16.3,54.4,17.3,52.9,19.1,52.5z"/>
			<path class="st0" d="M19.4,64.7l1.5-1.9l-0.4-0.9l-1.9,0.9L18,61.6l5.5-2.4l1.1,2.6c0.5,1.1,0.1,2.2-1,2.6c-1,0.4-1.8,0-2.2-0.5
				L20,66L19.4,64.7z M23.1,63.2c0.5-0.2,0.6-0.7,0.4-1.1L23,60.8l-1.5,0.6l0.5,1.2C22.3,63.1,22.7,63.4,23.1,63.2z"/>
			<path class="st0" d="M24.1,72l0.6-0.9l-1.6-2l-1,0.3l-0.9-1.2l6.2-1.8l1,1.3L25,73.2L24.1,72z M26.8,67.9l-2.6,0.8l1.1,1.5
				L26.8,67.9z"/>
			<path class="st0" d="M27,75.1l3.8-4.6l3.3,2.7L33.4,74l-2.3-1.9l-0.8,1l2.2,1.8l-0.7,0.9L29.6,74L28,75.9L27,75.1z"/>
			<path class="st0" d="M34.1,80.1l2.2-4.3L34.8,75l0.5-1l4.3,2.2l-0.5,1l-1.6-0.8l-2.2,4.3L34.1,80.1z"/>
			<path class="st0" d="M39.4,81.6l0.9-0.8c0.3,0.5,0.8,1,1.6,1.3c0.7,0.2,1.1-0.1,1.2-0.4c0.3-1-3.3-1.2-2.7-3.4
				c0.2-1,1.3-1.6,2.7-1.2c0.9,0.2,1.6,0.7,2.1,1.4l-0.9,0.7c-0.4-0.6-0.9-0.9-1.5-1.1c-0.5-0.1-0.9,0-1,0.4
				c-0.2,0.9,3.3,1.2,2.7,3.3c-0.3,1.1-1.2,1.7-2.8,1.3C40.5,82.8,39.8,82.2,39.4,81.6z"/>
			<path class="st0" d="M52.4,84l0-4.2L50.7,84l-0.6,0l-1.7-4.2l0,4.2l-1.3,0l-0.1-6l1.8,0l1.5,3.6l1.4-3.6l1.8,0l0.1,6L52.4,84z"/>
			<path class="st0" d="M61.2,82.2l-0.6-0.9l-2.5,0.7L58,83.2l-1.4,0.4l0.5-6.4l1.5-0.4l3.9,5.1L61.2,82.2z M58.2,78.2l-0.2,2.7
				l1.8-0.5L58.2,78.2z"/>
			<path class="st0" d="M68.7,78.5l-4.5-1.9l2,3.3l-1.1,0.7l-3.1-5.1l1.1-0.7l4.3,1.8l-1.9-3.2l1.1-0.7l3.1,5.1L68.7,78.5z"/>
			<path class="st0" d="M71.6,75.4l-0.2-1.2c0.6,0,1.3-0.2,1.9-0.8c0.5-0.5,0.5-1,0.3-1.2c-0.7-0.8-2.7,2.2-4.3,0.6
				c-0.7-0.7-0.7-1.9,0.3-2.9c0.7-0.7,1.4-1,2.2-1.1L72,70c-0.7,0-1.3,0.3-1.7,0.8c-0.4,0.4-0.4,0.8-0.2,1c0.7,0.7,2.7-2.2,4.2-0.6
				c0.8,0.8,0.8,1.9-0.3,3.1C73.2,75.1,72.4,75.4,71.6,75.4z"/>
			<path class="st0" d="M79.8,66.5l-2.1-1.3l-1.5,2.4l2.1,1.3L77.7,70l-5.1-3.1l0.7-1.1l2,1.2l1.5-2.4l-2-1.2l0.7-1.1l5.1,3.1
				L79.8,66.5z"/>
			<path class="st0" d="M81.7,62.4l-5.6-2.1l0.4-1.2l5.6,2.1L81.7,62.4z"/>
			<path class="st0" d="M83.1,58.1l-5.9-1l0.5-2.8c0.2-1.3,1.2-1.8,2.2-1.7c1,0.2,1.8,1,1.6,2.3l-0.3,1.5l2.1,0.4L83.1,58.1z
				 M79.7,54c-0.5-0.1-0.9,0.2-0.9,0.7L78.5,56l1.6,0.3l0.2-1.3C80.4,54.5,80.2,54.1,79.7,54z"/>
		</g>
		<g>
			<path class="st0" d="M29.2,29.6c-1.1-1.4-1-3.2,0.4-4.3c1.4-1.1,3.1-0.8,4.3,0.6c0.6,0.7,0.8,1.5,0.7,2.2l0.8,0.1l-0.1,0.7
				l-0.8-0.1c-0.2,0.5-0.5,1-1,1.4C32,31.3,30.3,31,29.2,29.6z M33.7,28.7l-1.2-0.2l0.1-0.7l1.2,0.2c0-0.6-0.2-1.1-0.6-1.7
				C32.3,25.3,31,25,30,25.9c-1,0.8-1.1,2.2-0.2,3.3c0.9,1.1,2.2,1.4,3.2,0.5C33.3,29.4,33.6,29.1,33.7,28.7z"/>
			<path class="st0" d="M36.6,25.1l-1.4-3.4l0.7-0.3l1.4,3.4c0.4,1,1.2,1.4,2.3,1c1-0.4,1.3-1.3,0.9-2.3L39,20.1l0.7-0.3l1.4,3.4
				c0.6,1.4,0.2,2.6-1.3,3.2C38.3,27,37.2,26.4,36.6,25.1z"/>
			<path class="st0" d="M48.3,24.2l-0.7-1.2l-2.9,0.4l-0.3,1.4l-0.8,0.1l1.5-6.3l0.9-0.1l3.2,5.6L48.3,24.2z M45.6,19.3l-0.8,3.4
				l2.5-0.4L45.6,19.3z"/>
			<path class="st0" d="M51,24.2l0.5-6l0.7,0.1l-0.5,5.3l2.8,0.3l-0.1,0.7L51,24.2z"/>
			<path class="st0" d="M56.6,25l1.5-5.8l0.7,0.2l-1.5,5.8L56.6,25z"/>
			<path class="st0" d="M61,26.5l2.3-4.8l-1.7-0.8l0.3-0.6l4.1,1.9l-0.3,0.6L64,22l-2.3,4.8L61,26.5z"/>
			<path class="st0" d="M66.5,29.8l1.6-2l0.3-4.2l0.7,0.5l-0.3,3.3l3.2-1l0.7,0.5l-4,1.2l-1.6,2L66.5,29.8z"/>
		</g>
		<path class="st0" d="M50.1,73.6c-12.7,0-23-10.3-23-23s10.3-23,23-23c12.7,0,23,10.3,23,23S62.7,73.6,50.1,73.6z M50.1,28.6
			c-12.1,0-22,9.9-22,22c0,12.1,9.9,22,22,22c12.1,0,22-9.9,22-22C72.1,38.4,62.2,28.6,50.1,28.6z"/>
		<g>
			<path class="st0" d="M58.6,55.5h-0.3v-0.1h0.8v0.1h-0.3v0.8h-0.1V55.5z M59.3,55.3h0.2l0.4,0.5l0.3-0.5h0.1v1h-0.1v-0.8l-0.4,0.5
				h0l-0.3-0.5v0.8h-0.1V55.3z"/>
		</g>
	</g>
</g>
</svg>
