<?xml version="1.0" encoding="utf-8"?>
<!-- Generator: Adobe Illustrator 19.1.0, SVG Export Plug-In . SVG Version: 6.00 Build 0)  -->
<!DOCTYPE svg PUBLIC "-//W3C//DTD SVG 1.1//EN" "http://www.w3.org/Graphics/SVG/1.1/DTD/svg11.dtd">
<svg version="1.1" id="Layer_1" xmlns="http://www.w3.org/2000/svg" xmlns:xlink="http://www.w3.org/1999/xlink" x="0px" y="0px"
	 viewBox="0 0 100 100" style="enable-background:new 0 0 100 100;" xml:space="preserve">
<style type="text/css">
	.st0{fill:#F26B21;}
</style>
<g id="XMLID_71_">
	<path class="st0" d="M50.4,88.1c0-0.3,0.2-0.5,0.5-0.5l0,0c0.3,0,0.5,0.2,0.5,0.5l0,0c0,0.3-0.2,0.5-0.5,0.5l0,0h0l0,0
		C50.7,88.6,50.4,88.4,50.4,88.1z M48.4,88.1c0-0.3,0.2-0.5,0.5-0.5l0,0c0.3,0,0.5,0.2,0.5,0.5l0,0c0,0.3-0.2,0.5-0.5,0.5l0,0l0,0
		l0,0C48.6,88.6,48.3,88.4,48.4,88.1z M52.5,88c0-0.3,0.2-0.5,0.5-0.6l0,0c0.3,0,0.5,0.2,0.6,0.5l0,0c0,0.3-0.2,0.5-0.5,0.6l0,0
		c0,0,0,0,0,0l0,0C52.8,88.5,52.5,88.3,52.5,88z M46.8,88.5c-0.3,0-0.5-0.3-0.5-0.6l0,0c0-0.3,0.3-0.5,0.6-0.5l0,0
		c0.3,0,0.5,0.3,0.5,0.6l0,0C47.3,88.3,47.1,88.5,46.8,88.5L46.8,88.5C46.8,88.5,46.8,88.5,46.8,88.5z M54.6,87.8
		c0-0.3,0.2-0.5,0.4-0.6l0,0c0.3,0,0.5,0.2,0.6,0.4l0,0c0,0.3-0.2,0.5-0.4,0.6l0,0h0l0,0c0,0,0,0-0.1,0l0,0
		C54.8,88.3,54.6,88.1,54.6,87.8z M44.7,88.3c-0.3,0-0.5-0.3-0.4-0.6l0,0c0-0.3,0.3-0.5,0.6-0.4l0,0c0.3,0,0.5,0.3,0.4,0.6l0,0
		C45.2,88.1,45,88.3,44.7,88.3L44.7,88.3C44.7,88.3,44.7,88.3,44.7,88.3z M56.6,87.5c-0.1-0.3,0.1-0.6,0.4-0.6l0,0
		c0.3-0.1,0.6,0.1,0.6,0.4l0,0c0.1,0.3-0.1,0.6-0.4,0.6l0,0c0,0-0.1,0-0.1,0l0,0C56.9,87.9,56.7,87.8,56.6,87.5z M42.6,87.9
		c-0.3-0.1-0.5-0.3-0.4-0.6l0,0c0.1-0.3,0.3-0.5,0.6-0.4l0,0c0.3,0.1,0.5,0.3,0.4,0.6l0,0C43.1,87.7,42.9,87.9,42.6,87.9L42.6,87.9
		C42.6,87.9,42.6,87.9,42.6,87.9z M58.7,87.1c-0.1-0.3,0.1-0.6,0.4-0.6l0,0c0.3-0.1,0.6,0.1,0.6,0.4l0,0c0.1,0.3-0.1,0.6-0.4,0.6
		l0,0c0,0-0.1,0-0.1,0l0,0C58.9,87.5,58.7,87.3,58.7,87.1z M40.5,87.5C40.5,87.5,40.5,87.5,40.5,87.5L40.5,87.5
		c-0.3-0.1-0.4-0.4-0.4-0.6l0,0c0.1-0.3,0.4-0.4,0.6-0.4l0,0c0.3,0.1,0.4,0.4,0.4,0.6l0,0c-0.1,0.2-0.3,0.4-0.5,0.4l0,0
		C40.6,87.5,40.6,87.5,40.5,87.5z M60.7,86.6c-0.1-0.3,0.1-0.6,0.3-0.7l0,0c0.3-0.1,0.6,0.1,0.6,0.3l0,0c0.1,0.3-0.1,0.6-0.3,0.7
		l0,0c-0.1,0-0.1,0-0.2,0l0,0C61,86.9,60.8,86.8,60.7,86.6z M38.5,86.9c-0.3-0.1-0.4-0.4-0.3-0.7l0,0c0.1-0.3,0.4-0.4,0.6-0.3l0,0
		c0.3,0.1,0.4,0.4,0.3,0.7l0,0c-0.1,0.2-0.3,0.4-0.5,0.4l0,0C38.6,86.9,38.5,86.9,38.5,86.9z M62.7,85.9c-0.1-0.3,0-0.6,0.3-0.7l0,0
		c0.3-0.1,0.6,0,0.7,0.3l0,0c0.1,0.3,0,0.6-0.3,0.7l0,0c0,0,0,0,0,0l0,0c-0.1,0-0.1,0-0.2,0l0,0C62.9,86.3,62.7,86.1,62.7,85.9z
		 M36.5,86.2c-0.3-0.1-0.4-0.4-0.3-0.7l0,0c0.1-0.3,0.4-0.4,0.7-0.3l0,0c0.3,0.1,0.4,0.4,0.3,0.7l0,0c-0.1,0.2-0.3,0.3-0.5,0.3l0,0
		C36.6,86.2,36.6,86.2,36.5,86.2z M64.6,85.2c-0.1-0.3,0-0.6,0.3-0.7l0,0c0.3-0.1,0.6,0,0.7,0.3l0,0c0.1,0.3,0,0.6-0.3,0.7l0,0
		c-0.1,0-0.1,0-0.2,0l0,0C64.9,85.5,64.7,85.4,64.6,85.2z M34.5,85.4L34.5,85.4L34.5,85.4c-0.3-0.1-0.4-0.4-0.3-0.7l0,0
		c0.1-0.3,0.4-0.4,0.7-0.3l0,0c0.3,0.1,0.4,0.4,0.3,0.7l0,0c-0.1,0.2-0.3,0.3-0.5,0.3l0,0C34.7,85.4,34.6,85.4,34.5,85.4z
		 M66.5,84.3c-0.1-0.3,0-0.6,0.2-0.7l0,0c0.3-0.1,0.6,0,0.7,0.2l0,0c0.1,0.3,0,0.6-0.2,0.7l0,0l0,0l0,0c-0.1,0-0.2,0.1-0.2,0.1l0,0
		C66.8,84.6,66.6,84.5,66.5,84.3z M32.6,84.5c-0.3-0.1-0.4-0.4-0.2-0.7l0,0c0.1-0.3,0.4-0.4,0.7-0.2l0,0c0.3,0.1,0.4,0.4,0.2,0.7
		l0,0c-0.1,0.2-0.3,0.3-0.5,0.3l0,0C32.8,84.5,32.7,84.5,32.6,84.5z M68.3,83.3c-0.1-0.3-0.1-0.6,0.2-0.7h0c0.2-0.1,0.6-0.1,0.7,0.2
		l0,0c0.1,0.3,0.1,0.6-0.2,0.7l0,0c-0.1,0-0.2,0.1-0.3,0.1l0,0C68.6,83.6,68.4,83.5,68.3,83.3z M30.8,83.5L30.8,83.5L30.8,83.5
		c-0.2-0.1-0.3-0.5-0.2-0.7l0,0c0.1-0.3,0.5-0.3,0.7-0.2l0,0c0.2,0.1,0.3,0.5,0.2,0.7l0,0c-0.1,0.2-0.3,0.3-0.5,0.3l0,0
		C31,83.5,30.9,83.5,30.8,83.5z M70.1,82.3C70,82,70,81.7,70.3,81.6l0,0c0.2-0.2,0.6-0.1,0.7,0.2l0,0c0.2,0.2,0.1,0.6-0.1,0.7l0,0
		c-0.1,0.1-0.2,0.1-0.3,0.1l0,0C70.4,82.5,70.2,82.4,70.1,82.3z M29,82.4L29,82.4L29,82.4c-0.2-0.2-0.3-0.5-0.1-0.7l0,0
		c0.2-0.2,0.5-0.3,0.7-0.1l0,0c0.2,0.2,0.3,0.5,0.1,0.7l0,0c-0.1,0.2-0.3,0.2-0.4,0.2l0,0C29.2,82.4,29.1,82.4,29,82.4z M71.8,81.1
		c-0.2-0.2-0.1-0.6,0.1-0.7l0,0c0.2-0.2,0.6-0.1,0.7,0.1l0,0c0.2,0.2,0.1,0.6-0.1,0.7l0,0c0,0,0,0,0,0l0,0c-0.1,0.1-0.2,0.1-0.3,0.1
		l0,0C72.1,81.3,71.9,81.3,71.8,81.1z M27.3,81.1C27,81,27,80.7,27.1,80.4l0,0c0.2-0.2,0.5-0.3,0.7-0.1l0,0c0.2,0.2,0.3,0.5,0.1,0.7
		l0,0c-0.1,0.1-0.3,0.2-0.4,0.2l0,0C27.5,81.3,27.3,81.2,27.3,81.1z M73.5,79.9c-0.2-0.2-0.1-0.5,0.1-0.7l0,0
		c0.2-0.2,0.5-0.2,0.7,0.1l0,0c0.2,0.2,0.1,0.5-0.1,0.7l0,0l0,0l0,0c-0.1,0.1-0.2,0.1-0.3,0.1l0,0C73.8,80.1,73.6,80,73.5,79.9z
		 M25.6,79.8c-0.2-0.2-0.3-0.5-0.1-0.7l0,0c0.2-0.2,0.5-0.3,0.7-0.1l0,0c0.2,0.2,0.3,0.5,0.1,0.7l0,0c-0.1,0.1-0.3,0.2-0.4,0.2l0,0
		C25.8,80,25.7,79.9,25.6,79.8z M75.1,78.5c-0.2-0.2-0.2-0.5,0-0.7l0,0c0.2-0.2,0.5-0.2,0.7,0l0,0c0.2,0.2,0.2,0.5,0,0.7l0,0l0,0
		l0,0c-0.1,0.1-0.2,0.1-0.4,0.1l0,0C75.3,78.7,75.2,78.6,75.1,78.5z M24,78.5c-0.2-0.2-0.2-0.5,0-0.7l0,0c0.2-0.2,0.5-0.2,0.7,0l0,0
		c0.2,0.2,0.2,0.5,0,0.7l0,0c-0.1,0.1-0.2,0.2-0.4,0.2l0,0C24.2,78.6,24.1,78.5,24,78.5z M76.6,77.1c-0.2-0.2-0.2-0.5,0-0.7l0,0
		c0.2-0.2,0.5-0.2,0.7,0l0,0c0.2,0.2,0.2,0.5,0,0.7l0,0l0,0l0,0c-0.1,0.1-0.2,0.2-0.4,0.2l0,0C76.8,77.2,76.7,77.2,76.6,77.1z
		 M22.5,77L22.5,77L22.5,77c-0.2-0.2-0.2-0.5,0-0.7l0,0c0.2-0.2,0.5-0.2,0.7,0l0,0c0.2,0.2,0.2,0.5,0,0.7l0,0
		c-0.1,0.1-0.2,0.1-0.4,0.1l0,0C22.7,77.1,22.6,77.1,22.5,77z M78,75.6c-0.2-0.2-0.2-0.5,0-0.7l0,0c0.2-0.2,0.5-0.2,0.7-0.1l0,0
		c0.2,0.2,0.2,0.5,0,0.7l0,0c-0.1,0.1-0.2,0.2-0.4,0.2l0,0C78.3,75.7,78.1,75.7,78,75.6z M21.1,75.4L21.1,75.4L21.1,75.4
		c-0.2-0.2-0.2-0.5,0.1-0.7l0,0c0.2-0.2,0.5-0.2,0.7,0.1l0,0c0.2,0.2,0.2,0.5-0.1,0.7l0,0c-0.1,0.1-0.2,0.1-0.3,0.1l0,0
		C21.3,75.6,21.2,75.6,21.1,75.4z M79.4,74c-0.2-0.2-0.3-0.5-0.1-0.7l0,0c0.2-0.2,0.5-0.3,0.7-0.1l0,0c0.2,0.2,0.3,0.5,0.1,0.7l0,0
		l0,0l0,0c-0.1,0.1-0.3,0.2-0.4,0.2l0,0C79.6,74.1,79.5,74.1,79.4,74z M19.7,73.8c-0.2-0.2-0.1-0.6,0.1-0.7l0,0
		c0.2-0.2,0.6-0.1,0.7,0.1l0,0c0.2,0.2,0.1,0.6-0.1,0.7l0,0C20.4,74,20.3,74,20.2,74l0,0C20,74,19.8,73.9,19.7,73.8z M80.6,72.3
		c-0.2-0.2-0.3-0.5-0.1-0.7l0,0c0.2-0.2,0.5-0.3,0.7-0.1l0,0c0.2,0.2,0.3,0.5,0.1,0.7l0,0c-0.1,0.1-0.3,0.2-0.4,0.2l0,0
		C80.8,72.4,80.7,72.4,80.6,72.3z M18.5,72.1c-0.2-0.2-0.1-0.6,0.1-0.7l0,0c0.2-0.2,0.6-0.1,0.7,0.1l0,0c0.2,0.2,0.1,0.6-0.1,0.7
		l0,0c-0.1,0.1-0.2,0.1-0.3,0.1l0,0C18.8,72.3,18.6,72.2,18.5,72.1z M81.8,70.6c-0.2-0.2-0.3-0.5-0.2-0.7l0,0
		c0.2-0.2,0.5-0.3,0.7-0.2l0,0c0.2,0.2,0.3,0.5,0.2,0.7l0,0c-0.1,0.2-0.3,0.2-0.4,0.2l0,0C82,70.7,81.9,70.7,81.8,70.6z M17.3,70.3
		C17.3,70.3,17.3,70.3,17.3,70.3L17.3,70.3c-0.1-0.3-0.1-0.6,0.2-0.7l0,0c0.2-0.1,0.6-0.1,0.7,0.2l0,0c0.2,0.2,0.1,0.6-0.2,0.7l0,0
		c-0.1,0.1-0.2,0.1-0.3,0.1l0,0C17.6,70.6,17.4,70.5,17.3,70.3z M82.9,68.8c-0.3-0.1-0.3-0.5-0.2-0.7l0,0c0.1-0.3,0.5-0.3,0.7-0.2
		l0,0c0.3,0.1,0.3,0.5,0.2,0.7l0,0c-0.1,0.2-0.3,0.3-0.5,0.3l0,0C83,68.9,83,68.9,82.9,68.8z M16.3,68.5c-0.1-0.3,0-0.6,0.2-0.7l0,0
		c0.3-0.1,0.6,0,0.7,0.2l0,0c0.1,0.3,0,0.6-0.2,0.7l0,0c-0.1,0-0.2,0.1-0.2,0.1l0,0C16.6,68.8,16.4,68.7,16.3,68.5z M83.8,67
		c-0.3-0.1-0.4-0.4-0.3-0.7l0,0c0.1-0.3,0.4-0.4,0.7-0.3l0,0c0.3,0.1,0.4,0.4,0.2,0.7l0,0c-0.1,0.2-0.3,0.3-0.5,0.3l0,0
		C84,67,83.9,67,83.8,67z M15.3,66.6c-0.1-0.3,0-0.6,0.3-0.7l0,0c0.3-0.1,0.6,0,0.7,0.3l0,0c0.1,0.3,0,0.6-0.3,0.7l0,0
		c-0.1,0-0.1,0-0.2,0l0,0C15.6,66.9,15.4,66.8,15.3,66.6z M84.7,65.1c-0.3-0.1-0.4-0.4-0.3-0.7l0,0c0.1-0.3,0.4-0.4,0.7-0.3l0,0
		c0.3,0.1,0.4,0.4,0.3,0.7l0,0c-0.1,0.2-0.3,0.3-0.5,0.3l0,0C84.8,65.1,84.8,65.1,84.7,65.1z M14.5,64.7
		C14.5,64.7,14.5,64.7,14.5,64.7L14.5,64.7c-0.1-0.3,0-0.6,0.3-0.7l0,0c0.3-0.1,0.6,0,0.7,0.3l0,0c0.1,0.3,0,0.6-0.3,0.7l0,0
		c-0.1,0-0.1,0-0.2,0l0,0C14.8,65,14.6,64.9,14.5,64.7z M85.5,63.2c-0.3-0.1-0.4-0.4-0.3-0.7l0,0c0.1-0.3,0.4-0.4,0.7-0.3l0,0
		c0.3,0.1,0.4,0.4,0.3,0.7l0,0l0,0l0,0c-0.1,0.2-0.3,0.4-0.5,0.4l0,0C85.6,63.2,85.5,63.2,85.5,63.2z M13.8,62.7
		c-0.1-0.3,0.1-0.6,0.3-0.7l0,0c0.3-0.1,0.6,0.1,0.7,0.3l0,0c0.1,0.3-0.1,0.6-0.3,0.7l0,0c-0.1,0-0.1,0-0.2,0l0,0
		C14,63.1,13.8,62.9,13.8,62.7z M86.1,61.2c-0.3-0.1-0.4-0.4-0.4-0.6l0,0c0.1-0.3,0.4-0.4,0.6-0.4l0,0c0.3,0.1,0.4,0.4,0.4,0.6l0,0
		c-0.1,0.2-0.3,0.4-0.5,0.4l0,0C86.2,61.2,86.2,61.2,86.1,61.2z M13.1,60.7c-0.1-0.3,0.1-0.6,0.4-0.6l0,0c0.3-0.1,0.6,0.1,0.6,0.4
		l0,0c0.1,0.3-0.1,0.6-0.4,0.6l0,0c0,0-0.1,0-0.1,0l0,0C13.4,61.1,13.2,60.9,13.1,60.7z M86.7,59.2c-0.3-0.1-0.5-0.3-0.4-0.6l0,0
		c0.1-0.3,0.3-0.5,0.6-0.4l0,0c0.3,0.1,0.5,0.3,0.4,0.6l0,0c-0.1,0.2-0.3,0.4-0.5,0.4l0,0C86.7,59.2,86.7,59.2,86.7,59.2z
		 M12.6,58.7c-0.1-0.3,0.1-0.6,0.4-0.6l0,0c0.3-0.1,0.6,0.1,0.6,0.4l0,0c0.1,0.3-0.1,0.6-0.4,0.6l0,0c0,0-0.1,0-0.1,0l0,0
		C12.9,59.1,12.7,58.9,12.6,58.7z M87.1,57.1c-0.3,0-0.5-0.3-0.4-0.6l0,0c0-0.3,0.3-0.5,0.6-0.4l0,0c0.3,0,0.5,0.3,0.4,0.6l0,0
		c0,0,0,0,0,0l0,0C87.6,57,87.4,57.1,87.1,57.1L87.1,57.1C87.1,57.1,87.1,57.1,87.1,57.1z M12.2,56.6L12.2,56.6L12.2,56.6
		c0-0.3,0.1-0.5,0.4-0.6l0,0c0.3,0,0.6,0.1,0.6,0.4l0,0c0,0.3-0.1,0.5-0.4,0.6l0,0c0,0-0.1,0-0.1,0l0,0C12.5,57,12.3,56.8,12.2,56.6
		z M87.4,55.1c-0.3,0-0.5-0.3-0.5-0.6l0,0c0-0.3,0.3-0.5,0.6-0.5l0,0c0.3,0,0.5,0.3,0.5,0.6l0,0C87.9,54.9,87.7,55.1,87.4,55.1
		L87.4,55.1C87.4,55.1,87.4,55.1,87.4,55.1z M12,54.5c0-0.3,0.2-0.5,0.5-0.6l0,0c0.3,0,0.5,0.2,0.6,0.5l0,0c0,0.3-0.2,0.5-0.5,0.6
		l0,0c0,0,0,0-0.1,0l0,0C12.2,55,12,54.8,12,54.5z M87.6,53c-0.3,0-0.5-0.3-0.5-0.5l0,0c0-0.3,0.3-0.5,0.5-0.5l0,0
		c0.3,0,0.5,0.3,0.5,0.5l0,0l0,0l0,0C88.1,52.8,87.9,53,87.6,53L87.6,53C87.6,53,87.6,53,87.6,53z M11.8,52.4c0-0.3,0.2-0.5,0.5-0.5
		l0,0c0.3,0,0.5,0.2,0.5,0.5l0,0c0,0.3-0.2,0.5-0.5,0.5l0,0c0,0,0,0,0,0l0,0C12,52.9,11.8,52.7,11.8,52.4z M87.2,50.4
		c0-0.3,0.2-0.5,0.5-0.5l0,0c0.3,0,0.5,0.2,0.5,0.5l0,0c0,0.3-0.2,0.5-0.5,0.5l0,0C87.4,50.9,87.2,50.7,87.2,50.4z M11.7,50.3
		c0-0.3,0.2-0.5,0.5-0.5l0,0c0.3,0,0.5,0.2,0.5,0.5l0,0c0,0.3-0.2,0.5-0.5,0.5l0,0C12,50.8,11.7,50.6,11.7,50.3z M87.1,48.6
		L87.1,48.6c0-0.3,0.2-0.5,0.5-0.5l0,0c0.3,0,0.5,0.2,0.5,0.5l0,0l0,0l0,0c0,0.3-0.2,0.5-0.5,0.5l0,0c0,0,0,0,0,0l0,0
		C87.4,49.1,87.1,48.8,87.1,48.6z M12.3,48.7c-0.3,0-0.5-0.3-0.5-0.5l0,0c0-0.3,0.3-0.5,0.5-0.5l0,0c0.3,0,0.5,0.3,0.5,0.5l0,0
		C12.8,48.5,12.6,48.7,12.3,48.7L12.3,48.7C12.3,48.7,12.3,48.7,12.3,48.7z M87,46.5c0-0.3,0.2-0.5,0.5-0.6l0,0
		c0.3,0,0.5,0.2,0.6,0.5l0,0l0,0l0,0c0,0.3-0.2,0.5-0.5,0.6l0,0c0,0,0,0-0.1,0l0,0C87.2,47,87,46.8,87,46.5z M12.4,46.7
		c-0.3,0-0.5-0.3-0.5-0.6l0,0c0-0.3,0.3-0.5,0.6-0.5l0,0c0.3,0,0.5,0.3,0.5,0.6l0,0C13,46.5,12.8,46.7,12.4,46.7L12.4,46.7
		C12.5,46.7,12.5,46.7,12.4,46.7z M86.7,44.5c0-0.3,0.1-0.6,0.4-0.6l0,0c0.3,0,0.6,0.1,0.6,0.4l0,0c0,0.3-0.1,0.5-0.4,0.6l0,0
		c0,0-0.1,0-0.1,0l0,0C86.9,44.9,86.7,44.7,86.7,44.5z M12.7,44.6c-0.3,0-0.5-0.3-0.4-0.6l0,0c0,0,0,0,0,0l0,0
		c0-0.3,0.3-0.5,0.6-0.4l0,0c0.3,0,0.5,0.3,0.4,0.6l0,0C13.3,44.4,13,44.6,12.7,44.6L12.7,44.6C12.8,44.6,12.7,44.6,12.7,44.6z
		 M86.3,42.5c-0.1-0.3,0.1-0.6,0.4-0.6l0,0c0.3-0.1,0.6,0.1,0.6,0.4l0,0c0.1,0.3-0.1,0.6-0.4,0.6l0,0c0,0-0.1,0-0.1,0l0,0
		C86.6,42.9,86.4,42.7,86.3,42.5z M13.1,42.5c-0.3-0.1-0.5-0.3-0.4-0.6l0,0c0.1-0.3,0.3-0.5,0.6-0.4l0,0c0.3,0.1,0.5,0.3,0.4,0.6
		l0,0c-0.1,0.2-0.3,0.4-0.5,0.4l0,0C13.2,42.6,13.1,42.6,13.1,42.5z M85.8,40.5L85.8,40.5c-0.1-0.3,0.1-0.6,0.4-0.6l0,0
		c0.3-0.1,0.6,0.1,0.6,0.4l0,0l0,0l0,0c0.1,0.3-0.1,0.6-0.4,0.6l0,0c0,0-0.1,0-0.1,0l0,0C86.1,40.9,85.9,40.7,85.8,40.5z M13.6,40.5
		c-0.3-0.1-0.4-0.4-0.4-0.6l0,0c0.1-0.3,0.4-0.4,0.6-0.4l0,0c0.3,0.1,0.4,0.4,0.4,0.6l0,0c-0.1,0.2-0.3,0.4-0.5,0.4l0,0
		C13.7,40.5,13.6,40.5,13.6,40.5z M85.2,38.5L85.2,38.5c-0.1-0.3,0.1-0.6,0.3-0.7l0,0c0.3-0.1,0.6,0.1,0.7,0.3l0,0l0,0l0,0
		c0.1,0.3-0.1,0.6-0.3,0.7l0,0c-0.1,0-0.1,0-0.2,0l0,0C85.5,38.9,85.3,38.7,85.2,38.5z M14.2,38.5c-0.3-0.1-0.4-0.4-0.3-0.7l0,0
		c0.1-0.3,0.4-0.4,0.7-0.3l0,0c0.3,0.1,0.4,0.4,0.3,0.7l0,0c-0.1,0.2-0.3,0.4-0.5,0.4l0,0C14.3,38.6,14.2,38.6,14.2,38.5z
		 M84.5,36.6c-0.1-0.3,0-0.6,0.3-0.7l0,0c0.3-0.1,0.6,0,0.7,0.3l0,0l0,0l0,0c0.1,0.3,0,0.6-0.3,0.7l0,0c-0.1,0-0.1,0-0.2,0l0,0
		C84.8,36.9,84.6,36.8,84.5,36.6z M14.9,36.6c-0.3-0.1-0.4-0.4-0.3-0.7l0,0c0.1-0.3,0.4-0.4,0.7-0.3l0,0c0.3,0.1,0.4,0.4,0.3,0.7
		l0,0c-0.1,0.2-0.3,0.3-0.5,0.3l0,0C15,36.6,14.9,36.6,14.9,36.6z M83.7,34.7c-0.1-0.3,0-0.6,0.3-0.7l0,0c0.3-0.1,0.6,0,0.7,0.3l0,0
		c0,0,0,0,0,0l0,0c0.1,0.3,0,0.6-0.3,0.7l0,0c-0.1,0-0.1,0-0.2,0l0,0C84,35,83.8,34.9,83.7,34.7z M15.7,34.7
		c-0.3-0.1-0.4-0.4-0.2-0.7l0,0c0.1-0.3,0.4-0.4,0.7-0.2l0,0c0.3,0.1,0.4,0.4,0.2,0.7l0,0c-0.1,0.2-0.3,0.3-0.5,0.3l0,0
		C15.8,34.7,15.8,34.7,15.7,34.7z M82.8,32.9c-0.1-0.3,0-0.6,0.2-0.7l0,0c0.3-0.1,0.6,0,0.7,0.2l0,0c0.1,0.3,0,0.6-0.2,0.7l0,0
		c-0.1,0-0.2,0.1-0.2,0.1l0,0C83.1,33.2,82.9,33.1,82.8,32.9z M16.6,32.8c-0.3-0.1-0.3-0.5-0.2-0.7l0,0c0.1-0.3,0.5-0.3,0.7-0.2l0,0
		c0.3,0.1,0.3,0.5,0.2,0.7l0,0c-0.1,0.2-0.3,0.3-0.5,0.3l0,0C16.8,32.9,16.7,32.8,16.6,32.8z M81.8,31.1c-0.1-0.2-0.1-0.6,0.2-0.7
		l0,0c0.2-0.1,0.6-0.1,0.7,0.2l0,0c0.2,0.2,0.1,0.6-0.2,0.7l0,0c-0.1,0-0.2,0.1-0.3,0.1l0,0C82,31.4,81.9,31.3,81.8,31.1z M17.6,31
		c-0.2-0.1-0.3-0.5-0.2-0.7l0,0c0.1-0.2,0.5-0.3,0.7-0.2l0,0c0.2,0.2,0.3,0.5,0.2,0.7l0,0c-0.1,0.2-0.3,0.2-0.4,0.2l0,0
		C17.8,31.1,17.7,31,17.6,31z M80.6,29.4c-0.2-0.2-0.1-0.6,0.1-0.7l0,0c0.2-0.2,0.6-0.1,0.7,0.1l0,0c0.2,0.2,0.1,0.6-0.1,0.7l0,0
		c-0.1,0.1-0.2,0.1-0.3,0.1l0,0C80.9,29.6,80.8,29.5,80.6,29.4z M18.8,29.2c-0.2-0.2-0.3-0.5-0.1-0.7l0,0c0.2-0.2,0.5-0.3,0.7-0.1
		l0,0c0.2,0.2,0.3,0.5,0.1,0.7l0,0c-0.1,0.1-0.3,0.2-0.4,0.2l0,0C19,29.3,18.9,29.3,18.8,29.2z M79.4,27.7c-0.2-0.2-0.1-0.6,0.1-0.7
		l0,0c0.2-0.2,0.6-0.1,0.7,0.1l0,0c0,0,0,0,0,0l0,0c0.2,0.2,0.1,0.6-0.1,0.7l0,0c-0.1,0.1-0.2,0.1-0.3,0.1l0,0
		C79.7,27.9,79.5,27.9,79.4,27.7z M20,27.5c-0.2-0.2-0.3-0.5-0.1-0.7l0,0c0.2-0.2,0.5-0.3,0.7-0.1l0,0c0.2,0.2,0.3,0.5,0.1,0.7l0,0
		c-0.1,0.1-0.3,0.2-0.4,0.2l0,0C20.2,27.6,20.1,27.6,20,27.5z M78.1,26.1c-0.2-0.2-0.2-0.5,0.1-0.7l0,0c0.2-0.2,0.5-0.2,0.7,0.1l0,0
		c0.2,0.2,0.2,0.5-0.1,0.7l0,0c-0.1,0.1-0.2,0.1-0.3,0.1l0,0C78.4,26.3,78.2,26.3,78.1,26.1z M21.3,25.9c-0.2-0.2-0.2-0.5,0-0.7l0,0
		c0.2-0.2,0.5-0.2,0.7,0l0,0c0.2,0.2,0.2,0.5,0,0.7l0,0C21.9,26,21.8,26,21.6,26l0,0C21.5,26,21.4,26,21.3,25.9z M76.8,24.6
		L76.8,24.6c-0.2-0.2-0.2-0.5,0-0.7l0,0c0.2-0.2,0.5-0.2,0.7,0l0,0c0.2,0.2,0.2,0.5,0,0.7l0,0c-0.1,0.1-0.2,0.1-0.4,0.1l0,0
		C77,24.8,76.9,24.7,76.8,24.6z M22.7,24.4c-0.2-0.2-0.2-0.5,0-0.7l0,0c0.2-0.2,0.5-0.2,0.7,0l0,0c0.2,0.2,0.2,0.5,0,0.7l0,0
		c-0.1,0.1-0.2,0.2-0.4,0.2l0,0C22.9,24.5,22.8,24.5,22.7,24.4z M75.3,23.2c-0.2-0.2-0.2-0.5,0-0.7l0,0c0.2-0.2,0.5-0.2,0.7,0l0,0
		c0.2,0.2,0.2,0.5,0,0.7l0,0c-0.1,0.1-0.2,0.2-0.4,0.2l0,0C75.5,23.3,75.4,23.3,75.3,23.2z M24.2,22.9c-0.2-0.2-0.2-0.5,0-0.7l0,0
		c0.2-0.2,0.5-0.2,0.7,0l0,0c0.2,0.2,0.2,0.5,0,0.7l0,0c-0.1,0.1-0.2,0.1-0.3,0.1l0,0C24.4,23.1,24.3,23,24.2,22.9z M73.8,21.8
		L73.8,21.8c-0.2-0.2-0.3-0.5-0.1-0.7l0,0c0.2-0.2,0.5-0.3,0.7-0.1l0,0c0,0,0,0,0,0l0,0c0.2,0.2,0.3,0.5,0.1,0.7l0,0
		c-0.1,0.1-0.3,0.2-0.4,0.2l0,0C74,21.9,73.9,21.9,73.8,21.8z M25.7,21.5c-0.2-0.2-0.1-0.5,0.1-0.7l0,0l0,0l0,0
		c0.2-0.2,0.5-0.1,0.7,0.1l0,0c0.2,0.2,0.1,0.6-0.1,0.7l0,0c-0.1,0.1-0.2,0.1-0.3,0.1l0,0C26,21.7,25.8,21.7,25.7,21.5z M72.1,20.6
		L72.1,20.6c-0.2-0.2-0.3-0.5-0.1-0.7l0,0c0.2-0.2,0.5-0.3,0.7-0.1l0,0c0.2,0.2,0.3,0.5,0.1,0.7l0,0c-0.1,0.1-0.3,0.2-0.4,0.2l0,0
		C72.4,20.7,72.2,20.6,72.1,20.6z M27.3,20.2c-0.2-0.2-0.1-0.6,0.1-0.7l0,0c0.2-0.2,0.6-0.1,0.7,0.1l0,0c0.2,0.2,0.1,0.6-0.1,0.7
		l0,0c-0.1,0.1-0.2,0.1-0.3,0.1l0,0C27.6,20.4,27.4,20.4,27.3,20.2z M70.5,19.4c-0.2-0.2-0.3-0.5-0.1-0.7l0,0
		c0.2-0.2,0.5-0.3,0.7-0.1l0,0c0.2,0.2,0.3,0.5,0.1,0.7l0,0c-0.1,0.2-0.3,0.2-0.4,0.2l0,0C70.7,19.5,70.6,19.4,70.5,19.4z M29,19
		c-0.2-0.2-0.1-0.6,0.2-0.7l0,0l0,0l0,0c0.2-0.2,0.6-0.1,0.7,0.2l0,0c0.2,0.2,0.1,0.6-0.2,0.7l0,0c-0.1,0.1-0.2,0.1-0.3,0.1l0,0
		C29.3,19.3,29.1,19.2,29,19z M68.7,18.3c-0.3-0.1-0.3-0.5-0.2-0.7l0,0c0.1-0.3,0.5-0.3,0.7-0.2l0,0l0,0l0,0
		c0.3,0.1,0.3,0.5,0.2,0.7l0,0c-0.1,0.2-0.3,0.3-0.4,0.3l0,0C68.9,18.4,68.8,18.3,68.7,18.3z M30.8,17.9c-0.1-0.3-0.1-0.6,0.2-0.7
		l0,0h0l0,0c0.3-0.1,0.6-0.1,0.7,0.2l0,0c0.1,0.3,0.1,0.6-0.2,0.7l0,0c-0.1,0-0.2,0.1-0.3,0.1l0,0C31.1,18.2,30.9,18.1,30.8,17.9z
		 M66.9,17.3L66.9,17.3c-0.3-0.1-0.4-0.4-0.2-0.7l0,0c0.1-0.3,0.4-0.4,0.7-0.2l0,0c0.3,0.1,0.4,0.4,0.2,0.7l0,0
		c-0.1,0.2-0.3,0.3-0.5,0.3l0,0C67.1,17.4,67,17.3,66.9,17.3z M32.6,16.9c-0.1-0.3,0-0.6,0.2-0.7l0,0c0.3-0.1,0.6,0,0.7,0.2l0,0
		c0.1,0.3,0,0.6-0.2,0.7l0,0c-0.1,0-0.2,0.1-0.2,0.1l0,0C32.9,17.2,32.7,17.1,32.6,16.9z M65.1,16.4c-0.3-0.1-0.4-0.4-0.3-0.7l0,0
		c0.1-0.3,0.4-0.4,0.7-0.3l0,0c0.3,0.1,0.4,0.4,0.3,0.7l0,0c-0.1,0.2-0.3,0.3-0.5,0.3l0,0C65.2,16.5,65.1,16.4,65.1,16.4z M34.5,16
		c-0.1-0.3,0-0.6,0.3-0.7l0,0l0,0l0,0c0.3-0.1,0.6,0,0.7,0.3l0,0c0.1,0.3,0,0.6-0.3,0.7l0,0c-0.1,0-0.1,0-0.2,0l0,0
		C34.8,16.3,34.6,16.2,34.5,16z M63.2,15.6c-0.3-0.1-0.4-0.4-0.3-0.7l0,0c0.1-0.3,0.4-0.4,0.7-0.3l0,0c0.3,0.1,0.4,0.4,0.3,0.7l0,0
		c-0.1,0.2-0.3,0.3-0.5,0.3l0,0C63.3,15.7,63.2,15.6,63.2,15.6z M36.4,15.2c-0.1-0.3,0-0.6,0.3-0.7l0,0l0,0l0,0
		c0.3-0.1,0.6,0,0.7,0.3l0,0c0.1,0.3,0,0.6-0.3,0.7l0,0c-0.1,0-0.1,0-0.2,0l0,0C36.7,15.5,36.5,15.4,36.4,15.2z M61.2,15
		c-0.3-0.1-0.4-0.4-0.3-0.7l0,0c0.1-0.3,0.4-0.4,0.7-0.3l0,0c0.3,0.1,0.4,0.4,0.3,0.6l0,0c-0.1,0.2-0.3,0.4-0.5,0.4l0,0
		C61.3,15,61.3,15,61.2,15z M38.4,14.5c-0.1-0.3,0.1-0.6,0.3-0.6l0,0l0,0l0,0c0.3-0.1,0.6,0.1,0.6,0.3l0,0c0.1,0.3-0.1,0.6-0.3,0.6
		l0,0c-0.1,0-0.1,0-0.2,0l0,0C38.6,14.9,38.4,14.7,38.4,14.5z M59.3,14.4L59.3,14.4c-0.3-0.1-0.4-0.4-0.4-0.6l0,0
		c0.1-0.3,0.4-0.4,0.6-0.4l0,0l0,0l0,0c0.3,0.1,0.4,0.4,0.4,0.6l0,0c-0.1,0.2-0.3,0.4-0.5,0.4l0,0C59.3,14.4,59.3,14.4,59.3,14.4z
		 M40.4,13.9c-0.1-0.3,0.1-0.6,0.4-0.6l0,0c0.3-0.1,0.6,0.1,0.6,0.4l0,0c0.1,0.3-0.1,0.6-0.4,0.6l0,0c0,0-0.1,0-0.1,0l0,0
		C40.6,14.3,40.4,14.2,40.4,13.9z M57.3,13.9c-0.3-0.1-0.5-0.3-0.4-0.6l0,0c0.1-0.3,0.3-0.5,0.6-0.4l0,0c0.3,0.1,0.5,0.3,0.4,0.6
		l0,0c0,0.3-0.3,0.4-0.5,0.4l0,0C57.3,13.9,57.3,13.9,57.3,13.9z M42.4,13.5c-0.1-0.3,0.1-0.6,0.4-0.6l0,0l0,0l0,0
		c0.3-0.1,0.6,0.1,0.6,0.4l0,0c0.1,0.3-0.1,0.6-0.4,0.6l0,0c0,0-0.1,0-0.1,0l0,0C42.6,13.9,42.4,13.7,42.4,13.5z M55.2,13.6
		c-0.3,0-0.5-0.3-0.4-0.6l0,0c0-0.3,0.3-0.5,0.6-0.4l0,0l0,0l0,0c0.3,0,0.5,0.3,0.4,0.6l0,0C55.8,13.4,55.6,13.6,55.2,13.6
		L55.2,13.6C55.3,13.6,55.3,13.6,55.2,13.6z M44.4,13.1c0-0.3,0.2-0.5,0.4-0.6l0,0c0,0,0,0,0,0l0,0c0.3,0,0.5,0.2,0.6,0.4l0,0
		c0,0.3-0.2,0.5-0.4,0.6l0,0c0,0,0,0-0.1,0l0,0C44.7,13.5,44.5,13.4,44.4,13.1z M53.2,13.4L53.2,13.4c-0.3,0-0.5-0.3-0.5-0.6l0,0
		c0-0.3,0.3-0.5,0.6-0.5l0,0c0.3,0,0.5,0.3,0.5,0.6l0,0C53.7,13.2,53.5,13.4,53.2,13.4L53.2,13.4C53.2,13.4,53.2,13.4,53.2,13.4z
		 M46.5,12.8c0-0.3,0.2-0.5,0.5-0.6l0,0c0.3,0,0.5,0.2,0.6,0.5l0,0c0,0.3-0.2,0.5-0.5,0.6l0,0c0,0,0,0,0,0l0,0
		C46.7,13.3,46.5,13.1,46.5,12.8z M50.7,12.7c0-0.3,0.2-0.5,0.5-0.5l0,0c0,0,0,0,0,0l0,0c0.3,0,0.5,0.3,0.5,0.5l0,0
		c0,0.3-0.3,0.5-0.5,0.5l0,0C50.9,13.2,50.6,13,50.7,12.7z M48.6,12.7c0-0.3,0.2-0.5,0.5-0.5l0,0c0.3,0,0.5,0.2,0.5,0.5l0,0
		c0,0.3-0.2,0.5-0.5,0.5l0,0c0,0,0,0,0,0l0,0C48.8,13.2,48.6,13,48.6,12.7z"/>
	<g>
		<path class="st0" d="M25,73.2l4.1-4.4l1.7,1.6c1.4,1.3,1.5,3,0.3,4.4c-1.2,1.3-3,1.3-4.4,0L25,73.2z M30.1,73.9
			c0.7-0.8,0.8-1.8-0.1-2.7l-0.8-0.7l-2.5,2.7l0.8,0.7C28.3,74.8,29.4,74.6,30.1,73.9z"/>
		<path class="st0" d="M31.7,78.7l2.9-5.2l3.7,2.1l-0.5,1l-2.6-1.4l-0.6,1.1l2.5,1.4l-0.5,1L34,77.2l-0.7,1.2l2.6,1.4l-0.5,1
			L31.7,78.7z"/>
		<path class="st0" d="M38.3,82l1.8-5.7l1.2,0.4l-1.4,4.7l2.4,0.7l-0.3,1.1L38.3,82z"/>
		<path class="st0" d="M44.7,83.6l0.8-5.9l1.3,0.2L46,83.8L44.7,83.6z"/>
		<path class="st0" d="M50.9,84l-2.6-5.9l1.5-0.1l1.9,4.5l1.4-4.7l1.5-0.1l-2,6.1L50.9,84z"/>
		<path class="st0" d="M57.5,83.2l-1.7-5.7l4.1-1.2l0.3,1.1l-2.8,0.8l0.4,1.2l2.8-0.8l0.3,1.1l-2.8,0.8l0.4,1.3l2.8-0.8l0.3,1.1
			L57.5,83.2z"/>
		<path class="st0" d="M67.5,79.1l-2.1-1.3l-0.8,0.5l1,1.9l-1.1,0.6l-2.9-5.2l2.4-1.4c1.1-0.6,2.2-0.3,2.7,0.7
			c0.5,0.9,0.2,1.7-0.3,2.2l2.3,1.3L67.5,79.1z M65.6,75.5c-0.2-0.4-0.7-0.5-1.2-0.3l-1.2,0.7l0.8,1.4l1.2-0.7
			C65.7,76.4,65.9,76,65.6,75.5z"/>
		<path class="st0" d="M72.4,75.5l-1.7-1.8l-4.1-1l1.1-1l2.7,0.8l-0.5-2.8l1.1-1l0.7,4.2l1.7,1.8L72.4,75.5z"/>
	</g>
	<g>
		<path class="st0" d="M25,41l-5.3-2.7l0.9-1.8c0.8-1.7,2.5-2.2,4.1-1.4c1.5,0.8,2.1,2.4,1.3,4.1L25,41z M24.3,35.8
			c-1.2-0.6-2.5-0.3-3.1,1L20.6,38l4.2,2.1l0.6-1.2C26,37.6,25.5,36.4,24.3,35.8z"/>
		<path class="st0" d="M30.9,32.1l-2.8-0.4l-0.8,0.9l1.8,1.6l-0.5,0.6l-4.5-4l1.6-1.8c0.7-0.8,1.8-0.9,2.6-0.2
			c0.8,0.7,0.8,1.7,0.3,2.3l2.9,0.4L30.9,32.1z M27.8,29.3c-0.5-0.4-1.2-0.4-1.6,0.1l-1,1.2l1.7,1.5l1-1.2
			C28.3,30.5,28.3,29.8,27.8,29.3z"/>
		<path class="st0" d="M33.1,30.1l-3.5-4.9l3.2-2.3l0.4,0.5l-2.6,1.8l1.1,1.6l2.5-1.8l0.4,0.5l-2.5,1.8l1.2,1.7l2.6-1.8l0.4,0.5
			L33.1,30.1z"/>
		<path class="st0" d="M42.2,25.2l-1-1l-2.8,1.1l0,1.4L37.6,27l0.1-6.5l0.9-0.3l4.4,4.7L42.2,25.2z M38.4,21.1l0,3.5l2.4-0.9
			L38.4,21.1z"/>
		<path class="st0" d="M49.8,24.1l-0.4-4.9l-1.6,5.1l-0.3,0L45,19.6l0.4,4.9l-0.7,0.1l-0.5-6l1.1-0.1l2.2,4.3l1.5-4.7l1.1-0.1l0.5,6
			L49.8,24.1z"/>
		<path class="st0" d="M57.7,25.3l1.6-5.1l-1.8-0.6l0.2-0.6l4.3,1.4L61.9,21L60,20.5l-1.6,5.1L57.7,25.3z"/>
		<path class="st0" d="M62.1,27l3.1-5.1l3.4,2l-0.3,0.6l-2.7-1.6l-1,1.7l2.7,1.6l-0.3,0.6L64.1,25L63,26.8l2.7,1.6L65.4,29L62.1,27z
			"/>
		<path class="st0" d="M70.2,33.3l0.6-1.3l-2.1-2.1l-1.3,0.6l-0.6-0.6l5.9-2.6l0.7,0.6l-2.5,6L70.2,33.3z M72.4,28.2l-3.2,1.4
			l1.8,1.8L72.4,28.2z"/>
		<path class="st0" d="M74.4,39.8l4.3-2.4L73.4,38l-0.1-0.3l3.3-4.2l-4.3,2.4l-0.4-0.6l5.2-2.9l0.5,0.9l-3,3.8l4.8-0.6l0.5,0.9
			l-5.2,2.9L74.4,39.8z"/>
	</g>
	<path class="st0" d="M50,73.5c-12.7,0-23-10.3-23-23s10.3-23,23-23s23,10.3,23,23S62.6,73.5,50,73.5z M50,28.5
		c-12.1,0-22,9.9-22,22c0,12.1,9.9,22,22,22s22-9.9,22-22C72,38.4,62.1,28.5,50,28.5z"/>
	<g id="XMLID_74_">
		<g>
			<path class="st0" d="M43.7,47.5c0.2-0.4,0.9,0,0.6,0.5c-0.9,1.7-2.3,2.9-4.3,3c-0.4,0-0.5,0.1-0.5,0.5c0,0.1,0,0.3,0,0.4
				c-0.2,0.9-0.5,2-1,2.8c-0.5,0.9-1.1,1.5-2.1,1.5c-1,0-1.7-0.7-0.9-2.6L40,42.7c0.9-2.3,1.8-3,2.9-3c1.2,0,1.7,1,1.2,2.7
				c-0.4,1.1-1.2,3.1-1.9,4.4c-0.7,1.3-1.2,1.9-2.7,2.1c-0.3,0-0.5,0.1-0.6,0.5c-0.1,0.3,0,0.5,0.2,0.7c0.3,0.1,0.5,0.2,0.9,0.2
				C41.5,50.1,42.7,49.3,43.7,47.5z M38.7,51.8c0.1-0.4,0.1-0.7,0-0.9c-0.1-0.2-0.4-0.2-0.5,0l-1.4,3.5c-0.3,0.6-0.1,0.7,0.1,0.7
				C37.7,55.1,38.5,52.7,38.7,51.8z M42.9,40.9c-0.6,0-1.1,1-1.5,2l-1.9,4.6c-0.1,0.3,0,0.4,0.3,0.3c0.5-0.2,0.8-0.6,1.2-1.4
				c1.1-2,1.8-3.9,2-4.5C43.1,41.5,43.2,40.9,42.9,40.9z"/>
			<path class="st0" d="M44.4,48c-0.2,0.4-0.9,0-0.6-0.5c0.3-0.6,0.7-1.3,1.1-2.1c0.2-0.4,0.2-0.5,0-0.9c-0.1-0.2-0.2-0.4-0.2-0.6
				c0-0.5,0.4-1.1,0.9-1.4c0.2-0.1,0.5-0.1,0.7,0l0.1,0.1c0.3,0.2,0.3,0.4,0.2,0.7l-0.2,0.5c-0.1,0.3-0.1,0.5,0.2,0.7
				c0.6,0.5,1.4,1.1,1.4,1.9c0,0.2,0,0.4-0.2,0.8l-0.7,1.6c-0.7,1.7-0.3,1.9-0.1,1.9c0.6,0,1.4-1.1,2.6-3.2c0.3-0.4,0.9,0,0.6,0.5
				c-1.1,2-2.3,3.7-3.7,3.7c-1.2,0-1.9-0.9-0.8-3.5l0.5-1.3c0.1-0.3,0.1-0.4,0.1-0.5c0-0.2-0.1-0.4-0.4-0.6
				c-0.2-0.2-0.4-0.2-0.6,0.1C45.2,46.5,44.8,47.3,44.4,48z"/>
			<path class="st0" d="M56,47.5c0.3-0.4,0.9,0,0.6,0.5c-1,1.8-2.7,3.7-5.1,3.7c-1.5,0-2.3-0.8-2.3-2.2c0-2.1,1.8-5.8,4.2-5.8
				c1.5,0,2.2,1.3,1.3,3.1c-0.7,1.5-1.9,1.9-3.5,1.8c-0.3,0-0.5,0.1-0.6,0.4c-0.1,0.7-0.2,1.8,1.2,1.8C53.3,50.7,54.9,49.4,56,47.5z
				 M53.4,44.9c-1,0-1.7,1.5-2.1,2.3c-0.1,0.3,0,0.5,0.3,0.5c1.1,0,1.6-0.7,1.9-1.4C53.9,45.3,53.9,44.9,53.4,44.9z"/>
			<path class="st0" d="M62.3,47.5c0.3-0.4,0.9,0,0.6,0.5c-1,1.8-2.7,3.7-5.1,3.7c-1.5,0-2.3-0.8-2.3-2.2c0-2.1,1.8-5.8,4.2-5.8
				c1.5,0,2.2,1.3,1.3,3.1c-0.7,1.5-1.9,1.9-3.5,1.8c-0.3,0-0.5,0.1-0.6,0.4c-0.1,0.7-0.2,1.8,1.2,1.8
				C59.7,50.7,61.2,49.4,62.3,47.5z M59.7,44.9c-1,0-1.7,1.5-2.1,2.3c-0.1,0.3,0,0.5,0.3,0.5c1.1,0,1.6-0.7,1.9-1.4
				C60.3,45.3,60.2,44.9,59.7,44.9z"/>
		</g>
		<g>
			<path class="st0" d="M40.7,56.1c-0.1,0.2-0.4,0-0.3-0.2c0.3-0.4,0.6-1.1,0.9-1.6c0.1-0.2,0.2-0.2,0.4-0.1l0,0
				c0.2,0.1,0.2,0.2,0.2,0.4c-0.1,0.9,0,1.8,0,2.1c0,0.1,0,0.2,0,0.3c0,0.1,0,0.1,0.1,0.1c0.3-0.2,0.6-0.7,0.9-1.1
				c0.1-0.2,0.4,0,0.3,0.2c-0.5,0.8-1,1.7-2.1,1.7c-0.4,0-0.6-0.2-0.8-0.3c-0.1-0.1-0.1-0.2,0-0.3c0.2-0.2,0.3,0.1,0.6,0.1
				c0.3,0,0.4-0.2,0.4-0.8c0-0.3,0-0.7,0-1.1c0-0.1-0.1-0.1-0.1,0C41,55.6,40.8,55.9,40.7,56.1z"/>
			<path class="st0" d="M46.2,55.9c0.1-0.2,0.4,0,0.3,0.2c-0.5,0.9-1.1,1.7-1.8,1.7c-0.5,0-0.9-0.4-0.4-1.5l0.3-0.7
				c0.1-0.3,0.2-0.6,0.2-0.7c0-0.1-0.1-0.1-0.2-0.1c-0.2,0-0.4,0.1-0.7,0.3c-0.1,0.1-0.2,0.2-0.2,0.3l-0.8,2
				c-0.1,0.2-0.2,0.3-0.4,0.3h-0.1c-0.2,0-0.2-0.1-0.2-0.3l1.7-4.2c0.1-0.2,0.2-0.3,0.4-0.3h0.1c0.2,0,0.2,0.1,0.2,0.3l-0.5,1.2
				c0,0.1,0,0.1,0.1,0.1c0.2-0.1,0.4-0.3,0.7-0.3c0.3,0,0.5,0.2,0.5,0.5c0,0.2-0.1,0.5-0.2,0.8l-0.4,1c-0.3,0.8-0.1,0.8,0,0.8
				C45.2,57.3,45.7,56.7,46.2,55.9z"/>
			<path class="st0" d="M47.9,55.9c0.1-0.2,0.4,0,0.3,0.2c-0.5,0.9-1.1,1.7-1.8,1.7c-0.5,0-0.9-0.4-0.4-1.5l0.7-1.7
				c0.1-0.2,0.2-0.3,0.4-0.3h0.1c0.2,0,0.2,0.1,0.2,0.3l-0.8,2c-0.3,0.7-0.2,0.8,0,0.8C46.9,57.3,47.5,56.7,47.9,55.9z M47.5,53.8
				c-0.2,0-0.4-0.2-0.4-0.4s0.2-0.4,0.4-0.4s0.4,0.2,0.4,0.4S47.7,53.8,47.5,53.8z"/>
			<path class="st0" d="M51,55.9c0.1-0.2,0.4,0,0.3,0.2C50.8,57,50,57.8,49,57.8c-0.4,0-0.7-0.2-0.8-0.3c-0.1-0.1-0.1-0.2,0-0.2
				c0.2-0.2,0.2,0,0.4,0c0.4,0,1.2-1.6,1.2-2.2c0-0.2-0.1-0.3-0.2-0.3c-0.2,0-0.4,0.2-0.6,0.4c-0.1,0.1-0.2,0.2-0.2,0.3l-1.3,3.3
				c-0.1,0.2-0.2,0.3-0.4,0.3h-0.1c-0.2,0-0.2-0.1-0.2-0.3l1.7-4.2c0.1-0.2,0.2-0.2,0.4-0.1l0.1,0.1c0.2,0.1,0.2,0.1,0.4,0
				c0.1-0.1,0.3-0.2,0.6-0.2c0.4,0,0.6,0.3,0.6,0.8c0,0.8-0.5,1.8-0.9,2.2c-0.1,0.1,0,0.1,0.1,0.1C50.1,57.1,50.6,56.6,51,55.9z"/>
			<path class="st0" d="M54.2,55.9c0.1-0.2,0.4,0,0.3,0.2c-0.5,0.9-1.3,1.7-2.3,1.7c-0.4,0-0.7-0.2-0.8-0.3c-0.1-0.1-0.1-0.2,0-0.2
				c0.2-0.2,0.2,0,0.4,0c0.4,0,1.2-1.6,1.2-2.2c0-0.2-0.1-0.3-0.2-0.3c-0.2,0-0.4,0.2-0.6,0.4c-0.1,0.1-0.2,0.2-0.2,0.3l-1.3,3.3
				c-0.1,0.2-0.2,0.3-0.4,0.3h-0.1c-0.2,0-0.2-0.1-0.2-0.3l1.7-4.2c0.1-0.2,0.2-0.2,0.4-0.1l0.1,0.1c0.2,0.1,0.2,0.1,0.4,0
				c0.1-0.1,0.3-0.2,0.6-0.2c0.4,0,0.6,0.3,0.6,0.8c0,0.8-0.5,1.8-0.9,2.2c-0.1,0.1,0,0.1,0.1,0.1C53.3,57.1,53.8,56.6,54.2,55.9z"
				/>
			<path class="st0" d="M55.9,55.9c0.1-0.2,0.4,0,0.3,0.2c-0.5,0.9-1.1,1.7-1.8,1.7c-0.5,0-0.9-0.4-0.4-1.5l0.7-1.7
				c0.1-0.2,0.2-0.3,0.4-0.3h0.1c0.2,0,0.2,0.1,0.2,0.3l-0.8,2c-0.3,0.7-0.2,0.8,0,0.8C55,57.3,55.5,56.7,55.9,55.9z M55.5,53.8
				c-0.2,0-0.4-0.2-0.4-0.4s0.2-0.4,0.4-0.4s0.4,0.2,0.4,0.4S55.7,53.8,55.5,53.8z"/>
			<path class="st0" d="M59.2,55.9c0.1-0.2,0.4,0,0.3,0.2c-0.5,0.9-1.1,1.7-1.8,1.7c-0.5,0-0.9-0.4-0.4-1.5l0.3-0.7
				c0.1-0.3,0.2-0.6,0.2-0.7c0-0.1-0.1-0.1-0.2-0.1c-0.1,0-0.4,0.1-0.6,0.3c-0.1,0.1-0.2,0.2-0.2,0.3l-0.8,2
				c-0.1,0.2-0.2,0.3-0.4,0.3h-0.1c-0.2,0-0.2-0.1-0.2-0.3l1.2-2.9c0.1-0.2,0.2-0.2,0.3-0.1l0.1,0.1c0.1,0.1,0.2,0.1,0.4,0
				c0.3-0.2,0.5-0.3,0.8-0.3c0.3,0,0.5,0.2,0.5,0.5c0,0.2-0.1,0.5-0.2,0.8l-0.4,1c-0.3,0.8-0.1,0.8,0,0.8
				C58.3,57.3,58.8,56.7,59.2,55.9z"/>
			<path class="st0" d="M62.6,55.9c0.1-0.2,0.4,0,0.3,0.2c-0.6,1.1-1.3,1.5-1.9,1.8c-0.1,0.1-0.2,0.1-0.3,0.3
				c-0.3,0.6-0.6,1.4-1.4,1.4c-0.4,0-0.7-0.3-0.7-0.6c0-0.6,0.8-0.9,1.3-1.1c0.1-0.1,0.2-0.2,0.3-0.3l0.1-0.1c0-0.1,0-0.1-0.1,0
				c-0.1,0.1-0.3,0.3-0.6,0.3c-0.4,0-0.6-0.3-0.6-0.7c0-0.7,0.7-2.8,1.7-2.8c0.2,0,0.5,0.1,0.6,0.3c0.1,0.1,0.1,0.2,0.3,0.1l0.4-0.2
				c0.1-0.1,0.2,0,0.1,0.1L61,57.3c0,0.1,0,0.1,0.1,0.1C61.7,57.1,62.2,56.6,62.6,55.9z M59,59c0,0.1,0.1,0.2,0.2,0.2
				c0.2,0,0.4-0.2,0.6-0.6c0-0.1,0-0.2-0.1-0.1C59.4,58.5,59,58.7,59,59z M59.9,57.2c0.3,0,0.5-0.3,0.6-0.4c0.1-0.1,0.1-0.2,0.2-0.3
				l0.4-1.1c0-0.1,0-0.2,0-0.3c0-0.1-0.1-0.3-0.3-0.3c-0.6,0-1.2,1.6-1.2,2.2C59.7,57.1,59.7,57.2,59.9,57.2z"/>
		</g>
	</g>
	<polygon id="XMLID_73_" class="st0" points="20,48.2 20.7,49.8 22.4,50 21.2,51.2 21.5,52.9 20,52.1 18.5,52.9 18.8,51.2 17.5,50 
		19.2,49.8 	"/>
	<polygon id="XMLID_72_" class="st0" points="80.5,48.2 81.2,49.8 82.9,50 81.7,51.2 82,52.9 80.5,52.1 79,52.9 79.3,51.2 78,50 
		79.7,49.8 	"/>
</g>
</svg>
