<?xml version="1.0" encoding="utf-8"?>
<!-- Generator: Adobe Illustrator 19.1.0, SVG Export Plug-In . SVG Version: 6.00 Build 0)  -->
<!DOCTYPE svg PUBLIC "-//W3C//DTD SVG 1.1//EN" "http://www.w3.org/Graphics/SVG/1.1/DTD/svg11.dtd">
<svg version="1.1" id="Layer_1" xmlns="http://www.w3.org/2000/svg" xmlns:xlink="http://www.w3.org/1999/xlink" x="0px" y="0px"
	 viewBox="0 0 238 238" style="enable-background:new 0 0 238 238;" xml:space="preserve">
<style type="text/css">
	.st0{fill:#808284;}
</style>
<g>
	<g id="XMLID_18_">
		<path class="st0" d="M120.4,235.5c0-0.9,0.7-1.6,1.6-1.6l0,0c0.9,0,1.6,0.7,1.6,1.6l0,0c0,0.9-0.7,1.6-1.6,1.6l0,0c0,0,0,0,0,0
			l0,0C121.2,237.1,120.5,236.4,120.4,235.5z M114,235.4c0-0.9,0.8-1.6,1.7-1.6l0,0c0.9,0,1.6,0.8,1.5,1.6l0,0
			c0,0.9-0.8,1.6-1.6,1.6l0,0l0,0l0,0C114.7,237,114,236.3,114,235.4z M126.9,235.3c-0.1-0.9,0.6-1.7,1.5-1.7l0,0
			c0.9-0.1,1.6,0.6,1.7,1.5l0,0c0.1,0.9-0.6,1.7-1.5,1.7l0,0c0,0-0.1,0-0.1,0l0,0C127.6,236.7,126.9,236.1,126.9,235.3z
			 M109.1,236.7c-0.9-0.1-1.5-0.9-1.5-1.7l0,0c0.1-0.9,0.8-1.5,1.7-1.5l0,0c0.9,0.1,1.5,0.9,1.5,1.7l0,0c-0.1,0.8-0.8,1.5-1.6,1.5
			l0,0C109.2,236.7,109.1,236.7,109.1,236.7z M133.3,234.7c-0.1-0.9,0.5-1.7,1.4-1.8l0,0c0.9-0.1,1.7,0.5,1.8,1.4l0,0
			c0.1,0.9-0.5,1.7-1.4,1.8l0,0c-0.1,0-0.1,0-0.2,0l0,0C134.1,236.1,133.4,235.5,133.3,234.7z M102.6,236
			C102.6,236,102.6,236,102.6,236L102.6,236c-0.9-0.1-1.5-0.9-1.4-1.8l0,0c0.1-0.9,0.9-1.5,1.8-1.4l0,0c0.9,0.1,1.5,0.9,1.4,1.8l0,0
			c-0.1,0.8-0.8,1.4-1.6,1.4l0,0C102.7,236,102.7,236,102.6,236z M139.6,233.7c-0.2-0.9,0.4-1.7,1.3-1.9l0,0
			c0.9-0.2,1.7,0.4,1.9,1.3l0,0c0.2,0.9-0.4,1.7-1.3,1.9l0,0c-0.1,0-0.2,0-0.3,0l0,0C140.4,235,139.8,234.5,139.6,233.7z
			 M96.2,234.9L96.2,234.9L96.2,234.9c-0.9-0.2-1.4-1-1.3-1.9l0,0c0.2-0.9,1-1.4,1.9-1.3l0,0c0.9,0.2,1.4,1,1.3,1.9l0,0
			c-0.2,0.8-0.8,1.3-1.6,1.3l0,0C96.4,235,96.3,234.9,96.2,234.9z M145.9,232.4c-0.2-0.9,0.3-1.7,1.2-2l0,0c0.9-0.2,1.7,0.3,2,1.2
			l0,0c0.2,0.9-0.3,1.7-1.2,2l0,0c-0.1,0-0.3,0-0.4,0l0,0C146.7,233.6,146.1,233.1,145.9,232.4z M89.8,233.5L89.8,233.5L89.8,233.5
			c-0.9-0.2-1.4-1.1-1.2-2l0,0c0.2-0.9,1.1-1.4,2-1.2l0,0c0.9,0.2,1.4,1.1,1.2,2l0,0c-0.2,0.7-0.8,1.2-1.5,1.2l0,0
			C90.1,233.5,90,233.5,89.8,233.5z M152.1,230.8c-0.3-0.9,0.2-1.8,1.1-2l0,0c0.9-0.3,1.7,0.2,2,1.1l0,0c0.3,0.8-0.2,1.7-1.1,2l0,0
			c-0.2,0-0.3,0.1-0.5,0.1l0,0C153,231.9,152.3,231.4,152.1,230.8z M83.5,231.7L83.5,231.7L83.5,231.7c-0.9-0.3-1.3-1.2-1.1-2l0,0
			c0.3-0.8,1.2-1.3,2-1l0,0c0.8,0.3,1.3,1.2,1.1,2l0,0c-0.2,0.7-0.9,1.1-1.5,1.1l0,0C83.9,231.8,83.7,231.8,83.5,231.7z
			 M158.2,228.8c-0.3-0.8,0.1-1.7,0.9-2.1l0,0c0.8-0.3,1.8,0.1,2.1,0.9l0,0c0.3,0.8-0.1,1.8-0.9,2.1l0,0c-0.2,0.1-0.4,0.1-0.6,0.1
			l0,0C159.1,229.8,158.5,229.4,158.2,228.8z M77.4,229.6L77.4,229.6L77.4,229.6c-0.8-0.3-1.3-1.3-0.9-2.1l0,0
			c0.3-0.8,1.2-1.3,2.1-0.9l0,0c0.8,0.3,1.3,1.2,0.9,2.1l0,0c-0.2,0.6-0.9,1-1.5,1l0,0C77.8,229.7,77.6,229.7,77.4,229.6z
			 M164.2,226.4c-0.3-0.8,0-1.8,0.8-2.1l0,0c0.8-0.3,1.8,0,2.1,0.8l0,0c0.4,0.8,0,1.8-0.8,2.1l0,0c-0.2,0.1-0.4,0.1-0.6,0.1l0,0
			C165.1,227.4,164.5,227,164.2,226.4z M71.3,227.1c-0.8-0.3-1.2-1.3-0.8-2.1l0,0c0.3-0.8,1.3-1.2,2.1-0.8l0,0
			c0.8,0.3,1.2,1.3,0.8,2.1l0,0c-0.3,0.6-0.8,1-1.5,1l0,0C71.8,227.3,71.5,227.2,71.3,227.1z M170.1,223.8c-0.4-0.8-0.1-1.8,0.7-2.2
			v0c0.8-0.4,1.8-0.1,2.2,0.7l0,0c0.4,0.8,0.1,1.7-0.7,2.2l0,0l0,0l0,0c-0.2,0.1-0.5,0.2-0.7,0.2l0,0
			C170.9,224.7,170.3,224.3,170.1,223.8z M65.4,224.3c-0.8-0.4-1.1-1.4-0.7-2.2l0,0c0.4-0.8,1.4-1.1,2.2-0.7l0,0
			c0.8,0.4,1.1,1.4,0.7,2.2l0,0c-0.3,0.6-0.9,0.9-1.4,0.9l0,0C65.9,224.5,65.7,224.4,65.4,224.3z M175.7,220.8
			c-0.4-0.8-0.2-1.7,0.6-2.2l0,0c0.8-0.4,1.7-0.2,2.2,0.6l0,0c0.4,0.8,0.2,1.8-0.6,2.2l0,0c-0.2,0.1-0.5,0.2-0.8,0.2l0,0
			C176.6,221.6,176,221.3,175.7,220.8z M59.7,221.2C59.7,221.2,59.7,221.2,59.7,221.2L59.7,221.2c-0.8-0.5-1-1.4-0.6-2.2l0,0
			c0.4-0.8,1.4-1,2.2-0.6l0,0c0.8,0.4,1,1.4,0.6,2.2l0,0c-0.3,0.5-0.8,0.8-1.4,0.8l0,0C60.2,221.4,60,221.3,59.7,221.2z
			 M181.3,217.5c-0.5-0.7-0.3-1.7,0.5-2.2l0,0c0.7-0.5,1.7-0.3,2.2,0.5l0,0c0.5,0.7,0.3,1.7-0.5,2.2l0,0l0,0l0,0
			c-0.3,0.2-0.6,0.3-0.9,0.3l0,0C182.1,218.3,181.6,218,181.3,217.5z M54.2,217.8L54.2,217.8L54.2,217.8c-0.7-0.5-1-1.5-0.5-2.2l0,0
			c0.5-0.7,1.5-1,2.2-0.5l0,0c0.7,0.5,1,1.5,0.5,2.2l0,0c-0.3,0.5-0.8,0.7-1.3,0.7l0,0C54.7,218,54.4,217.9,54.2,217.8z
			 M186.6,213.9c-0.5-0.7-0.4-1.7,0.3-2.3l0,0c0.7-0.5,1.7-0.4,2.2,0.3l0,0c0.5,0.7,0.4,1.7-0.3,2.2l0,0c-0.3,0.2-0.6,0.3-0.9,0.3
			l0,0C187.4,214.6,186.9,214.4,186.6,213.9z M48.8,214c-0.7-0.5-0.9-1.5-0.3-2.2l0,0c0.5-0.7,1.5-0.9,2.3-0.3l0,0
			c0.7,0.5,0.9,1.5,0.3,2.3l0,0c-0.3,0.4-0.8,0.6-1.3,0.6l0,0C49.4,214.3,49.1,214.2,48.8,214z M191.7,210.1
			c-0.6-0.7-0.5-1.7,0.2-2.3l0,0c0.7-0.6,1.7-0.5,2.3,0.2l0,0c0.6,0.7,0.5,1.7-0.2,2.3l0,0c0,0,0,0,0,0l0,0c-0.3,0.2-0.7,0.4-1,0.4
			l0,0C192.5,210.6,192,210.4,191.7,210.1z M43.7,210L43.7,210L43.7,210c-0.7-0.6-0.8-1.6-0.2-2.3l0,0c0.6-0.7,1.6-0.8,2.3-0.2v0
			c0.7,0.6,0.8,1.6,0.2,2.3l0,0c-0.3,0.4-0.8,0.6-1.2,0.6l0,0C44.3,210.4,44,210.3,43.7,210z M196.6,205.9c-0.6-0.7-0.6-1.7,0.1-2.3
			l0,0c0.7-0.6,1.7-0.6,2.3,0.1l0,0c0.6,0.7,0.6,1.7-0.1,2.3l0,0l0,0l0,0c-0.3,0.3-0.7,0.4-1.1,0.4l0,0
			C197.4,206.4,196.9,206.3,196.6,205.9z M38.8,205.7c-0.6-0.6-0.7-1.6-0.1-2.3l0,0c0.6-0.7,1.6-0.7,2.3-0.1l0,0
			c0.6,0.6,0.7,1.6,0.1,2.3l0,0c-0.3,0.3-0.7,0.5-1.2,0.5l0,0C39.5,206.1,39.1,206,38.8,205.7z M201.3,201.5c-0.6-0.6-0.7-1.6,0-2.3
			l0,0c0.6-0.6,1.6-0.7,2.3,0l0,0c0.6,0.6,0.6,1.6,0,2.3l0,0c-0.3,0.3-0.7,0.5-1.2,0.5l0,0C202,201.9,201.6,201.8,201.3,201.5z
			 M34.1,201.1c-0.6-0.6-0.6-1.6,0-2.3l0,0c0.6-0.6,1.7-0.6,2.3,0l0,0c0.6,0.6,0.6,1.7,0,2.3l0,0c-0.3,0.3-0.7,0.5-1.1,0.5l0,0
			C34.9,201.6,34.4,201.5,34.1,201.1z M205.7,196.8c-0.7-0.6-0.7-1.6-0.1-2.3l0,0c0.6-0.7,1.6-0.7,2.3-0.2l0,0
			c0.7,0.6,0.7,1.6,0.1,2.3l0,0c-0.3,0.4-0.8,0.5-1.2,0.5l0,0C206.4,197.2,206,197.1,205.7,196.8z M29.7,196.3
			C29.7,196.3,29.7,196.3,29.7,196.3L29.7,196.3c-0.6-0.7-0.5-1.7,0.2-2.3l0,0c0.7-0.6,1.7-0.5,2.3,0.1l0,0c0.6,0.7,0.5,1.7-0.2,2.3
			l0,0c-0.3,0.3-0.7,0.4-1.1,0.4l0,0C30.5,196.9,30,196.7,29.7,196.3z M209.9,191.9c-0.7-0.6-0.8-1.6-0.3-2.3v0
			c0.5-0.7,1.5-0.8,2.3-0.3l0,0c0.7,0.5,0.8,1.5,0.3,2.3l0,0c0,0,0,0,0,0l0,0c-0.3,0.4-0.8,0.6-1.3,0.6l0,0
			C210.5,192.3,210.2,192.2,209.9,191.9z M25.6,191.3C25.6,191.3,25.6,191.3,25.6,191.3L25.6,191.3c-0.5-0.7-0.4-1.7,0.3-2.3l0,0
			c0.7-0.5,1.7-0.4,2.3,0.3l0,0c0.5,0.7,0.4,1.7-0.3,2.3l0,0c-0.3,0.2-0.6,0.3-1,0.3l0,0C26.4,191.9,25.9,191.7,25.6,191.3z
			 M213.8,186.8c-0.7-0.5-0.9-1.5-0.4-2.2l0,0c0.5-0.7,1.5-0.9,2.2-0.4l0,0c0.7,0.5,0.9,1.5,0.4,2.2l0,0c-0.3,0.4-0.8,0.7-1.3,0.7
			l0,0C214.4,187.1,214.1,187,213.8,186.8z M21.8,186.1L21.8,186.1L21.8,186.1c-0.5-0.7-0.3-1.7,0.4-2.2l0,0
			c0.7-0.5,1.7-0.3,2.2,0.4l0,0c0.5,0.7,0.3,1.7-0.4,2.2l0,0c-0.3,0.2-0.6,0.3-0.9,0.3l0,0C22.6,186.7,22.1,186.5,21.8,186.1z
			 M217.4,181.5c-0.8-0.5-1-1.4-0.5-2.2l0,0c0.5-0.8,1.4-1,2.2-0.5l0,0c0.8,0.5,1,1.5,0.5,2.2l0,0c-0.3,0.5-0.8,0.8-1.4,0.8l0,0
			C217.9,181.7,217.6,181.6,217.4,181.5z M18.2,180.6c-0.5-0.8-0.2-1.8,0.5-2.2l0,0c0.7-0.5,1.7-0.2,2.2,0.5l0,0
			c0.5,0.8,0.2,1.7-0.5,2.2l0,0c-0.3,0.2-0.5,0.2-0.8,0.2l0,0C19,181.4,18.5,181.1,18.2,180.6z M220.7,176c-0.8-0.4-1.1-1.4-0.6-2.2
			l0,0c0.4-0.8,1.4-1.1,2.2-0.7l0,0c0.8,0.4,1.1,1.4,0.6,2.2l0,0l0,0l0,0c-0.3,0.5-0.8,0.8-1.4,0.8l0,0
			C221.2,176.2,220.9,176.1,220.7,176z M15,175c-0.4-0.8-0.1-1.8,0.7-2.2l0,0c0.8-0.4,1.7-0.1,2.2,0.7l0,0c0.4,0.8,0.1,1.8-0.7,2.2
			l0,0c-0.2,0.1-0.5,0.2-0.8,0.2l0,0C15.8,175.8,15.2,175.5,15,175z M223.7,170.3c-0.8-0.4-1.1-1.4-0.8-2.1h0
			c0.4-0.8,1.4-1.2,2.1-0.8l0,0c0.8,0.4,1.2,1.3,0.8,2.1l0,0c-0.3,0.6-0.9,0.9-1.5,0.9l0,0C224.1,170.4,223.9,170.4,223.7,170.3z
			 M12,169.2c-0.4-0.8,0-1.8,0.8-2.1l0,0c0.8-0.4,1.8,0,2.1,0.8l0,0c0.4,0.8,0,1.8-0.8,2.1l0,0c-0.2,0.1-0.5,0.2-0.7,0.2l0,0
			C12.9,170.1,12.3,169.7,12,169.2z M226.4,164.4c-0.8-0.3-1.2-1.3-0.9-2.1l0,0c0.3-0.8,1.3-1.2,2.1-0.9l0,0
			c0.8,0.3,1.2,1.3,0.9,2.1l0,0c-0.3,0.6-0.9,1-1.5,1l0,0C226.7,164.5,226.6,164.5,226.4,164.4z M9.4,163.2
			C9.4,163.2,9.4,163.2,9.4,163.2L9.4,163.2c-0.3-0.8,0.1-1.8,0.9-2.1l0,0c0.8-0.3,1.8,0.1,2.1,0.9l0,0c0.3,0.8-0.1,1.8-0.9,2.1l0,0
			c-0.2,0.1-0.4,0.1-0.6,0.1l0,0C10.3,164.2,9.7,163.8,9.4,163.2z M228.7,158.4c-0.8-0.3-1.3-1.2-1-2l0,0c0.3-0.8,1.2-1.3,2-1l0,0
			c0.8,0.3,1.3,1.2,1,2l0,0c-0.2,0.7-0.9,1.1-1.5,1.1l0,0C229,158.5,228.9,158.5,228.7,158.4z M7.2,157.1c-0.3-0.8,0.2-1.7,1-2l0,0
			c0.8-0.3,1.8,0.2,2,1l0,0c0.3,0.9-0.2,1.8-1,2l0,0c-0.2,0.1-0.3,0.1-0.5,0.1l0,0C8,158.2,7.4,157.7,7.2,157.1z M230.7,152.3
			c-0.9-0.2-1.4-1.1-1.1-2l0,0c0.2-0.9,1.1-1.4,2-1.1l0,0c0.9,0.2,1.3,1.1,1.1,2l0,0c-0.2,0.7-0.8,1.2-1.5,1.2l0,0
			C231,152.4,230.8,152.3,230.7,152.3z M5.2,150.9L5.2,150.9L5.2,150.9c-0.2-0.9,0.3-1.7,1.1-2l0,0c0.9-0.2,1.7,0.2,2,1.1l0,0
			c0.2,0.9-0.3,1.7-1.1,2l0,0c-0.1,0-0.3,0-0.4,0l0,0C6.1,152,5.4,151.6,5.2,150.9z M232.4,146.1c-0.9-0.2-1.4-1.1-1.2-1.9l0,0
			c0.2-0.9,1.1-1.4,1.9-1.2l0,0c0.9,0.2,1.4,1.1,1.2,1.9l0,0c-0.2,0.7-0.8,1.3-1.6,1.3l0,0C232.6,146.1,232.5,146.1,232.4,146.1z
			 M3.6,144.5c-0.2-0.9,0.4-1.7,1.2-1.9l0,0c0.9-0.2,1.7,0.4,1.9,1.2l0,0c0.2,0.9-0.4,1.7-1.2,1.9l0,0c-0.1,0-0.2,0-0.3,0l0,0
			C4.5,145.8,3.8,145.3,3.6,144.5z M233.7,139.8c-0.9-0.1-1.5-1-1.3-1.9v0c0.1-0.9,1-1.5,1.8-1.3l0,0c0.9,0.1,1.5,1,1.3,1.8l0,0
			c0,0,0,0,0,0l0,0c-0.1,0.8-0.8,1.3-1.6,1.3l0,0C233.8,139.8,233.8,139.8,233.7,139.8z M2.4,138.1L2.4,138.1L2.4,138.1
			c-0.1-0.9,0.4-1.7,1.3-1.8l0,0c0.9-0.1,1.7,0.4,1.9,1.3l0,0c0.1,0.9-0.5,1.7-1.3,1.8l0,0c-0.1,0-0.2,0-0.3,0l0,0
			C3.2,139.5,2.6,138.9,2.4,138.1z M234.6,133.4c-0.9-0.1-1.5-0.9-1.4-1.8l0,0c0.1-0.9,0.9-1.5,1.8-1.4l0,0c0.9,0.1,1.5,0.9,1.4,1.8
			l0,0l0,0l0,0c-0.1,0.8-0.8,1.4-1.6,1.4l0,0C234.7,133.4,234.7,133.4,234.6,133.4z M1.6,131.7c-0.1-0.9,0.5-1.7,1.4-1.8l0,0
			c0.9-0.1,1.7,0.5,1.8,1.4l0,0c0.1,0.9-0.5,1.7-1.4,1.8l0,0c-0.1,0-0.1,0-0.2,0l0,0C2.3,133.1,1.7,132.5,1.6,131.7z M235.2,127
			c-0.9,0-1.6-0.8-1.5-1.7l0,0c0-0.9,0.8-1.6,1.7-1.5l0,0c0.9,0,1.6,0.8,1.5,1.7l0,0l0,0l0,0C236.9,126.4,236.2,127,235.2,127
			L235.2,127C235.3,127,235.3,127,235.2,127z M1,125.2L1,125.2L1,125.2c0-0.9,0.6-1.6,1.5-1.7l0,0c0.9,0,1.6,0.6,1.7,1.5l0,0
			c0,0.9-0.6,1.6-1.5,1.7l0,0c0,0-0.1,0-0.1,0l0,0C1.8,126.7,1.1,126,1,125.2z M233.9,119c0-0.9,0.7-1.6,1.6-1.6l0,0
			c0.9,0,1.6,0.7,1.6,1.6l0,0c0,0.9-0.7,1.6-1.6,1.6l0,0C234.6,120.6,233.9,119.9,233.9,119z M2.5,120.3c-0.9,0-1.6-0.7-1.6-1.6l0,0
			c0-0.9,0.7-1.6,1.6-1.6l0,0c0.9,0,1.6,0.7,1.6,1.6l0,0C4.1,119.6,3.4,120.3,2.5,120.3L2.5,120.3L2.5,120.3z M233.8,113.3
			c0-0.9,0.6-1.6,1.5-1.7l0,0c0.9,0,1.6,0.6,1.7,1.5l0,0c0,0.9-0.6,1.6-1.5,1.7l0,0c0,0,0,0-0.1,0l0,0
			C234.5,114.9,233.8,114.2,233.8,113.3z M2.6,113.9c-0.9,0-1.6-0.8-1.5-1.7l0,0c0-0.9,0.8-1.6,1.7-1.5l0,0c0.9,0,1.6,0.8,1.5,1.7
			l0,0C4.2,113.2,3.5,113.9,2.6,113.9L2.6,113.9C2.7,113.9,2.6,113.9,2.6,113.9z M233.3,107L233.3,107c-0.1-0.9,0.5-1.7,1.4-1.8l0,0
			c0.9-0.1,1.7,0.5,1.8,1.4l0,0c0.1,0.9-0.5,1.7-1.4,1.8l0,0c0,0-0.1,0-0.2,0l0,0C234.1,108.5,233.4,107.8,233.3,107z M3.1,107.4
			c-0.9-0.1-1.5-0.9-1.4-1.8l0,0c0,0,0,0,0,0l0,0c0.1-0.9,0.9-1.5,1.8-1.4l0,0c0.9,0.1,1.5,0.9,1.4,1.8l0,0
			c-0.1,0.8-0.8,1.4-1.6,1.4l0,0C3.2,107.5,3.1,107.5,3.1,107.4z M232.4,100.7c-0.1-0.9,0.5-1.7,1.3-1.8l0,0
			c0.9-0.1,1.7,0.5,1.8,1.3l0,0c0.1,0.9-0.4,1.7-1.3,1.8l0,0c-0.1,0-0.2,0-0.2,0l0,0C233.3,102.1,232.6,101.5,232.4,100.7z
			 M3.9,101.1c-0.9-0.1-1.5-1-1.3-1.9l0,0l0,0l0,0c0.1-0.9,1-1.5,1.8-1.3l0,0c0.9,0.1,1.5,1,1.3,1.9l0,0c-0.1,0.8-0.8,1.3-1.6,1.3
			l0,0C4,101.1,3.9,101.1,3.9,101.1z M231.3,94.5c-0.2-0.9,0.4-1.7,1.2-1.9l0,0c0.9-0.2,1.7,0.4,1.9,1.2l0,0c0,0,0,0,0,0l0,0
			c0.2,0.9-0.4,1.7-1.2,1.9l0,0c-0.1,0-0.2,0-0.3,0l0,0C232.1,95.8,231.4,95.3,231.3,94.5z M5,94.8c-0.9-0.2-1.4-1.1-1.2-1.9l0,0
			C4,92,4.9,91.4,5.7,91.6l0,0c0.9,0.2,1.4,1.1,1.2,1.9l0,0c-0.2,0.7-0.8,1.3-1.6,1.3l0,0C5.3,94.8,5.1,94.8,5,94.8z M229.8,88.3
			c-0.2-0.9,0.3-1.7,1.1-2l0,0c0.9-0.2,1.7,0.3,2,1.1l0,0l0,0l0,0c0.2,0.9-0.3,1.7-1.1,2l0,0c-0.1,0-0.3,0.1-0.4,0.1l0,0
			C230.6,89.5,230,89.1,229.8,88.3z M6.5,88.5c-0.8-0.2-1.3-1.1-1.1-2l0,0c0.2-0.9,1.1-1.3,2-1.1l0,0c0.9,0.2,1.3,1.1,1.1,2l0,0
			c-0.2,0.7-0.8,1.2-1.5,1.2l0,0C6.8,88.6,6.7,88.5,6.5,88.5z M227.9,82.3c-0.3-0.8,0.2-1.8,1-2l0,0c0.8-0.3,1.7,0.2,2,1l0,0
			c0.3,0.8-0.2,1.7-1,2l0,0c-0.2,0.1-0.3,0.1-0.5,0.1l0,0C228.8,83.4,228.1,83,227.9,82.3z M8.4,82.3c-0.8-0.3-1.3-1.2-1-2l0,0
			c0.3-0.8,1.2-1.3,2-1l0,0c0.8,0.3,1.3,1.2,1,2l0,0c-0.2,0.7-0.9,1.1-1.5,1.1l0,0C8.7,82.4,8.5,82.4,8.4,82.3z M225.7,76.3
			L225.7,76.3c-0.3-0.8,0.1-1.7,0.9-2.1l0,0c0.8-0.3,1.7,0.1,2.1,0.9l0,0l0,0l0,0c0.3,0.8-0.1,1.8-0.9,2.1l0,0
			c-0.2,0.1-0.4,0.1-0.6,0.1l0,0C226.6,77.4,226,77,225.7,76.3z M10.6,76.3C9.7,76,9.3,75,9.7,74.2l0,0c0.3-0.8,1.3-1.2,2.1-0.9l0,0
			c0.8,0.3,1.2,1.3,0.9,2.1l0,0c-0.3,0.6-0.9,1-1.5,1l0,0C11,76.4,10.8,76.4,10.6,76.3z M223.2,70.5L223.2,70.5
			c-0.4-0.8,0-1.8,0.8-2.1l0,0c0.8-0.4,1.8,0,2.1,0.8l0,0l0,0l0,0c0.4,0.8,0,1.8-0.8,2.1l0,0c-0.2,0.1-0.4,0.1-0.7,0.1l0,0
			C224.1,71.5,223.5,71.1,223.2,70.5z M13.1,70.4c-0.8-0.4-1.2-1.3-0.8-2.2l0,0c0.4-0.8,1.3-1.1,2.1-0.8l0,0
			c0.8,0.4,1.1,1.3,0.8,2.1l0,0c-0.3,0.6-0.9,0.9-1.4,0.9l0,0C13.6,70.5,13.3,70.5,13.1,70.4z M220.4,64.9c-0.4-0.8-0.1-1.8,0.7-2.2
			l0,0c0.8-0.4,1.8-0.1,2.2,0.7l0,0c0.4,0.8,0.1,1.7-0.7,2.2l0,0c-0.2,0.1-0.5,0.2-0.8,0.2l0,0C221.2,65.7,220.7,65.4,220.4,64.9z
			 M15.9,64.6c-0.8-0.4-1.1-1.4-0.6-2.2l0,0c0.4-0.8,1.4-1.1,2.2-0.6l0,0c0.8,0.4,1.1,1.4,0.6,2.2l0,0c-0.3,0.5-0.9,0.8-1.4,0.8l0,0
			C16.5,64.8,16.2,64.7,15.9,64.6z M217.2,59.4c-0.5-0.8-0.2-1.7,0.5-2.2l0,0c0.8-0.4,1.7-0.2,2.2,0.5l0,0c0.5,0.8,0.2,1.7-0.5,2.2
			l0,0c-0.3,0.2-0.5,0.2-0.8,0.2l0,0C218.1,60.2,217.5,59.9,217.2,59.4z M19.1,59c-0.8-0.5-1-1.4-0.5-2.2l0,0c0.5-0.8,1.5-1,2.2-0.5
			l0,0c0.7,0.5,1,1.5,0.5,2.2l0,0C21,59,20.5,59.2,20,59.2l0,0C19.7,59.2,19.4,59.2,19.1,59z M213.8,54.1c-0.5-0.7-0.3-1.7,0.4-2.2
			l0,0c0.7-0.5,1.7-0.3,2.2,0.4l0,0c0.5,0.7,0.3,1.7-0.4,2.2l0,0c-0.3,0.2-0.6,0.3-0.9,0.3l0,0C214.6,54.8,214.1,54.5,213.8,54.1z
			 M22.6,53.6c-0.7-0.5-0.9-1.5-0.4-2.2l0,0c0.5-0.7,1.5-0.9,2.2-0.4l0,0c0.7,0.5,0.9,1.5,0.4,2.2l0,0c-0.3,0.4-0.8,0.7-1.3,0.7l0,0
			C23.2,53.9,22.9,53.8,22.6,53.6z M210.1,48.9L210.1,48.9c-0.5-0.7-0.4-1.7,0.3-2.2l0,0c0.7-0.6,1.7-0.4,2.3,0.3l0,0l0,0l0,0
			c0.5,0.7,0.4,1.7-0.3,2.3l0,0c-0.3,0.2-0.6,0.3-1,0.3l0,0C210.9,49.6,210.4,49.3,210.1,48.9z M26.3,48.4c-0.7-0.5-0.8-1.6-0.3-2.3
			l0,0c0.6-0.7,1.6-0.8,2.3-0.3l0,0c0.7,0.5,0.8,1.5,0.3,2.3l0,0c-0.3,0.4-0.8,0.6-1.3,0.6l0,0C27,48.7,26.6,48.6,26.3,48.4z
			 M206.1,44c-0.6-0.7-0.5-1.7,0.2-2.3l0,0c0.7-0.6,1.7-0.5,2.3,0.2l0,0c0.6,0.7,0.5,1.7-0.2,2.3l0,0c-0.3,0.3-0.7,0.4-1.1,0.4l0,0
			C206.8,44.6,206.4,44.4,206.1,44z M30.4,43.4c-0.7-0.6-0.7-1.6-0.1-2.3l0,0l0,0l0,0c0.6-0.7,1.6-0.7,2.3-0.1l0,0
			c0.7,0.6,0.7,1.6,0.1,2.3l0,0c-0.3,0.3-0.8,0.5-1.2,0.5l0,0C31.1,43.8,30.7,43.6,30.4,43.4z M201.8,39.3c-0.6-0.6-0.6-1.6,0-2.3
			l0,0c0.6-0.6,1.7-0.6,2.3,0l0,0l0,0l0,0c0.6,0.6,0.6,1.6,0,2.3l0,0c-0.3,0.3-0.7,0.4-1.1,0.4l0,0
			C202.5,39.8,202.1,39.7,201.8,39.3z M34.7,38.6c-0.6-0.6-0.6-1.6,0-2.3l0,0c0.6-0.6,1.6-0.6,2.3,0l0,0c0.6,0.6,0.6,1.6,0,2.3l0,0
			c-0.3,0.3-0.7,0.5-1.2,0.5l0,0C35.4,39,35,38.9,34.7,38.6z M197.3,34.9c-0.6-0.6-0.7-1.6-0.1-2.3l0,0c0.6-0.6,1.6-0.7,2.3-0.1l0,0
			c0.6,0.6,0.7,1.6,0.1,2.3l0,0c-0.3,0.3-0.7,0.5-1.2,0.5l0,0C198,35.3,197.6,35.2,197.3,34.9z M39.2,34.1c-0.6-0.6-0.5-1.7,0.1-2.3
			l0,0c0.6-0.6,1.7-0.6,2.3,0.1l0,0c0.6,0.6,0.5,1.7-0.1,2.3l0,0c-0.3,0.3-0.7,0.4-1.1,0.4l0,0C40,34.6,39.6,34.4,39.2,34.1z
			 M192.5,30.7c-0.7-0.6-0.8-1.6-0.2-2.3l0,0c0.6-0.7,1.6-0.8,2.3-0.2l0,0c0.7,0.6,0.8,1.6,0.2,2.3l0,0c-0.3,0.4-0.8,0.6-1.2,0.6
			l0,0C193.2,31.1,192.8,31,192.5,30.7z M44.1,29.8c-0.6-0.7-0.5-1.7,0.2-2.3l0,0c0.7-0.6,1.7-0.5,2.3,0.2l0,0
			c0.6,0.7,0.5,1.7-0.2,2.3l0,0c-0.3,0.2-0.7,0.4-1,0.4l0,0C44.8,30.4,44.4,30.2,44.1,29.8z M187.5,26.8c-0.7-0.5-0.9-1.5-0.3-2.3
			l0,0c0.5-0.7,1.5-0.9,2.3-0.3l0,0c0.7,0.5,0.9,1.5,0.3,2.3l0,0c-0.3,0.4-0.8,0.6-1.3,0.6l0,0C188.2,27.1,187.8,27,187.5,26.8z
			 M49.1,25.8c-0.5-0.7-0.4-1.7,0.3-2.2l0,0l0,0l0,0c0.7-0.5,1.7-0.4,2.2,0.3l0,0c0.5,0.7,0.4,1.7-0.3,2.2v0
			c-0.3,0.2-0.6,0.3-0.9,0.3l0,0C49.9,26.5,49.4,26.2,49.1,25.8z M182.3,23.1c-0.7-0.5-1-1.5-0.5-2.2l0,0c0.5-0.7,1.5-0.9,2.2-0.4
			l0,0c0.8,0.5,1,1.5,0.5,2.2l0,0c-0.3,0.5-0.8,0.7-1.3,0.7l0,0C182.9,23.4,182.6,23.3,182.3,23.1z M54.3,22.1
			c-0.5-0.7-0.3-1.7,0.5-2.2l0,0c0.7-0.5,1.7-0.3,2.2,0.5l0,0c0.5,0.7,0.3,1.7-0.5,2.2l0,0c-0.3,0.2-0.6,0.3-0.9,0.3l0,0
			C55.1,22.8,54.6,22.5,54.3,22.1z M177,19.8c-0.8-0.5-1-1.4-0.6-2.2l0,0c0.4-0.8,1.4-1,2.2-0.6l0,0c0.8,0.4,1,1.4,0.6,2.2l0,0
			c-0.3,0.5-0.8,0.8-1.4,0.8l0,0C177.5,20,177.2,19.9,177,19.8z M59.8,18.7c-0.4-0.8-0.2-1.8,0.6-2.2l0,0c0.8-0.4,1.8-0.2,2.2,0.6
			l0,0c0.4,0.8,0.2,1.8-0.6,2.2l0,0c-0.3,0.1-0.5,0.2-0.8,0.2l0,0C60.6,19.5,60,19.2,59.8,18.7z M171.4,16.7
			c-0.8-0.4-1.1-1.4-0.7-2.2l0,0c0.4-0.8,1.4-1.1,2.2-0.7l0,0c0.8,0.4,1.1,1.4,0.7,2.2l0,0c-0.3,0.6-0.8,0.9-1.4,0.9l0,0
			C171.9,16.9,171.6,16.9,171.4,16.7z M65.4,15.5c-0.4-0.8-0.1-1.8,0.7-2.2l0,0c0.8-0.4,1.8-0.1,2.2,0.7l0,0
			c0.4,0.8,0.1,1.7-0.7,2.2l0,0c-0.2,0.1-0.5,0.2-0.7,0.2l0,0C66.2,16.4,65.7,16.1,65.4,15.5z M165.7,14c-0.8-0.4-1.2-1.3-0.8-2.1
			l0,0c0.4-0.8,1.3-1.2,2.1-0.8l0,0c0.8,0.4,1.2,1.3,0.8,2.1l0,0c-0.3,0.6-0.9,1-1.5,1l0,0C166.1,14.1,165.9,14.1,165.7,14z
			 M71.1,12.7c-0.3-0.8,0-1.8,0.8-2.1l0,0c0.8-0.4,1.8,0,2.1,0.8l0,0c0.4,0.8,0,1.8-0.8,2.1l0,0c-0.2,0.1-0.4,0.1-0.6,0.1l0,0
			C72,13.7,71.4,13.3,71.1,12.7z M159.8,11.6c-0.8-0.3-1.3-1.3-0.9-2.1l0,0c0.3-0.8,1.3-1.3,2.1-0.9l0,0c0.8,0.3,1.3,1.3,0.9,2.1
			l0,0c-0.2,0.6-0.9,1-1.5,1l0,0C160.2,11.7,160,11.6,159.8,11.6z M77.1,10.3c-0.3-0.8,0.1-1.8,1-2.1l0,0c0.8-0.3,1.7,0.1,2.1,1l0,0
			c0.3,0.8-0.1,1.8-1,2.1l0,0c-0.2,0.1-0.4,0.1-0.5,0.1l0,0C77.9,11.3,77.3,10.9,77.1,10.3z M153.8,9.5c-0.9-0.3-1.3-1.2-1.1-2l0,0
			c0.3-0.8,1.2-1.3,2-1l0,0c0.8,0.3,1.3,1.2,1,2l0,0c-0.2,0.7-0.8,1.1-1.5,1.1l0,0C154.1,9.5,154,9.5,153.8,9.5z M83.1,8.1
			c-0.3-0.8,0.2-1.7,1.1-2l0,0c0.8-0.3,1.7,0.2,2,1.1l0,0c0.2,0.8-0.2,1.7-1.1,2l0,0c-0.1,0-0.3,0.1-0.5,0.1l0,0
			C84,9.3,83.3,8.8,83.1,8.1z M147.7,7.7L147.7,7.7c-0.9-0.2-1.4-1.1-1.2-1.9l0,0c0.2-0.9,1.1-1.4,2-1.2l0,0c0.9,0.2,1.4,1.1,1.2,2
			l0,0c-0.2,0.7-0.8,1.2-1.5,1.2l0,0C148,7.8,147.9,7.8,147.7,7.7z M89.3,6.3c-0.2-0.9,0.3-1.7,1.2-2l0,0c0.9-0.2,1.7,0.3,1.9,1.2
			l0,0c0.2,0.9-0.3,1.7-1.2,1.9l0,0c-0.1,0-0.3,0-0.4,0l0,0C90.1,7.5,89.5,7,89.3,6.3z M141.5,6.3c-0.9-0.2-1.4-1-1.3-1.9l0,0
			c0.2-0.9,1-1.4,1.9-1.3l0,0c0.9,0.2,1.4,1,1.3,1.9l0,0c-0.2,0.8-0.8,1.3-1.6,1.3l0,0C141.7,6.4,141.6,6.3,141.5,6.3z M95.5,4.9
			C95.4,4,96,3.1,96.8,3l0,0c0.9-0.2,1.7,0.4,1.9,1.3l0,0c0.2,0.9-0.4,1.7-1.3,1.9l0,0c-0.1,0-0.2,0-0.3,0l0,0
			C96.4,6.2,95.7,5.6,95.5,4.9z M135.3,5.3c-0.9-0.1-1.5-0.9-1.4-1.8l0,0c0.1-0.9,0.9-1.5,1.8-1.4l0,0c0.9,0.1,1.5,0.9,1.4,1.8l0,0
			c-0.1,0.8-0.8,1.4-1.6,1.4l0,0C135.4,5.3,135.4,5.3,135.3,5.3z M101.9,3.7c-0.1-0.9,0.5-1.7,1.4-1.8l0,0l0,0l0,0
			c0.9-0.1,1.7,0.5,1.8,1.4l0,0c0.1,0.9-0.5,1.7-1.4,1.8l0,0c-0.1,0-0.1,0-0.2,0l0,0C102.7,5.1,102,4.5,101.9,3.7z M129,4.5
			c-0.9-0.1-1.5-0.9-1.5-1.7l0,0c0.1-0.9,0.9-1.5,1.7-1.5l0,0l0,0l0,0c0.9,0.1,1.5,0.9,1.5,1.7l0,0c-0.1,0.8-0.8,1.5-1.6,1.5l0,0
			C129.1,4.5,129,4.5,129,4.5z M108.3,3c-0.1-0.9,0.6-1.7,1.5-1.7l0,0c0.9-0.1,1.7,0.6,1.7,1.5l0,0c0.1,0.9-0.6,1.7-1.5,1.7l0,0
			c0,0-0.1,0-0.1,0l0,0C109,4.5,108.3,3.8,108.3,3z M122.7,4.2c-0.9,0-1.6-0.8-1.5-1.6l0,0c0-0.9,0.8-1.6,1.6-1.6l0,0l0,0l0,0
			c0.9,0,1.6,0.8,1.6,1.7l0,0C124.3,3.5,123.6,4.2,122.7,4.2L122.7,4.2C122.7,4.2,122.7,4.2,122.7,4.2z M114.7,2.6
			c0-0.9,0.7-1.6,1.6-1.6l0,0l0,0l0,0c0.9,0,1.6,0.7,1.6,1.6l0,0c0,0.9-0.7,1.6-1.6,1.6l0,0c0,0,0,0,0,0l0,0
			C115.4,4.1,114.7,3.4,114.7,2.6z"/>
		<g>
			<path class="st0" d="M28.6,145.7c5.4-2.3,10.5,0.3,12.7,5.3c1.5,3.5,0.7,6.5-0.8,8.7l-2.9-2.3c0.9-1.3,1.3-3.2,0.5-5
				c-1.3-3.1-4.6-4.3-7.9-2.9c-3.2,1.4-4.6,4.6-3.3,7.7c0.6,1.5,1.9,2.6,2.8,3.1l2-0.9l-1.9-4.5l3.2-1.3l3.5,8.1l-6.5,2.8
				c-2.7-0.9-5-2.8-6.3-5.9C21.6,153.5,23.3,148,28.6,145.7z"/>
			<path class="st0" d="M32.3,173.8l15.3-10.4l2.2,3.3L34.5,177L32.3,173.8z"/>
			<path class="st0" d="M44.2,188.7l8-18.2l3.2,3.2L49,187.4l13.7-6.5l3.2,3.2l-18.1,8.1L44.2,188.7z"/>
			<path class="st0" d="M59.9,202.3l9.6-15.8l11.2,6.8l-1.8,3l-7.8-4.8l-2,3.3l7.7,4.7l-1.8,3l-7.7-4.7l-2.2,3.6l7.8,4.8l-1.8,3
				L59.9,202.3z"/>
			<path class="st0" d="M102.9,219.5l-0.5-3.3l-7.8-1.6l-1.8,2.8l-4.4-0.9l10.8-16.6l4.8,1l3.2,19.6L102.9,219.5z M100.9,204.3
				l-4.4,7.2l5.6,1.2L100.9,204.3z"/>
			<path class="st0" d="M127.1,220.7l-2.8-18.3l7.2-1.1c5.7-0.9,10.3,2.2,11.1,7.7c0.8,5.5-2.6,9.7-8.3,10.6L127.1,220.7z
				 M138.6,209.6c-0.5-3.2-2.9-5.4-6.6-4.8l-3.3,0.5l1.8,11.4l3.3-0.5C137.4,215.6,139.1,212.7,138.6,209.6z"/>
			<path class="st0" d="M162.5,211.2l-5.9-4.6l-2.7,1.1l2.6,6.1l-3.6,1.5l-7.2-17.1l8-3.4c3.6-1.5,6.7-0.1,8,3.1
				c1.3,3,0.1,5.4-1.6,6.6l6.6,4.9L162.5,211.2z M158,199.5c-0.6-1.4-2.1-1.8-3.5-1.2l-3.8,1.6l1.9,4.6l3.8-1.6
				C157.9,202.3,158.6,201,158,199.5z"/>
			<path class="st0" d="M174.6,204.8l-10.8-15l10.6-7.6l2,2.8l-7.4,5.3l2.3,3.2l7.3-5.2l2,2.8l-7.3,5.2l2.4,3.4l7.4-5.3l2,2.8
				L174.6,204.8z"/>
			<path class="st0" d="M201,180.8l-3.1-1.2l-5.2,6l1.6,2.9l-2.9,3.4l-9.3-17.5l3.2-3.7l18.7,6.7L201,180.8z M186.7,175.2l4.1,7.4
				l3.8-4.4L186.7,175.2z"/>
			<path class="st0" d="M215.8,155.1l-11.7-5.5l9.5,10.2l-0.7,1.6l-13.9-0.7l11.7,5.5l-1.7,3.6l-16.8-7.8l2.3-5l12,0.6l-8.2-8.8
				l2.3-5l16.8,7.8L215.8,155.1z"/>
		</g>
		<g>
			<path class="st0" d="M40,93.9l-17.3-6.5l2.9-7.7c1.1-3,3.6-4.2,6.2-3.2c2.2,0.8,3.1,2.8,2.8,4.5c1-1.7,3.5-2.5,5.5-1.8
				c2.8,1,4,3.6,2.8,6.8L40,93.9z M31.3,78.8c-1.6-0.6-3.2,0-3.9,1.9l-2,5.2l5.6,2.1l2-5.2C33.7,80.9,32.9,79.4,31.3,78.8z
				 M39.2,81.4c-1.6-0.6-3.4,0-4.2,2.1l-2,5.3l6,2.3l2-5.3C41.7,83.7,41,82.1,39.2,81.4z"/>
			<path class="st0" d="M42.2,71L33,64.3l1.3-1.9l9.1,6.6c2.7,2,5.6,1.7,7.5-1c2-2.8,1.3-5.5-1.4-7.5L40.4,54l1.3-1.9l9.2,6.6
				c3.7,2.7,4.7,6.5,1.7,10.5C49.7,73.3,45.9,73.6,42.2,71z"/>
			<path class="st0" d="M66.1,54.2l-5-6.1l-12.4-3.6l2.1-1.7l9.9,3l-1-10.3l2.1-1.7l1.1,12.9l5,6.1L66.1,54.2z"/>
			<path class="st0" d="M100.5,36.8l-2.8-3.4l-8.8,2.7l-0.3,4.4l-2.5,0.8l1.6-19.9l2.7-0.9L103,36L100.5,36.8z M89.8,23.3L89,33.9
				l7.5-2.3L89.8,23.3z"/>
			<path class="st0" d="M121.7,34.6l2.4-18.4l6.3,0.8c5.7,0.7,8.9,5.2,8.2,10.4c-0.7,5.2-4.9,8.7-10.6,8L121.7,34.6z M136.2,27.2
				c0.5-4-1.6-7.5-6.1-8.1l-4-0.5l-1.8,14.3l4,0.5C132.7,34,135.7,31.1,136.2,27.2z"/>
			<path class="st0" d="M153.8,42.6l-1.6-8.6l-3.4-1.4l-2.8,6.8l-2.1-0.9l6.9-17.2l6.9,2.8c3.1,1.3,4.6,4.2,3.3,7.3
				c-1.2,3.1-4,3.9-6.5,3.2l1.8,8.9L153.8,42.6z M158.7,30.7c0.8-1.9-0.1-3.8-2.1-4.6l-4.5-1.8l-2.6,6.6l4.5,1.8
				C156,33.4,157.9,32.6,158.7,30.7z"/>
			<path class="st0" d="M161.9,46.9l10.8-15l9.9,7.1l-1.2,1.7l-8-5.7l-3.5,4.9l7.8,5.6l-1.2,1.7l-7.8-5.6l-3.7,5.2l8,5.7l-1.2,1.7
				L161.9,46.9z"/>
			<path class="st0" d="M185.3,68.6l2.1-3.9l-6-7l-4.2,1.4l-1.7-2l18.9-6.3l1.8,2.2L187,70.6L185.3,68.6z M193.6,53.4l-10.1,3.4
				l5.1,6L193.6,53.4z"/>
			<path class="st0" d="M196.4,89.5l13.9-6.2l-16.5,0.5l-0.4-0.9l11.3-12l-13.9,6.2l-0.9-2.1l16.9-7.6l1.4,3l-10.4,10.9l15.1-0.4
				l1.4,3l-16.9,7.6L196.4,89.5z"/>
		</g>
		<circle id="XMLID_20_" class="st0" cx="26.1" cy="119.5" r="3.5"/>
		<circle id="XMLID_19_" class="st0" cx="211.9" cy="119.5" r="3.5"/>
		<path class="st0" d="M119,190.5c-39.2,0-71-31.9-71-71s31.9-71,71-71s71,31.9,71,71S158.2,190.5,119,190.5z M119,51.5
			c-37.5,0-68,30.5-68,68c0,37.5,30.5,68,68,68s68-30.5,68-68C187,82,156.5,51.5,119,51.5z"/>
		<g>
			<path class="st0" d="M87,105c0.5-0.8,1.7,0,1.2,0.9c-2.1,3.7-4.6,6.9-7.4,6.9c-1.5,0-2.1-0.8-2.3-1.4c-0.2-0.5-0.4-0.6-0.8-0.2
				c-0.7,0.6-1.9,1.5-3.3,1.5c-1.8,0-2.6-1.4-2.6-3.1c0-2.9,2.6-11.9,7.3-11.9c1.4,0,2.1,0.8,2.4,1.4c0.2,0.4,0.5,0.4,0.7,0l2.2-5.4
				c0.3-0.8,0.7-1.1,1.6-1.1h0.6c0.7,0,1,0.4,0.7,1.1l-5.5,13.7c-1.2,3-0.7,3.5-0.1,3.5C83,111,85.2,108.2,87,105z M75.4,110.4
				c1,0,2.1-1.1,2.6-1.8c0.2-0.3,0.6-0.9,0.7-1.3l1.9-4.6c0.1-0.4,0.2-1,0.1-1.4c-0.1-0.5-0.5-1.1-1.2-1.1c-2.6,0-5,6.9-5,9
				C74.5,110.1,74.8,110.4,75.4,110.4z"/>
			<path class="st0" d="M88.2,105.9c-0.4,0.8-1.7,0-1.2-0.9c0.6-1.1,1.3-2.5,2-3.9c0.4-0.7,0.3-1-0.1-1.7c-0.2-0.3-0.3-0.7-0.3-1.1
				c0-1,0.8-2,1.7-2.5c0.4-0.3,1-0.3,1.4,0l0.2,0.1c0.5,0.4,0.6,0.7,0.4,1.3l-0.4,0.9c-0.2,0.6-0.1,1,0.3,1.4c1.1,0.9,2.6,2,2.6,3.4
				c0,0.3-0.1,0.8-0.3,1.4l-1.2,3.1c-1.3,3.1-0.6,3.5-0.1,3.5c1,0,2.6-2.1,4.8-5.9c0.5-0.8,1.7,0,1.2,0.9c-2.1,3.7-4.2,6.9-6.8,6.9
				c-2.2,0-3.5-1.7-1.5-6.5l1-2.5c0.2-0.6,0.2-0.8,0.2-0.9c0-0.4-0.3-0.7-0.7-1.2c-0.4-0.4-0.8-0.3-1.1,0.2
				C89.6,103.2,89,104.6,88.2,105.9z"/>
			<path class="st0" d="M109.7,105c0.5-0.8,1.7,0,1.2,0.9c-1.9,3.3-5,6.9-9.4,6.9c-2.8,0-4.3-1.4-4.3-4.2c0-4,3.3-10.9,7.9-10.9
				c2.7,0,4.1,2.4,2.5,5.7c-1.3,2.8-3.4,3.6-6.5,3.4c-0.6,0-0.9,0.2-1,0.8c-0.2,1.2-0.3,3.3,2.1,3.3
				C104.8,111,107.7,108.5,109.7,105z M104.9,100.2c-1.8,0-3.2,2.9-3.9,4.3c-0.2,0.5,0,0.9,0.6,0.9c2,0.1,2.9-1.2,3.5-2.6
				C106,101,105.8,100.2,104.9,100.2z"/>
			<path class="st0" d="M124,105c0.5-0.8,1.7,0,1.2,0.9c-2.1,3.7-4.6,6.9-7.4,6.9c-1.5,0-2.1-0.8-2.3-1.4c-0.2-0.5-0.4-0.6-0.8-0.2
				c-0.7,0.6-1.9,1.5-3.3,1.5c-1.8,0-2.6-1.4-2.6-3.1c0-2.9,2.6-11.9,7.3-11.9c1.4,0,2.1,0.8,2.4,1.4c0.4,0.6,0.6,0.7,1.2,0.4
				l1.8-0.9c0.6-0.3,0.8,0,0.6,0.6l-3.3,8.2c-1.1,2.8-0.8,3.5-0.1,3.5C120,111,122.1,108.2,124,105z M112.4,110.4
				c1,0,2.1-1.1,2.6-1.8c0.2-0.3,0.6-0.9,0.7-1.3l1.9-4.6c0.1-0.4,0.2-1,0.1-1.4c-0.1-0.5-0.5-1.1-1.2-1.1c-2.6,0-5,6.9-5,9
				C111.5,110.1,111.8,110.4,112.4,110.4z"/>
			<path class="st0" d="M144.4,105c0.5-0.8,1.7,0,1.2,0.9c-2.2,3.8-4.7,6.9-7.4,6.9c-2.2,0-3.6-1.5-1.6-6.5l1.1-2.7
				c0.5-1.2,1-2.4,1-2.8c0-0.4-0.3-0.6-0.8-0.6c-0.6,0-1.7,0.5-2.7,1.4c-0.3,0.3-0.7,0.8-0.9,1.2l-3.5,8.6c-0.3,0.8-0.7,1.1-1.6,1.1
				h-0.6c-0.7,0-1-0.4-0.7-1.1l3.1-7.8c0.5-1.2,1-2.4,1-2.8c0-0.4-0.3-0.6-0.8-0.6c-0.6,0-1.6,0.5-2.6,1.4c-0.4,0.3-0.7,0.8-0.9,1.3
				l-3.4,8.5c-0.3,0.8-0.7,1.1-1.6,1.1h-0.6c-0.7,0-1-0.4-0.7-1.1l4.9-12.1c0.3-0.7,0.7-0.9,1.4-0.5l0.5,0.3
				c0.6,0.4,0.9,0.3,1.5-0.1c1.2-0.9,2.2-1.2,3.1-1.2c1,0,1.8,0.5,2.1,1.4c0.1,0.5,0.3,0.5,0.7,0.2c1.4-1.2,2.7-1.7,3.7-1.7
				c1.2,0,2.2,0.7,2.2,2.1c0,0.9-0.4,2-0.9,3.4l-1.7,4.1c-1.3,3.3-0.5,3.5-0.1,3.5C140.4,111,142.5,108.2,144.4,105z"/>
			<path class="st0" d="M158.6,105c0.5-0.8,1.7,0,1.2,0.9c-2.2,3.8-4.7,6.9-7.4,6.9c-2.2,0-3.6-1.5-1.6-6.5l2.9-7.1
				c0.3-0.8,0.7-1.1,1.6-1.1h0.6c0.7,0,1,0.4,0.7,1.1l-3.3,8.2c-1.2,3-0.7,3.5-0.1,3.5C154.5,111,156.7,108.2,158.6,105z
				 M156.8,96.5c-0.9,0-1.7-0.8-1.7-1.7s0.7-1.7,1.7-1.7c0.9,0,1.7,0.7,1.7,1.7S157.8,96.5,156.8,96.5z"/>
			<path class="st0" d="M166.3,105c0.5-0.8,1.7,0,1.2,0.9c-2.1,3.7-4.8,6.9-7.8,6.9c-2.3,0-3.7-1.5-1.7-6.5l3-7.4
				c0.2-0.5,0-0.8-0.6-0.8h-0.9c-0.5,0-0.7-0.2-0.5-0.8c0.2-0.5,0.5-0.7,1.1-0.7h0.9c0.6,0,1-0.2,1.2-0.8l0.8-2.1
				c0.3-0.8,0.7-1.1,1.6-1.1h0.6c0.7,0,1,0.4,0.7,1.1l-0.8,2.1c-0.2,0.5,0,0.8,0.6,0.8h0.8c0.5,0,0.7,0.2,0.5,0.8
				c-0.2,0.5-0.5,0.7-1.1,0.7h-0.8c-0.6,0-1,0.2-1.2,0.8l-3.4,8.5c-1.3,3.1-0.6,3.5,0,3.5C162.1,111,164.4,108.4,166.3,105z"/>
			<path class="st0" d="M83.2,129.8c0.4-0.8,1.7,0,1.2,0.9c-1.7,3.1-4.2,5.4-8,5.5c-0.7,0-0.9,0.2-0.9,0.9c0,0.2,0,0.5-0.1,0.7
				c-0.3,1.8-1,3.7-1.8,5.2c-0.9,1.7-2.1,2.9-3.9,2.9c-1.9,0-3.2-1.4-1.7-4.9l8.2-20.2c1.7-4.2,3.4-5.5,5.4-5.5
				c2.2,0,3.1,1.9,2.2,4.9c-0.7,2.1-2.2,5.7-3.5,8.1c-1.3,2.4-2.3,3.6-5,3.9c-0.6,0.1-0.9,0.3-1.1,0.9c-0.2,0.6-0.1,1,0.4,1.2
				c0.5,0.2,1,0.4,1.7,0.4C79.1,134.7,81.3,133.2,83.2,129.8z M73.7,137.7c0.2-0.8,0.1-1.3,0-1.6c-0.2-0.4-0.7-0.4-0.9,0l-2.6,6.5
				c-0.5,1.2-0.2,1.4,0.1,1.4C71.9,144,73.4,139.5,73.7,137.7z M81.6,117.6c-1.1,0-2,1.9-2.8,3.8l-3.5,8.5c-0.2,0.5,0.1,0.7,0.6,0.6
				c0.9-0.4,1.5-1.2,2.3-2.6c2-3.8,3.3-7.3,3.6-8.4C82,118.7,82.2,117.6,81.6,117.6z"/>
			<path class="st0" d="M96.7,129.8c0.5-0.8,1.7,0,1.2,0.9c-1.5,2.6-3.6,4.3-6.1,4.1c-0.7-0.1-0.9,0-1.4,0.6
				c-1.2,1.4-2.7,2.3-4.4,2.3c-2,0-3.6-1.2-3.6-3.9c0-3.6,2.8-11.1,7.9-11.1c2,0,3.6,1.2,3.6,3.9c0,1.5-0.5,3.8-1.5,5.9
				c-0.2,0.5,0,0.8,0.5,0.7C94.1,132.9,95.5,131.9,96.7,129.8z M86.2,135.6c0.5,0,1.1-0.3,1.6-0.9c0.7-0.7,0.8-1,0.5-2
				c0-0.1-0.1-0.3-0.1-0.4c0-0.8,0.6-1.5,1.3-1.7c0.6-0.1,0.7-0.2,0.9-0.9c0.5-1.4,0.8-2.7,0.8-3.6c0-1.2-0.5-1.6-1.1-1.6
				c-2.4,0-5.2,6.9-5.2,9.4C85,135,85.4,135.6,86.2,135.6z"/>
			<path class="st0" d="M97.9,130.7c-0.4,0.8-1.7,0-1.2-0.9c0.6-1.1,1.3-2.5,2-3.9c0.4-0.7,0.3-1-0.1-1.7c-0.2-0.3-0.3-0.7-0.3-1.1
				c0-1,0.8-2,1.7-2.5c0.4-0.3,1-0.3,1.4,0l0.2,0.1c0.5,0.4,0.6,0.7,0.4,1.3l-0.4,0.9c-0.2,0.6-0.1,1,0.3,1.4c1.1,0.9,2.6,2,2.6,3.4
				c0,0.3-0.1,0.8-0.3,1.4l-1.2,3.1c-1.3,3.1-0.6,3.5-0.1,3.5c1,0,2.6-2.1,4.8-5.9c0.5-0.8,1.7,0,1.2,0.9c-2.1,3.7-4.2,6.9-6.8,6.9
				c-2.2,0-3.5-1.7-1.5-6.5l1-2.5c0.2-0.6,0.2-0.8,0.2-0.9c0-0.4-0.3-0.7-0.7-1.2c-0.4-0.4-0.8-0.3-1.1,0.2
				C99.3,128,98.6,129.4,97.9,130.7z"/>
			<path class="st0" d="M127,129.8c0.5-0.8,1.7,0,1.2,0.9c-1.7,2.9-4.1,4.7-6.9,3.9c-0.7-0.2-0.9-0.1-1.4,0.4
				c-1.6,1.8-3.3,2.6-4.7,2.6c-1.1,0-2.1-0.4-2.5-1.6c-0.1-0.5-0.4-0.5-0.7-0.2c-1,1-2.2,1.8-3.5,1.8c-2.1,0-3.6-1.5-1.5-6.5
				l2.9-7.1c0.3-0.8,0.7-1.1,1.6-1.1h0.6c0.7,0,1,0.4,0.7,1.1l-3.3,8.2c-1.3,3.2-0.5,3.3-0.3,3.3c1.5,0,3.2-2.4,4.3-4.4
				c0.2-0.4,0.5-1,0.7-1.4l2.3-5.7c0.3-0.8,0.7-1.1,1.6-1.1h0.6c0.7,0,1,0.4,0.7,1.1l-3.3,8.2c-1.2,3.1-0.6,3.3-0.1,3.3
				c0.6,0,1.2-0.3,1.9-1c0.8-0.8,0.8-1,0.7-2c-0.1-1,0.6-1.8,1.4-1.9c0.6-0.1,0.7-0.2,1-0.8c0.8-1.6,1.5-3.5,2.1-5.8
				c0.2-0.8,0.6-1.1,1.4-1.3c0.7-0.1,1,0.2,0.8,0.9c-0.8,3.5-2,6.3-3.2,8.4c-0.2,0.5-0.1,0.9,0.4,0.9
				C123.9,133.2,125.6,132.3,127,129.8z"/>
			<path class="st0" d="M141.3,129.8c0.5-0.8,1.7,0,1.2,0.9c-2.1,3.7-4.6,6.9-7.4,6.9c-1.5,0-2.1-0.8-2.3-1.4
				c-0.2-0.5-0.4-0.6-0.8-0.2c-0.7,0.6-1.9,1.5-3.3,1.5c-1.8,0-2.6-1.4-2.6-3.1c0-2.9,2.6-11.9,7.3-11.9c1.4,0,2.1,0.8,2.4,1.4
				c0.4,0.6,0.6,0.7,1.2,0.4l1.8-0.9c0.6-0.3,0.8,0,0.6,0.6l-3.3,8.2c-1.1,2.8-0.8,3.5-0.1,3.5C137.3,135.8,139.5,133,141.3,129.8z
				 M129.7,135.2c1,0,2.1-1.1,2.6-1.8c0.2-0.3,0.6-0.9,0.7-1.3l1.9-4.6c0.1-0.4,0.2-1,0.1-1.4c-0.1-0.5-0.5-1.1-1.2-1.1
				c-2.6,0-5,6.9-5,9C128.8,134.8,129.1,135.2,129.7,135.2z"/>
			<path class="st0" d="M142.5,130.7c-0.4,0.8-1.7,0-1.2-0.9c0.6-1.1,1.3-2.5,2-3.9c0.4-0.7,0.3-1-0.1-1.7c-0.2-0.3-0.3-0.7-0.3-1.1
				c0-1,0.8-2,1.7-2.5c0.4-0.3,1-0.3,1.4,0l0.2,0.1c0.5,0.4,0.6,0.7,0.4,1.3l-0.4,0.9c-0.2,0.6-0.1,1,0.3,1.4c1.1,0.9,2.6,2,2.6,3.4
				c0,0.3-0.1,0.8-0.3,1.4l-1.2,3.1c-1.3,3.1-0.6,3.5-0.1,3.5c1,0,2.6-2.1,4.8-5.9c0.5-0.8,1.7,0,1.2,0.9c-2.1,3.7-4.2,6.9-6.8,6.9
				c-2.2,0-3.5-1.7-1.5-6.5l1-2.5c0.2-0.6,0.2-0.8,0.2-0.9c0-0.4-0.3-0.7-0.7-1.2c-0.4-0.4-0.8-0.3-1.1,0.2
				C143.9,128,143.3,129.4,142.5,130.7z"/>
			<path class="st0" d="M166.5,129.8c0.5-0.8,1.7,0,1.2,0.9c-2.1,3.7-4.6,6.9-7.4,6.9c-1.5,0-2.1-0.8-2.3-1.4
				c-0.2-0.5-0.4-0.6-0.8-0.2c-0.7,0.6-1.9,1.5-3.3,1.5c-1.8,0-2.6-1.4-2.6-3.1c0-2.9,2.6-11.9,7.3-11.9c1.4,0,2.1,0.8,2.4,1.4
				c0.2,0.4,0.5,0.4,0.7,0l2.2-5.4c0.3-0.8,0.7-1.1,1.6-1.1h0.6c0.7,0,1,0.4,0.7,1.1l-5.5,13.7c-1.2,3-0.7,3.5-0.1,3.5
				C162.5,135.8,164.6,133,166.5,129.8z M154.9,135.2c1,0,2.1-1.1,2.6-1.8c0.2-0.3,0.6-0.9,0.7-1.3l1.9-4.6c0.1-0.4,0.2-1,0.1-1.4
				c-0.1-0.5-0.5-1.1-1.2-1.1c-2.6,0-5,6.9-5,9C154,134.8,154.3,135.2,154.9,135.2z"/>
		</g>
	</g>
	<g>
		<path class="st0" d="M167.3,125h-1v-0.4h2.4v0.4h-1v2.6h-0.4V125z M169.4,124.6h0.5l1.1,1.7l1.1-1.7h0.5v3H172v-2.3l-1.1,1.6h-0.1
			l-1.1-1.6v2.3h-0.4V124.6z"/>
	</g>
</g>
</svg>
