<?xml version="1.0" encoding="utf-8"?>
<!-- Generator: Adobe Illustrator 19.1.0, SVG Export Plug-In . SVG Version: 6.00 Build 0)  -->
<!DOCTYPE svg PUBLIC "-//W3C//DTD SVG 1.1//EN" "http://www.w3.org/Graphics/SVG/1.1/DTD/svg11.dtd">
<svg version="1.1" id="Layer_1" xmlns="http://www.w3.org/2000/svg" xmlns:xlink="http://www.w3.org/1999/xlink" x="0px" y="0px"
	 viewBox="0 0 100 100" style="enable-background:new 0 0 100 100;" xml:space="preserve">
<style type="text/css">
	.st0{fill:#F26B21;}
</style>
<g>
	<g id="XMLID_66_">
		<path class="st0" d="M51.4,88.3c0-0.3,0.2-0.5,0.5-0.5l0,0c0.3,0,0.5,0.2,0.5,0.5l0,0c0,0.3-0.2,0.5-0.5,0.5l0,0h0l0,0
			C51.6,88.8,51.4,88.5,51.4,88.3z M49.3,88.2c0-0.3,0.3-0.5,0.5-0.5l0,0c0.3,0,0.5,0.2,0.5,0.5l0,0c0,0.3-0.2,0.5-0.5,0.5l0,0l0,0
			l0,0C49.5,88.8,49.3,88.5,49.3,88.2z M53.5,88.2c0-0.3,0.2-0.5,0.5-0.6l0,0c0.3,0,0.5,0.2,0.6,0.5l0,0c0,0.3-0.2,0.5-0.5,0.6l0,0
			c0,0,0,0,0,0l0,0C53.7,88.7,53.5,88.4,53.5,88.2z M47.7,88.6c-0.3,0-0.5-0.3-0.5-0.6l0,0c0-0.3,0.3-0.5,0.6-0.5l0,0
			c0.3,0,0.5,0.3,0.5,0.6l0,0C48.3,88.4,48,88.6,47.7,88.6L47.7,88.6C47.7,88.6,47.7,88.6,47.7,88.6z M55.5,88
			c0-0.3,0.2-0.5,0.4-0.6l0,0c0.3,0,0.5,0.2,0.6,0.4l0,0c0,0.3-0.2,0.5-0.4,0.6l0,0c0,0,0,0-0.1,0l0,0C55.8,88.4,55.6,88.2,55.5,88z
			 M45.6,88.4C45.6,88.4,45.6,88.4,45.6,88.4L45.6,88.4c-0.3,0-0.5-0.3-0.4-0.6l0,0c0-0.3,0.3-0.5,0.6-0.4l0,0
			c0.3,0,0.5,0.3,0.4,0.6l0,0C46.2,88.2,46,88.4,45.6,88.4L45.6,88.4C45.7,88.4,45.6,88.4,45.6,88.4z M57.6,87.7
			c-0.1-0.3,0.1-0.6,0.4-0.6l0,0c0.3-0.1,0.6,0.1,0.6,0.4l0,0c0.1,0.3-0.1,0.6-0.4,0.6l0,0c0,0-0.1,0-0.1,0l0,0
			C57.9,88.1,57.7,87.9,57.6,87.7z M43.5,88.1L43.5,88.1L43.5,88.1c-0.3-0.1-0.5-0.3-0.4-0.6l0,0c0.1-0.3,0.3-0.5,0.6-0.4l0,0
			c0.3,0.1,0.5,0.3,0.4,0.6l0,0c-0.1,0.2-0.3,0.4-0.5,0.4l0,0C43.6,88.1,43.6,88.1,43.5,88.1z M59.6,87.2c-0.1-0.3,0.1-0.6,0.4-0.6
			l0,0c0.3-0.1,0.6,0.1,0.6,0.4l0,0c0.1,0.3-0.1,0.6-0.4,0.6l0,0c0,0-0.1,0-0.1,0l0,0C59.9,87.6,59.7,87.5,59.6,87.2z M41.5,87.6
			L41.5,87.6L41.5,87.6c-0.3-0.1-0.4-0.4-0.4-0.6l0,0c0.1-0.3,0.4-0.4,0.6-0.4l0,0c0.3,0.1,0.4,0.4,0.4,0.6l0,0
			c-0.1,0.2-0.3,0.4-0.5,0.4l0,0C41.6,87.6,41.5,87.6,41.5,87.6z M61.7,86.7c-0.1-0.3,0.1-0.6,0.3-0.7l0,0c0.3-0.1,0.6,0.1,0.6,0.3
			l0,0c0.1,0.3-0.1,0.6-0.3,0.6l0,0c-0.1,0-0.1,0-0.2,0l0,0C61.9,87.1,61.7,86.9,61.7,86.7z M39.5,87L39.5,87L39.5,87
			c-0.3-0.1-0.4-0.4-0.3-0.7l0,0c0.1-0.3,0.4-0.4,0.7-0.3l0,0c0.3,0.1,0.4,0.4,0.3,0.7l0,0c-0.1,0.2-0.3,0.4-0.5,0.4l0,0
			C39.6,87.1,39.5,87,39.5,87z M63.6,86.1c-0.1-0.3,0-0.6,0.3-0.7l0,0c0.3-0.1,0.6,0,0.7,0.3l0,0c0.1,0.3,0,0.6-0.3,0.7l0,0
			c-0.1,0-0.1,0-0.2,0l0,0C63.9,86.4,63.7,86.3,63.6,86.1z M37.5,86.3L37.5,86.3L37.5,86.3c-0.3-0.1-0.4-0.4-0.3-0.7l0,0
			c0.1-0.3,0.4-0.4,0.7-0.3l0,0c0.3,0.1,0.4,0.4,0.3,0.7l0,0c-0.1,0.2-0.3,0.3-0.5,0.3l0,0C37.6,86.4,37.5,86.4,37.5,86.3z
			 M65.6,85.3c-0.1-0.3,0-0.6,0.3-0.7l0,0c0.3-0.1,0.6,0,0.7,0.3l0,0c0.1,0.3,0,0.6-0.3,0.7l0,0c-0.1,0-0.1,0-0.2,0l0,0
			C65.8,85.6,65.6,85.5,65.6,85.3z M35.5,85.5c-0.3-0.1-0.4-0.4-0.3-0.7l0,0c0.1-0.3,0.4-0.4,0.7-0.3l0,0c0.3,0.1,0.4,0.4,0.3,0.7
			l0,0c-0.1,0.2-0.3,0.3-0.5,0.3l0,0C35.6,85.6,35.6,85.6,35.5,85.5z M67.5,84.5c-0.1-0.3,0-0.6,0.2-0.7v0c0.3-0.1,0.6,0,0.7,0.2
			l0,0c0.1,0.3,0,0.6-0.2,0.7l0,0l0,0l0,0c-0.1,0-0.2,0.1-0.2,0.1l0,0C67.7,84.7,67.6,84.6,67.5,84.5z M33.6,84.6
			c-0.3-0.1-0.4-0.4-0.2-0.7l0,0c0.1-0.3,0.4-0.4,0.7-0.2l0,0c0.3,0.1,0.4,0.4,0.2,0.7l0,0c-0.1,0.2-0.3,0.3-0.5,0.3l0,0
			C33.8,84.7,33.7,84.7,33.6,84.6z M69.3,83.5c-0.1-0.3-0.1-0.6,0.2-0.7l0,0c0.2-0.1,0.6-0.1,0.7,0.2l0,0c0.1,0.3,0.1,0.6-0.2,0.7
			l0,0c-0.1,0-0.2,0.1-0.3,0.1l0,0C69.6,83.8,69.4,83.7,69.3,83.5z M31.7,83.6C31.7,83.6,31.7,83.6,31.7,83.6L31.7,83.6
			c-0.2-0.1-0.3-0.5-0.2-0.7l0,0c0.1-0.3,0.5-0.3,0.7-0.2l0,0c0.2,0.1,0.3,0.5,0.2,0.7l0,0c-0.1,0.2-0.3,0.3-0.5,0.3l0,0
			C31.9,83.7,31.8,83.7,31.7,83.6z M71.1,82.4c-0.2-0.2-0.1-0.6,0.2-0.7l0,0c0.2-0.2,0.6-0.1,0.7,0.2l0,0c0.2,0.2,0.1,0.6-0.2,0.7
			l0,0l0,0l0,0c-0.1,0.1-0.2,0.1-0.3,0.1l0,0C71.3,82.7,71.2,82.6,71.1,82.4z M30,82.5L30,82.5L30,82.5c-0.2-0.2-0.3-0.5-0.1-0.7
			l0,0c0.2-0.2,0.5-0.3,0.7-0.1l0,0c0.2,0.2,0.3,0.5,0.1,0.7l0,0c-0.1,0.1-0.3,0.2-0.4,0.2l0,0C30.1,82.6,30,82.6,30,82.5z
			 M72.8,81.3c-0.2-0.2-0.1-0.6,0.1-0.7l0,0c0.2-0.2,0.6-0.1,0.7,0.1l0,0c0.2,0.2,0.1,0.6-0.1,0.7l0,0c-0.1,0.1-0.2,0.1-0.3,0.1l0,0
			C73.1,81.5,72.9,81.4,72.8,81.3z M28.2,81.3c-0.2-0.2-0.3-0.5-0.1-0.7l0,0c0.2-0.2,0.5-0.3,0.7-0.1l0,0c0.2,0.2,0.3,0.5,0.1,0.7
			l0,0c-0.1,0.1-0.3,0.2-0.4,0.2l0,0C28.4,81.4,28.3,81.4,28.2,81.3z M74.5,80c-0.2-0.2-0.1-0.5,0.1-0.7l0,0
			c0.2-0.2,0.5-0.2,0.7,0.1l0,0c0.2,0.2,0.2,0.5-0.1,0.7l0,0c0,0,0,0,0,0l0,0c-0.1,0.1-0.2,0.1-0.3,0.1l0,0
			C74.7,80.2,74.6,80.1,74.5,80z M26.6,80L26.6,80L26.6,80c-0.2-0.2-0.3-0.5-0.1-0.7l0,0c0.2-0.2,0.5-0.3,0.7-0.1v0
			c0.2,0.2,0.3,0.5,0.1,0.7l0,0c-0.1,0.1-0.3,0.2-0.4,0.2l0,0C26.8,80.1,26.7,80.1,26.6,80z M76.1,78.7c-0.2-0.2-0.2-0.5,0-0.7l0,0
			c0.2-0.2,0.5-0.2,0.7,0l0,0c0.2,0.2,0.2,0.5,0,0.7l0,0l0,0l0,0c-0.1,0.1-0.2,0.1-0.4,0.1l0,0C76.3,78.8,76.2,78.8,76.1,78.7z
			 M25,78.6c-0.2-0.2-0.2-0.5,0-0.7l0,0c0.2-0.2,0.5-0.2,0.7,0l0,0c0.2,0.2,0.2,0.5,0,0.7l0,0c-0.1,0.1-0.2,0.2-0.4,0.2l0,0
			C25.2,78.7,25.1,78.7,25,78.6z M77.6,77.2c-0.2-0.2-0.2-0.5,0-0.7l0,0c0.2-0.2,0.5-0.2,0.7,0l0,0c0.2,0.2,0.2,0.5,0,0.7l0,0
			c-0.1,0.1-0.2,0.2-0.4,0.2l0,0C77.8,77.4,77.7,77.3,77.6,77.2z M23.5,77.1c-0.2-0.2-0.2-0.5,0-0.7l0,0c0.2-0.2,0.5-0.2,0.7,0l0,0
			c0.2,0.2,0.2,0.5,0,0.7l0,0c-0.1,0.1-0.2,0.1-0.4,0.1l0,0C23.7,77.3,23.6,77.2,23.5,77.1z M79,75.7c-0.2-0.2-0.2-0.5,0-0.7l0,0
			c0.2-0.2,0.5-0.2,0.7-0.1l0,0c0.2,0.2,0.2,0.5,0,0.7l0,0c-0.1,0.1-0.2,0.2-0.4,0.2l0,0C79.2,75.9,79.1,75.8,79,75.7z M22,75.6
			L22,75.6L22,75.6c-0.2-0.2-0.2-0.5,0.1-0.7l0,0c0.2-0.2,0.5-0.2,0.7,0l0,0c0.2,0.2,0.2,0.5-0.1,0.7l0,0c-0.1,0.1-0.2,0.1-0.3,0.1
			l0,0C22.3,75.8,22.1,75.7,22,75.6z M80.3,74.2c-0.2-0.2-0.3-0.5-0.1-0.7v0c0.2-0.2,0.5-0.3,0.7-0.1l0,0c0.2,0.2,0.3,0.5,0.1,0.7
			l0,0h0l0,0c-0.1,0.1-0.3,0.2-0.4,0.2l0,0C80.6,74.3,80.4,74.2,80.3,74.2z M20.7,73.9C20.7,73.9,20.7,73.9,20.7,73.9L20.7,73.9
			c-0.2-0.2-0.1-0.6,0.1-0.7l0,0c0.2-0.2,0.6-0.1,0.7,0.1l0,0c0.2,0.2,0.1,0.6-0.1,0.7l0,0c-0.1,0.1-0.2,0.1-0.3,0.1l0,0
			C21,74.2,20.8,74.1,20.7,73.9z M81.6,72.5c-0.2-0.2-0.3-0.5-0.1-0.7l0,0c0.2-0.2,0.5-0.3,0.7-0.1l0,0c0.2,0.2,0.3,0.5,0.1,0.7l0,0
			c-0.1,0.1-0.3,0.2-0.4,0.2l0,0C81.8,72.6,81.7,72.6,81.6,72.5z M19.5,72.3L19.5,72.3L19.5,72.3c-0.2-0.2-0.1-0.6,0.1-0.7l0,0
			c0.2-0.2,0.6-0.1,0.7,0.1l0,0c0.2,0.2,0.1,0.6-0.1,0.7l0,0c-0.1,0.1-0.2,0.1-0.3,0.1l0,0C19.7,72.5,19.6,72.4,19.5,72.3z
			 M82.8,70.8c-0.2-0.1-0.3-0.5-0.2-0.7l0,0c0.1-0.2,0.5-0.3,0.7-0.2l0,0c0.2,0.1,0.3,0.5,0.2,0.7l0,0c-0.1,0.2-0.3,0.3-0.4,0.3l0,0
			C82.9,70.8,82.9,70.8,82.8,70.8z M18.3,70.5c-0.1-0.3-0.1-0.6,0.2-0.7l0,0c0.2-0.1,0.6-0.1,0.7,0.2l0,0c0.1,0.2,0.1,0.6-0.2,0.7
			l0,0c-0.1,0.1-0.2,0.1-0.3,0.1l0,0C18.6,70.7,18.4,70.6,18.3,70.5z M83.8,69c-0.3-0.1-0.3-0.5-0.2-0.7l0,0
			c0.1-0.3,0.5-0.3,0.7-0.2l0,0c0.3,0.1,0.3,0.5,0.2,0.7l0,0l0,0l0,0c-0.1,0.2-0.3,0.3-0.5,0.3l0,0C84,69,83.9,69,83.8,69z
			 M17.3,68.7c-0.1-0.3,0-0.6,0.2-0.7l0,0c0.3-0.1,0.6,0,0.7,0.2l0,0c0.1,0.3,0,0.6-0.2,0.7l0,0c-0.1,0-0.2,0.1-0.2,0.1l0,0
			C17.5,68.9,17.4,68.8,17.3,68.7z M84.8,67.1c-0.3-0.1-0.4-0.4-0.2-0.7h0c0.1-0.3,0.4-0.4,0.7-0.3l0,0c0.3,0.1,0.4,0.4,0.3,0.7l0,0
			c-0.1,0.2-0.3,0.3-0.5,0.3l0,0C85,67.2,84.9,67.2,84.8,67.1z M16.3,66.8c-0.1-0.3,0-0.6,0.3-0.7l0,0c0.3-0.1,0.6,0,0.7,0.3l0,0
			c0.1,0.3,0,0.6-0.3,0.7l0,0c-0.1,0-0.1,0.1-0.2,0.1l0,0C16.6,67.1,16.4,67,16.3,66.8z M85.7,65.2c-0.3-0.1-0.4-0.4-0.3-0.7l0,0
			c0.1-0.3,0.4-0.4,0.7-0.3l0,0c0.3,0.1,0.4,0.4,0.3,0.7l0,0c-0.1,0.2-0.3,0.3-0.5,0.3l0,0C85.8,65.3,85.7,65.3,85.7,65.2z
			 M15.5,64.8C15.5,64.8,15.5,64.8,15.5,64.8L15.5,64.8c-0.1-0.3,0-0.6,0.3-0.7l0,0c0.3-0.1,0.6,0,0.7,0.3l0,0
			c0.1,0.3,0,0.6-0.3,0.7l0,0c-0.1,0-0.1,0-0.2,0l0,0C15.7,65.2,15.5,65.1,15.5,64.8z M86.4,63.3c-0.3-0.1-0.4-0.4-0.3-0.7l0,0
			c0.1-0.3,0.4-0.4,0.7-0.3l0,0c0.3,0.1,0.4,0.4,0.3,0.7l0,0c-0.1,0.2-0.3,0.4-0.5,0.4l0,0C86.5,63.3,86.5,63.3,86.4,63.3z
			 M14.7,62.9c-0.1-0.3,0.1-0.6,0.3-0.7l0,0c0.3-0.1,0.6,0.1,0.7,0.3l0,0c0.1,0.3-0.1,0.6-0.3,0.7l0,0c-0.1,0-0.1,0-0.2,0l0,0
			C15,63.2,14.8,63.1,14.7,62.9z M87.1,61.3c-0.3-0.1-0.4-0.4-0.4-0.6l0,0c0.1-0.3,0.4-0.4,0.6-0.4l0,0c0.3,0.1,0.4,0.4,0.4,0.6l0,0
			c-0.1,0.2-0.3,0.4-0.5,0.4l0,0C87.2,61.3,87.1,61.3,87.1,61.3z M14.1,60.9L14.1,60.9L14.1,60.9c-0.1-0.3,0.1-0.6,0.4-0.6l0,0
			c0.3-0.1,0.6,0.1,0.6,0.4l0,0c0.1,0.3-0.1,0.6-0.4,0.6l0,0c0,0-0.1,0-0.1,0l0,0C14.4,61.2,14.2,61.1,14.1,60.9z M87.6,59.3
			c-0.3-0.1-0.5-0.3-0.4-0.6l0,0c0.1-0.3,0.3-0.5,0.6-0.4l0,0c0.3,0.1,0.5,0.3,0.4,0.6l0,0c-0.1,0.2-0.3,0.4-0.5,0.4l0,0
			C87.7,59.3,87.7,59.3,87.6,59.3z M13.6,58.8c-0.1-0.3,0.1-0.6,0.4-0.6l0,0c0.3-0.1,0.6,0.1,0.6,0.4l0,0c0.1,0.3-0.1,0.6-0.4,0.6
			l0,0c0,0-0.1,0-0.1,0l0,0C13.9,59.2,13.7,59.1,13.6,58.8z M88,57.3c-0.3,0-0.5-0.3-0.4-0.6v0c0-0.3,0.3-0.5,0.6-0.4l0,0
			c0.3,0,0.5,0.3,0.4,0.6l0,0c0,0,0,0,0,0l0,0C88.6,57.1,88.4,57.3,88,57.3L88,57.3C88.1,57.3,88.1,57.3,88,57.3z M13.2,56.7
			L13.2,56.7L13.2,56.7c0-0.3,0.1-0.5,0.4-0.6l0,0c0.3,0,0.6,0.1,0.6,0.4l0,0c0,0.3-0.1,0.5-0.4,0.6l0,0c0,0-0.1,0-0.1,0l0,0
			C13.5,57.2,13.2,57,13.2,56.7z M88.4,55.2c-0.3,0-0.5-0.3-0.5-0.6l0,0c0-0.3,0.3-0.5,0.6-0.5l0,0c0.3,0,0.5,0.3,0.5,0.6l0,0l0,0
			l0,0C88.9,55,88.7,55.2,88.4,55.2L88.4,55.2C88.4,55.2,88.4,55.2,88.4,55.2z M12.9,54.7c0-0.3,0.2-0.5,0.5-0.6l0,0
			c0.3,0,0.5,0.2,0.6,0.5l0,0c0,0.3-0.2,0.5-0.5,0.6l0,0c0,0,0,0-0.1,0l0,0C13.2,55.1,13,54.9,12.9,54.7z M88.6,53.1
			c-0.3,0-0.5-0.3-0.5-0.5l0,0c0-0.3,0.3-0.5,0.5-0.5l0,0c0.3,0,0.5,0.3,0.5,0.5l0,0l0,0l0,0C89.1,52.9,88.9,53.1,88.6,53.1
			L88.6,53.1C88.6,53.1,88.6,53.1,88.6,53.1z M12.8,52.5L12.8,52.5L12.8,52.5c0-0.3,0.2-0.5,0.5-0.5l0,0c0.3,0,0.5,0.2,0.5,0.5l0,0
			c0,0.3-0.2,0.5-0.5,0.5l0,0c0,0,0,0,0,0l0,0C13,53,12.8,52.8,12.8,52.5z M88.1,50.5c0-0.3,0.2-0.5,0.5-0.5l0,0
			c0.3,0,0.5,0.2,0.5,0.5l0,0c0,0.3-0.2,0.5-0.5,0.5l0,0C88.4,51.1,88.1,50.8,88.1,50.5z M13.2,51c-0.3,0-0.5-0.2-0.5-0.5l0,0
			c0-0.3,0.2-0.5,0.5-0.5l0,0c0.3,0,0.5,0.2,0.5,0.5l0,0C13.7,50.7,13.5,51,13.2,51L13.2,51L13.2,51z M88.1,48.7
			c0-0.3,0.2-0.5,0.5-0.5l0,0c0.3,0,0.5,0.2,0.5,0.5l0,0c0,0.3-0.2,0.5-0.5,0.5l0,0c0,0,0,0,0,0l0,0C88.3,49.2,88.1,49,88.1,48.7z
			 M13.3,48.9c-0.3,0-0.5-0.3-0.5-0.5l0,0c0-0.3,0.3-0.5,0.5-0.5l0,0c0.3,0,0.5,0.3,0.5,0.5l0,0C13.8,48.7,13.6,48.9,13.3,48.9
			L13.3,48.9C13.3,48.9,13.3,48.9,13.3,48.9z M87.9,46.7L87.9,46.7c0-0.3,0.2-0.5,0.5-0.6l0,0c0.3,0,0.5,0.2,0.6,0.5l0,0
			c0,0.3-0.2,0.5-0.5,0.6l0,0c0,0,0,0-0.1,0l0,0C88.2,47.1,87.9,46.9,87.9,46.7z M13.4,46.8c-0.3,0-0.5-0.3-0.5-0.6l0,0c0,0,0,0,0,0
			l0,0c0-0.3,0.3-0.5,0.6-0.5l0,0c0.3,0,0.5,0.3,0.5,0.6l0,0C13.9,46.6,13.7,46.8,13.4,46.8L13.4,46.8
			C13.4,46.8,13.4,46.8,13.4,46.8z M87.6,44.6c0-0.3,0.1-0.5,0.4-0.6l0,0c0.3,0,0.6,0.1,0.6,0.4l0,0c0,0.3-0.1,0.6-0.4,0.6l0,0
			c0,0-0.1,0-0.1,0l0,0C87.9,45.1,87.7,44.9,87.6,44.6z M13.7,44.7c-0.3,0-0.5-0.3-0.4-0.6l0,0l0,0l0,0c0-0.3,0.3-0.5,0.6-0.4l0,0
			c0.3,0,0.5,0.3,0.4,0.6l0,0C14.2,44.6,14,44.7,13.7,44.7L13.7,44.7C13.7,44.7,13.7,44.7,13.7,44.7z M87.3,42.6
			c-0.1-0.3,0.1-0.6,0.4-0.6l0,0c0.3-0.1,0.6,0.1,0.6,0.4l0,0c0,0,0,0,0,0l0,0c0.1,0.3-0.1,0.6-0.4,0.6l0,0c0,0-0.1,0-0.1,0l0,0
			C87.5,43,87.3,42.9,87.3,42.6z M14,42.7c-0.3-0.1-0.5-0.3-0.4-0.6l0,0c0.1-0.3,0.3-0.5,0.6-0.4l0,0c0.3,0.1,0.5,0.3,0.4,0.6l0,0
			c-0.1,0.2-0.3,0.4-0.5,0.4l0,0C14.1,42.7,14.1,42.7,14,42.7z M86.8,40.6c-0.1-0.3,0.1-0.6,0.4-0.6l0,0c0.3-0.1,0.6,0.1,0.6,0.4
			l0,0l0,0l0,0c0.1,0.3-0.1,0.6-0.4,0.6l0,0c0,0-0.1,0-0.1,0l0,0C87.1,41,86.8,40.9,86.8,40.6z M14.5,40.7c-0.3-0.1-0.4-0.4-0.4-0.6
			l0,0c0.1-0.3,0.4-0.4,0.6-0.4l0,0c0.3,0.1,0.4,0.4,0.4,0.6l0,0c-0.1,0.2-0.3,0.4-0.5,0.4l0,0C14.6,40.7,14.6,40.7,14.5,40.7z
			 M86.2,38.7c-0.1-0.3,0.1-0.6,0.3-0.7l0,0c0.3-0.1,0.6,0.1,0.7,0.3l0,0c0.1,0.3-0.1,0.6-0.3,0.7l0,0c-0.1,0-0.1,0-0.2,0l0,0
			C86.5,39,86.3,38.9,86.2,38.7z M15.1,38.7c-0.3-0.1-0.4-0.4-0.3-0.7l0,0c0.1-0.3,0.4-0.4,0.7-0.3l0,0c0.3,0.1,0.4,0.4,0.3,0.7l0,0
			c-0.1,0.2-0.3,0.3-0.5,0.3l0,0C15.2,38.7,15.2,38.7,15.1,38.7z M85.5,36.7L85.5,36.7c-0.1-0.3,0-0.6,0.3-0.7l0,0
			c0.3-0.1,0.6,0,0.7,0.3l0,0l0,0l0,0c0.1,0.3,0,0.6-0.3,0.7l0,0c-0.1,0-0.1,0-0.2,0l0,0C85.7,37.1,85.5,36.9,85.5,36.7z M15.8,36.7
			c-0.3-0.1-0.4-0.4-0.3-0.7l0,0c0.1-0.3,0.4-0.4,0.7-0.3l0,0c0.3,0.1,0.4,0.4,0.3,0.7l0,0c-0.1,0.2-0.3,0.3-0.5,0.3l0,0
			C16,36.8,15.9,36.7,15.8,36.7z M84.7,34.9L84.7,34.9c-0.1-0.3,0-0.6,0.3-0.7l0,0c0.3-0.1,0.6,0,0.7,0.3l0,0l0,0l0,0
			c0.1,0.3,0,0.6-0.3,0.7l0,0c-0.1,0-0.1,0-0.2,0l0,0C84.9,35.2,84.7,35.1,84.7,34.9z M16.7,34.8c-0.3-0.1-0.4-0.4-0.2-0.7l0,0
			c0.1-0.3,0.4-0.4,0.7-0.2l0,0c0.3,0.1,0.4,0.4,0.2,0.7l0,0c-0.1,0.2-0.3,0.3-0.5,0.3l0,0C16.8,34.9,16.7,34.8,16.7,34.8z M83.7,33
			c-0.1-0.3,0-0.6,0.2-0.7l0,0c0.3-0.1,0.6,0,0.7,0.2l0,0c0.1,0.3,0,0.6-0.2,0.7l0,0c-0.1,0-0.2,0.1-0.2,0.1l0,0
			C84,33.3,83.8,33.2,83.7,33z M17.6,32.9c-0.3-0.1-0.3-0.5-0.2-0.7l0,0c0.1-0.3,0.5-0.3,0.7-0.2l0,0c0.3,0.1,0.3,0.5,0.2,0.7l0,0
			C18.2,32.9,18,33,17.8,33l0,0C17.7,33,17.7,33,17.6,32.9z M82.7,31.3c-0.1-0.2-0.1-0.6,0.2-0.7l0,0c0.2-0.1,0.6-0.1,0.7,0.2l0,0
			c0.1,0.2,0.1,0.6-0.2,0.7l0,0c-0.1,0.1-0.2,0.1-0.3,0.1l0,0C83,31.5,82.8,31.4,82.7,31.3z M18.6,31.1c-0.2-0.1-0.3-0.5-0.2-0.7
			l0,0c0.1-0.2,0.5-0.3,0.7-0.2l0,0c0.2,0.2,0.3,0.5,0.2,0.7l0,0c-0.1,0.2-0.3,0.2-0.4,0.2l0,0C18.8,31.2,18.7,31.2,18.6,31.1z
			 M81.6,29.5c-0.2-0.2-0.1-0.6,0.1-0.7l0,0c0.2-0.2,0.6-0.1,0.7,0.1l0,0c0.2,0.2,0.1,0.6-0.1,0.7l0,0c-0.1,0.1-0.2,0.1-0.3,0.1l0,0
			C81.9,29.8,81.7,29.7,81.6,29.5z M19.7,29.4c-0.2-0.2-0.3-0.5-0.1-0.7l0,0c0.2-0.2,0.5-0.3,0.7-0.1l0,0c0.2,0.2,0.3,0.5,0.1,0.7
			l0,0c-0.1,0.1-0.3,0.2-0.4,0.2l0,0C19.9,29.5,19.8,29.4,19.7,29.4z M80.4,27.9L80.4,27.9c-0.2-0.2-0.1-0.6,0.1-0.7l0,0
			c0.2-0.2,0.6-0.1,0.7,0.1l0,0l0,0l0,0c0.2,0.2,0.1,0.6-0.1,0.7l0,0c-0.1,0.1-0.2,0.1-0.3,0.1l0,0C80.7,28.1,80.5,28,80.4,27.9z
			 M20.9,27.7c-0.2-0.2-0.3-0.5-0.1-0.7l0,0c0.2-0.2,0.5-0.3,0.7-0.1l0,0c0.2,0.2,0.3,0.5,0.1,0.7l0,0c-0.1,0.1-0.3,0.2-0.4,0.2l0,0
			C21.2,27.8,21,27.8,20.9,27.7z M79.1,26.3c-0.2-0.2-0.2-0.5,0.1-0.7l0,0c0.2-0.2,0.5-0.2,0.7,0.1l0,0c0.2,0.2,0.2,0.5-0.1,0.7l0,0
			c-0.1,0.1-0.2,0.1-0.3,0.1l0,0C79.4,26.5,79.2,26.4,79.1,26.3z M22.2,26.1c-0.2-0.2-0.2-0.5,0-0.7l0,0l0,0l0,0
			c0.2-0.2,0.5-0.2,0.7,0l0,0c0.2,0.2,0.2,0.5,0,0.7l0,0c-0.1,0.1-0.2,0.2-0.4,0.2l0,0C22.5,26.2,22.3,26.2,22.2,26.1z M77.7,24.8
			c-0.2-0.2-0.2-0.5,0-0.7l0,0c0.2-0.2,0.5-0.2,0.7,0l0,0l0,0l0,0c0.2,0.2,0.2,0.5,0,0.7l0,0c-0.1,0.1-0.2,0.1-0.4,0.1l0,0
			C78,24.9,77.8,24.9,77.7,24.8z M23.6,24.5c-0.2-0.2-0.2-0.5,0-0.7l0,0c0.2-0.2,0.5-0.2,0.7,0l0,0c0.2,0.2,0.2,0.5,0,0.7l0,0
			c-0.1,0.1-0.2,0.2-0.4,0.2l0,0C23.9,24.7,23.7,24.6,23.6,24.5z M76.3,23.3c-0.2-0.2-0.2-0.5,0-0.7l0,0c0.2-0.2,0.5-0.2,0.7,0l0,0
			c0.2,0.2,0.2,0.5,0,0.7l0,0c-0.1,0.1-0.2,0.2-0.4,0.2l0,0C76.5,23.5,76.4,23.4,76.3,23.3z M25.1,23.1c-0.2-0.2-0.2-0.5,0-0.7l0,0
			c0.2-0.2,0.5-0.2,0.7,0l0,0c0.2,0.2,0.2,0.5,0,0.7l0,0c-0.1,0.1-0.2,0.1-0.3,0.1l0,0C25.4,23.2,25.2,23.2,25.1,23.1z M74.7,22
			c-0.2-0.2-0.3-0.5-0.1-0.7l0,0c0.2-0.2,0.5-0.3,0.7-0.1l0,0c0.2,0.2,0.3,0.5,0.1,0.7l0,0c-0.1,0.1-0.3,0.2-0.4,0.2l0,0
			C74.9,22.1,74.8,22.1,74.7,22z M26.7,21.7c-0.2-0.2-0.1-0.5,0.1-0.7l0,0c0.2-0.2,0.5-0.1,0.7,0.1l0,0c0.2,0.2,0.1,0.6-0.1,0.7l0,0
			c-0.1,0.1-0.2,0.1-0.3,0.1l0,0C26.9,21.9,26.8,21.8,26.7,21.7z M73.1,20.7c-0.2-0.2-0.3-0.5-0.1-0.7l0,0c0.2-0.2,0.5-0.3,0.7-0.1
			l0,0c0.2,0.2,0.3,0.5,0.1,0.7l0,0c-0.1,0.1-0.3,0.2-0.4,0.2l0,0C73.3,20.8,73.2,20.8,73.1,20.7z M28.3,20.4
			c-0.2-0.2-0.1-0.6,0.1-0.7l0,0l0,0l0,0c0.2-0.2,0.6-0.1,0.7,0.1l0,0c0.2,0.2,0.1,0.6-0.1,0.7v0c-0.1,0.1-0.2,0.1-0.3,0.1l0,0
			C28.6,20.6,28.4,20.5,28.3,20.4z M71.4,19.5c-0.2-0.2-0.3-0.5-0.1-0.7l0,0c0.2-0.2,0.5-0.3,0.7-0.1l0,0c0.2,0.2,0.3,0.5,0.1,0.7
			l0,0c-0.1,0.1-0.3,0.2-0.4,0.2l0,0C71.6,19.6,71.5,19.6,71.4,19.5z M30,19.2c-0.2-0.2-0.1-0.6,0.2-0.7l0,0
			c0.2-0.2,0.6-0.1,0.7,0.2l0,0c0.2,0.2,0.1,0.6-0.2,0.7l0,0c-0.1,0.1-0.2,0.1-0.3,0.1l0,0C30.3,19.4,30.1,19.3,30,19.2z M69.7,18.4
			c-0.3-0.1-0.3-0.5-0.2-0.7l0,0c0.1-0.2,0.5-0.3,0.7-0.2l0,0c0.3,0.1,0.3,0.5,0.2,0.7l0,0c-0.1,0.2-0.3,0.3-0.4,0.3l0,0
			C69.9,18.5,69.8,18.5,69.7,18.4z M31.8,18.1c-0.1-0.3-0.1-0.6,0.2-0.7l0,0c0.3-0.1,0.6-0.1,0.7,0.2l0,0c0.1,0.3,0.1,0.6-0.2,0.7
			l0,0c-0.1,0-0.2,0.1-0.3,0.1l0,0C32,18.3,31.9,18.2,31.8,18.1z M67.9,17.4c-0.3-0.1-0.4-0.4-0.2-0.7l0,0c0.1-0.3,0.4-0.4,0.7-0.2
			l0,0c0.3,0.1,0.4,0.4,0.2,0.7l0,0c-0.1,0.2-0.3,0.3-0.5,0.3l0,0C68,17.5,68,17.5,67.9,17.4z M33.6,17.1c-0.1-0.3,0-0.6,0.2-0.7
			l0,0c0.3-0.1,0.6,0,0.7,0.2l0,0c0.1,0.3,0,0.6-0.2,0.7l0,0c-0.1,0-0.2,0.1-0.2,0.1l0,0C33.8,17.4,33.7,17.2,33.6,17.1z M66,16.6
			c-0.3-0.1-0.4-0.4-0.3-0.7l0,0c0.1-0.3,0.4-0.4,0.7-0.3l0,0c0.3,0.1,0.4,0.4,0.3,0.7l0,0c-0.1,0.2-0.3,0.3-0.5,0.3l0,0
			C66.2,16.6,66.1,16.6,66,16.6z M35.4,16.2c-0.1-0.3,0-0.6,0.3-0.7l0,0c0.3-0.1,0.6,0,0.7,0.3l0,0c0.1,0.3,0,0.6-0.3,0.7l0,0
			c-0.1,0-0.1,0-0.2,0l0,0C35.7,16.5,35.5,16.4,35.4,16.2z M64.1,15.8c-0.3-0.1-0.4-0.4-0.3-0.7l0,0c0.1-0.3,0.4-0.4,0.7-0.3l0,0
			c0.3,0.1,0.4,0.4,0.3,0.7l0,0c-0.1,0.2-0.3,0.3-0.5,0.3l0,0C64.3,15.8,64.2,15.8,64.1,15.8z M37.4,15.4c-0.1-0.3,0-0.6,0.3-0.7
			l0,0c0.3-0.1,0.6,0,0.7,0.3l0,0c0.1,0.3,0,0.6-0.3,0.7l0,0c-0.1,0-0.1,0-0.2,0l0,0C37.6,15.7,37.4,15.6,37.4,15.4z M62.2,15.1
			c-0.3-0.1-0.4-0.4-0.3-0.7l0,0c0.1-0.3,0.4-0.4,0.7-0.3l0,0c0.3,0.1,0.4,0.4,0.3,0.6l0,0c-0.1,0.2-0.3,0.4-0.5,0.4l0,0
			C62.3,15.1,62.2,15.1,62.2,15.1z M39.3,14.7c-0.1-0.3,0.1-0.6,0.3-0.6l0,0c0.3-0.1,0.6,0.1,0.6,0.3l0,0c0.1,0.3-0.1,0.6-0.3,0.6
			l0,0c0,0-0.1,0-0.2,0l0,0C39.6,15,39.4,14.9,39.3,14.7z M60.2,14.5L60.2,14.5c-0.3-0.1-0.4-0.4-0.4-0.6l0,0
			c0.1-0.3,0.4-0.4,0.6-0.4l0,0c0.3,0.1,0.4,0.4,0.4,0.6l0,0c-0.1,0.2-0.3,0.4-0.5,0.4l0,0C60.3,14.5,60.3,14.5,60.2,14.5z
			 M41.3,14.1c-0.1-0.3,0.1-0.6,0.4-0.6l0,0c0.3-0.1,0.6,0.1,0.6,0.4l0,0c0.1,0.3-0.1,0.6-0.4,0.6l0,0c0,0-0.1,0-0.1,0l0,0
			C41.6,14.5,41.4,14.3,41.3,14.1z M58.2,14.1c-0.3-0.1-0.5-0.3-0.4-0.6l0,0c0.1-0.3,0.3-0.5,0.6-0.4l0,0c0.3,0.1,0.5,0.3,0.4,0.6
			l0,0c-0.1,0.3-0.3,0.4-0.5,0.4l0,0C58.3,14.1,58.3,14.1,58.2,14.1z M43.3,13.6c-0.1-0.3,0.1-0.6,0.4-0.6l0,0
			c0.3-0.1,0.6,0.1,0.6,0.4l0,0c0.1,0.3-0.1,0.5-0.4,0.6l0,0c0,0-0.1,0-0.1,0l0,0C43.6,14,43.4,13.9,43.3,13.6z M56.2,13.7
			c-0.3,0-0.5-0.3-0.4-0.6l0,0c0-0.3,0.3-0.5,0.6-0.4l0,0c0.3,0,0.5,0.3,0.4,0.6l0,0C56.8,13.6,56.5,13.7,56.2,13.7L56.2,13.7
			C56.3,13.7,56.2,13.7,56.2,13.7z M45.4,13.2c0-0.3,0.2-0.5,0.4-0.6l0,0l0,0l0,0c0.3,0,0.5,0.2,0.6,0.4l0,0c0,0.3-0.2,0.5-0.4,0.6
			l0,0c0,0,0,0-0.1,0l0,0C45.6,13.7,45.4,13.5,45.4,13.2z M54.2,13.5c-0.3,0-0.5-0.3-0.5-0.6l0,0c0-0.3,0.3-0.5,0.6-0.5l0,0l0,0l0,0
			c0.3,0,0.5,0.3,0.5,0.6l0,0C54.7,13.3,54.5,13.5,54.2,13.5L54.2,13.5C54.2,13.5,54.2,13.5,54.2,13.5z M47.5,13
			c0-0.3,0.2-0.5,0.5-0.6l0,0c0.3,0,0.5,0.2,0.6,0.5l0,0c0,0.3-0.2,0.5-0.5,0.6l0,0c0,0,0,0,0,0l0,0C47.7,13.5,47.5,13.3,47.5,13z
			 M52.1,13.4c-0.3,0-0.5-0.3-0.5-0.5l0,0c0-0.3,0.2-0.5,0.5-0.5l0,0l0,0l0,0c0.3,0,0.5,0.3,0.5,0.5l0,0
			C52.6,13.2,52.4,13.4,52.1,13.4L52.1,13.4L52.1,13.4z M49.5,12.9c0-0.3,0.2-0.5,0.5-0.5l0,0l0,0l0,0c0.3,0,0.5,0.2,0.5,0.5l0,0
			c0,0.3-0.2,0.5-0.5,0.5l0,0c0,0,0,0,0,0l0,0C49.8,13.4,49.5,13.1,49.5,12.9z"/>
		<g>
			<path class="st0" d="M21.7,59.2c1.7-0.7,3.4,0.1,4.1,1.7c0.5,1.1,0.2,2.1-0.3,2.8L24.6,63c0.3-0.4,0.4-1,0.2-1.6
				c-0.4-1-1.5-1.4-2.5-1c-1,0.4-1.5,1.5-1.1,2.5c0.2,0.5,0.6,0.9,0.9,1l0.7-0.3l-0.6-1.5l1-0.4l1.1,2.6l-2.1,0.9
				c-0.9-0.3-1.6-0.9-2-1.9C19.4,61.7,20,59.9,21.7,59.2z"/>
			<path class="st0" d="M22.9,68.3l4.9-3.4l0.7,1.1l-4.9,3.4L22.9,68.3z"/>
			<path class="st0" d="M26.7,73.1l2.6-5.9l1,1l-2.1,4.4l4.4-2.1l1,1l-5.9,2.6L26.7,73.1z"/>
			<path class="st0" d="M31.8,77.5l3.1-5.1l3.6,2.2l-0.6,1L35.4,74l-0.7,1.1l2.5,1.5l-0.6,1l-2.5-1.5l-0.7,1.2l2.5,1.5l-0.6,1
				L31.8,77.5z"/>
			<path class="st0" d="M45.7,83.1L45.6,82l-2.5-0.5l-0.6,0.9l-1.4-0.3l3.5-5.4l1.6,0.3l1,6.3L45.7,83.1z M45.1,78.1l-1.4,2.3
				l1.8,0.4L45.1,78.1z"/>
			<path class="st0" d="M53.5,83.5l-0.9-5.9l2.3-0.4c1.9-0.3,3.3,0.7,3.6,2.5c0.3,1.8-0.8,3.2-2.7,3.4L53.5,83.5z M57.3,79.9
				c-0.2-1-0.9-1.8-2.1-1.6l-1.1,0.2l0.6,3.7l1.1-0.2C56.9,81.8,57.4,80.9,57.3,79.9z"/>
			<path class="st0" d="M65,80.4l-1.9-1.5l-0.9,0.4l0.8,2l-1.2,0.5l-2.3-5.5l2.6-1.1c1.2-0.5,2.2,0,2.6,1c0.4,1,0,1.8-0.5,2.1
				l2.1,1.6L65,80.4z M63.6,76.6c-0.2-0.5-0.7-0.6-1.1-0.4l-1.2,0.5l0.6,1.5l1.2-0.5C63.5,77.5,63.8,77.1,63.6,76.6z"/>
			<path class="st0" d="M68.9,78.3l-3.5-4.9l3.4-2.5l0.7,0.9l-2.4,1.7l0.7,1l2.4-1.7l0.7,0.9l-2.4,1.7l0.8,1.1l2.4-1.7l0.7,0.9
				L68.9,78.3z"/>
			<path class="st0" d="M77.5,70.5l-1-0.4l-1.7,1.9l0.5,0.9l-0.9,1.1l-3-5.7l1-1.2l6,2.2L77.5,70.5z M72.8,68.7l1.3,2.4l1.2-1.4
				L72.8,68.7z"/>
			<path class="st0" d="M82.3,62.2l-3.8-1.8l3.1,3.3l-0.2,0.5L76.8,64l3.8,1.8L80.1,67l-5.4-2.5l0.8-1.6l3.9,0.2l-2.7-2.8l0.8-1.6
				l5.4,2.5L82.3,62.2z"/>
		</g>
		<g>
			<path class="st0" d="M25.4,42.4l-5.6-2.1l0.9-2.5c0.4-1,1.2-1.3,2-1c0.7,0.3,1,0.9,0.9,1.5c0.3-0.6,1.1-0.8,1.8-0.6
				c0.9,0.3,1.3,1.2,0.9,2.2L25.4,42.4z M22.6,37.5c-0.5-0.2-1,0-1.3,0.6l-0.6,1.7l1.8,0.7l0.6-1.7C23.3,38.2,23.1,37.7,22.6,37.5z
				 M25.1,38.4c-0.5-0.2-1.1,0-1.4,0.7l-0.6,1.7l1.9,0.7l0.6-1.7C25.9,39.1,25.7,38.6,25.1,38.4z"/>
			<path class="st0" d="M26.1,35l-3-2.1l0.4-0.6l3,2.1c0.9,0.6,1.8,0.6,2.4-0.3c0.6-0.9,0.4-1.8-0.5-2.4l-3-2.1l0.4-0.6l3,2.1
				c1.2,0.9,1.5,2.1,0.6,3.4C28.5,35.8,27.3,35.9,26.1,35z"/>
			<path class="st0" d="M33.8,29.6l-1.6-2l-4-1.2l0.7-0.6l3.2,1l-0.3-3.3l0.7-0.6l0.4,4.2l1.6,2L33.8,29.6z"/>
			<path class="st0" d="M44.9,23.9L44,22.8l-2.8,0.9l-0.1,1.4l-0.8,0.3l0.5-6.4l0.9-0.3l4.1,5L44.9,23.9z M41.5,19.6L41.2,23
				l2.4-0.8L41.5,19.6z"/>
			<path class="st0" d="M51.8,23.2l0.8-5.9l2,0.3c1.8,0.2,2.9,1.7,2.7,3.4c-0.2,1.7-1.6,2.8-3.4,2.6L51.8,23.2z M56.5,20.8
				c0.2-1.3-0.5-2.4-2-2.6l-1.3-0.2l-0.6,4.6l1.3,0.2C55.4,23,56.3,22.1,56.5,20.8z"/>
			<path class="st0" d="M62.2,25.8L61.7,23l-1.1-0.4l-0.9,2.2L59,24.5l2.2-5.6l2.2,0.9c1,0.4,1.5,1.4,1.1,2.4c-0.4,1-1.3,1.3-2.1,1
				l0.6,2.9L62.2,25.8z M63.8,22c0.3-0.6,0-1.2-0.7-1.5l-1.5-0.6L60.8,22l1.5,0.6C62.9,22.8,63.5,22.6,63.8,22z"/>
			<path class="st0" d="M64.8,27.2l3.5-4.9l3.2,2.3l-0.4,0.5l-2.6-1.9l-1.1,1.6l2.5,1.8l-0.4,0.5L67,25.4l-1.2,1.7l2.6,1.8L68,29.5
				L64.8,27.2z"/>
			<path class="st0" d="M72.4,34.2l0.7-1.3l-1.9-2.3l-1.4,0.5l-0.6-0.7l6.1-2l0.6,0.7l-3,5.7L72.4,34.2z M75.1,29.3l-3.3,1.1
				l1.6,1.9L75.1,29.3z"/>
			<path class="st0" d="M76,41l4.5-2l-5.3,0.2L75,38.9l3.7-3.9l-4.5,2l-0.3-0.7l5.5-2.4l0.4,1l-3.4,3.5l4.9-0.1l0.4,1l-5.5,2.4
				L76,41z"/>
		</g>
		<circle id="XMLID_68_" class="st0" cx="20.9" cy="50.7" r="1.1"/>
		<circle id="XMLID_67_" class="st0" cx="81" cy="50.7" r="1.1"/>
		<path class="st0" d="M50.9,73.7c-12.7,0-23-10.3-23-23s10.3-23,23-23s23,10.3,23,23S63.6,73.7,50.9,73.7z M50.9,28.7
			c-12.1,0-22,9.9-22,22c0,12.1,9.9,22,22,22s22-9.9,22-22C72.9,38.6,63.1,28.7,50.9,28.7z"/>
		<g>
			<path class="st0" d="M40.6,46c0.2-0.3,0.5,0,0.4,0.3c-0.7,1.2-1.5,2.2-2.4,2.2c-0.5,0-0.7-0.2-0.7-0.4c-0.1-0.2-0.1-0.2-0.3-0.1
				c-0.2,0.2-0.6,0.5-1.1,0.5c-0.6,0-0.9-0.4-0.9-1c0-1,0.8-3.9,2.4-3.9c0.4,0,0.7,0.2,0.8,0.5c0.1,0.1,0.2,0.1,0.2,0l0.7-1.7
				c0.1-0.2,0.2-0.3,0.5-0.3h0.2c0.2,0,0.3,0.1,0.2,0.3l-1.8,4.4c-0.4,1-0.2,1.1,0,1.1C39.3,47.9,40,47.1,40.6,46z M36.8,47.8
				c0.3,0,0.7-0.3,0.9-0.6c0.1-0.1,0.2-0.3,0.2-0.4l0.6-1.5c0-0.1,0.1-0.3,0-0.4c0-0.2-0.2-0.4-0.4-0.4c-0.8,0-1.6,2.2-1.6,2.9
				C36.5,47.7,36.6,47.8,36.8,47.8z"/>
			<path class="st0" d="M41,46.3c-0.1,0.3-0.5,0-0.4-0.3c0.2-0.3,0.4-0.8,0.6-1.3c0.1-0.2,0.1-0.3,0-0.5c-0.1-0.1-0.1-0.2-0.1-0.3
				c0-0.3,0.2-0.6,0.5-0.8c0.1-0.1,0.3-0.1,0.4,0l0.1,0c0.2,0.1,0.2,0.2,0.1,0.4l-0.1,0.3c-0.1,0.2,0,0.3,0.1,0.4
				c0.4,0.3,0.8,0.6,0.8,1.1c0,0.1,0,0.3-0.1,0.5l-0.4,1c-0.4,1-0.2,1.1,0,1.1c0.3,0,0.8-0.7,1.6-1.9c0.2-0.3,0.5,0,0.4,0.3
				c-0.7,1.2-1.4,2.2-2.2,2.2c-0.7,0-1.1-0.6-0.5-2.1l0.3-0.8c0.1-0.2,0.1-0.3,0.1-0.3c0-0.1-0.1-0.2-0.2-0.4
				c-0.1-0.1-0.3-0.1-0.3,0.1C41.4,45.4,41.2,45.9,41,46.3z"/>
			<path class="st0" d="M47.9,46c0.2-0.3,0.5,0,0.4,0.3c-0.6,1.1-1.6,2.2-3,2.2c-0.9,0-1.4-0.5-1.4-1.3c0-1.3,1.1-3.5,2.5-3.5
				c0.9,0,1.3,0.8,0.8,1.8c-0.4,0.9-1.1,1.2-2.1,1.1c-0.2,0-0.3,0.1-0.3,0.3c-0.1,0.4-0.1,1.1,0.7,1.1C46.3,47.9,47.3,47.2,47.9,46z
				 M46.4,44.5c-0.6,0-1,0.9-1.2,1.4c-0.1,0.2,0,0.3,0.2,0.3c0.7,0,0.9-0.4,1.1-0.8C46.7,44.7,46.7,44.5,46.4,44.5z"/>
			<path class="st0" d="M52.6,46c0.2-0.3,0.5,0,0.4,0.3c-0.7,1.2-1.5,2.2-2.4,2.2c-0.5,0-0.7-0.2-0.7-0.4c-0.1-0.2-0.1-0.2-0.3-0.1
				c-0.2,0.2-0.6,0.5-1.1,0.5c-0.6,0-0.9-0.4-0.9-1c0-1,0.8-3.9,2.4-3.9c0.4,0,0.7,0.2,0.8,0.5c0.1,0.2,0.2,0.2,0.4,0.1l0.6-0.3
				c0.2-0.1,0.3,0,0.2,0.2l-1.1,2.7c-0.4,0.9-0.2,1.1,0,1.1C51.2,47.9,52,47.1,52.6,46z M48.8,47.8c0.3,0,0.7-0.3,0.9-0.6
				c0.1-0.1,0.2-0.3,0.2-0.4l0.6-1.5c0-0.1,0.1-0.3,0-0.4c0-0.2-0.2-0.4-0.4-0.4c-0.8,0-1.6,2.2-1.6,2.9
				C48.5,47.7,48.6,47.8,48.8,47.8z"/>
			<path class="st0" d="M59.2,46c0.2-0.3,0.5,0,0.4,0.3c-0.7,1.2-1.5,2.2-2.4,2.2c-0.7,0-1.2-0.5-0.5-2.1l0.4-0.9
				c0.2-0.4,0.3-0.8,0.3-0.9c0-0.1-0.1-0.2-0.2-0.2c-0.2,0-0.5,0.2-0.9,0.4c-0.1,0.1-0.2,0.3-0.3,0.4l-1.1,2.8
				c-0.1,0.2-0.2,0.3-0.5,0.3h-0.2c-0.2,0-0.3-0.1-0.2-0.3l1-2.5c0.2-0.4,0.3-0.8,0.3-0.9c0-0.1-0.1-0.2-0.2-0.2
				c-0.2,0-0.5,0.2-0.9,0.4c-0.1,0.1-0.2,0.3-0.3,0.4l-1.1,2.8c-0.1,0.2-0.2,0.3-0.5,0.3H52c-0.2,0-0.3-0.1-0.2-0.3l1.6-3.9
				c0.1-0.2,0.2-0.3,0.5-0.2l0.2,0.1c0.2,0.1,0.3,0.1,0.5,0c0.4-0.3,0.7-0.4,1-0.4c0.3,0,0.6,0.2,0.7,0.5c0,0.2,0.1,0.2,0.2,0.1
				c0.5-0.4,0.9-0.5,1.2-0.5c0.4,0,0.7,0.2,0.7,0.7c0,0.3-0.1,0.7-0.3,1.1l-0.5,1.3c-0.4,1.1-0.2,1.1,0,1.1
				C57.8,47.9,58.5,47.1,59.2,46z"/>
			<path class="st0" d="M63.7,46c0.2-0.3,0.5,0,0.4,0.3c-0.7,1.2-1.5,2.2-2.4,2.2c-0.7,0-1.2-0.5-0.5-2.1l0.9-2.3
				c0.1-0.2,0.2-0.3,0.5-0.3h0.2c0.2,0,0.3,0.1,0.2,0.3L62,46.8c-0.4,1-0.2,1.1,0,1.1C62.4,47.9,63.1,47.1,63.7,46z M63.2,43.3
				c-0.3,0-0.5-0.2-0.5-0.6c0-0.3,0.2-0.5,0.5-0.5c0.3,0,0.6,0.2,0.6,0.5C63.7,43,63.5,43.3,63.2,43.3z"/>
			<path class="st0" d="M66.2,46c0.2-0.3,0.5,0,0.4,0.3c-0.7,1.2-1.5,2.2-2.5,2.2c-0.8,0-1.2-0.5-0.5-2.1l1-2.4
				c0.1-0.2,0-0.3-0.2-0.3h-0.3c-0.2,0-0.2-0.1-0.2-0.2c0.1-0.2,0.2-0.2,0.3-0.2h0.3c0.2,0,0.3-0.1,0.4-0.3l0.3-0.7
				c0.1-0.2,0.2-0.3,0.5-0.3h0.2c0.2,0,0.3,0.1,0.2,0.3l-0.3,0.7c-0.1,0.2,0,0.3,0.2,0.3h0.2c0.2,0,0.2,0.1,0.2,0.2
				c-0.1,0.2-0.2,0.2-0.3,0.2h-0.2c-0.2,0-0.3,0.1-0.4,0.3l-1.1,2.7c-0.4,1-0.2,1.1,0,1.1C64.9,47.9,65.6,47.1,66.2,46z"/>
			<path class="st0" d="M39.3,54.1c0.1-0.3,0.5,0,0.4,0.3c-0.6,1-1.4,1.8-2.6,1.8c-0.2,0-0.3,0.1-0.3,0.3c0,0.1,0,0.2,0,0.2
				c-0.1,0.6-0.3,1.2-0.6,1.7c-0.3,0.5-0.7,0.9-1.3,0.9c-0.6,0-1-0.4-0.6-1.6l2.6-6.5c0.6-1.4,1.1-1.8,1.7-1.8c0.7,0,1,0.6,0.7,1.6
				c-0.2,0.7-0.7,1.8-1.1,2.6c-0.4,0.8-0.7,1.2-1.6,1.3c-0.2,0-0.3,0.1-0.4,0.3c-0.1,0.2,0,0.3,0.1,0.4c0.2,0.1,0.3,0.1,0.6,0.1
				C38,55.6,38.7,55.1,39.3,54.1z M36.3,56.6c0.1-0.2,0-0.4,0-0.5c-0.1-0.1-0.2-0.1-0.3,0l-0.9,2.1c-0.2,0.4-0.1,0.4,0,0.4
				C35.7,58.6,36.2,57.2,36.3,56.6z M38.8,50.1c-0.3,0-0.7,0.6-0.9,1.2l-1.1,2.8c-0.1,0.2,0,0.2,0.2,0.2c0.3-0.1,0.5-0.4,0.7-0.8
				c0.7-1.2,1.1-2.4,1.2-2.7C39,50.5,39,50.1,38.8,50.1z"/>
			<path class="st0" d="M43.7,54.1c0.2-0.3,0.5,0,0.4,0.3c-0.5,0.8-1.2,1.4-2,1.3c-0.2,0-0.3,0-0.4,0.2c-0.4,0.4-0.9,0.7-1.4,0.7
				c-0.7,0-1.2-0.4-1.2-1.3c0-1.2,0.9-3.6,2.5-3.6c0.7,0,1.2,0.4,1.2,1.3c0,0.5-0.2,1.2-0.5,1.9c-0.1,0.2,0,0.3,0.2,0.2
				C42.9,55,43.3,54.7,43.7,54.1z M40.3,55.9c0.2,0,0.3-0.1,0.5-0.3c0.2-0.2,0.3-0.3,0.2-0.7c0,0,0-0.1,0-0.1c0-0.3,0.2-0.5,0.4-0.5
				c0.2,0,0.2-0.1,0.3-0.3c0.2-0.5,0.3-0.9,0.3-1.2c0-0.4-0.2-0.5-0.4-0.5c-0.8,0-1.7,2.2-1.7,3C39.9,55.7,40.1,55.9,40.3,55.9z"/>
			<path class="st0" d="M44.1,54.3c-0.1,0.3-0.5,0-0.4-0.3c0.2-0.3,0.4-0.8,0.6-1.3c0.1-0.2,0.1-0.3,0-0.5c-0.1-0.1-0.1-0.2-0.1-0.3
				c0-0.3,0.2-0.6,0.5-0.8c0.1-0.1,0.3-0.1,0.4,0l0.1,0c0.2,0.1,0.2,0.2,0.1,0.4l-0.1,0.3c-0.1,0.2,0,0.3,0.1,0.4
				c0.4,0.3,0.8,0.6,0.8,1.1c0,0.1,0,0.3-0.1,0.5l-0.4,1c-0.4,1-0.2,1.1,0,1.1c0.3,0,0.8-0.7,1.6-1.9c0.2-0.3,0.5,0,0.4,0.3
				c-0.7,1.2-1.4,2.2-2.2,2.2c-0.7,0-1.1-0.6-0.5-2.1l0.3-0.8c0.1-0.2,0.1-0.3,0.1-0.3c0-0.1-0.1-0.2-0.2-0.4
				c-0.1-0.1-0.3-0.1-0.3,0.1C44.6,53.5,44.3,53.9,44.1,54.3z"/>
			<path class="st0" d="M53.5,54.1c0.2-0.3,0.5,0,0.4,0.3c-0.5,0.9-1.3,1.5-2.2,1.3c-0.2-0.1-0.3,0-0.4,0.1
				c-0.5,0.6-1.1,0.8-1.5,0.8c-0.4,0-0.7-0.1-0.8-0.5c0-0.2-0.1-0.2-0.2-0.1c-0.3,0.3-0.7,0.6-1.1,0.6c-0.7,0-1.2-0.5-0.5-2.1
				l0.9-2.3c0.1-0.2,0.2-0.3,0.5-0.3h0.2c0.2,0,0.3,0.1,0.2,0.3l-1.1,2.7c-0.4,1-0.2,1.1-0.1,1.1c0.5,0,1-0.8,1.4-1.4
				c0.1-0.1,0.2-0.3,0.2-0.4l0.7-1.9c0.1-0.2,0.2-0.3,0.5-0.3h0.2c0.2,0,0.3,0.1,0.2,0.3L50,54.8c-0.4,1-0.2,1.1,0,1.1
				c0.2,0,0.4-0.1,0.6-0.3c0.3-0.2,0.2-0.3,0.2-0.6c0-0.3,0.2-0.6,0.5-0.6c0.2,0,0.2-0.1,0.3-0.2c0.2-0.5,0.5-1.1,0.7-1.9
				c0.1-0.3,0.2-0.4,0.5-0.4c0.2,0,0.3,0.1,0.3,0.3c-0.3,1.1-0.6,2-1,2.7c-0.1,0.2,0,0.3,0.1,0.3C52.5,55.2,53.1,54.9,53.5,54.1z"/>
			<path class="st0" d="M58.2,54.1c0.2-0.3,0.5,0,0.4,0.3c-0.7,1.2-1.5,2.2-2.4,2.2c-0.5,0-0.7-0.2-0.7-0.4
				c-0.1-0.2-0.1-0.2-0.3-0.1c-0.2,0.2-0.6,0.5-1.1,0.5c-0.6,0-0.9-0.4-0.9-1c0-1,0.8-3.9,2.4-3.9c0.4,0,0.7,0.2,0.8,0.5
				c0.1,0.2,0.2,0.2,0.4,0.1l0.6-0.3c0.2-0.1,0.3,0,0.2,0.2l-1.1,2.7c-0.4,0.9-0.2,1.1,0,1.1C56.8,56,57.6,55.1,58.2,54.1z
				 M54.4,55.8c0.3,0,0.7-0.3,0.9-0.6c0.1-0.1,0.2-0.3,0.2-0.4l0.6-1.5c0-0.1,0.1-0.3,0-0.4c0-0.2-0.2-0.4-0.4-0.4
				c-0.8,0-1.6,2.2-1.6,2.9C54.1,55.7,54.2,55.8,54.4,55.8z"/>
			<path class="st0" d="M58.5,54.3c-0.1,0.3-0.5,0-0.4-0.3c0.2-0.3,0.4-0.8,0.6-1.3c0.1-0.2,0.1-0.3,0-0.5c-0.1-0.1-0.1-0.2-0.1-0.3
				c0-0.3,0.2-0.6,0.5-0.8c0.1-0.1,0.3-0.1,0.4,0l0.1,0c0.2,0.1,0.2,0.2,0.1,0.4l-0.1,0.3c-0.1,0.2,0,0.3,0.1,0.4
				c0.4,0.3,0.8,0.6,0.8,1.1c0,0.1,0,0.3-0.1,0.5l-0.4,1c-0.4,1-0.2,1.1,0,1.1c0.3,0,0.8-0.7,1.6-1.9c0.2-0.3,0.5,0,0.4,0.3
				c-0.7,1.2-1.4,2.2-2.2,2.2c-0.7,0-1.1-0.6-0.5-2.1l0.3-0.8c0.1-0.2,0.1-0.3,0.1-0.3c0-0.1-0.1-0.2-0.2-0.4
				c-0.1-0.1-0.3-0.1-0.3,0.1C59,53.5,58.8,53.9,58.5,54.3z"/>
			<path class="st0" d="M66.3,54.1c0.2-0.3,0.5,0,0.4,0.3c-0.7,1.2-1.5,2.2-2.4,2.2c-0.5,0-0.7-0.2-0.7-0.4
				c-0.1-0.2-0.1-0.2-0.3-0.1c-0.2,0.2-0.6,0.5-1.1,0.5c-0.6,0-0.9-0.4-0.9-1c0-1,0.8-3.9,2.4-3.9c0.4,0,0.7,0.2,0.8,0.5
				c0.1,0.1,0.2,0.1,0.2,0l0.7-1.7c0.1-0.2,0.2-0.3,0.5-0.3h0.2c0.2,0,0.3,0.1,0.2,0.3l-1.8,4.4c-0.4,1-0.2,1.1,0,1.1
				C65,56,65.7,55.1,66.3,54.1z M62.5,55.8c0.3,0,0.7-0.3,0.9-0.6c0.1-0.1,0.2-0.3,0.2-0.4l0.6-1.5c0-0.1,0.1-0.3,0-0.4
				c0-0.2-0.2-0.4-0.4-0.4c-0.8,0-1.6,2.2-1.6,2.9C62.2,55.7,62.3,55.8,62.5,55.8z"/>
		</g>
	</g>
	<g>
		<path class="st0" d="M66.6,52.5h-0.3v-0.1H67v0.1h-0.3v0.8h-0.1V52.5z M67.2,52.3h0.2l0.4,0.5l0.3-0.5h0.1v1h-0.1v-0.8l-0.4,0.5h0
			l-0.3-0.5v0.8h-0.1V52.3z"/>
	</g>
</g>
</svg>
