<?xml version="1.0" encoding="utf-8"?>
<!-- Generator: Adobe Illustrator 19.1.0, SVG Export Plug-In . SVG Version: 6.00 Build 0)  -->
<!DOCTYPE svg PUBLIC "-//W3C//DTD SVG 1.1//EN" "http://www.w3.org/Graphics/SVG/1.1/DTD/svg11.dtd">
<svg version="1.1" id="Layer_1" xmlns="http://www.w3.org/2000/svg" xmlns:xlink="http://www.w3.org/1999/xlink" x="0px" y="0px"
	 viewBox="0 0 114 100" style="enable-background:new 0 0 114 100;" xml:space="preserve">
<style type="text/css">
	.st0{fill:#FFFFFF;stroke:#BABCBE;stroke-width:2.6175;stroke-linecap:round;stroke-miterlimit:10;}
	.st1{fill:none;stroke:#BABCBE;stroke-width:2.6175;stroke-linecap:round;stroke-linejoin:round;stroke-miterlimit:10;}
	.st2{fill:#FFFFFF;stroke:#BABCBE;stroke-width:2.6175;stroke-linecap:round;stroke-linejoin:round;stroke-miterlimit:10;}
	.st3{fill:none;stroke:#BABCBE;stroke-width:2.6837;stroke-linecap:round;stroke-linejoin:round;stroke-miterlimit:10;}
	.st4{fill:none;stroke:#BABCBE;stroke-width:3.5783;stroke-linecap:round;stroke-linejoin:round;}
	.st5{fill:none;stroke:#BABCBE;stroke-width:3.5783;stroke-linecap:round;stroke-linejoin:round;stroke-dasharray:0,7.0655;}
	.st6{fill:none;stroke:#BABCBE;stroke-width:1.484;stroke-linecap:round;stroke-linejoin:round;stroke-miterlimit:10;}
	.st7{fill:#FF6B00;}
	.st8{fill:#FFFFFF;stroke:#BABCBE;stroke-width:1.047;stroke-linecap:round;stroke-linejoin:round;stroke-miterlimit:10;}
	.st9{fill:#FFFFFF;stroke:#BABCBE;stroke-width:1.3088;stroke-linecap:round;stroke-linejoin:round;stroke-miterlimit:10;}
</style>
<g>
	<g>
		<path class="st0" d="M100.4,73.2c0,1.7-1.4,3.1-3.1,3.1H18.1c-1.7,0-3.1-1.4-3.1-3.1v-2.6c0-1.7,1.4-3.1,3.1-3.1h79.2
			c1.7,0,3.1,1.4,3.1,3.1L100.4,73.2z"/>
		<path class="st0" d="M15,62.5c0-1.5,1.2-2.7,2.7-2.7h10.6c1.5,0,2.7,1.2,2.7,2.7v0.6c0,1.5-1.2,2.7-2.7,2.7H17.7
			c-1.5,0-2.7-1.2-2.7-2.7V62.5z"/>
		<g>
			<line class="st1" x1="101.3" y1="59" x2="64.9" y2="59"/>
			<line class="st1" x1="101.3" y1="62.8" x2="64.9" y2="62.8"/>
			<path class="st2" d="M41.1,65.5c-4.6,0-8.4-3.7-8.4-8.4s3.7-8.4,8.4-8.4h23.8v16.7H41.1z"/>
			<line class="st3" x1="32.7" y1="56.4" x2="29.7" y2="55"/>
			<circle class="st2" cx="22.7" cy="51.8" r="7.7"/>
			<polyline class="st1" points="37.4,57.1 46.6,61.2 59.2,61.7 			"/>
		</g>
		<g>
			<path class="st0" d="M6.5,53.5c2.1,0,3.8,1.7,3.8,3.8v25.4c0,2.1-1.7,3.8-3.8,3.8H5.6c-2.1,0-3.8-1.7-3.8-3.8V57.3
				c0-2.1,1.7-3.8,3.8-3.8H6.5z"/>
			<path class="st0" d="M108.6,70c2.1,0,3.8,1.7,3.8,3.8v8.9c0,2.1-1.7,3.8-3.8,3.8h-0.8c-2.1,0-3.8-1.7-3.8-3.8v-8.9
				c0-2.1,1.7-3.8,3.8-3.8L108.6,70z"/>
			<polyline class="st1" points="106.9,97 99.6,86.4 99.6,86.4 14.8,86.4 14.8,86.4 7.5,97 			"/>
			<g>
				<g>
					<line class="st4" x1="99.6" y1="80.9" x2="99.6" y2="80.9"/>
					<line class="st5" x1="92.5" y1="80.9" x2="18.3" y2="80.9"/>
					<line class="st4" x1="14.8" y1="80.9" x2="14.8" y2="80.9"/>
				</g>
			</g>
		</g>
	</g>
	<path class="st6" d="M26.8,49.9c0.9,1.6,0.3,3.5-1.2,4.4"/>
	<path id="XMLID_7_" class="st2" d="M15.5,27.3c-2.8-1.1-4.8-4.1-4.8-7.8c0-2.5,1-4.7,2.5-6.2c-0.2-0.6-0.2-1.2-0.2-1.8
		c0-3.8,3.1-6.8,7-6.8c1,0,1.9,0.2,2.7,0.6c0.8-2.5,2.9-3.7,5.3-3.7c2.4,0,4.4,1.1,5.2,3.5c5.2,0.1,9.4,3.7,9.4,8.2
		c0,0.8-0.1,1.5-0.4,2.2c1.2,1.5,2,3.5,2,5.8c0,4.5-3.1,8.2-7,8.2c-0.4,0-0.7,0-1.1-0.1c-1.2,2.3-3.4,3.9-5.9,3.9
		c-1.7,0-3.2-0.7-4.4-1.9C24.8,31.8,18.4,34.5,15.5,27.3z"/>
	<path class="st7" d="M33.3,18c0.2-0.5,0.3-1,0.3-1.5c0-1.8-1.5-3.3-3.4-3.2C29,13.3,28,14,27.4,15c-0.6-1-1.7-1.6-2.9-1.6
		c-1.8,0-3.3,1.5-3.2,3.4c0,0.5,0.2,1,0.4,1.5l0,0l0.1,0.1c0.3,0.6,5.9,5.7,5.9,5.7S33,18.6,33.3,18L33.3,18L33.3,18z"/>
	<ellipse class="st8" cx="11.8" cy="41.5" rx="2.2" ry="1.6"/>
	<ellipse class="st9" cx="10.3" cy="34" rx="3" ry="2.2"/>
</g>
</svg>
