<?xml version="1.0" encoding="utf-8"?>
<!-- Generator: Adobe Illustrator 19.1.0, SVG Export Plug-In . SVG Version: 6.00 Build 0)  -->
<!DOCTYPE svg PUBLIC "-//W3C//DTD SVG 1.1//EN" "http://www.w3.org/Graphics/SVG/1.1/DTD/svg11.dtd">
<svg version="1.1" id="Layer_1" xmlns="http://www.w3.org/2000/svg" xmlns:xlink="http://www.w3.org/1999/xlink" x="0px" y="0px"
	 viewBox="-40 36 105 40" style="enable-background:new -40 36 105 40;" xml:space="preserve">
<style type="text/css">
	.st0{enable-background:new    ;}
	.st1{fill:#828282;}
	.st2{fill:#FF6B00;}
	.st3{fill:#FFFFFF;}
</style>
<g>
	<g class="st0">
		<path class="st1" d="M17.7,55.3c0,0.6,0,1.1,0,1.6c0,0.5-0.1,0.9-0.1,1.2s-0.2,0.7-0.3,1c-0.1,0.3-0.3,0.6-0.6,0.8
			c-0.4,0.4-0.8,0.7-1.3,0.9c-0.5,0.2-1,0.3-1.6,0.3c-1.2,0-2.1-0.4-2.9-1.2c-0.3-0.3-0.5-0.5-0.6-0.8s-0.3-0.6-0.3-1
			s-0.1-0.8-0.1-1.2c0-0.5,0-1,0-1.6c0-0.6,0-1.1,0-1.6s0.1-0.9,0.1-1.2s0.2-0.7,0.3-1s0.3-0.6,0.6-0.8c0.8-0.8,1.8-1.2,2.9-1.2
			c1.2,0,2.1,0.4,2.9,1.2c0.3,0.3,0.5,0.5,0.6,0.8c0.1,0.3,0.3,0.6,0.3,1s0.1,0.8,0.1,1.2S17.7,54.7,17.7,55.3z M16.5,55.3
			c0-0.6,0-1.1,0-1.5c0-0.4-0.1-0.8-0.1-1c-0.1-0.3-0.1-0.5-0.2-0.7s-0.3-0.4-0.4-0.6c-0.2-0.3-0.5-0.5-0.9-0.6
			c-0.3-0.1-0.7-0.2-1.1-0.2c-0.4,0-0.7,0.1-1.1,0.2c-0.3,0.1-0.6,0.3-0.9,0.6c-0.2,0.2-0.3,0.4-0.4,0.6c-0.1,0.2-0.2,0.5-0.2,0.7
			c-0.1,0.3-0.1,0.6-0.1,1c0,0.4,0,0.9,0,1.5c0,0.6,0,1.1,0,1.5c0,0.4,0.1,0.8,0.1,1c0.1,0.3,0.1,0.5,0.2,0.7
			c0.1,0.2,0.3,0.4,0.4,0.6c0.2,0.3,0.5,0.5,0.9,0.6C13,60,13.4,60,13.7,60c0.4,0,0.7-0.1,1.1-0.2s0.6-0.3,0.9-0.6
			c0.2-0.2,0.3-0.4,0.4-0.6s0.2-0.5,0.2-0.7c0.1-0.3,0.1-0.6,0.1-1C16.5,56.4,16.5,55.9,16.5,55.3z"/>
		<path class="st1" d="M24.8,54.7c-0.2-0.2-0.4-0.4-0.6-0.4c-0.2-0.1-0.4-0.1-0.8-0.1c-0.3,0-0.5,0.1-0.8,0.2s-0.4,0.3-0.6,0.4
			s-0.3,0.4-0.4,0.7c-0.1,0.3-0.1,0.5-0.1,0.8V61h-1.2v-7.9h1.2v1c0.2-0.3,0.5-0.6,0.9-0.8c0.4-0.2,0.8-0.3,1.3-0.3
			c0.4,0,0.7,0.1,1,0.2s0.6,0.3,0.9,0.6L24.8,54.7z"/>
		<path class="st1" d="M27.1,50.9v-1.3h1.3v1.3H27.1z M27.1,61v-7.9h1.2V61H27.1z"/>
		<path class="st1" d="M36.7,62.6c-0.1,0.4-0.4,0.8-0.6,1.1c-0.3,0.3-0.6,0.5-1,0.7c-0.4,0.2-0.9,0.3-1.4,0.3c-0.3,0-0.6,0-0.8-0.1
			c-0.2,0-0.5-0.1-0.7-0.2s-0.4-0.2-0.6-0.3c-0.2-0.1-0.4-0.3-0.6-0.5l0.8-0.7c0.1,0.1,0.3,0.2,0.4,0.3c0.1,0.1,0.3,0.2,0.4,0.2
			c0.1,0.1,0.3,0.1,0.5,0.2s0.4,0,0.6,0c0.4,0,0.7-0.1,1-0.2c0.3-0.1,0.5-0.3,0.7-0.5c0.2-0.2,0.3-0.5,0.4-0.8s0.1-0.6,0.1-0.9V60
			c-0.3,0.4-0.7,0.7-1,0.8C34.4,61,34,61,33.6,61c-0.4,0-0.8-0.1-1.1-0.2c-0.3-0.1-0.6-0.3-0.8-0.5c-0.4-0.4-0.7-0.9-0.8-1.5
			c-0.1-0.6-0.2-1.2-0.2-1.8c0-0.6,0.1-1.2,0.2-1.8c0.1-0.6,0.4-1.1,0.8-1.5c0.2-0.2,0.5-0.4,0.8-0.5c0.3-0.1,0.7-0.2,1.1-0.2
			c0.4,0,0.8,0.1,1.2,0.2c0.4,0.1,0.7,0.4,1,0.8v-0.9H37v8.1C37,61.8,36.9,62.2,36.7,62.6z M35.8,57c0-0.4,0-0.7-0.1-1.1
			c0-0.4-0.1-0.7-0.3-0.9s-0.3-0.5-0.6-0.7c-0.3-0.2-0.6-0.3-1-0.3s-0.8,0.1-1,0.3c-0.3,0.2-0.5,0.4-0.6,0.7S32,55.6,32,56
			c0,0.4-0.1,0.7-0.1,1.1c0,0.4,0,0.7,0.1,1.1c0,0.4,0.1,0.7,0.3,0.9c0.1,0.3,0.3,0.5,0.6,0.7c0.3,0.2,0.6,0.3,1,0.3s0.8-0.1,1-0.3
			s0.5-0.4,0.6-0.7c0.1-0.3,0.2-0.6,0.3-0.9C35.8,57.8,35.8,57.4,35.8,57z"/>
		<path class="st1" d="M39.8,50.9v-1.3h1.3v1.3H39.8z M39.9,61v-7.9H41V61H39.9z"/>
		<path class="st1" d="M48.9,61v-4.8c0-0.7-0.2-1.2-0.5-1.6s-0.8-0.5-1.4-0.5s-1.1,0.2-1.4,0.5c-0.4,0.4-0.5,0.9-0.5,1.6V61h-1.2
			v-7.9h1.2V54c0.6-0.6,1.3-1,2.2-1c0.9,0,1.5,0.2,2,0.7c0.5,0.5,0.8,1.3,0.8,2.2v5H48.9z"/>
		<path class="st1" d="M57.4,61v-0.8c-0.2,0.2-0.3,0.3-0.5,0.4c-0.2,0.1-0.3,0.2-0.5,0.3s-0.4,0.1-0.6,0.1s-0.4,0-0.7,0
			c-0.5,0-1-0.1-1.3-0.2c-0.3-0.1-0.6-0.3-0.9-0.6c-0.2-0.2-0.3-0.4-0.4-0.7s-0.2-0.6-0.2-0.9c0-0.7,0.2-1.2,0.7-1.7
			c0.5-0.4,1.1-0.6,2-0.6h2.4v-0.8c0-0.6-0.2-1-0.5-1.3s-0.8-0.4-1.6-0.4c-0.5,0-0.9,0.1-1.2,0.2c-0.3,0.1-0.5,0.4-0.8,0.7l-0.8-0.7
			c0.4-0.5,0.7-0.8,1.2-0.9c0.4-0.2,1-0.2,1.6-0.2c1.1,0,1.9,0.2,2.4,0.7c0.5,0.4,0.8,1.1,0.8,2V61H57.4z M57.4,57.4h-2.2
			c-1.2,0-1.8,0.5-1.8,1.4c0,0.5,0.1,0.8,0.4,1c0.3,0.2,0.7,0.3,1.4,0.3c0.3,0,0.7,0,1-0.1c0.3-0.1,0.6-0.2,0.8-0.4
			c0.3-0.3,0.4-0.7,0.4-1.4V57.4z"/>
		<path class="st1" d="M63.3,61c-0.7,0-1.2-0.2-1.5-0.6c-0.3-0.4-0.5-0.9-0.5-1.5v-9.3h1.2v9.2c0,0.4,0.1,0.7,0.2,0.9
			c0.1,0.2,0.4,0.3,0.8,0.3h0.6v1H63.3z"/>
	</g>
</g>
<rect x="-39.9" y="36" class="st2" width="40" height="40"/>
<path class="st3" d="M-20,68c7.1,0,12.3-5.4,12.3-12v-0.1c0-6.5-5.1-11.9-12.2-11.9c-7,0-12.3,5.4-12.3,12v0.1
	C-32.2,62.6-27,68-20,68 M-26.9,55.9c0-4,2.7-7.3,6.9-7.3c4.1,0,7.1,3.4,7.1,7.4v0.1c0,4-2.7,7.3-7,7.3C-24,63.4-26.9,60-26.9,55.9
	L-26.9,55.9z"/>
</svg>
