<?xml version="1.0" encoding="utf-8"?>
<!-- Generator: Adobe Illustrator 19.1.0, SVG Export Plug-In . SVG Version: 6.00 Build 0)  -->
<!DOCTYPE svg PUBLIC "-//W3C//DTD SVG 1.1//EN" "http://www.w3.org/Graphics/SVG/1.1/DTD/svg11.dtd">
<svg version="1.1" id="Layer_1" xmlns="http://www.w3.org/2000/svg" xmlns:xlink="http://www.w3.org/1999/xlink" x="0px" y="0px"
	 viewBox="-944 2238 110 80" style="enable-background:new -944 2238 110 80;" xml:space="preserve">
<style type="text/css">
	.st0{fill:#F99D1E;}
	.st1{fill:#FFFFFF;}
	.st2{fill:#72C5EE;}
</style>
<g>
	
		<image style="overflow:visible;opacity:0.2;enable-background:new    ;" width="57" height="81" xlink:href="9365E3AE46845C22.png"  transform="matrix(0.8713 0 0 0.876 -941.8333 2243.0742)">
	</image>
	<g>
		<polygon class="st0" points="-918,2245.3 -939.9,2256.3 -938.1,2257.2 -918,2247.1 -897.8,2257.2 -917.4,2246.4 -939.9,2256.3 
			-939.9,2298 -918,2309.9 -918,2309.9 -896,2298 -896,2256.3 		"/>
		<polygon class="st1" points="-918.9,2307.5 -938.1,2297 -938.1,2259.1 -918.9,2268.7 		"/>
		<polygon class="st1" points="-917.1,2307.5 -917.1,2268.7 -897.9,2259.1 -897.9,2297 		"/>
		<path class="st0" d="M-906.4,2292.5l9.5-4.9l-0.4-0.8l-8.7,4.4l9-25.1l-0.9-0.3l-9.3,26.1l-4.8,2.4l-5.7-3.3l-16.4-23l2.7-6.5
			l-0.9-0.4l-2.5,5.9l-4.3-6l-0.1-0.2l-0.8,0.6l4.8,6.7l-4.6,10.8l0.9,0.4l4.3-10.3l16.2,22.7l5.4,3.1l-5.4,2.8l-20.6-11.3l-0.5,0.8
			l21.1,11.5l6.4-3.3l2.9,1.7l-3.1,8.7l0.9,0.3l3.1-8.6l5.6,3.3l0.5-0.8l-5.8-3.4L-906.4,2292.5z M-908.8,2296.2l-2.3-1.3l3.4-1.8
			L-908.8,2296.2z"/>
	</g>
</g>
<g>
	
		<image style="overflow:visible;opacity:0.2;enable-background:new    ;" width="57" height="81" xlink:href="9365E3AE46845C26.png"  transform="matrix(0.8713 0 0 0.876 -885.8333 2243.0742)">
	</image>
	<g>
		<polygon class="st2" points="-862,2245.3 -883.9,2256.3 -882.1,2257.2 -862,2247.1 -841.8,2257.2 -861.4,2246.4 -883.9,2256.3 
			-883.9,2298 -862,2309.9 -862,2309.9 -840,2298 -840,2256.3 		"/>
		<polygon class="st1" points="-862.9,2307.5 -882.1,2297 -882.1,2259.1 -862.9,2268.7 		"/>
		<polygon class="st1" points="-861.1,2307.5 -861.1,2268.7 -841.9,2259.1 -841.9,2297 		"/>
		<path class="st2" d="M-850.4,2292.5l9.5-4.9l-0.4-0.8l-8.7,4.4l9-25.1l-0.9-0.3l-9.3,26.1l-4.8,2.4l-5.7-3.3l-16.4-23l2.7-6.5
			l-0.9-0.4l-2.5,5.9l-4.3-6l-0.1-0.2l-0.8,0.6l4.8,6.7l-4.6,10.8l0.9,0.4l4.3-10.3l16.2,22.7l5.4,3.1l-5.4,2.8l-20.6-11.3l-0.5,0.8
			l21.1,11.5l6.4-3.3l2.9,1.7l-3.1,8.7l0.9,0.3l3.1-8.6l5.6,3.3l0.5-0.8l-5.8-3.4L-850.4,2292.5z M-852.8,2296.2l-2.3-1.3l3.4-1.8
			L-852.8,2296.2z"/>
	</g>
</g>
</svg>
