<?xml version="1.0" encoding="utf-8"?>
<!-- Generator: Adobe Illustrator 19.1.0, SVG Export Plug-In . SVG Version: 6.00 Build 0)  -->
<!DOCTYPE svg PUBLIC "-//W3C//DTD SVG 1.1//EN" "http://www.w3.org/Graphics/SVG/1.1/DTD/svg11.dtd">
<svg version="1.1" id="Layer_1" xmlns="http://www.w3.org/2000/svg" xmlns:xlink="http://www.w3.org/1999/xlink" x="0px" y="0px"
	 viewBox="0 0 108 40" style="enable-background:new 0 0 108 40;" xml:space="preserve">
<style type="text/css">
	.st0{fill:#71C5EE;}
	.st1{fill:#FFFFFF;}
	.st2{fill:#828282;}
	.st3{font-family:'DINBek-Regular';}
	.st4{font-size:16px;}
</style>
<g>
	<rect x="0" y="0" class="st0" width="40" height="40"/>
	<path class="st1" d="M21.2,32.1c-6.9,0-11.9-5.4-11.9-11.9V20c0-6.6,5.1-12.1,12-12.1c4.4,0,7.1,1.6,9.2,4l-3.3,3.5
		c-1.6-1.7-3.3-2.9-6-2.9c-3.9,0-6.7,3.3-6.7,7.4V20c0,4.1,2.8,7.4,6.9,7.4c2.5,0,4.3-1.2,6-2.9l3.2,3.2
		C28.4,30.3,25.8,32.1,21.2,32.1"/>
</g>
<g>
	<text transform="matrix(1 0 0 1 48.4593 25.0182)" class="st2 st3 st4">Cool Gel</text>
</g>
</svg>
