<?xml version="1.0" encoding="utf-8"?>
<!-- Generator: Adobe Illustrator 19.1.0, SVG Export Plug-In . SVG Version: 6.00 Build 0)  -->
<!DOCTYPE svg PUBLIC "-//W3C//DTD SVG 1.1//EN" "http://www.w3.org/Graphics/SVG/1.1/DTD/svg11.dtd">
<svg version="1.1" id="Layer_1" xmlns="http://www.w3.org/2000/svg" xmlns:xlink="http://www.w3.org/1999/xlink" x="0px" y="0px"
	 viewBox="0 0 105 40" style="enable-background:new 0 0 105 40;" xml:space="preserve">
<style type="text/css">
	.st0{fill:#828282;}
	.st1{font-family:'DINBek-Regular';}
	.st2{font-size:16px;}
	.st3{fill:#FF6B00;}
	.st4{fill:#FFFFFF;}
</style>
<g>
	<text transform="matrix(1 0 0 1 48.5419 25.0397)" class="st0 st1 st2">Original</text>
</g>
<rect x="0.1" y="0" class="st3" width="40" height="40"/>
<path class="st4" d="M20,32c7.1,0,12.3-5.4,12.3-12v-0.1C32.3,13.4,27.2,8,20.1,8C13.1,8,7.8,13.4,7.8,20v0.1C7.8,26.6,13,32,20,32
	 M13.1,19.9c0-4,2.7-7.3,6.9-7.3c4.1,0,7.1,3.4,7.1,7.4v0.1c0,4-2.7,7.3-7,7.3C16,27.4,13.1,24,13.1,19.9L13.1,19.9z"/>
</svg>
