<?xml version="1.0" encoding="utf-8"?>
<!-- Generator: Adobe Illustrator 19.1.0, SVG Export Plug-In . SVG Version: 6.00 Build 0)  -->
<!DOCTYPE svg PUBLIC "-//W3C//DTD SVG 1.1//EN" "http://www.w3.org/Graphics/SVG/1.1/DTD/svg11.dtd">
<svg version="1.1" id="Layer_1" xmlns="http://www.w3.org/2000/svg" xmlns:xlink="http://www.w3.org/1999/xlink" x="0px" y="0px"
	 viewBox="-472 273 15 15" style="enable-background:new -472 273 15 15;" xml:space="preserve">
<style type="text/css">
	.st0{fill:#808284;}
</style>
<path class="st0" d="M-464.5,273c-4.1,0-7.5,3.4-7.5,7.5c0,3.1,1.8,5.7,4.5,6.9c0-0.5,0-1.2,0.1-1.7c0.1-0.6,1-4.1,1-4.1
	s-0.3-0.5-0.3-1.2c0-1.1,0.6-1.9,1.4-1.9c0.7,0,1,0.5,1,1.1c0,0.7-0.4,1.7-0.7,2.7c0,0.7,0.5,1.4,1.3,1.4c1.4,0,2.4-1.8,2.4-4
	c0-1.6-1.1-2.9-3.1-2.9c-2.3,0-3.7,1.7-3.7,3.6c0,0.7,0.2,1.1,0.5,1.5c0.1,0.1,0.1,0.2,0.1,0.4c0,0.1-0.1,0.5-0.2,0.6
	c-0.1,0.2-0.2,0.3-0.4,0.2c-1-0.4-1.5-1.6-1.5-2.9c0-2.1,1.8-4.7,5.4-4.7c2.9,0,4.7,2.1,4.7,4.3c0,2.9-1.6,5.1-4,5.1
	c-0.8,0-1.6-0.4-1.8-0.9c0,0-0.4,1.7-0.5,2.1c-0.2,0.6-0.5,1.2-0.8,1.6c0.6,0.2,1.4,0.3,2.1,0.3c4.1,0,7.5-3.4,7.5-7.5
	S-460.4,273-464.5,273"/>
</svg>
