<?xml version="1.0" encoding="utf-8"?>
<!-- Generator: Adobe Illustrator 19.1.0, SVG Export Plug-In . SVG Version: 6.00 Build 0)  -->
<!DOCTYPE svg PUBLIC "-//W3C//DTD SVG 1.1//EN" "http://www.w3.org/Graphics/SVG/1.1/DTD/svg11.dtd">
<svg version="1.1" id="Layer_1" xmlns="http://www.w3.org/2000/svg" xmlns:xlink="http://www.w3.org/1999/xlink" x="0px" y="0px"
	 viewBox="0 0 23 23" style="enable-background:new 0 0 23 23;" xml:space="preserve">
<style type="text/css">
	.st0{fill:none;stroke:#F89C1E;stroke-miterlimit:10;}
	.st1{fill:#F89C1E;}
</style>
<circle class="st0" cx="11.5" cy="11.5" r="10.5"/>
<g>
	<path class="st1" d="M17.2,9.1c0,0.2-0.1,0.3-0.2,0.5l-4.8,4.8l-0.9,0.9c-0.1,0.1-0.3,0.2-0.5,0.2s-0.3-0.1-0.5-0.2l-0.9-0.9L7,12
		c-0.1-0.1-0.2-0.3-0.2-0.5S6.9,11.2,7,11l0.9-0.9C8,10,8.2,9.9,8.4,9.9c0.2,0,0.3,0.1,0.5,0.2l2,2l4.4-4.4c0.1-0.1,0.3-0.2,0.5-0.2
		c0.2,0,0.3,0.1,0.5,0.2L17,8.6C17.1,8.7,17.2,8.9,17.2,9.1z"/>
</g>
</svg>
