<?xml version="1.0" encoding="utf-8"?>
<!-- Generator: Adobe Illustrator 19.1.0, SVG Export Plug-In . SVG Version: 6.00 Build 0)  -->
<!DOCTYPE svg PUBLIC "-//W3C//DTD SVG 1.1//EN" "http://www.w3.org/Graphics/SVG/1.1/DTD/svg11.dtd">
<svg version="1.1" id="Layer_1" xmlns="http://www.w3.org/2000/svg" xmlns:xlink="http://www.w3.org/1999/xlink" x="0px" y="0px"
	 viewBox="0 0 144 50" style="enable-background:new 0 0 144 50;" xml:space="preserve">
<style type="text/css">
	.st0{fill:#828282;}
	.st1{font-family:'DINBek-Regular';}
	.st2{font-size:16px;}
	.st3{fill:#BBBDBF;}
	.st4{fill:#FFFFFF;}
</style>
<g>
	<text transform="matrix(1 0 0 1 60.311 20.4405)"><tspan x="0" y="0" class="st0 st1 st2">Sleeps With</tspan><tspan x="0" y="19.2" class="st0 st1 st2">a Partner</tspan></text>
</g>
<g>
	<g>
		<path class="st3" d="M39.2,12.2c-0.2,0-0.4,0.1-0.6,0.2c-0.3,0.3-0.3,0.8,0,1.1l9.7,9.1c0.3,0.3,0.8,0.3,1.1,0
			c0.3-0.3,0.3-0.8,0-1.1l-9.7-9.1C39.5,12.3,39.3,12.2,39.2,12.2"/>
		<path class="st3" d="M35.1,12.7c0-0.2-0.1-0.4-0.2-0.6c-0.3-0.3-0.8-0.3-1.1,0l-9.1,9.7c-0.3,0.3-0.3,0.8,0,1.1
			c0.3,0.3,0.8,0.3,1.1,0l9.1-9.7C35,13.1,35.1,12.9,35.1,12.7"/>
	</g>
	<g>
		<path class="st3" d="M35,49.8c-0.4,0-0.8-0.3-0.8-0.8V31.3c0-0.4,0.3-0.8,0.8-0.8c0.4,0,0.8,0.3,0.8,0.8V49
			C35.8,49.5,35.4,49.8,35,49.8"/>
		<path class="st3" d="M39.3,49.8c-0.4,0-0.8-0.3-0.8-0.8V31.3c0-0.4,0.3-0.8,0.8-0.8c0.4,0,0.8,0.3,0.8,0.8V49
			C40.1,49.5,39.7,49.8,39.3,49.8"/>
		<path class="st4" d="M42,17.1c0-2.8-2.2-5-5-5c-2.8,0-5,2.2-5,5v14.2h10V17.1z"/>
		<path class="st3" d="M32.8,30.6h8.4V17.1c0-2.3-1.9-4.2-4.2-4.2c-2.3,0-4.2,1.9-4.2,4.2V30.6z M42,32.1h-10
			c-0.4,0-0.8-0.3-0.8-0.8V17.1c0-3.2,2.6-5.8,5.8-5.8c3.2,0,5.8,2.6,5.8,5.8v14.2C42.8,31.8,42.5,32.1,42,32.1"/>
		<path class="st3" d="M37.1,12.9c-0.4,0-0.8-0.3-0.8-0.8v-2c0-0.4,0.3-0.8,0.8-0.8c0.4,0,0.8,0.3,0.8,0.8v2
			C37.9,12.6,37.6,12.9,37.1,12.9"/>
		<path class="st3" d="M37.1,1.7c-2.1,0-3.8,1.7-3.8,3.8s1.7,3.8,3.8,3.8c2.1,0,3.8-1.7,3.8-3.8S39.2,1.7,37.1,1.7 M37.1,10.9
			c-3,0-5.4-2.4-5.4-5.4s2.4-5.4,5.4-5.4c3,0,5.4,2.4,5.4,5.4S40.1,10.9,37.1,10.9"/>
	</g>
</g>
<g>
	<g>
		<path class="st3" d="M15,12.2c-0.2,0-0.4,0.1-0.6,0.2c-0.3,0.3-0.3,0.8,0,1.1l9.7,9.1c0.3,0.3,0.8,0.3,1.1,0
			c0.3-0.3,0.3-0.8,0-1.1l-9.7-9.1C15.3,12.3,15.2,12.2,15,12.2"/>
		<path class="st3" d="M10.9,12.7c0-0.2-0.1-0.4-0.2-0.6c-0.3-0.3-0.8-0.3-1.1,0l-9.1,9.7c-0.3,0.3-0.3,0.8,0,1.1
			c0.3,0.3,0.8,0.3,1.1,0l9.1-9.7C10.9,13.1,10.9,12.9,10.9,12.7"/>
	</g>
	<g>
		<path class="st3" d="M10.8,49.8c-0.4,0-0.8-0.3-0.8-0.8V31.3c0-0.4,0.3-0.8,0.8-0.8c0.4,0,0.8,0.3,0.8,0.8V49
			C11.6,49.5,11.2,49.8,10.8,49.8"/>
		<path class="st3" d="M15.1,49.8c-0.4,0-0.8-0.3-0.8-0.8V31.3c0-0.4,0.3-0.8,0.8-0.8c0.4,0,0.8,0.3,0.8,0.8V49
			C15.9,49.5,15.5,49.8,15.1,49.8"/>
		<path class="st4" d="M17.8,17.1c0-2.8-2.2-5-5-5c-2.8,0-5,2.2-5,5v14.2h10V17.1z"/>
		<path class="st3" d="M8.6,30.6h8.4V17.1c0-2.3-1.9-4.2-4.2-4.2c-2.3,0-4.2,1.9-4.2,4.2V30.6z M17.8,32.1h-10
			c-0.4,0-0.8-0.3-0.8-0.8V17.1c0-3.2,2.6-5.8,5.8-5.8c3.2,0,5.8,2.6,5.8,5.8v14.2C18.6,31.8,18.3,32.1,17.8,32.1"/>
		<path class="st3" d="M12.9,12.9c-0.4,0-0.8-0.3-0.8-0.8v-2c0-0.4,0.3-0.8,0.8-0.8c0.4,0,0.8,0.3,0.8,0.8v2
			C13.7,12.6,13.4,12.9,12.9,12.9"/>
		<path class="st3" d="M12.9,1.7c-2.1,0-3.8,1.7-3.8,3.8s1.7,3.8,3.8,3.8c2.1,0,3.8-1.7,3.8-3.8S15,1.7,12.9,1.7 M12.9,10.9
			c-3,0-5.4-2.4-5.4-5.4s2.4-5.4,5.4-5.4c3,0,5.4,2.4,5.4,5.4S15.9,10.9,12.9,10.9"/>
	</g>
</g>
</svg>
