<?xml version="1.0" encoding="utf-8"?>
<!-- Generator: Adobe Illustrator 19.1.0, SVG Export Plug-In . SVG Version: 6.00 Build 0)  -->
<!DOCTYPE svg PUBLIC "-//W3C//DTD SVG 1.1//EN" "http://www.w3.org/Graphics/SVG/1.1/DTD/svg11.dtd">
<svg version="1.1" id="Layer_1" xmlns="http://www.w3.org/2000/svg" xmlns:xlink="http://www.w3.org/1999/xlink" x="0px" y="0px"
	 viewBox="0 0 128 50" style="enable-background:new 0 0 128 50;" xml:space="preserve">
<style type="text/css">
	.st0{fill:#828282;}
	.st1{font-family:'DINBek-Regular';}
	.st2{font-size:16px;}
	.st3{fill:#BBBDBF;}
	.st4{fill:#FFFFFF;}
</style>
<g>
	<text transform="matrix(1 0 0 1 35.613 30.4481)" class="st0 st1 st2">Sleeps Alone</text>
</g>
<g>
	<g>
		<path class="st3" d="M15.2,12.2c-0.2,0-0.4,0.1-0.6,0.2c-0.3,0.3-0.3,0.8,0,1.1l9.7,9.1c0.3,0.3,0.8,0.3,1.1,0
			c0.3-0.3,0.3-0.8,0-1.1l-9.7-9.1C15.6,12.3,15.4,12.2,15.2,12.2"/>
		<path class="st3" d="M11.2,12.7c0-0.2-0.1-0.4-0.2-0.6c-0.3-0.3-0.8-0.3-1.1,0l-9.1,9.7c-0.3,0.3-0.3,0.8,0,1.1
			c0.3,0.3,0.8,0.3,1.1,0l9.1-9.7C11.1,13.1,11.2,12.9,11.2,12.7"/>
	</g>
	<g>
		<path class="st3" d="M11,49.8c-0.4,0-0.8-0.3-0.8-0.8V31.3c0-0.4,0.3-0.8,0.8-0.8c0.4,0,0.8,0.3,0.8,0.8V49
			C11.8,49.5,11.5,49.8,11,49.8"/>
		<path class="st3" d="M15.4,49.8c-0.4,0-0.8-0.3-0.8-0.8V31.3c0-0.4,0.3-0.8,0.8-0.8c0.4,0,0.8,0.3,0.8,0.8V49
			C16.1,49.5,15.8,49.8,15.4,49.8"/>
		<path class="st4" d="M18.1,17.1c0-2.8-2.2-5-5-5c-2.8,0-5,2.2-5,5v14.2h10V17.1z"/>
		<path class="st3" d="M8.9,30.6h8.4V17.1c0-2.3-1.9-4.2-4.2-4.2c-2.3,0-4.2,1.9-4.2,4.2V30.6z M18.1,32.1h-10
			c-0.4,0-0.8-0.3-0.8-0.8V17.1c0-3.2,2.6-5.8,5.8-5.8c3.2,0,5.8,2.6,5.8,5.8v14.2C18.9,31.8,18.5,32.1,18.1,32.1"/>
		<path class="st3" d="M13.2,12.9c-0.4,0-0.8-0.3-0.8-0.8v-2c0-0.4,0.3-0.8,0.8-0.8c0.4,0,0.8,0.3,0.8,0.8v2
			C14,12.6,13.6,12.9,13.2,12.9"/>
		<path class="st3" d="M13.2,1.7c-2.1,0-3.8,1.7-3.8,3.8s1.7,3.8,3.8,3.8c2.1,0,3.8-1.7,3.8-3.8S15.3,1.7,13.2,1.7 M13.2,10.9
			c-3,0-5.4-2.4-5.4-5.4s2.4-5.4,5.4-5.4c3,0,5.4,2.4,5.4,5.4S16.2,10.9,13.2,10.9"/>
	</g>
</g>
</svg>
