<?xml version="1.0" encoding="utf-8"?>
<!-- Generator: Adobe Illustrator 19.1.0, SVG Export Plug-In . SVG Version: 6.00 Build 0)  -->
<!DOCTYPE svg PUBLIC "-//W3C//DTD SVG 1.1//EN" "http://www.w3.org/Graphics/SVG/1.1/DTD/svg11.dtd">
<svg version="1.1" xmlns="http://www.w3.org/2000/svg" xmlns:xlink="http://www.w3.org/1999/xlink" x="0px" y="0px"
	 viewBox="-19.7 31.1 218 49.7" style="enable-background:new -19.7 31.1 218 49.7;" xml:space="preserve">
<style type="text/css">
	.st0{display:none;}
	.st1{display:inline;}
	.st2{fill:#828282;}
	.st3{font-family:'DINBek-Regular';}
	.st4{font-size:16px;}
	.st5{fill:#BBBDBF;}
	.st6{fill:#FFFFFF;}
	.st7{fill:#BABCBE;}
</style>
<g id="Layer_1" class="st0">
	<g class="st1">
		<text transform="matrix(1 0 0 1 40.311 51.4405)" class="st2 st3 st4">Sleeps With</text>
		<text transform="matrix(1 0 0 1 40.311 70.6405)" class="st2 st3 st4">a Partner</text>
	</g>
	<g class="st1">
		<g>
			<path class="st5" d="M19.2,43.2c-0.2,0-0.4,0.1-0.6,0.2c-0.3,0.3-0.3,0.8,0,1.1l9.7,9.1c0.3,0.3,0.8,0.3,1.1,0s0.3-0.8,0-1.1
				l-9.7-9.1C19.5,43.3,19.3,43.2,19.2,43.2"/>
			<path class="st5" d="M15.1,43.7c0-0.2-0.1-0.4-0.2-0.6c-0.3-0.3-0.8-0.3-1.1,0l-9.1,9.7c-0.3,0.3-0.3,0.8,0,1.1s0.8,0.3,1.1,0
				l9.1-9.7C15,44.1,15.1,43.9,15.1,43.7"/>
		</g>
		<g>
			<path class="st5" d="M15,80.8c-0.4,0-0.8-0.3-0.8-0.8V62.3c0-0.4,0.3-0.8,0.8-0.8c0.4,0,0.8,0.3,0.8,0.8V80
				C15.8,80.5,15.4,80.8,15,80.8"/>
			<path class="st5" d="M19.3,80.8c-0.4,0-0.8-0.3-0.8-0.8V62.3c0-0.4,0.3-0.8,0.8-0.8c0.4,0,0.8,0.3,0.8,0.8V80
				C20.1,80.5,19.7,80.8,19.3,80.8"/>
			<path class="st6" d="M22,48.1c0-2.8-2.2-5-5-5s-5,2.2-5,5v14.2h10V48.1z"/>
			<path class="st5" d="M12.8,61.6h8.4V48.1c0-2.3-1.9-4.2-4.2-4.2s-4.2,1.9-4.2,4.2C12.8,48.1,12.8,61.6,12.8,61.6z M22,63.1H12
				c-0.4,0-0.8-0.3-0.8-0.8V48.1c0-3.2,2.6-5.8,5.8-5.8s5.8,2.6,5.8,5.8v14.2C22.8,62.8,22.5,63.1,22,63.1"/>
			<path class="st5" d="M17.1,43.9c-0.4,0-0.8-0.3-0.8-0.8v-2c0-0.4,0.3-0.8,0.8-0.8c0.4,0,0.8,0.3,0.8,0.8v2
				C17.9,43.6,17.6,43.9,17.1,43.9"/>
			<path class="st5" d="M17.1,32.7c-2.1,0-3.8,1.7-3.8,3.8c0,2.1,1.7,3.8,3.8,3.8s3.8-1.7,3.8-3.8C20.9,34.4,19.2,32.7,17.1,32.7
				 M17.1,41.9c-3,0-5.4-2.4-5.4-5.4s2.4-5.4,5.4-5.4s5.4,2.4,5.4,5.4S20.1,41.9,17.1,41.9"/>
		</g>
	</g>
	<g class="st1">
		<g>
			<path class="st5" d="M-5,43.2c-0.2,0-0.4,0.1-0.6,0.2c-0.3,0.3-0.3,0.8,0,1.1l9.7,9.1c0.3,0.3,0.8,0.3,1.1,0
				c0.3-0.3,0.3-0.8,0-1.1l-9.7-9.1C-4.7,43.3-4.8,43.2-5,43.2"/>
			<path class="st5" d="M-9.1,43.7c0-0.2-0.1-0.4-0.2-0.6c-0.3-0.3-0.8-0.3-1.1,0l-9.1,9.7c-0.3,0.3-0.3,0.8,0,1.1
				c0.3,0.3,0.8,0.3,1.1,0l9.1-9.7C-9.1,44.1-9.1,43.9-9.1,43.7"/>
		</g>
		<g>
			<path class="st5" d="M-9.2,80.8c-0.4,0-0.8-0.3-0.8-0.8V62.3c0-0.4,0.3-0.8,0.8-0.8c0.4,0,0.8,0.3,0.8,0.8V80
				C-8.4,80.5-8.8,80.8-9.2,80.8"/>
			<path class="st5" d="M-4.9,80.8c-0.4,0-0.8-0.3-0.8-0.8V62.3c0-0.4,0.3-0.8,0.8-0.8c0.4,0,0.8,0.3,0.8,0.8V80
				C-4.1,80.5-4.5,80.8-4.9,80.8"/>
			<path class="st6" d="M-2.2,48.1c0-2.8-2.2-5-5-5s-5,2.2-5,5v14.2h10V48.1z"/>
			<path class="st5" d="M-11.4,61.6H-3V48.1c0-2.3-1.9-4.2-4.2-4.2s-4.2,1.9-4.2,4.2V61.6z M-2.2,63.1h-10c-0.4,0-0.8-0.3-0.8-0.8
				V48.1c0-3.2,2.6-5.8,5.8-5.8s5.8,2.6,5.8,5.8v14.2C-1.4,62.8-1.7,63.1-2.2,63.1"/>
			<path class="st5" d="M-7.1,43.9c-0.4,0-0.8-0.3-0.8-0.8v-2c0-0.4,0.3-0.8,0.8-0.8c0.4,0,0.8,0.3,0.8,0.8v2
				C-6.3,43.6-6.6,43.9-7.1,43.9"/>
			<path class="st5" d="M-7.1,32.7c-2.1,0-3.8,1.7-3.8,3.8c0,2.1,1.7,3.8,3.8,3.8s3.8-1.7,3.8-3.8C-3.3,34.4-5,32.7-7.1,32.7
				 M-7.1,41.9c-3,0-5.4-2.4-5.4-5.4s2.4-5.4,5.4-5.4s5.4,2.4,5.4,5.4S-4.1,41.9-7.1,41.9"/>
		</g>
	</g>
</g>
<g id="Layer_2">
	<g>
		<g>
			<path class="st2" d="M55.4,57.9c0,0.5-0.1,1-0.3,1.4s-0.5,0.7-0.8,1s-0.8,0.5-1.2,0.6c-0.5,0.1-1,0.2-1.6,0.2
				c-0.9,0-1.6-0.1-2.2-0.4c-0.6-0.2-1.2-0.6-1.7-1.2l0.8-0.8c0.5,0.5,0.9,0.8,1.4,1c0.5,0.2,1,0.3,1.7,0.3c0.8,0,1.5-0.2,2-0.6
				c0.5-0.4,0.7-0.9,0.7-1.6c0-0.3,0-0.6-0.1-0.8c-0.1-0.2-0.2-0.4-0.4-0.6c-0.2-0.2-0.4-0.3-0.6-0.3c-0.2-0.1-0.5-0.1-0.9-0.2
				l-1.3-0.2c-0.9-0.1-1.6-0.4-2.1-0.9c-0.6-0.5-0.9-1.2-0.9-2.1c0-0.5,0.1-0.9,0.3-1.3c0.2-0.4,0.4-0.7,0.7-1
				c0.3-0.3,0.7-0.5,1.1-0.6c0.4-0.2,1-0.2,1.5-0.2c0.7,0,1.3,0.1,1.9,0.3c0.5,0.2,1,0.5,1.5,1l-0.8,0.8c-0.4-0.3-0.7-0.6-1.1-0.7
				c-0.4-0.2-0.9-0.2-1.5-0.2c-0.8,0-1.4,0.2-1.8,0.6c-0.4,0.4-0.6,0.9-0.6,1.5c0,0.6,0.2,1,0.5,1.3c0.2,0.1,0.4,0.3,0.7,0.4
				c0.3,0.1,0.6,0.2,0.9,0.2l1.2,0.2c0.5,0.1,1,0.2,1.3,0.3s0.6,0.3,0.8,0.5C55.1,56.2,55.4,56.9,55.4,57.9z"/>
			<path class="st2" d="M59.7,61c-0.7,0-1.2-0.2-1.5-0.6c-0.3-0.4-0.5-0.9-0.5-1.5v-9.3h1.2v9.2c0,0.4,0.1,0.7,0.2,0.9
				c0.1,0.2,0.4,0.3,0.8,0.3h0.6v1H59.7z"/>
			<path class="st2" d="M63.2,57.4c0,0.9,0.2,1.5,0.6,2s1,0.7,1.7,0.7c0.5,0,0.8-0.1,1.1-0.2c0.3-0.1,0.6-0.4,0.9-0.7l0.8,0.7
				c-0.2,0.2-0.4,0.4-0.6,0.5c-0.2,0.2-0.4,0.3-0.6,0.4c-0.2,0.1-0.5,0.2-0.7,0.2s-0.6,0.1-0.9,0.1c-0.5,0-1-0.1-1.4-0.2
				c-0.4-0.2-0.8-0.4-1.1-0.7c-0.3-0.3-0.5-0.8-0.7-1.3c-0.2-0.5-0.2-1.1-0.2-1.8c0-1.3,0.3-2.3,0.9-3s1.4-1.1,2.4-1.1
				c1,0,1.8,0.3,2.4,1s0.8,1.6,0.8,2.8v0.5H63.2z M67.3,55.8c0-0.2-0.1-0.4-0.2-0.6c-0.1-0.4-0.4-0.7-0.7-0.9
				c-0.3-0.2-0.7-0.3-1.1-0.3c-0.4,0-0.8,0.1-1.1,0.3c-0.3,0.2-0.6,0.5-0.7,0.9c0,0.1-0.1,0.2-0.1,0.3c0,0.1,0,0.2-0.1,0.3
				c0,0.1,0,0.2,0,0.3c0,0.1,0,0.3,0,0.4h4.2C67.4,56.2,67.3,56,67.3,55.8z"/>
			<path class="st2" d="M71.7,57.4c0,0.9,0.2,1.5,0.6,2s1,0.7,1.7,0.7c0.5,0,0.8-0.1,1.1-0.2c0.3-0.1,0.6-0.4,0.9-0.7l0.8,0.7
				c-0.2,0.2-0.4,0.4-0.6,0.5c-0.2,0.2-0.4,0.3-0.6,0.4c-0.2,0.1-0.5,0.2-0.7,0.2s-0.6,0.1-0.9,0.1c-0.5,0-1-0.1-1.4-0.2
				c-0.4-0.2-0.8-0.4-1.1-0.7c-0.3-0.3-0.5-0.8-0.7-1.3c-0.2-0.5-0.2-1.1-0.2-1.8c0-1.3,0.3-2.3,0.9-3s1.4-1.1,2.4-1.1
				c1,0,1.8,0.3,2.4,1s0.8,1.6,0.8,2.8v0.5H71.7z M75.8,55.8c0-0.2-0.1-0.4-0.2-0.6c-0.1-0.4-0.4-0.7-0.7-0.9
				c-0.3-0.2-0.7-0.3-1.1-0.3c-0.4,0-0.8,0.1-1.1,0.3c-0.3,0.2-0.6,0.5-0.7,0.9c0,0.1-0.1,0.2-0.1,0.3c0,0.1,0,0.2-0.1,0.3
				c0,0.1,0,0.2,0,0.3c0,0.1,0,0.3,0,0.4h4.2C75.8,56.2,75.8,56,75.8,55.8z"/>
			<path class="st2" d="M85.7,57.1c0,0.3,0,0.6,0,0.9c0,0.3-0.1,0.6-0.1,0.9c-0.1,0.3-0.2,0.6-0.3,0.8s-0.3,0.5-0.5,0.7
				c-0.2,0.2-0.5,0.4-0.8,0.5c-0.3,0.1-0.7,0.2-1.1,0.2c-0.4,0-0.8-0.1-1.2-0.2c-0.4-0.1-0.7-0.4-1-0.8v4.4h-1.2V53.2h1.2v0.9
				c0.3-0.4,0.7-0.7,1-0.8c0.4-0.1,0.8-0.2,1.2-0.2c0.4,0,0.8,0.1,1.1,0.2c0.3,0.1,0.6,0.3,0.8,0.5c0.2,0.2,0.4,0.4,0.5,0.7
				c0.1,0.3,0.2,0.5,0.3,0.8c0.1,0.3,0.1,0.6,0.1,0.9C85.7,56.5,85.7,56.8,85.7,57.1z M84.6,57.1c0-0.4,0-0.8-0.1-1.1
				c0-0.4-0.1-0.7-0.3-1c-0.1-0.3-0.3-0.5-0.6-0.7c-0.3-0.2-0.6-0.3-1-0.3c-0.4,0-0.8,0.1-1,0.3c-0.3,0.2-0.5,0.4-0.6,0.7
				c-0.1,0.3-0.2,0.6-0.3,1c0,0.4-0.1,0.7-0.1,1.1c0,0.4,0,0.8,0.1,1.1c0,0.4,0.1,0.7,0.3,1s0.3,0.5,0.6,0.7c0.3,0.2,0.6,0.3,1,0.3
				c0.4,0,0.8-0.1,1-0.3c0.3-0.2,0.5-0.4,0.6-0.7s0.2-0.6,0.3-1C84.5,57.9,84.6,57.5,84.6,57.1z"/>
			<path class="st2" d="M93.9,58.7c0,0.4-0.1,0.7-0.2,1s-0.4,0.5-0.7,0.8c-0.3,0.2-0.6,0.4-1,0.5s-0.8,0.2-1.3,0.2
				c-0.7,0-1.3-0.1-1.8-0.3s-1-0.5-1.4-0.9l0.8-0.8c0.3,0.3,0.7,0.6,1.1,0.7s0.9,0.2,1.4,0.2c0.7,0,1.2-0.1,1.5-0.3
				c0.4-0.2,0.6-0.6,0.6-1c0-0.3-0.1-0.6-0.3-0.8c-0.2-0.2-0.5-0.3-1-0.4l-1.3-0.1c-0.8-0.1-1.4-0.3-1.8-0.6
				c-0.4-0.3-0.6-0.8-0.6-1.5c0-0.4,0.1-0.7,0.2-1c0.1-0.3,0.3-0.5,0.6-0.7c0.3-0.2,0.6-0.3,0.9-0.5c0.4-0.1,0.7-0.2,1.2-0.2
				c0.6,0,1.1,0.1,1.6,0.2s0.9,0.4,1.3,0.6l-0.8,0.8c-0.3-0.2-0.6-0.4-1-0.5S91.1,54,90.7,54c-0.6,0-1,0.1-1.3,0.3s-0.4,0.5-0.4,1
				c0,0.3,0.1,0.6,0.3,0.8s0.6,0.3,1.1,0.4l1.3,0.1c0.3,0,0.7,0.1,0.9,0.2s0.5,0.2,0.7,0.4c0.2,0.2,0.4,0.4,0.5,0.6
				C93.8,58,93.9,58.4,93.9,58.7z"/>
			<path class="st2" d="M107.6,61h-1.1l-2.1-6.1l-2,6.1h-1.1l-2.5-7.9h1.2l1.8,6.3l2.1-6.3h1l2.1,6.3l1.8-6.3h1.2L107.6,61z"/>
			<path class="st2" d="M111.6,50.9v-1.3h1.3v1.3H111.6z M111.7,61v-7.9h1.2V61H111.7z"/>
			<path class="st2" d="M117.9,61c-0.3,0-0.6-0.1-0.9-0.2c-0.3-0.1-0.5-0.3-0.6-0.5c-0.2-0.2-0.3-0.4-0.4-0.7
				c-0.1-0.3-0.1-0.5-0.1-0.8v-4.8h-1v-0.9h1v-2.5h1.2v2.5h1.7v0.9h-1.7v4.8c0,0.4,0.1,0.6,0.3,0.8c0.2,0.2,0.4,0.3,0.8,0.3h0.6v1
				H117.9z"/>
			<path class="st2" d="M126.1,61v-4.9c0-0.7-0.2-1.2-0.5-1.6c-0.3-0.3-0.8-0.5-1.4-0.5s-1.1,0.2-1.4,0.5s-0.5,0.9-0.5,1.6V61H121
				V49.6h1.2V54c0.6-0.6,1.3-1,2.2-1c0.9,0,1.6,0.3,2.1,0.8c0.5,0.5,0.7,1.2,0.7,2.1V61H126.1z"/>
			<path class="st2" d="M138.5,61v-0.8c-0.2,0.2-0.3,0.3-0.5,0.4c-0.2,0.1-0.3,0.2-0.5,0.3s-0.4,0.1-0.6,0.1s-0.4,0-0.7,0
				c-0.5,0-1-0.1-1.3-0.2s-0.6-0.3-0.9-0.6c-0.2-0.2-0.3-0.4-0.4-0.7c-0.1-0.3-0.2-0.6-0.2-0.9c0-0.7,0.2-1.2,0.7-1.7
				c0.5-0.4,1.1-0.6,2-0.6h2.4v-0.8c0-0.6-0.2-1-0.5-1.3s-0.8-0.4-1.6-0.4c-0.5,0-0.9,0.1-1.2,0.2s-0.5,0.4-0.8,0.7l-0.8-0.7
				c0.4-0.5,0.7-0.8,1.2-0.9c0.4-0.2,1-0.2,1.6-0.2c1.1,0,1.9,0.2,2.4,0.7c0.5,0.4,0.8,1.1,0.8,2V61H138.5z M138.5,57.4h-2.2
				c-1.2,0-1.8,0.5-1.8,1.4c0,0.5,0.1,0.8,0.4,1c0.3,0.2,0.7,0.3,1.4,0.3c0.3,0,0.7,0,1-0.1c0.3-0.1,0.6-0.2,0.8-0.4
				c0.3-0.3,0.4-0.7,0.4-1.4V57.4z"/>
			<path class="st2" d="M152.7,57.1c0,0.3,0,0.6,0,0.9c0,0.3-0.1,0.6-0.1,0.9c-0.1,0.3-0.2,0.6-0.3,0.8c-0.1,0.3-0.3,0.5-0.5,0.7
				c-0.2,0.2-0.5,0.4-0.8,0.5c-0.3,0.1-0.7,0.2-1.1,0.2c-0.4,0-0.8-0.1-1.2-0.2s-0.7-0.4-1-0.8v4.4h-1.2V53.2h1.2v0.9
				c0.3-0.4,0.7-0.7,1-0.8c0.4-0.1,0.8-0.2,1.2-0.2c0.4,0,0.8,0.1,1.1,0.2c0.3,0.1,0.6,0.3,0.8,0.5c0.2,0.2,0.4,0.4,0.5,0.7
				c0.1,0.3,0.2,0.5,0.3,0.8c0.1,0.3,0.1,0.6,0.1,0.9C152.7,56.5,152.7,56.8,152.7,57.1z M151.5,57.1c0-0.4,0-0.8-0.1-1.1
				c0-0.4-0.1-0.7-0.3-1c-0.1-0.3-0.3-0.5-0.6-0.7c-0.3-0.2-0.6-0.3-1-0.3s-0.8,0.1-1,0.3c-0.3,0.2-0.5,0.4-0.6,0.7
				c-0.1,0.3-0.2,0.6-0.3,1c0,0.4-0.1,0.7-0.1,1.1c0,0.4,0,0.8,0.1,1.1c0,0.4,0.1,0.7,0.3,1s0.3,0.5,0.6,0.7c0.3,0.2,0.6,0.3,1,0.3
				s0.8-0.1,1-0.3c0.3-0.2,0.5-0.4,0.6-0.7s0.2-0.6,0.3-1C151.5,57.9,151.5,57.5,151.5,57.1z"/>
			<path class="st2" d="M159.6,61v-0.8c-0.2,0.2-0.3,0.3-0.5,0.4c-0.2,0.1-0.3,0.2-0.5,0.3s-0.4,0.1-0.6,0.1s-0.4,0-0.7,0
				c-0.5,0-1-0.1-1.3-0.2s-0.6-0.3-0.9-0.6c-0.2-0.2-0.3-0.4-0.4-0.7c-0.1-0.3-0.2-0.6-0.2-0.9c0-0.7,0.2-1.2,0.7-1.7
				c0.5-0.4,1.1-0.6,2-0.6h2.4v-0.8c0-0.6-0.2-1-0.5-1.3s-0.8-0.4-1.6-0.4c-0.5,0-0.9,0.1-1.2,0.2s-0.5,0.4-0.8,0.7l-0.8-0.7
				c0.4-0.5,0.7-0.8,1.2-0.9c0.4-0.2,1-0.2,1.6-0.2c1.1,0,1.9,0.2,2.4,0.7c0.5,0.4,0.8,1.1,0.8,2V61H159.6z M159.6,57.4h-2.2
				c-1.2,0-1.8,0.5-1.8,1.4c0,0.5,0.1,0.8,0.4,1c0.3,0.2,0.7,0.3,1.4,0.3c0.3,0,0.7,0,1-0.1c0.3-0.1,0.6-0.2,0.8-0.4
				c0.3-0.3,0.4-0.7,0.4-1.4V57.4z"/>
			<path class="st2" d="M168,54.7c-0.2-0.2-0.4-0.4-0.6-0.4c-0.2-0.1-0.4-0.1-0.8-0.1c-0.3,0-0.5,0.1-0.8,0.2
				c-0.2,0.1-0.4,0.3-0.6,0.4s-0.3,0.4-0.4,0.7c-0.1,0.3-0.1,0.5-0.1,0.8V61h-1.2v-7.9h1.2v1c0.2-0.3,0.5-0.6,0.9-0.8
				c0.4-0.2,0.8-0.3,1.3-0.3c0.4,0,0.7,0.1,1,0.2c0.3,0.1,0.6,0.3,0.9,0.6L168,54.7z"/>
			<path class="st2" d="M172.5,61c-0.3,0-0.6-0.1-0.9-0.2c-0.3-0.1-0.5-0.3-0.6-0.5c-0.2-0.2-0.3-0.4-0.4-0.7
				c-0.1-0.3-0.1-0.5-0.1-0.8v-4.8h-1v-0.9h1v-2.5h1.2v2.5h1.7v0.9h-1.7v4.8c0,0.4,0.1,0.6,0.3,0.8c0.2,0.2,0.4,0.3,0.8,0.3h0.6v1
				H172.5z"/>
			<path class="st2" d="M180.6,61v-4.8c0-0.7-0.2-1.2-0.5-1.6s-0.8-0.5-1.4-0.5c-0.6,0-1.1,0.2-1.4,0.5c-0.4,0.4-0.5,0.9-0.5,1.6V61
				h-1.2v-7.9h1.2V54c0.6-0.6,1.3-1,2.2-1c0.9,0,1.5,0.2,2,0.7c0.5,0.5,0.8,1.3,0.8,2.2v5H180.6z"/>
			<path class="st2" d="M185.3,57.4c0,0.9,0.2,1.5,0.6,2s1,0.7,1.7,0.7c0.5,0,0.8-0.1,1.1-0.2c0.3-0.1,0.6-0.4,0.9-0.7l0.8,0.7
				c-0.2,0.2-0.4,0.4-0.6,0.5c-0.2,0.2-0.4,0.3-0.6,0.4c-0.2,0.1-0.5,0.2-0.7,0.2s-0.6,0.1-0.9,0.1c-0.5,0-1-0.1-1.4-0.2
				c-0.4-0.2-0.8-0.4-1.1-0.7c-0.3-0.3-0.5-0.8-0.7-1.3c-0.2-0.5-0.2-1.1-0.2-1.8c0-1.3,0.3-2.3,0.9-3s1.4-1.1,2.4-1.1
				c1,0,1.8,0.3,2.4,1s0.8,1.6,0.8,2.8v0.5H185.3z M189.4,55.8c0-0.2-0.1-0.4-0.2-0.6c-0.1-0.4-0.4-0.7-0.7-0.9
				c-0.3-0.2-0.7-0.3-1.1-0.3c-0.4,0-0.8,0.1-1.1,0.3c-0.3,0.2-0.6,0.5-0.7,0.9c0,0.1-0.1,0.2-0.1,0.3c0,0.1,0,0.2-0.1,0.3
				c0,0.1,0,0.2,0,0.3c0,0.1,0,0.3,0,0.4h4.2C189.5,56.2,189.4,56,189.4,55.8z"/>
			<path class="st2" d="M197.5,54.7c-0.2-0.2-0.4-0.4-0.6-0.4c-0.2-0.1-0.4-0.1-0.8-0.1c-0.3,0-0.5,0.1-0.8,0.2
				c-0.2,0.1-0.4,0.3-0.6,0.4s-0.3,0.4-0.4,0.7c-0.1,0.3-0.1,0.5-0.1,0.8V61h-1.2v-7.9h1.2v1c0.2-0.3,0.5-0.6,0.9-0.8
				c0.4-0.2,0.8-0.3,1.3-0.3c0.4,0,0.7,0.1,1,0.2c0.3,0.1,0.6,0.3,0.9,0.6L197.5,54.7z"/>
		</g>
	</g>
	<g>
		<g>
			<path class="st7" d="M-4.3,44.6c-0.2,0-0.4,0.1-0.5,0.2c-0.3,0.3-0.3,0.8,0,1.1l9.4,8.8c0.3,0.3,0.8,0.3,1.1,0
				c0.3-0.3,0.3-0.8,0-1.1l-9.4-8.8C-3.9,44.7-4.1,44.6-4.3,44.6"/>
			<path class="st7" d="M-8.2,45c0-0.2-0.1-0.4-0.2-0.5c-0.3-0.3-0.8-0.3-1.1,0l-8.8,9.4c-0.3,0.3-0.3,0.8,0,1.1
				c0.3,0.3,0.8,0.3,1.1,0l8.8-9.4C-8.2,45.4-8.2,45.2-8.2,45"/>
		</g>
		<g>
			<path class="st7" d="M-8.3,79c-0.4,0-0.8-0.3-0.8-0.8V63.1c0-0.4,0.3-0.8,0.8-0.8c0.4,0,0.8,0.3,0.8,0.8v15.2
				C-7.6,78.7-7.9,79-8.3,79"/>
			<path class="st7" d="M-4.1,79c-0.4,0-0.8-0.3-0.8-0.8V63.1c0-0.4,0.3-0.8,0.8-0.8c0.4,0,0.8,0.3,0.8,0.8v15.2
				C-3.4,78.7-3.7,79-4.1,79"/>
			<path class="st6" d="M-1.5,49.4c0-2.7-2.2-4.8-4.8-4.8c-2.7,0-4.8,2.2-4.8,4.8v13.7h9.7V49.4z"/>
			<path class="st7" d="M-10.4,62.3h8.2v-13c0-2.2-1.8-4.1-4.1-4.1c-2.2,0-4.1,1.8-4.1,4.1V62.3z M-1.5,63.9h-9.7
				c-0.4,0-0.8-0.3-0.8-0.8V49.4c0-3.1,2.5-5.6,5.6-5.6c3.1,0,5.6,2.5,5.6,5.6v13.7C-0.7,63.5-1.1,63.9-1.5,63.9"/>
			<path class="st7" d="M-6.2,45.3c-0.4,0-0.8-0.3-0.8-0.8v-1.9c0-0.4,0.3-0.8,0.8-0.8c0.4,0,0.8,0.3,0.8,0.8v1.9
				C-5.5,44.9-5.8,45.3-6.2,45.3"/>
			<path class="st7" d="M-6.2,34.5c-2,0-3.7,1.7-3.7,3.7s1.7,3.7,3.7,3.7c2,0,3.7-1.7,3.7-3.7S-4.2,34.5-6.2,34.5 M-6.2,43.4
				c-2.9,0-5.2-2.3-5.2-5.2S-9.1,33-6.2,33c2.9,0,5.2,2.3,5.2,5.2S-3.4,43.4-6.2,43.4"/>
		</g>
	</g>
	<g>
		<g>
			<path class="st7" d="M22.3,44.6c-0.2,0-0.4,0.1-0.5,0.2c-0.3,0.3-0.3,0.8,0,1.1l9.4,8.8c0.3,0.3,0.8,0.3,1.1,0
				c0.3-0.3,0.3-0.8,0-1.1l-9.4-8.8C22.7,44.7,22.5,44.6,22.3,44.6"/>
			<path class="st7" d="M18.4,45c0-0.2-0.1-0.4-0.2-0.5c-0.3-0.3-0.8-0.3-1.1,0l-8.8,9.4C8,54.2,8,54.7,8.4,55
				c0.3,0.3,0.8,0.3,1.1,0l8.8-9.4C18.4,45.4,18.4,45.2,18.4,45"/>
		</g>
		<g>
			<path class="st7" d="M18.3,79c-0.4,0-0.8-0.3-0.8-0.8V63.1c0-0.4,0.3-0.8,0.8-0.8c0.4,0,0.8,0.3,0.8,0.8v15.2
				C19,78.7,18.7,79,18.3,79"/>
			<path class="st7" d="M22.5,79c-0.4,0-0.8-0.3-0.8-0.8V63.1c0-0.4,0.3-0.8,0.8-0.8c0.4,0,0.8,0.3,0.8,0.8v15.2
				C23.2,78.7,22.9,79,22.5,79"/>
			<path class="st6" d="M25.1,49.4c0-2.7-2.2-4.8-4.8-4.8c-2.7,0-4.8,2.2-4.8,4.8v13.7h9.7V49.4z"/>
			<path class="st7" d="M16.2,62.3h8.2v-13c0-2.2-1.8-4.1-4.1-4.1c-2.2,0-4.1,1.8-4.1,4.1V62.3z M25.1,63.9h-9.7
				c-0.4,0-0.8-0.3-0.8-0.8V49.4c0-3.1,2.5-5.6,5.6-5.6c3.1,0,5.6,2.5,5.6,5.6v13.7C25.9,63.5,25.5,63.9,25.1,63.9"/>
			<path class="st7" d="M20.4,45.3c-0.4,0-0.8-0.3-0.8-0.8v-1.9c0-0.4,0.3-0.8,0.8-0.8c0.4,0,0.8,0.3,0.8,0.8v1.9
				C21.1,44.9,20.8,45.3,20.4,45.3"/>
			<path class="st7" d="M20.4,34.5c-2,0-3.7,1.7-3.7,3.7s1.7,3.7,3.7,3.7c2,0,3.7-1.7,3.7-3.7S22.4,34.5,20.4,34.5 M20.4,43.4
				c-2.9,0-5.2-2.3-5.2-5.2s2.3-5.2,5.2-5.2c2.9,0,5.2,2.3,5.2,5.2S23.3,43.4,20.4,43.4"/>
		</g>
	</g>
</g>
</svg>
