<?xml version="1.0" encoding="utf-8"?>
<!-- Generator: Adobe Illustrator 19.1.0, SVG Export Plug-In . SVG Version: 6.00 Build 0)  -->
<!DOCTYPE svg PUBLIC "-//W3C//DTD SVG 1.1//EN" "http://www.w3.org/Graphics/SVG/1.1/DTD/svg11.dtd">
<svg version="1.1" id="Layer_1" xmlns="http://www.w3.org/2000/svg" xmlns:xlink="http://www.w3.org/1999/xlink" x="0px" y="0px"
	 viewBox="0 0 270 130" style="enable-background:new 0 0 270 130;" xml:space="preserve">
<style type="text/css">
	.st0{display:none;}
	.st1{display:inline;fill:#F0F1F1;}
	
		.st2{display:inline;fill:#EFEDED;stroke:#B2B2B2;stroke-width:1.5;stroke-linecap:round;stroke-linejoin:bevel;stroke-miterlimit:10;}
	
		.st3{display:inline;fill:#FFFFFF;stroke:#B2B2B2;stroke-width:1.5;stroke-linecap:round;stroke-linejoin:bevel;stroke-miterlimit:10;}
	.st4{display:inline;}
	.st5{fill:#FFFFFF;}
	.st6{fill:none;stroke:#B2B2B2;stroke-width:2;stroke-linecap:round;stroke-linejoin:round;stroke-miterlimit:10;}
	.st7{fill:#B2B2B2;stroke:#B2B2B2;stroke-width:2;stroke-linecap:round;stroke-linejoin:round;stroke-miterlimit:10;}
	.st8{fill:#F89C1E;stroke:#F89C1E;stroke-width:0.75;stroke-linecap:round;stroke-linejoin:round;stroke-miterlimit:10;}
	.st9{fill:#EFEDED;stroke:#B2B2B2;stroke-width:1.5;stroke-linecap:round;stroke-linejoin:bevel;stroke-miterlimit:10;}
	.st10{fill:none;stroke:#F89C1E;stroke-miterlimit:10;}
	.st11{fill:#B2B2B2;}
	.st12{display:inline;fill:#B2B2B2;}
	.st13{fill:#F0F1F1;}
</style>
<g class="st0">
	<polygon class="st1" points="266.2,106.3 134.2,128.7 2.2,106.3 	"/>
	<polyline class="st2" points="1.5,105.7 130,105.7 262.4,105.7 	"/>
</g>
<g class="st0">
	<polyline class="st3" points="54.7,78 54.7,110.7 212.1,110.7 212.1,78.8 54.7,78 	"/>
	<g class="st4">
		<polygon class="st5" points="88.6,40.8 55.1,77.3 211.1,77 178.3,41.1 		"/>
		<polygon class="st6" points="211.6,77 55.3,77 88,41 178.8,41 		"/>
		<g>
			<polygon class="st5" points="88.6,10.7 55.1,47.3 211.1,47 178.3,11 			"/>
			<polyline class="st7" points="55.3,47 55.3,79.6 211.6,79.6 211.6,47.7 			"/>
			<line class="st8" x1="64.3" y1="39" x2="123" y2="11.5"/>
			<line class="st8" x1="75.5" y1="23.7" x2="101.3" y2="46.6"/>
			<line class="st8" x1="149.6" y1="11.5" x2="199.2" y2="33.4"/>
			<line class="st8" x1="186.5" y1="18.2" x2="159.5" y2="47.1"/>
			<polygon class="st6" points="211.6,47 55.3,47 88,10.9 178.8,10.9 			"/>
		</g>
	</g>
	<polygon class="st2" points="54.7,110.1 54.7,98.3 61.5,98.3 61.5,98.4 61.5,103.5 61.5,103.6 66.7,103.6 66.7,103.8 66.7,110.5 
		54.7,110.5 	"/>
	<polygon class="st2" points="212.1,110.1 212.1,98.3 205.4,98.3 205.3,98.4 205.3,103.5 205.3,103.6 200.2,103.6 200.1,103.8 
		200.1,110.5 212.1,110.5 	"/>
</g>
<g class="st0">
	<polygon class="st1" points="266.5,106.5 134.5,128.8 2.5,106.5 	"/>
	<polyline class="st2" points="1.1,105.8 130.2,105.8 263.2,105.8 	"/>
</g>
<g class="st0">
	<g class="st4">
		<g>
			<path class="st9" d="M141.3,95.7H92.9l-2.9-1L20.5,37.7c-1.9-1.6-2.2-4.4-0.6-6.3c1.6-1.9,4.4-2.2,6.3-0.6l68.2,55.9h45.6
				L174.6,67l2.2-0.6h64.8c2.5,0,4.5,2,4.5,4.5s-2,4.5-4.5,4.5H178l-34.5,19.7L141.3,95.7z"/>
		</g>
		<polygon class="st9" points="245.9,86.6 20,86.6 20,95.9 27,95.9 27,110.2 33.8,110.2 33.8,95.9 232.1,95.9 232.1,110.2 
			238.8,110.2 238.8,95.9 245.9,95.9 		"/>
	</g>
	<g class="st4">
		<line class="st10" x1="243.8" y1="39.6" x2="187.5" y2="37.3"/>
		<line class="st10" x1="184.5" y1="43.3" x2="243" y2="40.3"/>
		<line class="st10" x1="42.8" y1="7.9" x2="96.3" y2="59.4"/>
		<line class="st10" x1="44.3" y1="6.4" x2="112.4" y2="56.3"/>
		<polygon class="st11" points="239.1,65.5 239.1,65.5 239,65.5 		"/>
		<path class="st11" d="M189.2,36c-14.5,0-26.2,8.6-27.4,9.6c-17.5,13.3-23.1,13.3-34.3,13.4c0,0-0.1,0-0.1,0
			c-7.6,0-16.9-5.5-20.1-7.7L47.1,2.2l-10.4,7.9l-0.1,0L22.8,26.9l58.5,48.7c-0.8,0.9,2.6,2.4,2.7,2.5c1.7,1.2,9.1,10,28.7,8.8
			c0.1,0,4.4,0,4.5,0c16.3-0.1,26.1,1.7,47.1-14.2c1.9-1.4,8.8-5.7,14.4-7.1h60.3l0,0l10.5-7.9l0-21.7v0L189.2,36z M47,4.8l59,48.1
			c0,0,0.1,0.1,0.1,0.1c3.9,2.8,13.4,8.1,21.2,8.1h0.1c3.5,0,6.6-0.1,9.6-0.5c-7.8,4.2-12.6,4.3-20.2,4.3h-0.1
			c-7,0-15.9-5.2-18.8-7.3L39.9,10.2L47,4.8z M178.2,41.8c-2.6,0.1-5.2,0.4-7.6,0.9c4.7-2.3,11.3-4.6,18.6-4.6h55.5l-5,3.7
			L178.2,41.8z M248.1,57.5l-8,5.8l0-19.9l8-5.9L248.1,57.5z"/>
	</g>
	<polygon class="st12" points="84.5,76.7 93.9,86.9 141,86.7 145.3,82.6 	"/>
</g>
<g>
	<polygon class="st13" points="266.4,106.6 134.4,129 2.4,106.6 	"/>
	<polyline class="st9" points="1.6,106 130.1,106 262.5,106 	"/>
</g>
<g>
	<polygon class="st5" points="88.8,42.1 55.3,78.6 211.4,78.3 178.5,42.4 	"/>
	<polyline class="st7" points="55.5,78.3 55.5,111 211.8,111 211.8,79.1 	"/>
	<line class="st8" x1="64.5" y1="70.4" x2="123.3" y2="42.9"/>
	<line class="st8" x1="75.7" y1="55" x2="101.5" y2="78"/>
	<line class="st8" x1="149.8" y1="42.9" x2="199.4" y2="64.8"/>
	<line class="st8" x1="186.7" y1="49.5" x2="159.7" y2="78.5"/>
	<polygon class="st6" points="211.8,78.3 55.5,78.3 88.3,42.3 179,42.3 	"/>
</g>
</svg>
