<?xml version="1.0" encoding="utf-8"?>
<!-- Generator: Adobe Illustrator 19.1.0, SVG Export Plug-In . SVG Version: 6.00 Build 0)  -->
<!DOCTYPE svg PUBLIC "-//W3C//DTD SVG 1.1//EN" "http://www.w3.org/Graphics/SVG/1.1/DTD/svg11.dtd">
<svg version="1.1" id="Layer_1" xmlns="http://www.w3.org/2000/svg" xmlns:xlink="http://www.w3.org/1999/xlink" x="0px" y="0px"
	 viewBox="0 0 270 130" style="enable-background:new 0 0 270 130;" xml:space="preserve">
<style type="text/css">
	.st0{fill:#F0F1F1;}
	.st1{fill:#EFEDED;stroke:#B2B2B2;stroke-width:1.5;stroke-linecap:round;stroke-linejoin:bevel;stroke-miterlimit:10;}
	.st2{fill:#FFFFFF;stroke:#B2B2B2;stroke-width:1.5;stroke-linecap:round;stroke-linejoin:bevel;stroke-miterlimit:10;}
	.st3{fill:#FFFFFF;}
	.st4{fill:none;stroke:#B2B2B2;stroke-width:2;stroke-linecap:round;stroke-linejoin:round;stroke-miterlimit:10;}
	.st5{fill:#B2B2B2;stroke:#B2B2B2;stroke-width:2;stroke-linecap:round;stroke-linejoin:round;stroke-miterlimit:10;}
	.st6{fill:#F89C1E;stroke:#F89C1E;stroke-width:0.75;stroke-linecap:round;stroke-linejoin:round;stroke-miterlimit:10;}
</style>
<g>
	<polygon class="st0" points="266.2,106.3 134.2,128.7 2.2,106.3 	"/>
	<polyline class="st1" points="1.5,105.7 130,105.7 262.4,105.7 	"/>
</g>
<g>
	<polyline class="st2" points="54.7,78 54.7,110.7 212.1,110.7 212.1,78.8 54.7,78 	"/>
	<g>
		<polygon class="st3" points="88.6,40.8 55.1,77.3 211.1,77 178.3,41.1 		"/>
		<polygon class="st4" points="211.6,77 55.3,77 88,41 178.8,41 		"/>
		<g>
			<polygon class="st3" points="88.6,10.7 55.1,47.3 211.1,47 178.3,11 			"/>
			<polyline class="st5" points="55.3,47 55.3,79.6 211.6,79.6 211.6,47.7 			"/>
			<line class="st6" x1="64.3" y1="39" x2="123" y2="11.5"/>
			<line class="st6" x1="75.5" y1="23.7" x2="101.3" y2="46.6"/>
			<line class="st6" x1="149.6" y1="11.5" x2="199.2" y2="33.4"/>
			<line class="st6" x1="186.5" y1="18.2" x2="159.5" y2="47.1"/>
			<polygon class="st4" points="211.6,47 55.3,47 88,10.9 178.8,10.9 			"/>
		</g>
	</g>
	<polygon class="st1" points="54.7,110.1 54.7,98.3 61.5,98.3 61.5,98.4 61.5,103.5 61.5,103.6 66.7,103.6 66.7,103.8 66.7,110.5 
		54.7,110.5 	"/>
	<polygon class="st1" points="212.1,110.1 212.1,98.3 205.4,98.3 205.3,98.4 205.3,103.5 205.3,103.6 200.2,103.6 200.1,103.8 
		200.1,110.5 212.1,110.5 	"/>
</g>
</svg>
