<?xml version="1.0" encoding="utf-8"?>
<!-- Generator: Adobe Illustrator 18.1.1, SVG Export Plug-In . SVG Version: 6.00 Build 0)  -->
<!DOCTYPE svg PUBLIC "-//W3C//DTD SVG 1.1//EN" "http://www.w3.org/Graphics/SVG/1.1/DTD/svg11.dtd">
<svg version="1.1" id="Layer_1" xmlns="http://www.w3.org/2000/svg" xmlns:xlink="http://www.w3.org/1999/xlink" x="0px" y="0px"
	 viewBox="301.4 263.2 116 35" enable-background="new 301.4 263.2 116 35" xml:space="preserve">
<path fill="#231F20" d="M316.6,295.9c-1.4,1.4-3.4,2.1-5.8,2.1h-7.9v-23h7.9c2.4,0,4.4,0.7,5.8,2.1c2.4,2.4,2.3,5.9,2.3,9.1
	C318.8,289.4,318.9,293.5,316.6,295.9 M314.8,278.9c-1.2-1.2-2.7-1.7-4.5-1.7h-5v18.6h5c1.8,0,3.3-0.5,4.5-1.7
	c1.6-1.6,1.5-5.1,1.5-7.9C316.4,283.4,316.4,280.5,314.8,278.9"/>
<path fill="#231F20" d="M337.8,298l-5.2-10.2h-5.5V298h-2.4v-23h8.8c4,0,6.8,2.4,6.8,6.4c0,3.4-2,5.5-5,6.2l5.5,10.4H337.8z
	 M333.1,277.2H327v8.4h6.1c2.7,0,4.6-1.4,4.6-4.2C337.7,278.6,335.8,277.2,333.1,277.2"/>
<polygon fill="#231F20" points="345.7,297.9 345.7,275 359.9,275 360,277.2 348.2,277.2 348.2,285.3 358.2,285.3 358.2,287.4 
	348.2,287.5 348.2,295.7 360,295.7 360,297.9 "/>
<path fill="#231F20" d="M378.4,297.9l-1.8-5.2h-10l-1.8,5.2h-2.6l8.4-23h2.1l8.4,22.9L378.4,297.9z M371.6,278.5l-4.3,12.1h8.6
	L371.6,278.5z"/>
<polygon fill="#231F20" points="402,297.9 402,280.4 395.7,294.3 393.6,294.3 387.2,280.4 387.2,297.9 384.8,297.9 384.7,274.9 
	387.2,274.9 394.7,291.2 402,274.9 404.4,274.9 404.4,297.9 "/>
<path fill="#231F20" d="M408.3,297.9v-3.5c0-1,0.3-1.7,0.8-2.2c0.4-0.4,0.8-0.5,1.3-0.5l0,0c1.1,0,1.7,0.7,2,1.4
	c0.3-1,0.8-1.9,2-1.9l0,0c1.4,0,2.3,1.2,2.3,3v3.7H408.3z M412.2,294.5c0-1.3-0.6-2.2-1.7-2.2l0,0c-0.9,0-1.6,0.8-1.6,2.1v2.9h3.3
	L412.2,294.5L412.2,294.5z M416.2,294.2c0-1.4-0.7-2.4-1.7-2.4l0,0c-1,0-1.6,0.9-1.6,2.6v2.9h3.4L416.2,294.2L416.2,294.2z"/>
<path fill="none" stroke="#231F20" stroke-width="0.237" stroke-miterlimit="10" d="M408.3,297.9v-3.5c0-1,0.3-1.7,0.8-2.2
	c0.4-0.4,0.8-0.5,1.3-0.5l0,0c1.1,0,1.7,0.7,2,1.4c0.3-1,0.8-1.9,2-1.9l0,0c1.4,0,2.3,1.2,2.3,3v3.7H408.3z M412.2,294.5
	c0-1.3-0.6-2.2-1.7-2.2l0,0c-0.9,0-1.6,0.8-1.6,2.1v2.9h3.3L412.2,294.5L412.2,294.5z M416.2,294.2c0-1.4-0.7-2.4-1.7-2.4l0,0
	c-1,0-1.6,0.9-1.6,2.6v2.9h3.4L416.2,294.2L416.2,294.2z"/>
<polygon fill="#231F20" points="408.3,289.2 408.3,283.1 408.9,283.1 408.9,288.5 412.2,288.5 412.2,283.7 412.8,283.7 412.8,288.5 
	416.2,288.5 416.2,283.1 416.8,283.1 416.8,289.2 "/>
<polygon fill="none" stroke="#231F20" stroke-width="0.237" stroke-miterlimit="10" points="408.3,289.2 408.3,283.1 408.9,283.1 
	408.9,288.5 412.2,288.5 412.2,283.7 412.8,283.7 412.8,288.5 416.2,288.5 416.2,283.1 416.8,283.1 416.8,289.2 "/>
<path fill="#231F20" d="M408.3,281.1v-2.8c0-2.7,1.8-4.5,4.2-4.5l0,0c2.4,0,4.2,1.8,4.2,4.5v2.8H408.3z M416.2,278.2
	c0-2.4-1.6-3.8-3.6-3.8l0,0c-2,0-3.6,1.5-3.6,3.8v2.2h7.3L416.2,278.2L416.2,278.2z"/>
<path fill="none" stroke="#231F20" stroke-width="0.237" stroke-miterlimit="10" d="M408.3,281.1v-2.8c0-2.7,1.8-4.5,4.2-4.5l0,0
	c2.4,0,4.2,1.8,4.2,4.5v2.8H408.3z M416.2,278.2c0-2.4-1.6-3.8-3.6-3.8l0,0c-2,0-3.6,1.5-3.6,3.8v2.2h7.3L416.2,278.2L416.2,278.2z"
	/>
<polygon fill="#231F20" points="304.3,263.8 301.3,263.8 301.3,263.2 308,263.2 308,263.8 305,263.8 305,271.7 304.3,271.7 "/>
<polygon fill="none" stroke="#231F20" stroke-width="0.237" stroke-miterlimit="10" points="304.3,263.8 301.3,263.8 301.3,263.2 
	308,263.2 308,263.8 305,263.8 305,271.7 304.3,271.7 "/>
<polygon fill="#231F20" points="309.9,263.2 310.5,263.2 310.5,267.1 316,267.1 316,263.2 316.7,263.2 316.7,271.7 316,271.7 
	316,267.7 310.5,267.7 310.5,271.7 309.9,271.7 "/>
<polygon fill="none" stroke="#231F20" stroke-width="0.237" stroke-miterlimit="10" points="309.9,263.2 310.5,263.2 310.5,267.1 
	316,267.1 316,263.2 316.7,263.2 316.7,271.7 316,271.7 316,267.7 310.5,267.7 310.5,271.7 309.9,271.7 "/>
<polygon fill="#231F20" points="319.2,263.2 325.3,263.2 325.3,263.8 319.9,263.8 319.9,267.1 324.8,267.1 324.8,267.7 319.9,267.7 
	319.9,271.2 325.4,271.2 325.4,271.7 319.2,271.7 "/>
<polygon fill="none" stroke="#231F20" stroke-width="0.237" stroke-miterlimit="10" points="319.2,263.2 325.3,263.2 325.3,263.8 
	319.9,263.8 319.9,267.1 324.8,267.1 324.8,267.7 319.9,267.7 319.9,271.2 325.4,271.2 325.4,271.7 319.2,271.7 "/>
</svg>
