<?xml version="1.0" encoding="utf-8"?>
<!-- Generator: Adobe Illustrator 19.1.0, SVG Export Plug-In . SVG Version: 6.00 Build 0)  -->
<!DOCTYPE svg PUBLIC "-//W3C//DTD SVG 1.1//EN" "http://www.w3.org/Graphics/SVG/1.1/DTD/svg11.dtd">
<svg version="1.1" id="Layer_1" xmlns="http://www.w3.org/2000/svg" xmlns:xlink="http://www.w3.org/1999/xlink" x="0px" y="0px"
	 viewBox="0 0 175 60" style="enable-background:new 0 0 175 60;" xml:space="preserve">
<style type="text/css">
	.st0{fill:#6A6A6B;}
</style>
<g id="_x34_H3GIk.tif_1_">
	<g>
		<path class="st0" d="M2.9,12.7c3.1,0,6.2,0,9.3,0c1.2,0,2.5,0.1,3.7,0.5c2.2,0.7,3.8,2.1,4.3,4.5c0.6,2.8-0.6,5.3-3.2,6.5
			c-0.1,0-0.2,0.1-0.3,0.1c-0.1,0.1-0.4,0-0.3,0.3c0,0.1,0.2,0.1,0.4,0.1c2.7,0.7,4.3,2.7,4.6,4.9c0.4,3-0.7,5.4-3.2,6.8
			c-2,1.1-4.2,1.4-6.4,1.4c-2.6,0-5.3,0-7.9,0c-0.3,0-0.6-0.1-0.8,0.1C2.9,29.5,2.9,21.1,2.9,12.7z M7.4,30.3c0,1,0,2.1,0,3.1
			C7.4,33.9,7.5,34,8,34c1.3,0,2.6,0,4,0c1,0,1.9-0.1,2.8-0.5c1-0.4,1.8-1.1,2.1-2.2c0.5-2-0.3-3.9-2.7-4.3c-0.2,0-0.5-0.1-0.7-0.1
			c-1.8-0.2-3.6-0.1-5.4-0.1c-0.4,0-0.6,0.1-0.6,0.6C7.4,28.4,7.4,29.3,7.4,30.3z M7.4,19.8c0,0.8,0,1.7,0,2.5C7.4,22.8,7.5,23,8,23
			c1.1,0,2.3,0,3.4,0c0.9,0,1.9-0.1,2.7-0.5c1.2-0.5,1.8-1.4,1.7-2.7c0-1.4-0.6-2.2-1.9-2.7c-0.4-0.1-0.8-0.2-1.2-0.3
			c-1.6-0.2-3.2-0.1-4.8-0.1c-0.4,0-0.5,0.1-0.5,0.5C7.4,18,7.4,18.9,7.4,19.8z"/>
		<path class="st0" d="M106.8,12.2c0,3.6,0,7.1,0,10.7c0.3,0.1,0.3-0.2,0.4-0.3c1.6-1.6,3.5-2.2,5.7-2.1c5,0.1,7.8,4.3,7.9,8.4
			c0.1,1.9-0.2,3.6-1.1,5.3c-1.4,2.6-3.7,3.9-6.6,4.1c-1.3,0.1-2.5-0.1-3.7-0.6c-1.1-0.5-2-1.2-2.8-2.2c0,0.6,0,1.2,0,1.8
			c0,0.4-0.1,0.6-0.5,0.5c-1,0-2,0-3,0c-0.4,0-0.6-0.2-0.5-0.5c0-0.1,0-0.2,0-0.3c0-8.1,0-16.2,0-24.3c0-0.2,0-0.4,0-0.6
			C104,12.2,105.4,12.2,106.8,12.2z M111.6,34.4c2.5,0.1,5-1.7,5-5c0-2.7-1.7-5-4.9-5.1c-2.8-0.1-5,2.2-5,5
			C106.7,32.6,109.1,34.5,111.6,34.4z"/>
		<path class="st0" d="M28.6,12.2c0,0.3,0,0.6,0,0.9c0,7.9,0,15.8,0,23.7c0,1.2,0.2,1.1-1.1,1.1c-0.8,0-1.6,0-2.5,0
			c-0.8,0-0.8,0-0.8-0.7c0-0.1,0-0.3,0-0.4c0-7.9,0-15.7,0-23.6c0-0.3,0-0.6,0-0.9C25.7,12.2,27.2,12.2,28.6,12.2z"/>
		<path class="st0" d="M168,23.2c0-0.6,0-1.3,0-1.9c0-0.3,0.1-0.4,0.4-0.4c1.1,0,2.2,0,3.3,0c0.3,0,0.4,0.1,0.4,0.4
			c0,0.1,0,0.2,0,0.3c0,5.2,0,10.3,0,15.5c0,1.7-0.4,3.3-1.1,4.9c-1.1,2.3-3,3.5-5.4,4.1c-0.2,0.1-0.5,0-0.8,0c-1.6,0-3.2,0-4.7,0
			c-2.2,0-4-1-5.7-2.3c-0.2-0.2-0.3-0.3-0.1-0.6c0.7-1,1.4-1.9,2.1-2.9c0.2-0.2,0.3-0.2,0.5,0c0.4,0.4,0.9,0.7,1.3,1
			c1.9,1.2,3.9,1.5,6.1,1c2-0.4,3-1.8,3.3-3.7c0.1-0.8,0.2-1.6,0.2-2.4c0-0.1,0.1-0.3-0.1-0.4c-0.1,0-0.2,0.1-0.3,0.2
			c-2.3,2.2-5.1,2.6-8,1.7c-3-0.9-4.8-3.1-5.5-6.1c-0.5-2.4-0.3-4.7,0.8-6.9c1.6-3,4.2-4.3,7.5-4.2c1.5,0,3,0.4,4.2,1.4
			C167.1,22.2,167.5,22.7,168,23.2z M168,29.3c0-3-2-5-5-5c-2.9,0-5,2.1-5,5c0,2.8,2.2,5,5,5C166,34.2,168,32.2,168,29.3z"/>
		<path class="st0" d="M76.8,23.4c2.4-4.2,9-3.8,10.5,0c0.2,0,0.2-0.2,0.3-0.3c1.3-1.9,3.2-2.7,5.4-2.6c0.8,0,1.6,0.1,2.3,0.4
			c2,0.7,2.9,2.3,3.4,4.2c0.2,1,0.3,1.9,0.3,2.9c0,3,0,6.1,0,9.1c0,0.7,0,0.7-0.7,0.8c-1,0-2,0-3,0c-0.5,0-0.7-0.2-0.7-0.7
			c0-2.9,0-5.8,0-8.7c0-0.6,0-1.3-0.2-1.9c-0.4-1.6-1.5-2.4-3.2-2.3c-1.9,0.1-3.1,1.4-3.3,3.4c-0.2,1.6-0.1,3.3-0.1,4.9
			c0,1.6,0,3.1,0,4.7c0,0.5-0.2,0.6-0.6,0.6c-1,0-2,0-3,0c-0.6,0-0.6-0.2-0.6-0.7c0-3.1,0-6.2,0-9.3c0-0.5,0-0.9-0.1-1.4
			c-0.4-1.4-1.2-2.2-2.7-2.2c-2.1,0-3.4,1.1-3.8,3.2C77.1,28,77,28.6,77,29.2c0,2.7,0,5.3,0,8c0,0.8,0,0.8-0.8,0.8c-1,0-1.9,0-2.9,0
			c-0.4,0-0.6-0.1-0.6-0.5c0-5.3,0-10.7,0-16c0-0.3,0.1-0.5,0.5-0.5c1,0,2.1,0,3.1,0c0.4,0,0.5,0.1,0.5,0.5
			C76.8,22,76.8,22.6,76.8,23.4z"/>
		<path class="st0" d="M40.6,20.4c3.7,0.1,6.7,1.5,8.4,5c2.4,5.1-0.1,11.6-6.7,12.7c-3.3,0.5-6.3-0.2-8.6-2.7
			c-1.9-2-2.5-4.5-2.2-7.2c0.3-3.3,2.7-6.7,7.4-7.6C39.4,20.5,40,20.5,40.6,20.4z M40.6,34.4c2.9,0,5-2.1,5-5c0-2.9-2.1-5.1-4.9-5.1
			c-2.8,0-5,2.1-5,5C35.6,32.2,37.7,34.4,40.6,34.4z"/>
		<path class="st0" d="M51.7,29.4c0-4.8,3.4-8.5,8.2-8.9c3-0.2,5.8,0.5,7.9,2.8c2,2.1,2.6,4.6,2.2,7.4c-0.7,5.3-5.7,8.3-10.7,7.5
			c-3.1-0.5-5.5-2.1-6.9-4.9C52,32,51.7,30.7,51.7,29.4z M61,34.4c2.9,0,4.9-2.1,4.9-5c0-2.9-2.1-5.1-5-5.1c-2.8,0-5,2.2-5,5.1
			C56,32.3,58.1,34.4,61,34.4z"/>
		<path class="st0" d="M133.5,30.8c-1.9,0-3.8,0-5.7,0c-0.8,0-0.8,0-0.6,0.8c0.6,2.1,2.5,3.3,4.7,3.2c1.5-0.1,2.8-0.7,3.8-1.8
			c0.5-0.5,0.5-0.5,1-0.1c0.6,0.5,1.3,1,1.9,1.4c0.6,0.5,0.7,0.4,0.1,1c-1.5,1.6-3.4,2.6-5.6,2.8c-2.6,0.2-5.1-0.3-7.2-2.1
			c-2.4-2-3.3-4.6-3.1-7.6c0.3-4.3,3.3-7.3,7.4-8c2.7-0.5,5.3,0,7.4,2.1c1.2,1.3,1.8,2.9,2.2,4.6c0.2,1,0.2,2.1,0.2,3.1
			c0,0.4-0.1,0.5-0.5,0.5C137.4,30.8,135.5,30.8,133.5,30.8z M131.4,27.6c1.3,0,2.5,0,3.8,0c0,0,0.1,0,0.1,0c0.2,0,0.4,0,0.4-0.3
			c-0.1-1.6-1.1-2.9-2.7-3.4c-0.6-0.2-1.2-0.2-1.8-0.2c-2.1,0.1-3.6,1.3-4,3.4c-0.1,0.4,0,0.6,0.5,0.6
			C128.8,27.6,130.1,27.6,131.4,27.6z"/>
		<path class="st0" d="M147.1,23.2c0.8-1.3,1.9-2.2,3.4-2.6c0.8-0.2,1.7-0.2,2.5-0.1c0.4,0.1,0.6,0.3,0.6,0.7c0,1,0,1.9,0,2.9
			c0,0.6,0,0.7-0.7,0.5c-1-0.2-1.9-0.2-2.9,0c-1.7,0.5-2.8,1.8-3,3.5c-0.1,0.7-0.1,1.4-0.1,2c0,2.3,0,4.6,0,6.9c0,0.7,0,0.7-0.7,0.7
			c-1,0-2,0-3,0c-0.4,0-0.6-0.1-0.6-0.6c0-0.5,0-1,0-1.4c0-4.7,0-9.4,0-14c0-0.2,0-0.4,0-0.6c0-0.3,0.1-0.4,0.4-0.4
			c1.2,0,2.4,0,3.5,0c0.3,0,0.4,0.1,0.4,0.4c0,0.6,0,1.3,0,1.9C147,23.2,147.1,23.2,147.1,23.2z"/>
	</g>
</g>
</svg>
