<?xml version="1.0" encoding="utf-8"?>
<!-- Generator: Adobe Illustrator 18.1.1, SVG Export Plug-In . SVG Version: 6.00 Build 0)  -->
<!DOCTYPE svg PUBLIC "-//W3C//DTD SVG 1.1//EN" "http://www.w3.org/Graphics/SVG/1.1/DTD/svg11.dtd">
<svg version="1.1" id="Layer_1" xmlns="http://www.w3.org/2000/svg" xmlns:xlink="http://www.w3.org/1999/xlink" x="0px" y="0px"
	 viewBox="0 0 25.5 25" enable-background="new 0 0 25.5 25" xml:space="preserve">
<g>
	<g>
		<polygon fill="#F7941E" points="12.7,0.4 16.7,8.4 25.5,9.6 19.1,15.8 20.6,24.6 12.7,20.5 4.9,24.6 6.4,15.8 0,9.6 8.8,8.4 		"/>
		<polygon fill="#F7941E" points="45,0.4 48.9,8.4 57.7,9.6 51.4,15.8 52.9,24.6 45,20.5 37.1,24.6 38.6,15.8 32.2,9.6 41,8.4 		"/>
		<polygon fill="#F7941E" points="77.2,0.4 81.2,8.4 90,9.6 83.6,15.8 85.1,24.6 77.2,20.5 69.4,24.6 70.9,15.8 64.5,9.6 73.3,8.4 
					"/>
		<polygon fill="#F7941E" points="109.5,0.4 113.4,8.4 122.2,9.6 115.8,15.8 117.3,24.6 109.5,20.5 101.6,24.6 103.1,15.8 96.7,9.6 
			105.5,8.4 		"/>
		<polygon fill="#F7941E" points="141.7,0.4 145.7,8.4 154.5,9.6 148.1,15.8 149.6,24.6 141.7,20.5 133.8,24.6 135.3,15.8 129,9.6 
			137.8,8.4 		"/>
	</g>
</g>
</svg>
