<?xml version="1.0" encoding="utf-8"?>
<!-- Generator: Adobe Illustrator 19.1.0, SVG Export Plug-In . SVG Version: 6.00 Build 0)  -->
<!DOCTYPE svg PUBLIC "-//W3C//DTD SVG 1.1//EN" "http://www.w3.org/Graphics/SVG/1.1/DTD/svg11.dtd">
<svg version="1.1" id="Layer_1" xmlns="http://www.w3.org/2000/svg" xmlns:xlink="http://www.w3.org/1999/xlink" x="0px" y="0px"
	 viewBox="0 0 150 24" style="enable-background:new 0 0 150 24;" xml:space="preserve">
<style type="text/css">
	.st0{fill:#FF9E14;}
</style>
<polygon class="st0" points="12.4,0.2 16.2,8 24.7,9.2 18.6,15.3 20,23.8 12.4,19.7 4.7,23.8 6.2,15.3 0,9.2 8.5,8 "/>
<polygon class="st0" points="43.7,0.2 47.5,8 56.1,9.2 49.9,15.3 51.3,23.8 43.7,19.7 36,23.8 37.5,15.3 31.3,9.2 39.9,8 "/>
<polygon class="st0" points="75,0.2 78.8,8 87.4,9.2 81.2,15.3 82.6,23.8 75,19.7 67.4,23.8 68.8,15.3 62.6,9.2 71.2,8 "/>
<polygon class="st0" points="106.3,0.2 110.1,8 118.7,9.2 112.5,15.3 114,23.8 106.3,19.7 98.7,23.8 100.1,15.3 93.9,9.2 102.5,8 
	"/>
<path class="st0" d="M137.6,0.2L133.8,8l-8.5,1.2l6.2,6l-1.5,8.5l7.6-4l7.6,4l-1.5-8.5l6.2-6L141.5,8L137.6,0.2z"/>
</svg>
