<?xml version="1.0" encoding="utf-8"?>
<!-- Generator: Adobe Illustrator 19.1.0, SVG Export Plug-In . SVG Version: 6.00 Build 0)  -->
<!DOCTYPE svg PUBLIC "-//W3C//DTD SVG 1.1//EN" "http://www.w3.org/Graphics/SVG/1.1/DTD/svg11.dtd">
<svg version="1.1" id="Layer_1" xmlns="http://www.w3.org/2000/svg" xmlns:xlink="http://www.w3.org/1999/xlink" x="0px" y="0px"
	 viewBox="12.3 12.3 76.4 76.4" style="enable-background:new 12.3 12.3 76.4 76.4;" xml:space="preserve">
<style type="text/css">
	.st0{fill:#F26B21;}
</style>
<path class="st0" d="M51,88.2c0-0.3,0.2-0.5,0.5-0.5l0,0c0.3,0,0.5,0.2,0.5,0.5l0,0c0,0.3-0.2,0.5-0.5,0.5l0,0l0,0l0,0
	C51.3,88.7,51,88.4,51,88.2z M48.9,88.1c0-0.3,0.3-0.5,0.5-0.5l0,0c0.3,0,0.5,0.2,0.5,0.5l0,0c0,0.3-0.2,0.5-0.5,0.5l0,0l0,0l0,0
	C49.2,88.7,48.9,88.4,48.9,88.1z M53.1,88.1c0-0.3,0.2-0.5,0.5-0.6l0,0c0.3,0,0.5,0.2,0.6,0.5l0,0c0,0.3-0.2,0.5-0.5,0.6l0,0l0,0
	l0,0l0,0l0,0C53.4,88.6,53.1,88.4,53.1,88.1z M47.3,88.6c-0.3,0-0.5-0.3-0.5-0.6l0,0c0-0.3,0.3-0.5,0.6-0.5l0,0
	c0.3,0,0.5,0.3,0.5,0.6l0,0C47.9,88.3,47.7,88.6,47.3,88.6L47.3,88.6C47.4,88.6,47.4,88.6,47.3,88.6z M55.2,87.9
	c0-0.3,0.2-0.5,0.4-0.6l0,0c0.3,0,0.5,0.2,0.6,0.4l0,0c0,0.3-0.2,0.5-0.4,0.6l0,0c0,0,0,0-0.1,0l0,0C55.4,88.3,55.2,88.1,55.2,87.9z
	 M45.3,88.3c-0.3,0-0.5-0.3-0.4-0.6l0,0c0-0.3,0.3-0.5,0.6-0.4l0,0c0.3,0,0.5,0.3,0.4,0.6l0,0C45.8,88.1,45.6,88.3,45.3,88.3
	L45.3,88.3L45.3,88.3z M57.2,87.6c-0.1-0.3,0.1-0.6,0.4-0.6l0,0c0.3-0.1,0.6,0.1,0.6,0.4l0,0c0.1,0.3-0.1,0.6-0.4,0.6l0,0h-0.1l0,0
	C57.5,88,57.3,87.8,57.2,87.6z M43.2,88c-0.3-0.1-0.5-0.3-0.4-0.6l0,0c0.1-0.3,0.3-0.5,0.6-0.4l0,0c0.3,0.1,0.5,0.3,0.4,0.6l0,0
	C43.8,87.8,43.5,88,43.2,88L43.2,88C43.2,88,43.2,88,43.2,88z M59.3,87.2c-0.1-0.3,0.1-0.6,0.4-0.6l0,0c0.3-0.1,0.6,0.1,0.6,0.4l0,0
	c0.1,0.3-0.1,0.6-0.4,0.6l0,0h-0.1l0,0C59.5,87.6,59.3,87.4,59.3,87.2z M41.1,87.5c-0.3-0.1-0.4-0.4-0.4-0.6l0,0
	c0.1-0.3,0.4-0.4,0.6-0.4l0,0c0.3,0.1,0.4,0.4,0.4,0.6l0,0C41.6,87.3,41.4,87.5,41.1,87.5L41.1,87.5C41.2,87.5,41.2,87.5,41.1,87.5z
	 M61.3,86.6c-0.1-0.3,0.1-0.6,0.3-0.7l0,0c0.3-0.1,0.6,0.1,0.6,0.3l0,0c0.1,0.3-0.1,0.6-0.3,0.7l0,0l0,0l0,0c0,0-0.1,0-0.2,0l0,0
	C61.6,87,61.4,86.8,61.3,86.6z M39.1,86.9c-0.3-0.1-0.4-0.4-0.3-0.7l0,0c0.1-0.3,0.4-0.4,0.6-0.3l0,0c0.3,0.1,0.4,0.4,0.3,0.7l0,0
	C39.6,86.8,39.4,87,39.1,86.9L39.1,86.9C39.2,87,39.1,86.9,39.1,86.9z M63.3,86c-0.1-0.3,0-0.6,0.3-0.7l0,0c0.3-0.1,0.6,0,0.7,0.3
	l0,0c0.1,0.3,0,0.6-0.3,0.7l0,0c-0.1,0-0.1,0-0.2,0l0,0C63.5,86.3,63.3,86.2,63.3,86z M37.1,86.2c-0.3-0.1-0.4-0.4-0.3-0.7l0,0
	c0.1-0.3,0.4-0.4,0.7-0.3l0,0c0.3,0.1,0.4,0.4,0.3,0.7l0,0c-0.1,0.2-0.3,0.3-0.5,0.3l0,0C37.2,86.3,37.1,86.3,37.1,86.2z M65.2,85.2
	c-0.1-0.3,0-0.6,0.3-0.7l0,0c0.3-0.1,0.6,0,0.7,0.3l0,0c0.1,0.3,0,0.6-0.3,0.7l0,0l0,0l0,0c-0.1,0-0.1,0-0.2,0l0,0
	C65.5,85.5,65.3,85.4,65.2,85.2z M35.1,85.4c-0.3-0.1-0.4-0.4-0.3-0.7l0,0c0.1-0.3,0.4-0.4,0.7-0.3l0,0c0.3,0.1,0.4,0.4,0.3,0.7l0,0
	c-0.1,0.2-0.3,0.3-0.5,0.3l0,0C35.3,85.5,35.2,85.5,35.1,85.4z M67.1,84.4c-0.1-0.3,0-0.6,0.2-0.7l0,0c0.3-0.1,0.6,0,0.7,0.2l0,0
	c0.1,0.3,0,0.6-0.2,0.7l0,0l0,0l0,0c-0.1,0-0.2,0.1-0.2,0.1l0,0C67.4,84.6,67.2,84.5,67.1,84.4z M33.2,84.5
	c-0.3-0.1-0.4-0.4-0.2-0.7l0,0c0.1-0.3,0.4-0.4,0.7-0.2l0,0c0.3,0.1,0.4,0.4,0.2,0.7l0,0c-0.1,0.2-0.3,0.3-0.5,0.3l0,0
	C33.4,84.6,33.3,84.6,33.2,84.5z M68.9,83.4c-0.1-0.3-0.1-0.6,0.2-0.7l0,0c0.2-0.1,0.6-0.1,0.7,0.2l0,0c0.1,0.3,0.1,0.6-0.2,0.7l0,0
	l0,0l0,0c-0.1,0-0.2,0.1-0.3,0.1l0,0C69.2,83.7,69,83.6,68.9,83.4z M31.4,83.5L31.4,83.5L31.4,83.5c-0.3-0.1-0.3-0.5-0.2-0.7l0,0
	c0.1-0.3,0.5-0.3,0.7-0.2l0,0c0.2,0.1,0.3,0.5,0.2,0.7l0,0c-0.1,0.2-0.3,0.3-0.5,0.3l0,0C31.5,83.6,31.5,83.6,31.4,83.5z M70.7,82.3
	c-0.2-0.2-0.1-0.6,0.1-0.7l0,0c0.2-0.2,0.6-0.1,0.7,0.2l0,0c0.2,0.2,0.1,0.6-0.2,0.7l0,0l0,0l0,0c-0.1,0.1-0.2,0.1-0.3,0.1l0,0
	C71,82.6,70.8,82.5,70.7,82.3z M29.6,82.4L29.6,82.4L29.6,82.4c-0.2-0.2-0.3-0.5-0.1-0.7l0,0c0.2-0.2,0.5-0.3,0.7-0.1l0,0
	c0.2,0.2,0.3,0.5,0.1,0.7l0,0c-0.1,0.1-0.3,0.2-0.4,0.2l0,0C29.8,82.5,29.7,82.5,29.6,82.4z M72.4,81.2c-0.2-0.2-0.1-0.6,0.1-0.7
	l0,0c0.2-0.2,0.6-0.1,0.7,0.1l0,0c0.2,0.2,0.1,0.6-0.1,0.7l0,0c-0.1,0.1-0.2,0.1-0.3,0.1l0,0C72.7,81.4,72.5,81.3,72.4,81.2z
	 M27.8,81.2c-0.2-0.2-0.3-0.5-0.1-0.7l0,0c0.2-0.2,0.5-0.3,0.7-0.1l0,0c0.2,0.2,0.3,0.5,0.1,0.7l0,0c-0.1,0.1-0.3,0.2-0.4,0.2l0,0
	C28.1,81.3,27.9,81.3,27.8,81.2z M74.1,79.9c-0.2-0.2-0.2-0.5,0.1-0.7l0,0c0.2-0.2,0.5-0.2,0.7,0.1l0,0c0.2,0.2,0.2,0.5-0.1,0.7l0,0
	l0,0l0,0c-0.1,0.1-0.2,0.1-0.3,0.1l0,0C74.3,80.1,74.2,80,74.1,79.9z M26.2,79.9L26.2,79.9L26.2,79.9c-0.2-0.2-0.3-0.5-0.1-0.7l0,0
	c0.2-0.2,0.5-0.3,0.7-0.1l0,0c0.2,0.2,0.3,0.5,0.1,0.7l0,0C26.8,80,26.7,80,26.5,80l0,0C26.4,80,26.3,80,26.2,79.9z M75.7,78.6
	c-0.2-0.2-0.2-0.5,0-0.7l0,0c0.2-0.2,0.5-0.2,0.7,0l0,0c0.2,0.2,0.2,0.5,0,0.7l0,0c-0.1,0.1-0.2,0.1-0.4,0.1l0,0
	C75.9,78.8,75.8,78.7,75.7,78.6z M24.6,78.5c-0.2-0.2-0.2-0.5,0-0.7l0,0c0.2-0.2,0.5-0.2,0.7,0l0,0c0.2,0.2,0.2,0.5,0,0.7l0,0
	c-0.1,0.1-0.2,0.2-0.4,0.2l0,0C24.8,78.7,24.7,78.6,24.6,78.5z M77.2,77.2c-0.2-0.2-0.2-0.5,0-0.7l0,0c0.2-0.2,0.5-0.2,0.7,0l0,0
	c0.2,0.2,0.2,0.5,0,0.7l0,0l0,0l0,0c-0.1,0.1-0.2,0.2-0.4,0.2l0,0C77.4,77.3,77.3,77.2,77.2,77.2z M23.1,77c-0.2-0.2-0.2-0.5,0-0.7
	l0,0c0.2-0.2,0.5-0.2,0.7,0l0,0c0.2,0.2,0.2,0.5,0,0.7l0,0c-0.1,0.1-0.2,0.1-0.4,0.1l0,0C23.3,77.2,23.2,77.1,23.1,77z M78.6,75.6
	c-0.2-0.2-0.2-0.5,0-0.7l0,0c0.2-0.2,0.5-0.2,0.7-0.1l0,0c0.2,0.2,0.2,0.5,0,0.7l0,0c-0.1,0.1-0.2,0.2-0.4,0.2l0,0
	C78.8,75.8,78.7,75.7,78.6,75.6z M21.7,75.5L21.7,75.5L21.7,75.5c-0.2-0.2-0.2-0.5,0-0.7l0,0c0.2-0.2,0.5-0.2,0.7,0.1l0,0
	c0.2,0.2,0.2,0.5-0.1,0.7l0,0c-0.1,0.1-0.2,0.1-0.3,0.1l0,0C21.9,75.7,21.8,75.6,21.7,75.5z M80,74.1c-0.2-0.2-0.3-0.5-0.1-0.7l0,0
	c0.2-0.2,0.5-0.3,0.7-0.1l0,0c0.2,0.2,0.3,0.5,0.1,0.7l0,0l0,0l0,0c-0.1,0.1-0.3,0.2-0.4,0.2l0,0C80.2,74.2,80.1,74.1,80,74.1z
	 M20.3,73.9L20.3,73.9L20.3,73.9c-0.2-0.2-0.1-0.6,0.1-0.7l0,0c0.2-0.2,0.6-0.1,0.7,0.1l0,0c0.2,0.2,0.1,0.5-0.1,0.7l0,0
	c-0.1,0.1-0.2,0.1-0.3,0.1l0,0C20.6,74.1,20.4,74,20.3,73.9z M81.2,72.4c-0.2-0.2-0.3-0.5-0.1-0.7l0,0c0.2-0.2,0.5-0.3,0.7-0.1l0,0
	c0.2,0.2,0.3,0.5,0.1,0.7l0,0c-0.1,0.1-0.3,0.2-0.4,0.2l0,0C81.4,72.5,81.3,72.5,81.2,72.4z M19.1,72.2L19.1,72.2L19.1,72.2
	c-0.2-0.2-0.1-0.6,0.1-0.7l0,0c0.2-0.2,0.6-0.1,0.7,0.1l0,0c0.2,0.2,0.1,0.6-0.1,0.7l0,0c-0.1,0.1-0.2,0.1-0.3,0.1l0,0
	C19.3,72.4,19.2,72.3,19.1,72.2z M82.4,70.7c-0.2-0.1-0.3-0.5-0.2-0.7l0,0c0.1-0.2,0.5-0.3,0.7-0.2l0,0c0.2,0.1,0.3,0.5,0.2,0.7l0,0
	c-0.1,0.2-0.3,0.2-0.4,0.2l0,0C82.6,70.8,82.5,70.7,82.4,70.7z M17.9,70.4c-0.1-0.2-0.1-0.6,0.2-0.7l0,0c0.2-0.1,0.6-0.1,0.7,0.2
	l0,0c0.1,0.2,0.1,0.6-0.2,0.7l0,0c-0.1,0-0.2,0.1-0.3,0.1l0,0C18.2,70.6,18,70.6,17.9,70.4z M83.5,68.9c-0.3-0.1-0.3-0.5-0.2-0.7
	l0,0c0.1-0.3,0.5-0.3,0.7-0.2l0,0c0.3,0.1,0.3,0.5,0.2,0.7l0,0c-0.1,0.2-0.3,0.3-0.5,0.3l0,0C83.6,69,83.5,68.9,83.5,68.9z
	 M16.9,68.6L16.9,68.6L16.9,68.6c-0.1-0.3,0-0.6,0.2-0.7l0,0c0.3-0.1,0.6,0,0.7,0.2l0,0c0.1,0.3,0,0.6-0.2,0.7l0,0
	c-0.1,0-0.2,0.1-0.2,0.1l0,0C17.2,68.8,17,68.7,16.9,68.6z M84.4,67c-0.3-0.1-0.4-0.4-0.2-0.7l0,0c0.1-0.3,0.4-0.4,0.7-0.3l0,0
	c0.3,0.1,0.4,0.4,0.2,0.7l0,0l0,0l0,0C85,66.9,84.8,67,84.6,67l0,0C84.6,67.1,84.5,67.1,84.4,67z M15.9,66.7c-0.1-0.3,0-0.6,0.3-0.7
	l0,0c0.3-0.1,0.6,0,0.7,0.3l0,0c0.1,0.3,0,0.6-0.3,0.7l0,0c-0.1,0-0.1,0.1-0.2,0.1l0,0C16.2,67,16,66.9,15.9,66.7z M85.3,65.1
	C85,65,84.9,64.7,85,64.5l0,0c0.1-0.3,0.4-0.4,0.7-0.3l0,0c0.3,0.1,0.4,0.4,0.3,0.7l0,0c-0.1,0.2-0.3,0.3-0.5,0.3l0,0
	C85.4,65.2,85.4,65.2,85.3,65.1z M15.1,64.8c-0.1-0.3,0-0.6,0.3-0.7l0,0c0.3-0.1,0.6,0,0.7,0.3l0,0c0.1,0.3,0,0.6-0.3,0.7l0,0
	c-0.1,0-0.1,0-0.2,0l0,0C15.4,65.1,15.2,65,15.1,64.8z M86.1,63.2c-0.3-0.1-0.4-0.4-0.3-0.7l0,0c0.1-0.3,0.4-0.4,0.7-0.3l0,0
	c0.3,0.1,0.4,0.4,0.3,0.7l0,0c-0.1,0.2-0.3,0.4-0.5,0.4l0,0C86.2,63.2,86.1,63.2,86.1,63.2z M14.4,62.8c-0.1-0.3,0.1-0.6,0.3-0.7
	l0,0c0.3-0.1,0.6,0.1,0.7,0.3l0,0c0.1,0.3-0.1,0.6-0.3,0.7l0,0c-0.1,0-0.1,0-0.2,0l0,0C14.6,63.1,14.4,63,14.4,62.8z M86.7,61.2
	c-0.3-0.1-0.4-0.4-0.4-0.6l0,0c0.1-0.3,0.4-0.4,0.6-0.4l0,0c0.3,0.1,0.4,0.4,0.4,0.6l0,0C87.2,61,87,61.2,86.7,61.2L86.7,61.2
	C86.8,61.2,86.8,61.2,86.7,61.2z M13.7,60.8c-0.1-0.3,0.1-0.6,0.4-0.6l0,0c0.3-0.1,0.6,0.1,0.6,0.4l0,0c0.1,0.3-0.1,0.6-0.4,0.6l0,0
	h-0.1l0,0C14,61.1,13.8,61,13.7,60.8z M87.2,59.2c-0.3-0.1-0.5-0.3-0.4-0.6l0,0c0.1-0.3,0.3-0.5,0.6-0.4l0,0
	c0.3,0.1,0.5,0.3,0.4,0.6l0,0C87.7,59,87.5,59.2,87.2,59.2L87.2,59.2C87.3,59.2,87.3,59.2,87.2,59.2z M13.2,58.7
	c-0.1-0.3,0.1-0.6,0.4-0.6l0,0c0.3-0.1,0.6,0.1,0.6,0.4l0,0c0.1,0.3-0.1,0.6-0.4,0.6l0,0h-0.1l0,0C13.5,59.1,13.3,59,13.2,58.7z
	 M87.7,57.2c-0.3,0-0.5-0.3-0.4-0.6l0,0c0-0.3,0.3-0.5,0.6-0.4l0,0c0.3,0,0.5,0.3,0.4,0.6l0,0C88.2,57,88,57.2,87.7,57.2L87.7,57.2
	L87.7,57.2z M12.8,56.6L12.8,56.6L12.8,56.6c0-0.3,0.1-0.6,0.4-0.6l0,0c0.3,0,0.5,0.1,0.6,0.4l0,0c0,0.3-0.1,0.5-0.4,0.6l0,0h-0.1
	l0,0C13.1,57.1,12.9,56.9,12.8,56.6z M88,55.1c-0.3,0-0.5-0.3-0.5-0.6l0,0c0-0.3,0.3-0.5,0.6-0.5l0,0c0.3,0,0.5,0.3,0.5,0.6l0,0
	C88.5,54.9,88.3,55.1,88,55.1L88,55.1L88,55.1z M12.5,54.6c0-0.3,0.2-0.5,0.5-0.6l0,0c0.3,0,0.5,0.2,0.6,0.5l0,0
	c0,0.3-0.2,0.5-0.5,0.6l0,0c0,0,0,0-0.1,0l0,0C12.8,55,12.6,54.8,12.5,54.6z M88.2,53.1c-0.3,0-0.5-0.3-0.5-0.5l0,0
	c0-0.3,0.3-0.5,0.5-0.5l0,0c0.3,0,0.5,0.3,0.5,0.5l0,0C88.7,52.8,88.5,53.1,88.2,53.1L88.2,53.1L88.2,53.1z M12.4,52.5L12.4,52.5
	L12.4,52.5c0-0.3,0.2-0.5,0.5-0.5l0,0c0.3,0,0.5,0.2,0.5,0.5l0,0c0,0.3-0.2,0.5-0.5,0.5l0,0l0,0l0,0C12.6,52.9,12.4,52.7,12.4,52.5z
	 M87.7,50.5c0-0.3,0.2-0.5,0.5-0.5l0,0c0.3,0,0.5,0.2,0.5,0.5l0,0c0,0.3-0.2,0.5-0.5,0.5l0,0C88,51,87.7,50.7,87.7,50.5z M12.3,50.3
	c0-0.3,0.2-0.5,0.5-0.5l0,0c0.3,0,0.5,0.2,0.5,0.5l0,0c0,0.3-0.2,0.5-0.5,0.5l0,0C12.6,50.9,12.3,50.6,12.3,50.3z M87.7,48.6
	L87.7,48.6c0-0.3,0.2-0.5,0.5-0.5l0,0c0.3,0,0.5,0.2,0.5,0.5l0,0l0,0l0,0c0,0.3-0.2,0.5-0.5,0.5l0,0l0,0l0,0
	C87.9,49.1,87.7,48.9,87.7,48.6z M12.9,48.8c-0.3,0-0.5-0.3-0.5-0.5l0,0c0-0.3,0.3-0.5,0.5-0.5l0,0c0.3,0,0.5,0.3,0.5,0.5l0,0
	C13.4,48.6,13.2,48.8,12.9,48.8L12.9,48.8L12.9,48.8z M87.5,46.6c0-0.3,0.2-0.5,0.5-0.6l0,0c0.3,0,0.5,0.2,0.6,0.5l0,0l0,0l0,0
	c0,0.3-0.2,0.5-0.5,0.6l0,0c0,0,0,0-0.1,0l0,0C87.8,47,87.6,46.8,87.5,46.6z M13,46.7c-0.3,0-0.5-0.3-0.5-0.6l0,0l0,0l0,0
	c0-0.3,0.3-0.5,0.6-0.5l0,0c0.3,0,0.5,0.3,0.5,0.6l0,0C13.6,46.5,13.4,46.7,13,46.7L13,46.7C13.1,46.7,13.1,46.7,13,46.7z
	 M87.3,44.5c0-0.3,0.1-0.5,0.4-0.6l0,0c0.3,0,0.5,0.1,0.6,0.4l0,0c0,0.3-0.1,0.6-0.4,0.6l0,0h-0.1l0,0C87.5,45,87.3,44.8,87.3,44.5z
	 M13.3,44.7c-0.3,0-0.5-0.3-0.4-0.6l0,0l0,0l0,0c0-0.3,0.3-0.5,0.6-0.4l0,0c0.3,0,0.5,0.3,0.4,0.6l0,0
	C13.8,44.5,13.6,44.7,13.3,44.7L13.3,44.7C13.4,44.7,13.3,44.7,13.3,44.7z M86.9,42.5L86.9,42.5c-0.1-0.3,0.1-0.6,0.4-0.6l0,0
	c0.3-0.1,0.6,0.1,0.6,0.4l0,0l0,0l0,0c0.1,0.3-0.1,0.6-0.4,0.6l0,0h-0.1l0,0C87.2,42.9,86.9,42.8,86.9,42.5z M13.7,42.6
	c-0.3-0.1-0.5-0.3-0.4-0.6l0,0c0.1-0.3,0.3-0.5,0.6-0.4l0,0c0.3,0.1,0.5,0.3,0.4,0.6l0,0c-0.1,0.2-0.3,0.4-0.5,0.4l0,0
	C13.7,42.6,13.7,42.6,13.7,42.6z M86.4,40.5c-0.1-0.3,0.1-0.6,0.4-0.6l0,0c0.3-0.1,0.6,0.1,0.6,0.4l0,0c0.1,0.3-0.1,0.6-0.4,0.6l0,0
	h-0.1l0,0C86.7,40.9,86.5,40.8,86.4,40.5z M14.2,40.6c-0.3-0.1-0.4-0.4-0.4-0.6l0,0c0.1-0.3,0.4-0.4,0.6-0.4l0,0
	c0.3,0.1,0.4,0.4,0.4,0.6l0,0c-0.1,0.2-0.3,0.4-0.5,0.4l0,0C14.2,40.6,14.2,40.6,14.2,40.6z M85.8,38.6L85.8,38.6
	c-0.1-0.3,0.1-0.6,0.3-0.7l0,0c0.3-0.1,0.6,0.1,0.7,0.3l0,0c0.1,0.3-0.1,0.6-0.3,0.7l0,0c-0.1,0-0.1,0-0.2,0l0,0
	C86.1,38.9,85.9,38.8,85.8,38.6z M14.8,38.6c-0.3-0.1-0.4-0.4-0.3-0.7l0,0l0,0l0,0c0.1-0.3,0.4-0.4,0.7-0.3l0,0
	c0.3,0.1,0.4,0.4,0.3,0.7l0,0c-0.1,0.2-0.3,0.3-0.5,0.3l0,0C14.9,38.6,14.8,38.6,14.8,38.6z M85.1,36.6c-0.1-0.3,0-0.6,0.3-0.7l0,0
	c0.3-0.1,0.6,0,0.7,0.3l0,0c0.1,0.3,0,0.6-0.3,0.7l0,0c-0.1,0-0.1,0-0.2,0l0,0C85.4,37,85.2,36.9,85.1,36.6z M15.5,36.6
	c-0.3-0.1-0.4-0.4-0.3-0.7l0,0l0,0l0,0c0.1-0.3,0.4-0.4,0.7-0.3l0,0c0.3,0.1,0.4,0.4,0.3,0.7l0,0c-0.1,0.2-0.3,0.3-0.5,0.3l0,0
	C15.6,36.7,15.5,36.7,15.5,36.6z M84.3,34.8c-0.1-0.3,0-0.6,0.3-0.7l0,0c0.3-0.1,0.6,0,0.7,0.3l0,0c0.1,0.3,0,0.6-0.3,0.7l0,0
	c-0.1,0-0.1,0-0.2,0l0,0C84.6,35.1,84.4,35,84.3,34.8z M16.3,34.7C16,34.6,15.9,34.3,16,34l0,0c0.1-0.3,0.4-0.4,0.7-0.2l0,0
	c0.3,0.1,0.4,0.4,0.2,0.7l0,0c-0.1,0.2-0.3,0.3-0.5,0.3l0,0C16.4,34.8,16.4,34.7,16.3,34.7z M83.4,32.9c-0.1-0.3,0-0.6,0.2-0.7l0,0
	c0.3-0.1,0.6,0,0.7,0.2l0,0c0.1,0.3,0,0.6-0.2,0.7l0,0c-0.1,0-0.2,0.1-0.2,0.1l0,0C83.6,33.2,83.5,33.1,83.4,32.9z M17.2,32.8
	c-0.3-0.1-0.3-0.5-0.2-0.7l0,0c0.1-0.3,0.5-0.3,0.7-0.2l0,0c0.3,0.1,0.3,0.5,0.2,0.7l0,0c-0.1,0.2-0.3,0.3-0.5,0.3l0,0
	C17.4,32.9,17.3,32.9,17.2,32.8z M82.4,31.2L82.4,31.2c-0.1-0.3-0.1-0.6,0.2-0.7l0,0c0.3-0.1,0.6-0.1,0.7,0.2l0,0l0,0l0,0
	c0.1,0.2,0.1,0.6-0.2,0.7l0,0c-0.1,0.1-0.2,0.1-0.3,0.1l0,0C82.6,31.4,82.4,31.3,82.4,31.2z M18.2,31c-0.2-0.1-0.3-0.5-0.2-0.7l0,0
	c0.1-0.2,0.5-0.3,0.7-0.2l0,0c0.2,0.2,0.3,0.5,0.2,0.7l0,0C18.8,31,18.6,31,18.5,31l0,0C18.4,31.1,18.3,31.1,18.2,31z M81.2,29.4
	c-0.2-0.2-0.1-0.6,0.1-0.7l0,0c0.2-0.2,0.6-0.1,0.7,0.1l0,0c0.2,0.2,0.1,0.6-0.1,0.7l0,0c-0.1,0.1-0.2,0.1-0.3,0.1l0,0
	C81.5,29.7,81.3,29.6,81.2,29.4z M19.4,29.3c-0.2-0.2-0.3-0.5-0.1-0.7l0,0l0,0l0,0c0.2-0.2,0.5-0.3,0.7-0.1l0,0
	c0.2,0.2,0.3,0.5,0.1,0.7l0,0c-0.1,0.1-0.3,0.2-0.4,0.2l0,0C19.5,29.4,19.4,29.3,19.4,29.3z M80,27.8c-0.2-0.2-0.1-0.6,0.1-0.7l0,0
	c0.2-0.2,0.6-0.1,0.7,0.1l0,0c0.2,0.2,0.1,0.6-0.1,0.7l0,0C80.6,28,80.5,28,80.4,28l0,0C80.3,28,80.1,27.9,80,27.8z M20.6,27.6
	c-0.2-0.2-0.3-0.5-0.1-0.7l0,0c0.2-0.2,0.5-0.3,0.7-0.1l0,0c0.2,0.2,0.3,0.5,0.1,0.7l0,0c-0.1,0.1-0.3,0.2-0.4,0.2l0,0
	C20.8,27.7,20.7,27.7,20.6,27.6z M78.7,26.2c-0.2-0.2-0.2-0.5,0.1-0.7l0,0c0.2-0.2,0.5-0.2,0.7,0.1l0,0c0.2,0.2,0.2,0.5-0.1,0.7l0,0
	c-0.1,0.1-0.2,0.1-0.3,0.1l0,0C79,26.4,78.8,26.3,78.7,26.2z M21.9,26c-0.2-0.2-0.2-0.5,0-0.7l0,0c0.2-0.2,0.5-0.2,0.7,0l0,0
	c0.2,0.2,0.2,0.5,0,0.7l0,0c-0.1,0.1-0.2,0.2-0.4,0.2l0,0C22.1,26.1,22,26.1,21.9,26z M77.4,24.7c-0.2-0.2-0.2-0.5,0-0.7l0,0
	c0.2-0.2,0.5-0.2,0.7,0l0,0c0.2,0.2,0.2,0.5,0,0.7l0,0c-0.1,0.1-0.2,0.1-0.4,0.1l0,0C77.6,24.8,77.5,24.8,77.4,24.7z M23.3,24.4
	c-0.2-0.2-0.2-0.5,0-0.7l0,0c0.2-0.2,0.5-0.2,0.7,0l0,0c0.2,0.2,0.2,0.5,0,0.7l0,0c-0.1,0.1-0.2,0.2-0.4,0.2l0,0
	C23.5,24.6,23.4,24.5,23.3,24.4z M75.9,23.2c-0.2-0.2-0.2-0.5,0-0.7l0,0c0.2-0.2,0.5-0.2,0.7,0l0,0c0.2,0.2,0.2,0.5,0,0.7l0,0
	c-0.1,0.1-0.2,0.2-0.4,0.2l0,0C76.1,23.4,76,23.3,75.9,23.2z M24.7,23c-0.2-0.2-0.2-0.5,0-0.7l0,0c0.2-0.2,0.5-0.2,0.7,0l0,0
	c0.2,0.2,0.2,0.5,0,0.7l0,0c-0.1,0.1-0.2,0.1-0.4,0.1l0,0C25,23.1,24.9,23.1,24.7,23z M74.4,21.9L74.4,21.9
	c-0.2-0.2-0.3-0.5-0.1-0.7l0,0c0.2-0.2,0.5-0.3,0.7-0.1l0,0c0.2,0.2,0.3,0.5,0.1,0.7l0,0C75,21.9,74.8,22,74.7,22l0,0
	C74.6,22,74.4,22,74.4,21.9z M26.3,21.6c-0.2-0.2-0.1-0.5,0.1-0.7l0,0c0.2-0.2,0.5-0.2,0.7,0.1l0,0c0.2,0.2,0.1,0.6-0.1,0.7l0,0
	c-0.1,0.1-0.2,0.1-0.3,0.1l0,0C26.6,21.8,26.4,21.7,26.3,21.6z M72.7,20.6L72.7,20.6c-0.2-0.2-0.3-0.5-0.1-0.7l0,0
	c0.2-0.2,0.5-0.3,0.7-0.1l0,0c0.2,0.2,0.3,0.5,0.1,0.7l0,0c-0.1,0.1-0.3,0.2-0.4,0.2l0,0C72.9,20.7,72.8,20.7,72.7,20.6z M27.9,20.3
	c-0.2-0.2-0.1-0.6,0.1-0.7l0,0c0.2-0.2,0.6-0.1,0.7,0.1l0,0c0.2,0.2,0.1,0.6-0.1,0.7l0,0c-0.1,0.1-0.2,0.1-0.3,0.1l0,0
	C28.2,20.5,28,20.4,27.9,20.3z M71.1,19.4c-0.2-0.2-0.3-0.5-0.1-0.7l0,0c0.2-0.2,0.5-0.3,0.7-0.1l0,0c0.2,0.2,0.3,0.5,0.1,0.7l0,0
	c-0.1,0.1-0.3,0.2-0.4,0.2l0,0C71.2,19.5,71.1,19.5,71.1,19.4z M29.6,19.1c-0.2-0.2-0.1-0.6,0.2-0.7l0,0c0.2-0.2,0.6-0.1,0.7,0.2
	l0,0c0.2,0.2,0.1,0.6-0.2,0.7l0,0c-0.1,0.1-0.2,0.1-0.3,0.1l0,0C29.9,19.3,29.7,19.2,29.6,19.1z M69.3,18.3L69.3,18.3
	c-0.3-0.1-0.3-0.5-0.2-0.7l0,0c0.1-0.3,0.5-0.3,0.7-0.2l0,0c0.3,0.1,0.3,0.5,0.2,0.7l0,0c-0.1,0.2-0.3,0.3-0.4,0.3l0,0
	C69.5,18.4,69.4,18.4,69.3,18.3z M31.4,18c-0.1-0.3-0.1-0.6,0.2-0.7l0,0c0.2-0.1,0.6-0.1,0.7,0.2l0,0c0.1,0.3,0.1,0.6-0.2,0.7l0,0
	c-0.1,0-0.2,0.1-0.3,0.1l0,0C31.7,18.2,31.5,18.1,31.4,18z M67.5,17.4L67.5,17.4c-0.3-0.1-0.4-0.4-0.2-0.7l0,0
	c0.1-0.3,0.4-0.4,0.7-0.2l0,0l0,0l0,0c0.3,0.1,0.4,0.4,0.2,0.7l0,0c-0.1,0.2-0.3,0.3-0.5,0.3l0,0C67.7,17.4,67.6,17.4,67.5,17.4z
	 M33.2,17c-0.1-0.3,0-0.6,0.2-0.7l0,0c0.3-0.1,0.6,0,0.7,0.2l0,0c0.1,0.3,0,0.6-0.2,0.7l0,0c-0.1,0-0.1,0.1-0.2,0.1l0,0
	C33.5,17.3,33.3,17.2,33.2,17z M65.7,16.5c-0.3-0.1-0.4-0.4-0.3-0.7l0,0c0.1-0.3,0.4-0.4,0.7-0.3l0,0l0,0l0,0
	c0.3,0.1,0.4,0.4,0.3,0.7l0,0c-0.1,0.2-0.3,0.3-0.5,0.3l0,0C65.8,16.5,65.7,16.5,65.7,16.5z M35.1,16.1c-0.1-0.3,0-0.6,0.3-0.7l0,0
	c0.3-0.1,0.6,0,0.7,0.3l0,0c0.1,0.3,0,0.6-0.3,0.7l0,0c-0.1,0-0.1,0-0.2,0l0,0C35.3,16.4,35.2,16.3,35.1,16.1z M63.8,15.7L63.8,15.7
	c-0.3-0.1-0.4-0.4-0.3-0.7l0,0c0.1-0.3,0.4-0.4,0.7-0.3l0,0l0,0l0,0c0.3,0.1,0.4,0.4,0.3,0.7l0,0c-0.1,0.2-0.3,0.3-0.5,0.3l0,0
	C63.9,15.7,63.8,15.7,63.8,15.7z M37,15.3c-0.1-0.3,0-0.6,0.3-0.7l0,0c0.3-0.1,0.6,0,0.7,0.3l0,0c0.1,0.3,0,0.6-0.3,0.7l0,0
	c-0.1,0-0.1,0-0.2,0l0,0C37.3,15.6,37.1,15.5,37,15.3z M61.8,15L61.8,15c-0.3-0.1-0.4-0.4-0.3-0.7l0,0c0.1-0.3,0.4-0.4,0.7-0.3l0,0
	l0,0l0,0c0.3,0.1,0.4,0.4,0.3,0.7l0,0C62.4,14.9,62.2,15,62,15l0,0C61.9,15,61.9,15,61.8,15z M38.9,14.6C38.8,14.3,39,14,39.2,14
	l0,0l0,0l0,0c0.3-0.1,0.6,0.1,0.7,0.3l0,0c0.1,0.3-0.1,0.6-0.3,0.7l0,0c-0.1,0-0.1,0-0.2,0l0,0C39.2,14.9,39,14.8,38.9,14.6z
	 M59.9,14.4c-0.3-0.1-0.4-0.4-0.4-0.6l0,0c0.1-0.3,0.4-0.4,0.6-0.4l0,0c0.3,0.1,0.4,0.4,0.4,0.6l0,0C60.4,14.2,60.2,14.4,59.9,14.4
	L59.9,14.4C59.9,14.5,59.9,14.4,59.9,14.4z M40.9,14c-0.1-0.3,0.1-0.6,0.4-0.6l0,0l0,0l0,0c0.3-0.1,0.6,0.1,0.6,0.4l0,0
	c0.1,0.3-0.1,0.6-0.4,0.6l0,0h-0.1l0,0C41.2,14.4,41,14.2,40.9,14z M57.9,14c-0.3-0.1-0.5-0.3-0.4-0.6l0,0c0.1-0.3,0.3-0.5,0.6-0.4
	l0,0c0.3,0.1,0.5,0.3,0.4,0.6l0,0C58.5,13.8,58.2,14,57.9,14L57.9,14C57.9,14,57.9,14,57.9,14z M43,13.5c-0.1-0.3,0.1-0.6,0.4-0.6
	l0,0c0.3-0.1,0.6,0.1,0.6,0.4l0,0c0.1,0.3-0.1,0.6-0.4,0.6l0,0h-0.1l0,0C43.2,13.9,43,13.8,43,13.5z M55.8,13.6
	c-0.3,0-0.5-0.3-0.4-0.6l0,0c0-0.3,0.3-0.5,0.6-0.4l0,0c0.3,0,0.5,0.3,0.4,0.6l0,0C56.4,13.5,56.2,13.6,55.8,13.6L55.8,13.6
	C55.9,13.6,55.9,13.6,55.8,13.6z M45,13.2c0-0.3,0.2-0.5,0.4-0.6l0,0c0.3,0,0.5,0.2,0.6,0.4l0,0c0,0.3-0.2,0.5-0.4,0.6l0,0
	c0,0,0,0-0.1,0l0,0C45.3,13.6,45.1,13.4,45,13.2z M53.8,13.4c-0.3,0-0.5-0.3-0.5-0.6l0,0c0-0.3,0.3-0.5,0.6-0.5l0,0l0,0l0,0
	c0.3,0,0.5,0.3,0.5,0.6l0,0C54.3,13.2,54.1,13.4,53.8,13.4L53.8,13.4L53.8,13.4z M47.1,12.9c0-0.3,0.2-0.5,0.5-0.6l0,0
	c0.3,0,0.5,0.2,0.6,0.5l0,0c0,0.3-0.2,0.5-0.5,0.6l0,0l0,0l0,0C47.3,13.4,47.1,13.2,47.1,12.9z M51.7,13.3L51.7,13.3
	c-0.3,0-0.5-0.3-0.5-0.5l0,0c0-0.3,0.2-0.5,0.5-0.5l0,0l0,0l0,0c0.3,0,0.5,0.3,0.5,0.5l0,0C52.3,13.1,52,13.3,51.7,13.3L51.7,13.3
	C51.8,13.3,51.7,13.3,51.7,13.3z M49.2,12.8c0-0.3,0.2-0.5,0.5-0.5l0,0c0.3,0,0.5,0.2,0.5,0.5l0,0c0,0.3-0.2,0.5-0.5,0.5l0,0l0,0
	l0,0C49.4,13.3,49.2,13.1,49.2,12.8z"/>
<g>
	<path class="st0" d="M23.3,65.2c1.6-1.1,3.4-0.6,4.4,0.9c0.7,1,0.6,2,0.3,2.8l-1.1-0.5c0.2-0.5,0.2-1.1-0.2-1.6
		c-0.6-0.9-1.7-1.1-2.7-0.4c-0.9,0.6-1.2,1.8-0.6,2.7c0.3,0.4,0.8,0.7,1.1,0.8l0.6-0.4L24.3,68l0.9-0.6l1.6,2.4L24.9,71
		c-0.9-0.1-1.8-0.6-2.4-1.5C21.6,68.1,21.8,66.2,23.3,65.2z"/>
	<path class="st0" d="M27.9,72.3l2.3-2.7l1,0.8l-2.3,2.7c-0.5,0.6-0.6,1.4,0.1,2s1.4,0.5,2-0.2l2.3-2.7l1,0.8L32,75.8
		c-1,1.1-2.3,1.3-3.7,0.1C27,74.7,27,73.4,27.9,72.3z"/>
	<path class="st0" d="M36.8,81.2l0.1-1.1L34.6,79l-0.8,0.7L32.5,79l4.8-4.3l1.4,0.7l-0.6,6.4L36.8,81.2z M37.4,76.3l-2,1.9l1.7,0.8
		L37.4,76.3z"/>
	<path class="st0" d="M44.1,83.5l-0.7-2.3L42.5,81l-0.4,2l-1.2-0.3l1.3-5.8l2.7,0.6c1.2,0.3,1.8,1.2,1.5,2.3c-0.2,1-1,1.4-1.7,1.4
		l0.8,2.5L44.1,83.5z M45.1,79.5c0.1-0.5-0.2-0.9-0.7-1l-1.3-0.3l-0.4,1.6l1.3,0.3C44.6,80.2,45,80,45.1,79.5z"/>
	<path class="st0" d="M52.9,84l-0.4-1h-2.6l-0.4,1H48l2.2-6h1.6l2.4,5.9L52.9,84z M51.1,79.3l-0.9,2.6h1.9L51.1,79.3z"/>
	<path class="st0" d="M61.1,82.4l-3.8-3l1.1,3.8l-1.2,0.3l-1.6-5.8l1.3-0.4l3.7,2.9l-1-3.6l1.2-0.3l1.6,5.8L61.1,82.4z"/>
	<path class="st0" d="M66.7,80l-2.4-4.2l-1.5,0.9l-0.6-1l4.2-2.4l0.6,1l-1.5,0.9l2.4,4.2L66.7,80z"/>
	<path class="st0" d="M71.7,76.7l-4-4.4l3.1-2.8l0.8,0.8l-2.2,2l0.8,0.9l2.2-1.9l0.8,0.8L71,74l0.9,1l2.2-2l0.8,0.8L71.7,76.7z"/>
	<path class="st0" d="M77,71.5L72.1,68l2.5-3.4l0.9,0.7l-1.7,2.4l1,0.7l1.7-2.4l0.9,0.7L75.7,69l1.1,0.8l1.7-2.4l0.9,0.7L77,71.5z"
		/>
</g>
<g>
	<path class="st0" d="M25.4,41.8l-5.6,2l4.6,1.3l-0.2,0.7l-5.7-1.7l0.2-0.7l5.4-2l-4.5-1.3l0.2-0.7l5.7,1.7L25.4,41.8z"/>
	<path class="st0" d="M23.9,37.6c-1.5-0.9-2-2.7-1-4.2c0.9-1.5,2.7-1.8,4.2-0.8c1.5,0.9,2,2.7,1,4.2C27.1,38.2,25.4,38.5,23.9,37.6z
		 M26.7,33.2c-1.2-0.8-2.5-0.6-3.2,0.6c-0.7,1.1-0.3,2.4,0.9,3.2c1.2,0.7,2.5,0.6,3.2-0.6C28.2,35.2,27.8,34,26.7,33.2z"/>
	<path class="st0" d="M37.1,27.8l-5.6-2l2.7,4l-0.6,0.4l-3.4-5l0.6-0.4l5.5,1.9l-2.6-3.9l0.6-0.4l3.4,5L37.1,27.8z"/>
	<path class="st0" d="M39.9,26.4l-2.3-5.5l0.7-0.3l2.3,5.5L39.9,26.4z"/>
	<path class="st0" d="M42.1,22.4c-0.4-1.8,0.7-3.3,2.4-3.6c1-0.2,1.9,0.1,2.5,0.6l-0.5,0.5c-0.5-0.4-1.2-0.6-1.9-0.5
		c-1.3,0.3-2.1,1.4-1.8,2.8s1.5,2.2,2.7,1.9c0.7-0.1,1.2-0.6,1.4-0.9L46.8,22l-2,0.4l-0.1-0.7l2.7-0.5l0.4,2.1
		c-0.4,0.7-1.1,1.3-2.1,1.5C44,25.1,42.4,24.2,42.1,22.4z"/>
	<path class="st0" d="M54.4,24.5l0.2-2.7l-3.5-0.3l-0.2,2.7l-0.7-0.1l0.5-6l0.7,0.1l-0.2,2.6l3.5,0.3l0.2-2.6l0.7,0.1l-0.5,6
		L54.4,24.5z"/>
	<path class="st0" d="M58.9,25.6l1.7-5L58.8,20l0.2-0.6l4.3,1.5l-0.2,0.6l-1.8-0.6l-1.7,5L58.9,25.6z"/>
	<path class="st0" d="M67.4,30.1l2.8-4.1l-4.5,2.9l-0.3-0.2l1.1-5.2l-2.8,4.1l-0.6-0.4l3.4-5l0.9,0.6l-1,4.8l4.1-2.7l0.9,0.6l-3.4,5
		L67.4,30.1z"/>
	<path class="st0" d="M72.4,35.4l0.7-1.3l-1.9-2.3l-1.4,0.4l-0.5-0.7l6.1-2l0.6,0.7l-3,5.9L72.4,35.4z M75.1,30.6l-3.3,1.1l1.6,2
		L75.1,30.6z"/>
	<path class="st0" d="M75.3,40.8l1.5-2.4l-0.5-1.1l-2.1,1l-0.3-0.7l5.4-2.6l1,2.2c0.5,1,0.2,2-0.8,2.5s-1.8,0.1-2.2-0.7l-1.5,2.5
		L75.3,40.8z M79.1,39c0.6-0.3,0.8-0.9,0.5-1.6L79,36l-2.1,1l0.7,1.4C77.9,39.1,78.5,39.3,79.1,39z"/>
	<path class="st0" d="M76.3,43.6l5.9-1.2l0.8,3.8l-0.6,0.1l-0.7-3.1l-1.9,0.4l0.6,3l-0.6,0.1l-0.6-3l-2,0.4l0.7,3.1l-0.6,0.1
		L76.3,43.6z"/>
</g>
<path class="st0" d="M50.6,73.6c-12.7,0-23-10.3-23-23s10.3-23,23-23s23,10.3,23,23S63.2,73.6,50.6,73.6z M50.6,28.6
	c-12.1,0-22,9.9-22,22s9.9,22,22,22s22-9.9,22-22S62.7,28.6,50.6,28.6z"/>
<g>
	<path class="st0" d="M45.9,38.8c0.4,0,0.6,0.2,0.4,0.6l-4.2,10.5c-0.2,0.5-0.4,0.6-1,0.6h-0.3c-0.4,0-0.6-0.2-0.4-0.6l2.9-7.1
		c0.1-0.2,0-0.3-0.1-0.1c-0.8,0.9-1.7,1.8-2.6,2.7c-0.2,0.2-0.5,0.2-0.7,0c-0.2-0.3-0.2-0.5,0-0.7c2.4-2.3,4-4.4,4.7-5.4
		c0.3-0.4,0.5-0.5,1-0.5H45.9z"/>
	<path class="st0" d="M51.5,38.6c1.6,0,2.6,0.9,2.6,2.2c0,1.1-0.7,2.7-2.1,3.4c-0.3,0.2-0.3,0.3-0.1,0.6c0.3,0.3,0.5,0.8,0.5,1.6
		c0,1.8-1.4,4.4-4.4,4.4c-1.2,0-2.9-0.4-2.9-2.5c0-1.5,0.9-3.4,2.7-4.1c0.3-0.1,0.4-0.2,0.2-0.5c-0.2-0.2-0.3-0.7-0.3-1.2
		C47.7,40.8,49,38.6,51.5,38.6z M48.1,49.5c1.7,0,2.6-2,2.6-3.2c0-0.8-0.5-1.2-1.2-1.2c-1.7,0-2.6,2.1-2.6,3.2
		C46.9,49.2,47.5,49.5,48.1,49.5z M50.4,43.5c1.3,0,2-1.7,2-2.6c0-0.6-0.3-1-0.9-1c-1.3,0-2,1.7-2,2.6
		C49.4,43.2,49.9,43.5,50.4,43.5z"/>
	<path class="st0" d="M59.7,38.6c1.1,0,2.2,0.7,2.2,2.7c0,3.1-2.6,9.5-6,9.5c-1.1,0-2.2-0.7-2.2-2.7C53.6,44.9,56.3,38.6,59.7,38.6z
		 M56,49.5c1.7,0,4.3-6.4,4.3-8.5c0-0.7-0.3-1.1-0.7-1.1c-1.7,0-4.4,6.4-4.4,8.5C55.2,49.3,55.7,49.5,56,49.5z"/>
</g>
<g>
	<path class="st0" d="M45.2,56.6c0.2-0.3,0.6,0,0.4,0.3c-0.8,1.5-1.8,2.6-2.8,2.6c-0.9,0-1.3-0.6-0.6-2.5l0.4-1
		c0.2-0.5,0.4-0.9,0.4-1.1c0-0.1-0.1-0.2-0.3-0.2s-0.6,0.2-1,0.5c-0.1,0.1-0.3,0.3-0.3,0.5L40.1,59c-0.1,0.3-0.3,0.4-0.6,0.4h-0.2
		c-0.3,0-0.4-0.1-0.3-0.4l1.8-4.6c0.1-0.3,0.3-0.3,0.5-0.2l0.2,0.1c0.2,0.1,0.4,0.1,0.6,0c0.4-0.3,0.8-0.5,1.2-0.5s0.8,0.3,0.8,0.8
		c0,0.3-0.1,0.7-0.3,1.3l-0.6,1.6c-0.5,1.2-0.2,1.3,0,1.3C43.7,58.8,44.5,57.8,45.2,56.6z"/>
	<path class="st0" d="M48,56.6c0.2-0.3,0.6,0,0.4,0.3c-0.8,1.5-1.8,2.6-2.8,2.6c-0.8,0-1.4-0.6-0.6-2.5l1.1-2.7
		c0.1-0.3,0.3-0.4,0.6-0.4h0.2c0.3,0,0.4,0.1,0.3,0.4l-1.3,3.1c-0.5,1.1-0.3,1.3,0,1.3C46.4,58.8,47.3,57.8,48,56.6z M47.3,53.3
		c-0.4,0-0.6-0.3-0.6-0.6c0-0.4,0.3-0.6,0.6-0.6c0.4,0,0.6,0.3,0.6,0.6C48,53,47.7,53.3,47.3,53.3z"/>
	<path class="st0" d="M53.3,56.6c0.2-0.3,0.6,0,0.4,0.3c-1,1.7-2.1,2.4-3.1,2.8c-0.2,0.1-0.3,0.2-0.4,0.5c-0.4,1-1,2.3-2.2,2.3
		c-0.7,0-1.1-0.4-1.1-1c0.1-1,1.3-1.4,2.1-1.7c0.2-0.1,0.3-0.2,0.4-0.4l0.1-0.2c0-0.1,0-0.1-0.1-0.1c-0.2,0.2-0.5,0.5-0.9,0.5
		c-0.6,0-1-0.5-1-1.2c0-1.2,1-4.5,2.7-4.5c0.4,0,0.8,0.2,1,0.5c0.1,0.2,0.2,0.3,0.5,0.1l0.7-0.3c0.2-0.1,0.3,0,0.2,0.2l-1.8,4.4
		c-0.1,0.2,0,0.2,0.2,0.1C51.9,58.4,52.6,57.7,53.3,56.6z M47.7,61.4c0,0.2,0.1,0.3,0.3,0.3c0.3,0,0.6-0.3,1-1
		c0.1-0.2,0-0.3-0.2-0.2C48.3,60.7,47.7,61,47.7,61.4z M49,58.6c0.4,0,0.8-0.4,1-0.7c0.1-0.1,0.2-0.3,0.3-0.5l0.7-1.7
		c0.1-0.1,0.1-0.4,0-0.5c-0.1-0.2-0.2-0.4-0.5-0.4c-1,0-1.9,2.6-1.9,3.4C48.6,58.5,48.7,58.6,49,58.6z"/>
	<path class="st0" d="M58.5,56.6c0.2-0.3,0.6,0,0.4,0.3c-0.8,1.5-1.8,2.6-2.8,2.6c-0.8,0-1.4-0.6-0.6-2.5l0.4-1
		c0.2-0.5,0.4-0.9,0.4-1.1c0-0.1-0.1-0.2-0.3-0.2s-0.6,0.2-1,0.5c-0.1,0.1-0.3,0.3-0.3,0.5L53.4,59c-0.1,0.3-0.3,0.4-0.6,0.4h-0.2
		c-0.3,0-0.4-0.1-0.3-0.4l2.7-6.7c0.1-0.3,0.3-0.4,0.6-0.4h0.2c0.3,0,0.4,0.1,0.3,0.4l-0.8,1.9c-0.1,0.1,0,0.2,0.1,0.1
		c0.3-0.2,0.7-0.5,1.2-0.5s0.9,0.3,0.9,0.8c0,0.3-0.1,0.7-0.3,1.3l-0.6,1.6c-0.5,1.2-0.2,1.3,0,1.3C57,58.8,57.8,57.8,58.5,56.6z"/>
	<path class="st0" d="M61.5,56.6c0.2-0.3,0.6,0,0.4,0.3c-0.8,1.4-1.8,2.6-3,2.6c-0.9,0-1.4-0.6-0.6-2.5l1.1-2.8
		c0.1-0.2,0-0.3-0.2-0.3h-0.3c-0.2,0-0.3-0.1-0.2-0.3s0.2-0.3,0.4-0.3h0.3c0.2,0,0.4-0.1,0.5-0.3l0.3-0.8c0.1-0.3,0.3-0.4,0.6-0.4
		H61c0.3,0,0.4,0.1,0.3,0.4L61,53.1c-0.1,0.2,0,0.3,0.2,0.3h0.3c0.2,0,0.3,0.1,0.2,0.3S61.5,54,61.3,54H61c-0.2,0-0.4,0.1-0.5,0.3
		l-1.3,3.2c-0.5,1.2-0.2,1.3,0,1.3C59.9,58.8,60.8,57.8,61.5,56.6z"/>
</g>
<path id="XMLID_70_" class="st0" d="M23,56.5c-1.4,0-2.5-1.1-2.5-2.5c0-0.3,0.1-0.6,0.1-0.9c-1,0.4-1.7,1.3-1.7,2.4
	c0,1.4,1.1,2.5,2.5,2.5c1.1,0,2-0.7,2.4-1.7C23.6,56.4,23.3,56.5,23,56.5z"/>
<polygon id="XMLID_69_" class="st0" points="81.8,56.7 81.8,56.7 81.8,56.7 81.8,56.7 81.8,56.7 82.8,57.5 81.4,57.7 81.4,57.7 
	81.4,57.7 81.4,57.7 81.4,57.7 81.7,59 80.6,58.3 80.6,58.3 80.6,58.3 80.6,58.3 80.6,58.3 80,59.6 79.5,58.3 79.5,58.3 79.5,58.3 
	79.5,58.3 79.5,58.3 78.3,59 78.6,57.7 78.6,57.7 78.6,57.7 78.6,57.7 78.6,57.7 77.3,57.5 78.3,56.7 78.3,56.7 78.3,56.7 
	78.3,56.7 78.3,56.7 78.3,56.7 78.3,56.7 78.3,56.7 78.3,56.7 77.3,55.8 78.6,55.6 78.6,55.6 78.6,55.6 78.6,55.6 78.6,55.6 
	78.3,54.3 79.5,55 79.5,55 79.5,55 79.5,55 79.5,55 80,53.8 80.6,55 80.6,55 80.6,55 80.6,55 80.6,55 81.7,54.3 81.4,55.6 
	81.4,55.6 81.4,55.6 81.4,55.6 81.4,55.6 82.8,55.8 81.8,56.7 81.8,56.7 81.8,56.7 "/>
</svg>
