<?xml version="1.0" encoding="utf-8"?>
<!-- Generator: Adobe Illustrator 19.1.0, SVG Export Plug-In . SVG Version: 6.00 Build 0)  -->
<!DOCTYPE svg PUBLIC "-//W3C//DTD SVG 1.1//EN" "http://www.w3.org/Graphics/SVG/1.1/DTD/svg11.dtd">
<svg version="1.1" id="Layer_1" xmlns="http://www.w3.org/2000/svg" xmlns:xlink="http://www.w3.org/1999/xlink" x="0px" y="0px"
	 viewBox="0 0 238 238" style="enable-background:new 0 0 238 238;" xml:space="preserve">
<style type="text/css">
	.st0{fill:#808284;}
</style>
<g>
	<circle id="XMLID_45_" class="st0" cx="32.1" cy="86.4" r="3.2"/>
	<g>
		<g id="XMLID_73_">
			<g>
				<path class="st0" d="M93.4,109.1c0.5-0.9,1.9,0,1.4,1c-1.5,2.6-3.3,4.7-7.1,5.1c-0.8,0.1-1.2,0.2-1.7,0.8
					c-1.3,1.3-3,2.2-4.9,2.2c-4.1,0-5.4-3.7-2.4-11.1l4.5-11.2c0.4-0.9,0.9-1.3,1.9-1.3h0.7c0.9,0,1.2,0.5,0.8,1.3l-2.2,5.5
					c-0.2,0.4,0,0.6,0.4,0.3c0.7-0.5,1.7-1.1,2.9-1.1c2.1,0,3.2,1.4,3.2,3.6c0,1.6-0.5,4.8-2.4,8.3c-0.3,0.5,0,0.8,0.5,0.7
					C91.2,112.7,92.4,110.8,93.4,109.1z M81.3,115.9c0.5,0,1-0.2,1.5-0.6c0.6-0.5,0.6-0.9,0-1.4c-0.7-0.5-1.3-1.2-1.7-2
					c-0.2-0.5-0.5-0.5-0.6,0.1C79.9,113.9,79.8,115.9,81.3,115.9z M86,103.5c-1.2,0-4,1.6-4,5.2c0,1.7,0.7,2.9,1.6,3.7
					c0.5,0.4,1.2,0.3,1.5-0.3c1.4-2.6,2.3-5.8,2.3-7.1C87.5,104,87.1,103.5,86,103.5z"/>
				<path class="st0" d="M107.3,109.1c0.5-0.9,1.9,0,1.4,1c-2.2,3.9-5.9,8.1-11,8.1c-3.3,0-5-1.7-5-4.9c0-4.6,3.8-12.7,9.2-12.7
					c3.2,0,4.8,2.8,2.9,6.6c-1.5,3.3-4,4.2-7.6,4c-0.7,0-1.1,0.3-1.2,0.9c-0.3,1.4-0.4,3.9,2.5,3.9
					C101.5,116,104.8,113.2,107.3,109.1z M101.6,103.4c-2.1,0-3.8,3.4-4.5,5c-0.3,0.6,0,1,0.7,1c2.4,0.1,3.4-1.5,4.1-3
					C102.8,104.3,102.7,103.4,101.6,103.4z"/>
				<path class="st0" d="M108.7,110.1c-0.5,0.9-2,0-1.4-1c1.3-2.1,3-5.4,4.2-8c0.4-0.9,1-1.1,1.8-0.7l0.2,0.1c0.9,0.4,1.2,0.9,1,1.9
					c-0.7,4.2-0.2,8.6-0.1,10.3c0,0.6,0,1.1-0.1,1.6c-0.1,0.5,0.2,0.7,0.6,0.4c1.5-1.2,3-3.5,4.2-5.6c0.5-0.9,1.9,0,1.4,1
					c-2.4,4.1-5,8.1-10.2,8.1c-1.9,0-3.1-0.7-3.8-1.4c-0.5-0.4-0.4-1,0.1-1.3c1.2-0.7,1.6,0.3,2.8,0.3c1.3,0,1.9-0.8,1.9-3.9
					c0-1.5-0.1-3.5-0.1-5.5c0-0.5-0.3-0.5-0.5-0.1C110,107.6,109.3,108.9,108.7,110.1z"/>
				<path class="st0" d="M128.1,109.1c0.5-0.9,1.9,0,1.4,1c-2.5,4.3-5.6,8.1-9.1,8.1c-2.7,0-4.3-1.8-2-7.6l3.5-8.6
					c0.3-0.6,0-1-0.6-1h-1c-0.6,0-0.8-0.3-0.5-0.9c0.3-0.6,0.6-0.8,1.3-0.8h1c0.7,0,1.1-0.3,1.4-1l1-2.4c0.4-0.9,0.9-1.3,1.9-1.3
					h0.7c0.9,0,1.2,0.5,0.8,1.3l-1,2.4c-0.3,0.6,0,1,0.6,1h0.9c0.6,0,0.8,0.3,0.5,0.9c-0.3,0.6-0.6,0.8-1.3,0.8h-0.9
					c-0.7,0-1.1,0.3-1.4,1l-4,9.9c-1.5,3.7-0.7,4.1,0,4.1C123.2,116,125.9,113,128.1,109.1z"/>
				<path class="st0" d="M144.7,109.1c0.5-0.9,1.9,0,1.4,1c-2.6,4.5-5.5,8.1-8.7,8.1c-2.6,0-4.2-1.8-1.9-7.6l3.4-8.3
					c0.4-0.9,0.9-1.3,1.9-1.3h0.7c0.9,0,1.2,0.5,0.8,1.3l-3.9,9.6c-1.4,3.5-0.8,4.1-0.1,4.1C140,116,142.5,112.8,144.7,109.1z
					 M142.7,99.1c-1.1,0-2-0.9-2-2s0.9-2,2-2c1.1,0,2,0.9,2,2S143.8,99.1,142.7,99.1z"/>
				<path class="st0" d="M160.9,109.1c0.5-0.9,1.9,0,1.4,1c-2.6,4.5-5.5,8.1-8.7,8.1c-2.7,0-4.2-1.9-1.9-7.6l1.3-3.2
					c0.6-1.6,1.1-2.8,1.1-3.3c0-0.5-0.4-0.7-0.9-0.7c-0.7,0-1.9,0.5-3.1,1.6c-0.4,0.4-0.8,1-1,1.5l-4,10c-0.4,0.9-0.9,1.3-1.9,1.3
					h-0.7c-0.9,0-1.2-0.5-0.8-1.3l5.7-14.2c0.4-0.8,0.9-1,1.7-0.5l0.6,0.4c0.7,0.4,1.1,0.4,1.7-0.1c1.4-1,2.6-1.4,3.7-1.4
					c1.4,0,2.5,0.8,2.5,2.5c0,1-0.4,2.3-1.1,4l-2,4.8c-1.5,3.8-0.6,4.1-0.1,4.1C156.1,116,158.7,112.8,160.9,109.1z"/>
			</g>
			<g>
				<path class="st0" d="M110.6,139.4c0.5-0.9,1.9,0,1.4,1c-1.5,2.6-3.3,4.7-7.1,5.1c-0.8,0.1-1.2,0.2-1.7,0.8
					c-1.3,1.3-3,2.2-4.9,2.2c-4.1,0-5.4-3.7-2.4-11.1l4.5-11.2c0.4-0.9,0.9-1.3,1.9-1.3h0.7c0.9,0,1.2,0.5,0.8,1.3l-2.2,5.5
					c-0.2,0.4,0,0.6,0.4,0.3c0.7-0.5,1.7-1.1,2.9-1.1c2.1,0,3.2,1.4,3.2,3.6c0,1.6-0.5,4.8-2.4,8.3c-0.3,0.5,0,0.8,0.5,0.7
					C108.3,143,109.6,141.1,110.6,139.4z M98.4,146.2c0.5,0,1-0.2,1.5-0.6c0.6-0.5,0.6-0.9,0-1.4c-0.7-0.5-1.3-1.2-1.7-2
					c-0.2-0.5-0.5-0.5-0.6,0.1C97,144.2,96.9,146.2,98.4,146.2z M103.2,133.8c-1.2,0-4,1.6-4,5.2c0,1.7,0.7,2.9,1.6,3.7
					c0.5,0.4,1.2,0.3,1.5-0.3c1.4-2.6,2.3-5.8,2.3-7.1C104.6,134.3,104.2,133.8,103.2,133.8z"/>
				<path class="st0" d="M126.4,139.4c0.5-0.9,1.9,0,1.4,1c-1.7,3.1-4.2,5-7.1,4.8c-0.8-0.1-1,0-1.6,0.6c-1.4,1.6-3.1,2.7-5.2,2.7
					c-2.4,0-4.2-1.5-4.2-4.6c0-4.2,3.3-13,9.2-13c2.4,0,4.2,1.5,4.2,4.5c0,1.8-0.6,4.5-1.7,6.9c-0.3,0.5,0,0.9,0.6,0.8
					C123.4,143,125,141.8,126.4,139.4z M114.1,146.2c0.6,0,1.3-0.4,1.9-1c0.8-0.9,0.9-1.2,0.6-2.4c0-0.2-0.1-0.3-0.1-0.5
					c0-0.9,0.6-1.7,1.5-1.9c0.7-0.2,0.9-0.3,1.1-1c0.6-1.6,0.9-3.2,0.9-4.2c0-1.4-0.6-1.9-1.3-1.9c-2.8,0-6.1,8-6.1,11
					C112.7,145.5,113.3,146.2,114.1,146.2z"/>
				<path class="st0" d="M127.8,140.4c-0.5,0.9-1.9,0-1.4-1c2.7-4.6,4.3-8.5,7.5-8.5c2.4,0,2.9,2.1,2.7,4.4
					c-0.1,0.5,0.2,0.6,0.5,0.3l4-4.2c0.5-0.5,0.9-0.5,1.5,0c0.5,0.5,0.5,0.9,0,1.4l-6,6.2c-0.5,0.5-0.8,1.1-0.9,1.8
					c-0.3,1.6-0.5,3.1-0.5,4c0,0.6,0.1,1.5,0.9,1.5c1.5,0,4.7-3.1,7-6.9c0.5-0.9,1.9,0,1.4,1c-2.4,4.2-5.8,8.1-9.3,8.1
					c-2.3,0-3.2-1.6-3.2-3.7c0-0.5-0.3-0.7-0.7-0.3l-2.5,2.6c-0.7,0.7-1.3,1-2.3,1h-0.1c-0.8,0-0.9-0.4-0.4-1l5.8-6
					c0.5-0.5,0.7-1,0.9-1.8c0.3-2,0.6-3.9,0.6-5.1c0-0.5-0.1-0.8-0.4-0.8C131.6,133.4,129.5,137.4,127.8,140.4z"/>
			</g>
		</g>
		<circle id="XMLID_46_" class="st0" cx="204.5" cy="86.4" r="3.2"/>
		<path class="st0" d="M120.4,235.2c0-0.9,0.7-1.6,1.6-1.6l0,0c0.9,0,1.6,0.7,1.6,1.6l0,0c0,0.9-0.7,1.6-1.6,1.6l0,0c0,0,0,0,0,0
			l0,0C121.2,236.7,120.5,236,120.4,235.2z M114,235.1c0-0.9,0.8-1.6,1.6-1.6l0,0c0.9,0,1.6,0.8,1.6,1.6l0,0c0,0.9-0.8,1.6-1.6,1.6
			l0,0l0,0l0,0C114.7,236.7,114,236,114,235.1z M126.9,234.9c-0.1-0.9,0.6-1.7,1.5-1.7l0,0c0.9-0.1,1.7,0.6,1.7,1.5l0,0
			c0.1,0.9-0.6,1.7-1.5,1.7l0,0c0,0-0.1,0-0.1,0l0,0C127.6,236.4,126.9,235.8,126.9,234.9z M109.1,236.4c-0.9-0.1-1.5-0.9-1.5-1.7
			l0,0c0.1-0.9,0.9-1.5,1.7-1.5l0,0c0.9,0.1,1.5,0.9,1.5,1.7l0,0c-0.1,0.8-0.8,1.5-1.6,1.5l0,0C109.2,236.4,109.1,236.4,109.1,236.4
			z M133.2,234.3c-0.1-0.9,0.5-1.7,1.4-1.8l0,0c0.9-0.1,1.7,0.5,1.8,1.4l0,0c0.1,0.9-0.5,1.7-1.4,1.8l0,0c-0.1,0-0.1,0-0.2,0l0,0
			C134,235.7,133.3,235.1,133.2,234.3z M102.6,235.6L102.6,235.6L102.6,235.6c-0.9-0.1-1.5-0.9-1.4-1.8l0,0c0.1-0.9,0.9-1.5,1.8-1.4
			l0,0c0.9,0.1,1.5,0.9,1.4,1.8l0,0c-0.1,0.8-0.8,1.4-1.6,1.4l0,0C102.8,235.7,102.7,235.7,102.6,235.6z M139.6,233.4
			c-0.2-0.9,0.4-1.7,1.3-1.9l0,0c0.9-0.2,1.7,0.4,1.9,1.3l0,0c0.2,0.9-0.4,1.7-1.3,1.9l0,0c-0.1,0-0.2,0-0.3,0l0,0
			C140.4,234.7,139.7,234.1,139.6,233.4z M96.2,234.6C96.2,234.6,96.2,234.6,96.2,234.6L96.2,234.6c-0.9-0.2-1.4-1-1.3-1.9l0,0
			c0.2-0.9,1-1.4,1.9-1.3l0,0c0.9,0.2,1.4,1,1.3,1.9l0,0c-0.1,0.8-0.8,1.3-1.6,1.3l0,0C96.4,234.6,96.3,234.6,96.2,234.6z
			 M145.8,232.1c-0.2-0.9,0.3-1.7,1.2-1.9l0,0c0.9-0.2,1.7,0.3,1.9,1.2l0,0c0.2,0.9-0.3,1.7-1.2,1.9l0,0c-0.1,0-0.2,0-0.4,0l0,0
			C146.7,233.3,146,232.8,145.8,232.1z M89.9,233.1c-0.9-0.2-1.4-1.1-1.1-2l0,0c0.2-0.9,1.1-1.4,1.9-1.1h0c0.9,0.2,1.4,1.1,1.1,1.9
			l0,0c-0.2,0.7-0.8,1.2-1.6,1.2l0,0C90.2,233.2,90,233.2,89.9,233.1z M152,230.4c-0.3-0.9,0.2-1.8,1.1-2l0,0c0.8-0.3,1.7,0.2,2,1
			l0,0c0.3,0.9-0.2,1.8-1,2l0,0c-0.2,0-0.3,0.1-0.5,0.1l0,0C152.9,231.5,152.2,231.1,152,230.4z M83.6,231.4L83.6,231.4L83.6,231.4
			c-0.8-0.3-1.3-1.2-1-2l0,0c0.3-0.9,1.2-1.3,2-1l0,0c0.9,0.3,1.3,1.1,1.1,2l0,0c-0.2,0.7-0.9,1.1-1.5,1.1l0,0
			C84,231.5,83.8,231.4,83.6,231.4z M158.1,228.4c-0.3-0.8,0.1-1.7,0.9-2.1l0,0c0.8-0.3,1.8,0.1,2.1,0.9l0,0c0.3,0.8-0.1,1.8-1,2.1
			l0,0l0,0l0,0c-0.2,0.1-0.4,0.1-0.6,0.1l0,0C159,229.5,158.4,229.1,158.1,228.4z M77.5,229.3c-0.8-0.3-1.2-1.2-0.9-2.1l0,0
			c0.3-0.8,1.2-1.2,2.1-0.9l0,0c0.8,0.3,1.2,1.2,0.9,2.1l0,0c-0.2,0.6-0.9,1-1.5,1l0,0C77.9,229.4,77.7,229.3,77.5,229.3z
			 M164.1,226.1c-0.4-0.8,0-1.8,0.8-2.1l0,0c0.8-0.3,1.8,0,2.1,0.8l0,0c0.3,0.8,0,1.8-0.8,2.1l0,0c-0.2,0.1-0.4,0.1-0.6,0.1l0,0
			C164.9,227.1,164.3,226.7,164.1,226.1z M71.5,226.8c-0.8-0.3-1.2-1.3-0.8-2.1l0,0c0.4-0.8,1.3-1.2,2.1-0.8l0,0
			c0.8,0.4,1.2,1.3,0.8,2.1l0,0c-0.3,0.6-0.9,1-1.5,1l0,0C71.9,226.9,71.7,226.9,71.5,226.8z M169.9,223.5c-0.4-0.8-0.1-1.8,0.7-2.2
			l0,0c0.8-0.4,1.8-0.1,2.1,0.7l0,0c0.4,0.8,0.1,1.8-0.7,2.1l0,0c-0.2,0.1-0.5,0.2-0.7,0.2l0,0C170.8,224.3,170.2,224,169.9,223.5z
			 M65.6,224L65.6,224L65.6,224c-0.8-0.4-1.1-1.4-0.7-2.1l0,0c0.4-0.8,1.4-1.1,2.2-0.7l0,0c0.8,0.4,1.1,1.4,0.7,2.2l0,0
			c-0.3,0.5-0.9,0.9-1.4,0.9l0,0C66.1,224.2,65.8,224.1,65.6,224z M175.6,220.5c-0.4-0.8-0.2-1.7,0.6-2.2l0,0
			c0.8-0.4,1.8-0.2,2.2,0.6l0,0c0.4,0.8,0.2,1.8-0.6,2.2l0,0c-0.2,0.1-0.5,0.2-0.8,0.2l0,0C176.4,221.3,175.9,221,175.6,220.5z
			 M59.9,220.9C59.9,220.9,59.9,220.9,59.9,220.9L59.9,220.9c-0.8-0.5-1-1.4-0.6-2.2l0,0c0.4-0.8,1.4-1,2.2-0.6l0,0
			c0.8,0.4,1,1.4,0.6,2.2l0,0c-0.3,0.5-0.8,0.8-1.4,0.8l0,0C60.4,221.1,60.1,221,59.9,220.9z M181.1,217.2c-0.5-0.7-0.3-1.7,0.5-2.2
			l0,0c0.7-0.5,1.7-0.3,2.2,0.5l0,0c0.5,0.7,0.3,1.7-0.5,2.2l0,0l0,0l0,0c-0.3,0.2-0.6,0.3-0.9,0.3l0,0
			C181.9,218,181.4,217.7,181.1,217.2z M54.4,217.5L54.4,217.5L54.4,217.5c-0.7-0.5-0.9-1.5-0.5-2.2l0,0c0.5-0.7,1.5-1,2.2-0.5l0,0
			c0.8,0.5,1,1.5,0.5,2.2l0,0c-0.3,0.5-0.8,0.7-1.3,0.7l0,0C54.9,217.7,54.6,217.6,54.4,217.5z M186.4,213.7
			c-0.5-0.7-0.4-1.7,0.3-2.2l0,0c0.7-0.5,1.7-0.4,2.2,0.3l0,0c0.5,0.7,0.4,1.7-0.3,2.2l0,0c-0.3,0.2-0.6,0.3-1,0.3l0,0
			C187.2,214.3,186.7,214.1,186.4,213.7z M49,213.7c-0.7-0.5-0.9-1.5-0.3-2.2l0,0c0.5-0.7,1.5-0.9,2.2-0.3l0,0
			c0.7,0.5,0.9,1.5,0.3,2.2l0,0c-0.3,0.4-0.8,0.6-1.3,0.6l0,0C49.6,214,49.3,214,49,213.7z M191.5,209.8c-0.6-0.7-0.5-1.7,0.2-2.2
			l0,0c0.7-0.6,1.7-0.5,2.3,0.2l0,0c0.6,0.7,0.5,1.7-0.2,2.3l0,0c0,0,0,0,0,0l0,0c-0.3,0.2-0.7,0.4-1,0.4l0,0
			C192.3,210.4,191.8,210.2,191.5,209.8z M43.9,209.7c-0.7-0.6-0.8-1.6-0.2-2.3l0,0c0.6-0.7,1.6-0.8,2.2-0.2l0,0
			c0.7,0.6,0.8,1.6,0.2,2.2l0,0c-0.3,0.4-0.8,0.6-1.2,0.6l0,0C44.6,210.1,44.2,210,43.9,209.7z M196.4,205.6
			c-0.6-0.7-0.6-1.7,0.1-2.3l0,0c0.7-0.6,1.7-0.6,2.3,0.1l0,0c0.6,0.6,0.6,1.7-0.1,2.3l0,0c-0.3,0.3-0.7,0.4-1.1,0.4l0,0
			C197.2,206.2,196.7,206,196.4,205.6z M39,205.4c-0.7-0.6-0.7-1.6-0.1-2.3l0,0c0.6-0.7,1.6-0.7,2.3-0.1l0,0
			c0.7,0.6,0.7,1.6,0.1,2.3l0,0c-0.3,0.3-0.8,0.5-1.2,0.5l0,0C39.7,205.9,39.3,205.7,39,205.4z M201.1,201.2c-0.6-0.6-0.6-1.6,0-2.3
			l0,0c0.6-0.6,1.6-0.7,2.3,0l0,0c0.6,0.6,0.6,1.6,0,2.3l0,0c-0.3,0.3-0.7,0.5-1.1,0.5l0,0C201.8,201.7,201.4,201.5,201.1,201.2z
			 M34.4,200.9L34.4,200.9L34.4,200.9c-0.6-0.6-0.6-1.6,0-2.3l0,0c0.6-0.6,1.6-0.6,2.3,0l0,0c0.6,0.6,0.6,1.7,0,2.3l0,0
			c-0.3,0.3-0.7,0.5-1.1,0.5l0,0C35.1,201.4,34.7,201.2,34.4,200.9z M205.5,196.6c-0.7-0.6-0.7-1.6-0.1-2.2l0,0
			c0.6-0.7,1.6-0.7,2.2-0.2l0,0c0.7,0.6,0.7,1.6,0.2,2.3l0,0c-0.3,0.4-0.8,0.5-1.2,0.5l0,0C206.1,197,205.8,196.9,205.5,196.6z
			 M30,196.1c-0.6-0.7-0.5-1.7,0.2-2.2l0,0c0.7-0.6,1.7-0.5,2.3,0.1l0,0c0.6,0.7,0.5,1.7-0.2,2.3l0,0c-0.3,0.3-0.7,0.4-1.1,0.4l0,0
			C30.8,196.7,30.3,196.5,30,196.1z M209.6,191.7c-0.7-0.6-0.8-1.6-0.3-2.2l0,0c0.5-0.7,1.6-0.8,2.2-0.3l0,0
			c0.7,0.5,0.8,1.5,0.3,2.2l0,0c-0.3,0.4-0.8,0.6-1.3,0.6l0,0C210.3,192,209.9,191.9,209.6,191.7z M25.9,191.1
			c-0.5-0.7-0.4-1.7,0.3-2.2l0,0c0.7-0.5,1.7-0.4,2.2,0.3l0,0c0.5,0.7,0.4,1.7-0.3,2.2l0,0c-0.3,0.2-0.6,0.3-1,0.3l0,0
			C26.7,191.7,26.2,191.5,25.9,191.1z M213.5,186.6c-0.7-0.5-0.9-1.5-0.4-2.2l0,0c0.5-0.7,1.5-0.9,2.2-0.4l0,0
			c0.7,0.5,0.9,1.5,0.4,2.2l0,0c-0.3,0.4-0.8,0.7-1.3,0.7l0,0C214.1,186.9,213.8,186.8,213.5,186.6z M22,185.9
			C22,185.9,22,185.9,22,185.9L22,185.9c-0.5-0.7-0.3-1.7,0.4-2.2l0,0c0.7-0.5,1.7-0.3,2.2,0.4l0,0c0.5,0.7,0.3,1.7-0.4,2.2l0,0
			c-0.3,0.2-0.6,0.3-0.9,0.3l0,0C22.8,186.5,22.3,186.3,22,185.9z M217.1,181.3c-0.8-0.5-1-1.5-0.5-2.2l0,0c0.5-0.8,1.5-1,2.2-0.5
			l0,0c0.7,0.5,1,1.5,0.5,2.2l0,0c-0.3,0.5-0.8,0.8-1.4,0.8l0,0C217.7,181.5,217.4,181.4,217.1,181.3z M18.5,180.4
			c-0.5-0.8-0.2-1.8,0.5-2.2l0,0c0.8-0.5,1.7-0.2,2.2,0.5l0,0c0.5,0.8,0.2,1.7-0.5,2.2l0,0c-0.3,0.2-0.6,0.2-0.8,0.2l0,0
			C19.3,181.2,18.8,180.9,18.5,180.4z M220.4,175.8c-0.8-0.4-1.1-1.4-0.6-2.2v0c0.4-0.8,1.4-1.1,2.2-0.7l0,0
			c0.8,0.4,1.1,1.4,0.6,2.2l0,0c-0.3,0.5-0.8,0.8-1.4,0.8l0,0C220.9,176,220.6,175.9,220.4,175.8z M15.2,174.8L15.2,174.8
			L15.2,174.8c-0.4-0.8-0.1-1.8,0.7-2.2l0,0c0.8-0.4,1.8-0.1,2.2,0.7l0,0c0.4,0.8,0.1,1.8-0.6,2.2l0,0c-0.2,0.1-0.5,0.2-0.8,0.2l0,0
			C16.1,175.6,15.5,175.3,15.2,174.8z M223.4,170.1c-0.8-0.4-1.1-1.3-0.8-2.1l0,0c0.4-0.8,1.3-1.1,2.1-0.8l0,0
			c0.8,0.4,1.1,1.3,0.8,2.1l0,0c-0.3,0.6-0.9,0.9-1.5,0.9l0,0C223.8,170.2,223.6,170.2,223.4,170.1z M12.3,169
			c-0.4-0.8,0-1.8,0.8-2.1l0,0c0.8-0.4,1.8,0,2.1,0.8l0,0c0.4,0.8,0,1.8-0.8,2.1l0,0c-0.2,0.1-0.5,0.2-0.7,0.2l0,0
			C13.2,169.9,12.6,169.6,12.3,169z M226,164.3c-0.8-0.3-1.2-1.3-0.9-2.1l0,0c0.3-0.8,1.3-1.2,2.1-0.9l0,0c0.8,0.3,1.2,1.3,0.9,2.1
			l0,0c-0.2,0.6-0.9,1-1.5,1l0,0C226.4,164.4,226.2,164.3,226,164.3z M9.7,163C9.7,163,9.7,163,9.7,163L9.7,163
			c-0.3-0.8,0.1-1.7,0.9-2.1l0,0c0.8-0.3,1.7,0.1,2.1,0.9l0,0c0.3,0.8-0.1,1.8-0.9,2.1l0,0c-0.2,0.1-0.4,0.1-0.6,0.1l0,0
			C10.6,164.1,10,163.7,9.7,163z M228.4,158.3c-0.8-0.3-1.3-1.2-1-2.1l0,0c0.3-0.8,1.2-1.3,2-1l0,0c0.8,0.3,1.3,1.2,1,2l0,0l0,0l0,0
			c-0.2,0.7-0.9,1.1-1.5,1.1l0,0C228.7,158.4,228.5,158.3,228.4,158.3z M7.5,157c-0.3-0.8,0.2-1.7,1-2l0,0c0.8-0.3,1.7,0.2,2,1l0,0
			c0.3,0.8-0.2,1.8-1,2l0,0C9.3,158,9.2,158,9,158l0,0C8.3,158,7.7,157.6,7.5,157z M230.4,152.2c-0.9-0.2-1.3-1.1-1.1-2l0,0
			c0.2-0.9,1.1-1.3,2-1.1l0,0c0.9,0.2,1.3,1.1,1.1,2l0,0c-0.2,0.7-0.9,1.2-1.5,1.2l0,0C230.7,152.2,230.5,152.2,230.4,152.2z
			 M5.6,150.8c-0.2-0.9,0.2-1.7,1.1-2l0,0c0.9-0.2,1.7,0.2,2,1.1l0,0c0.2,0.9-0.3,1.7-1.1,2l0,0c-0.1,0-0.3,0-0.4,0l0,0
			C6.4,151.9,5.8,151.5,5.6,150.8z M232,146c-0.9-0.2-1.4-1.1-1.2-1.9l0,0c0.2-0.9,1.1-1.4,1.9-1.2l0,0c0.9,0.2,1.4,1,1.2,1.9l0,0
			c-0.2,0.8-0.8,1.2-1.6,1.2l0,0C232.3,146,232.1,146,232,146z M4,144.5c-0.2-0.9,0.4-1.7,1.2-1.9l0,0c0.9-0.2,1.7,0.3,1.9,1.2l0,0
			c0.2,0.9-0.4,1.7-1.2,1.9l0,0c-0.1,0-0.2,0-0.3,0l0,0C4.8,145.7,4.2,145.2,4,144.5z M233.3,139.7c-0.9-0.1-1.5-1-1.3-1.9v0
			c0.1-0.9,1-1.5,1.8-1.3l0,0c0.9,0.1,1.5,1,1.3,1.8l0,0c0,0,0,0,0,0l0,0c-0.1,0.8-0.8,1.3-1.6,1.3l0,0
			C233.5,139.7,233.4,139.7,233.3,139.7z M2.8,138.1c-0.1-0.9,0.5-1.7,1.3-1.8l0,0c0.9-0.1,1.7,0.4,1.8,1.3l0,0
			c0.1,0.9-0.4,1.7-1.3,1.8l0,0c-0.1,0-0.2,0-0.3,0l0,0C3.6,139.4,2.9,138.9,2.8,138.1z M234.3,133.4c-0.9-0.1-1.5-0.9-1.4-1.8l0,0
			c0.1-0.9,0.9-1.5,1.8-1.4l0,0c0.9,0.1,1.5,0.9,1.4,1.8l0,0l0,0l0,0c-0.1,0.8-0.8,1.4-1.6,1.4l0,0
			C234.4,133.4,234.4,133.4,234.3,133.4z M1.9,131.6c-0.1-0.9,0.5-1.7,1.4-1.8l0,0c0.9-0.1,1.7,0.5,1.8,1.4l0,0
			c0.1,0.9-0.5,1.7-1.4,1.8l0,0c-0.1,0-0.1,0-0.2,0l0,0C2.7,133.1,2,132.5,1.9,131.6z M234.9,127c-0.9,0-1.6-0.8-1.5-1.7l0,0
			c0-0.9,0.8-1.6,1.7-1.5l0,0c0.9,0,1.6,0.8,1.5,1.7l0,0C236.6,126.4,235.8,127,234.9,127L234.9,127C235,127,234.9,127,234.9,127z
			 M1.4,125.2C1.4,125.2,1.4,125.2,1.4,125.2L1.4,125.2c0-0.9,0.6-1.6,1.5-1.7l0,0c0.9,0,1.6,0.6,1.7,1.5l0,0c0,0.9-0.6,1.6-1.5,1.7
			l0,0c0,0,0,0-0.1,0l0,0C2.1,126.7,1.4,126,1.4,125.2z M233.6,119c0-0.9,0.7-1.6,1.6-1.6l0,0c0.9,0,1.6,0.7,1.6,1.6l0,0l0,0l0,0
			c0,0.9-0.7,1.6-1.6,1.6l0,0C234.3,120.6,233.6,119.9,233.6,119z M2.8,120.3c-0.9,0-1.6-0.7-1.6-1.6l0,0c0-0.9,0.7-1.6,1.6-1.6l0,0
			c0.9,0,1.6,0.7,1.6,1.6l0,0C4.4,119.6,3.7,120.3,2.8,120.3L2.8,120.3C2.8,120.3,2.8,120.3,2.8,120.3z M233.4,113.3
			c0-0.9,0.6-1.6,1.5-1.7l0,0c0.9,0,1.6,0.6,1.7,1.5l0,0c0,0.9-0.6,1.6-1.5,1.7l0,0c0,0,0,0-0.1,0l0,0
			C234.2,114.9,233.5,114.2,233.4,113.3z M2.9,113.9c-0.9,0-1.6-0.8-1.5-1.7l0,0c0-0.9,0.8-1.6,1.7-1.5l0,0c0.9,0,1.6,0.8,1.5,1.7
			l0,0C4.6,113.2,3.9,113.9,2.9,113.9L2.9,113.9C3,113.9,3,113.9,2.9,113.9z M232.9,107L232.9,107c-0.1-0.9,0.6-1.7,1.4-1.8l0,0
			c0.9-0.1,1.7,0.5,1.8,1.4l0,0c0.1,0.9-0.6,1.7-1.4,1.8l0,0c0,0-0.1,0-0.2,0l0,0C233.7,108.5,233,107.9,232.9,107z M3.4,107.5
			c-0.9-0.1-1.5-0.9-1.4-1.8l0,0c0.1-0.9,0.9-1.5,1.8-1.4l0,0c0.9,0.1,1.5,0.9,1.4,1.8l0,0c-0.1,0.8-0.8,1.4-1.6,1.4l0,0
			C3.5,107.5,3.4,107.5,3.4,107.5z M232.1,100.8c-0.1-0.9,0.5-1.7,1.3-1.8l0,0c0.9-0.1,1.7,0.5,1.8,1.3l0,0c0.1,0.9-0.5,1.7-1.3,1.8
			l0,0c-0.1,0-0.2,0-0.3,0l0,0C232.9,102.1,232.3,101.6,232.1,100.8z M4.2,101.1c-0.9-0.1-1.5-1-1.3-1.9l0,0c0.1-0.9,1-1.5,1.9-1.3
			l0,0c0.9,0.1,1.5,1,1.3,1.9l0,0c-0.1,0.8-0.8,1.3-1.6,1.3l0,0C4.4,101.1,4.3,101.1,4.2,101.1z M231,94.6c-0.2-0.9,0.4-1.7,1.2-1.9
			l0,0c0.9-0.2,1.7,0.4,1.9,1.2l0,0c0,0,0,0,0,0l0,0c0.2,0.9-0.4,1.7-1.2,1.9l0,0c-0.1,0-0.2,0-0.3,0l0,0
			C231.8,95.8,231.1,95.3,231,94.6z M5.3,94.8c-0.9-0.2-1.4-1-1.2-1.9l0,0c0.2-0.9,1.1-1.4,1.9-1.2l0,0c0.9,0.2,1.4,1.1,1.2,1.9l0,0
			c-0.2,0.7-0.8,1.2-1.6,1.2l0,0C5.6,94.8,5.5,94.8,5.3,94.8z M229.4,88.4L229.4,88.4c-0.2-0.9,0.3-1.7,1.1-2l0,0
			c0.9-0.2,1.7,0.3,2,1.1l0,0l0,0l0,0c0.2,0.9-0.3,1.7-1.1,2l0,0c-0.1,0-0.3,0.1-0.4,0.1l0,0C230.3,89.6,229.6,89.1,229.4,88.4z
			 M6.8,88.6c-0.9-0.2-1.3-1.1-1.1-2l0,0c0.2-0.9,1.1-1.3,2-1.1l0,0c0.9,0.2,1.3,1.1,1.1,2l0,0c-0.2,0.7-0.9,1.2-1.5,1.2l0,0
			C7.1,88.6,7,88.6,6.8,88.6z M227.6,82.4L227.6,82.4c-0.3-0.8,0.2-1.8,1-2l0,0c0.8-0.3,1.8,0.2,2,1l0,0l0,0l0,0
			c0.3,0.8-0.2,1.8-1,2l0,0c-0.2,0.1-0.3,0.1-0.5,0.1l0,0C228.4,83.5,227.8,83.1,227.6,82.4z M8.7,82.4c-0.8-0.3-1.3-1.2-1-2l0,0
			c0.3-0.8,1.2-1.3,2-1l0,0c0.8,0.3,1.3,1.2,1,2l0,0c-0.2,0.7-0.9,1.1-1.5,1.1l0,0C9,82.5,8.9,82.5,8.7,82.4z M225.4,76.4
			L225.4,76.4c-0.3-0.8,0.1-1.7,0.9-2.1l0,0c0.8-0.3,1.8,0.1,2.1,0.9l0,0c0.3,0.8-0.1,1.8-0.9,2.1l0,0c-0.2,0.1-0.4,0.1-0.6,0.1l0,0
			C226.2,77.5,225.7,77.1,225.4,76.4z M10.9,76.4c-0.8-0.3-1.2-1.3-0.9-2.1l0,0l0,0l0,0c0.3-0.8,1.3-1.2,2.1-0.9l0,0
			c0.8,0.3,1.2,1.3,0.9,2.1l0,0c-0.2,0.6-0.9,1-1.5,1l0,0C11.3,76.5,11.1,76.5,10.9,76.4z M222.9,70.7c-0.4-0.8,0-1.8,0.8-2.1l0,0
			c0.8-0.4,1.8,0,2.1,0.8l0,0l0,0l0,0c0.4,0.8,0,1.8-0.8,2.1l0,0c-0.2,0.1-0.5,0.1-0.7,0.1l0,0C223.8,71.6,223.2,71.2,222.9,70.7z
			 M13.4,70.5c-0.8-0.4-1.1-1.3-0.8-2.1l0,0l0,0l0,0c0.4-0.8,1.3-1.1,2.1-0.8l0,0c0.8,0.4,1.1,1.3,0.8,2.1l0,0
			c-0.3,0.6-0.8,0.9-1.4,0.9l0,0C13.9,70.7,13.6,70.6,13.4,70.5z M220.1,65L220.1,65c-0.4-0.8-0.1-1.8,0.7-2.2l0,0
			c0.8-0.4,1.8-0.1,2.2,0.7l0,0c0.4,0.8,0.1,1.7-0.7,2.2l0,0c-0.2,0.1-0.5,0.2-0.8,0.2l0,0C220.9,65.9,220.4,65.6,220.1,65z
			 M16.2,64.7c-0.8-0.4-1.1-1.4-0.6-2.2l0,0c0.4-0.8,1.4-1.1,2.2-0.6l0,0c0.8,0.4,1.1,1.4,0.6,2.2l0,0c-0.3,0.5-0.8,0.8-1.4,0.8l0,0
			C16.8,64.9,16.5,64.9,16.2,64.7z M216.9,59.5c-0.5-0.8-0.2-1.8,0.5-2.2l0,0c0.8-0.5,1.7-0.2,2.2,0.5l0,0c0.5,0.8,0.2,1.7-0.5,2.2
			l0,0c-0.2,0.2-0.5,0.2-0.8,0.2l0,0C217.8,60.3,217.3,60,216.9,59.5z M19.4,59.2c-0.8-0.5-1-1.4-0.5-2.2l0,0c0.5-0.8,1.5-1,2.2-0.5
			l0,0c0.8,0.5,1,1.4,0.5,2.2l0,0c-0.3,0.5-0.8,0.8-1.4,0.8l0,0C20,59.4,19.7,59.3,19.4,59.2z M213.5,54.2c-0.5-0.7-0.3-1.7,0.4-2.2
			l0,0c0.7-0.5,1.7-0.3,2.2,0.4l0,0c0.5,0.7,0.3,1.7-0.4,2.2l0,0c-0.3,0.2-0.6,0.3-0.9,0.3l0,0C214.3,54.9,213.8,54.7,213.5,54.2z
			 M22.9,53.8c-0.7-0.5-0.9-1.5-0.4-2.2l0,0c0.5-0.7,1.5-0.9,2.2-0.4l0,0c0.7,0.5,0.9,1.5,0.4,2.2l0,0c-0.3,0.4-0.8,0.7-1.3,0.7l0,0
			C23.5,54,23.1,54,22.9,53.8z M209.8,49.1c-0.5-0.7-0.4-1.7,0.3-2.2l0,0c0.7-0.5,1.7-0.4,2.2,0.3l0,0c0.5,0.7,0.4,1.7-0.3,2.2l0,0
			c-0.3,0.2-0.6,0.3-1,0.3l0,0C210.6,49.7,210.1,49.5,209.8,49.1z M26.6,48.6c-0.7-0.5-0.8-1.5-0.3-2.2l0,0l0,0l0,0
			c0.5-0.7,1.5-0.8,2.2-0.3l0,0c0.7,0.5,0.8,1.5,0.3,2.2l0,0c-0.3,0.4-0.8,0.6-1.2,0.6l0,0C27.2,48.9,26.9,48.8,26.6,48.6z
			 M205.8,44.2c-0.6-0.7-0.5-1.7,0.2-2.3l0,0c0.7-0.6,1.7-0.5,2.2,0.2l0,0c0.6,0.7,0.5,1.7-0.2,2.3l0,0c-0.3,0.3-0.7,0.4-1,0.4l0,0
			C206.6,44.8,206.1,44.6,205.8,44.2z M30.6,43.6C30,43,29.9,42,30.5,41.3l0,0c0.6-0.7,1.6-0.7,2.3-0.1l0,0c0.7,0.6,0.7,1.6,0.1,2.2
			l0,0c-0.3,0.4-0.8,0.6-1.2,0.6l0,0C31.3,44,30.9,43.8,30.6,43.6z M201.6,39.6L201.6,39.6c-0.6-0.6-0.6-1.6,0-2.3l0,0
			c0.6-0.6,1.6-0.6,2.3,0l0,0l0,0l0,0c0.6,0.6,0.6,1.7,0,2.3l0,0c-0.3,0.3-0.7,0.4-1.1,0.4l0,0C202.3,40,201.9,39.9,201.6,39.6z
			 M34.9,38.8c-0.6-0.6-0.7-1.6,0-2.3l0,0c0.6-0.6,1.6-0.6,2.3,0l0,0c0.6,0.6,0.6,1.6,0,2.3l0,0c-0.3,0.3-0.7,0.5-1.1,0.5l0,0
			C35.6,39.3,35.3,39.1,34.9,38.8z M197.1,35.1c-0.7-0.6-0.7-1.6-0.1-2.3l0,0c0.6-0.7,1.6-0.7,2.3-0.1l0,0l0,0l0,0
			c0.6,0.6,0.7,1.6,0.1,2.3l0,0c-0.3,0.3-0.7,0.5-1.2,0.5l0,0C197.7,35.6,197.4,35.4,197.1,35.1z M39.5,34.3
			c-0.6-0.6-0.6-1.7,0.1-2.3l0,0c0.7-0.6,1.7-0.5,2.3,0.1l0,0c0.6,0.7,0.6,1.7-0.1,2.3l0,0c-0.3,0.3-0.7,0.4-1.1,0.4l0,0
			C40.2,34.8,39.8,34.6,39.5,34.3z M192.3,31L192.3,31c-0.7-0.6-0.8-1.6-0.2-2.3l0,0c0.6-0.7,1.6-0.8,2.2-0.2l0,0
			c0.7,0.6,0.8,1.6,0.2,2.3l0,0c-0.3,0.4-0.8,0.6-1.2,0.6l0,0C193,31.3,192.6,31.2,192.3,31z M44.3,30c-0.6-0.7-0.5-1.7,0.2-2.2l0,0
			c0,0,0,0,0,0l0,0c0.7-0.6,1.7-0.4,2.2,0.2l0,0c0.6,0.7,0.5,1.7-0.2,2.2l0,0c-0.3,0.2-0.7,0.4-1,0.4l0,0C45,30.6,44.6,30.4,44.3,30
			z M187.3,27c-0.7-0.5-0.9-1.5-0.3-2.2l0,0c0.5-0.7,1.5-0.9,2.2-0.3l0,0c0.7,0.5,0.9,1.5,0.3,2.2l0,0c-0.3,0.4-0.8,0.6-1.3,0.6l0,0
			C188,27.3,187.6,27.3,187.3,27z M49.3,26.1c-0.5-0.7-0.4-1.7,0.4-2.2l0,0c0.7-0.5,1.7-0.4,2.2,0.3l0,0c0.5,0.7,0.4,1.7-0.3,2.2
			l0,0c-0.3,0.2-0.6,0.3-1,0.3l0,0C50.1,26.7,49.6,26.5,49.3,26.1z M182.2,23.4c-0.7-0.5-0.9-1.5-0.4-2.2l0,0
			c0.5-0.7,1.5-0.9,2.2-0.4l0,0c0.7,0.5,0.9,1.5,0.5,2.2l0,0c-0.3,0.5-0.8,0.7-1.3,0.7l0,0C182.7,23.7,182.4,23.6,182.2,23.4z
			 M54.5,22.3c-0.5-0.7-0.3-1.7,0.5-2.2l0,0c0.7-0.5,1.7-0.3,2.2,0.5l0,0c0.5,0.7,0.3,1.7-0.5,2.2l0,0c-0.3,0.2-0.6,0.3-0.9,0.3l0,0
			C55.3,23.1,54.8,22.8,54.5,22.3z M176.8,20.1c-0.8-0.5-1-1.4-0.6-2.2l0,0c0.4-0.8,1.4-1,2.2-0.6l0,0l0,0l0,0
			c0.8,0.4,1,1.4,0.6,2.2l0,0c-0.3,0.5-0.8,0.8-1.4,0.8l0,0C177.3,20.3,177.1,20.2,176.8,20.1z M59.9,18.9c-0.4-0.8-0.2-1.7,0.6-2.2
			l0,0c0.8-0.4,1.7-0.2,2.2,0.6l0,0c0.4,0.8,0.2,1.8-0.6,2.2l0,0c-0.2,0.1-0.5,0.2-0.8,0.2l0,0C60.8,19.8,60.2,19.5,59.9,18.9z
			 M171.2,17c-0.8-0.4-1.1-1.4-0.7-2.1l0,0c0.4-0.8,1.4-1.1,2.1-0.7l0,0c0.8,0.4,1.1,1.4,0.7,2.2l0,0c-0.3,0.6-0.8,0.9-1.4,0.9l0,0
			C171.7,17.2,171.5,17.1,171.2,17z M65.5,15.8c-0.4-0.8-0.1-1.8,0.7-2.1l0,0c0.8-0.4,1.8-0.1,2.1,0.7l0,0c0.4,0.8,0.1,1.7-0.7,2.2
			l0,0c-0.2,0.1-0.5,0.2-0.7,0.2l0,0C66.4,16.7,65.8,16.4,65.5,15.8z M165.5,14.3c-0.8-0.4-1.2-1.3-0.8-2.1l0,0
			c0.4-0.8,1.3-1.2,2.1-0.8l0,0c0.8,0.4,1.2,1.3,0.8,2.1l0,0c-0.3,0.6-0.9,1-1.5,1l0,0C166,14.4,165.7,14.4,165.5,14.3z M71.3,13
			c-0.4-0.8,0-1.8,0.8-2.1l0,0c0,0,0,0,0,0l0,0c0.8-0.3,1.8,0,2.1,0.8l0,0c0.3,0.8,0,1.8-0.8,2.1l0,0C73.2,14,73,14,72.7,14l0,0
			C72.1,14,71.6,13.6,71.3,13z M159.7,11.9c-0.8-0.3-1.2-1.2-0.9-2.1l0,0c0.3-0.8,1.2-1.2,2.1-0.9l0,0c0.8,0.3,1.2,1.2,0.9,2.1l0,0
			c-0.2,0.6-0.8,1-1.5,1l0,0C160.1,12,159.9,11.9,159.7,11.9z M77.2,10.6c-0.3-0.8,0.1-1.8,1-2.1l0,0c0.8-0.3,1.8,0.1,2.1,1l0,0
			c0.3,0.8-0.1,1.8-0.9,2.1l0,0c-0.2,0.1-0.4,0.1-0.6,0.1l0,0C78,11.6,77.4,11.2,77.2,10.6z M153.7,9.8L153.7,9.8
			c-0.8-0.3-1.3-1.2-1-2l0,0c0.3-0.8,1.2-1.3,2-1l0,0c0.9,0.3,1.3,1.2,1.1,2l0,0c-0.2,0.7-0.9,1.1-1.5,1.1l0,0
			C154,9.9,153.9,9.8,153.7,9.8z M83.2,8.4c-0.2-0.8,0.2-1.7,1.1-2l0,0c0.9-0.3,1.7,0.2,2,1.1l0,0c0.3,0.8-0.2,1.7-1.1,2l0,0
			c-0.1,0-0.3,0.1-0.5,0.1l0,0C84.1,9.6,83.4,9.1,83.2,8.4z M147.6,8c-0.9-0.2-1.4-1.1-1.1-2l0,0c0.2-0.9,1.1-1.4,2-1.1l0,0
			c0.9,0.2,1.4,1.1,1.1,2l0,0c-0.2,0.7-0.8,1.2-1.6,1.2l0,0C147.9,8.1,147.8,8.1,147.6,8z M89.4,6.6c-0.2-0.9,0.3-1.7,1.2-2l0,0l0,0
			l0,0c0.9-0.2,1.7,0.3,1.9,1.2l0,0c0.2,0.9-0.3,1.7-1.2,1.9l0,0c-0.1,0-0.3,0-0.4,0l0,0C90.2,7.9,89.6,7.4,89.4,6.6z M141.5,6.6
			L141.5,6.6c-0.9-0.2-1.4-1-1.3-1.9l0,0c0.2-0.9,1-1.4,1.9-1.3l0,0c0.9,0.2,1.4,1,1.2,1.9l0,0c-0.1,0.8-0.8,1.3-1.6,1.3l0,0
			C141.7,6.7,141.6,6.7,141.5,6.6z M95.6,5.2c-0.2-0.9,0.4-1.7,1.3-1.9l0,0c0.9-0.2,1.7,0.4,1.9,1.3l0,0c0.2,0.9-0.4,1.7-1.3,1.9v0
			c-0.1,0-0.2,0-0.3,0l0,0C96.4,6.5,95.8,6,95.6,5.2z M135.2,5.6c-0.9-0.1-1.5-0.9-1.4-1.8l0,0c0.1-0.9,0.9-1.5,1.8-1.4l0,0
			c0.9,0.1,1.5,0.9,1.4,1.8l0,0c-0.1,0.8-0.8,1.4-1.6,1.4l0,0C135.4,5.6,135.3,5.6,135.2,5.6z M101.9,4.1c-0.1-0.9,0.5-1.7,1.4-1.8
			l0,0c0,0,0,0,0,0l0,0c0.9-0.1,1.7,0.5,1.8,1.4l0,0c0.1,0.9-0.5,1.7-1.4,1.8l0,0c-0.1,0-0.1,0-0.2,0l0,0
			C102.7,5.5,102,4.9,101.9,4.1z M129,4.9c-0.9-0.1-1.5-0.9-1.5-1.7l0,0c0.1-0.9,0.9-1.5,1.7-1.5l0,0l0,0l0,0
			c0.9,0.1,1.5,0.9,1.5,1.7l0,0c-0.1,0.8-0.8,1.5-1.6,1.5l0,0C129.1,4.9,129,4.9,129,4.9z M108.3,3.3c-0.1-0.9,0.6-1.7,1.5-1.7l0,0
			c0.9-0.1,1.6,0.6,1.7,1.5l0,0c0.1,0.9-0.6,1.7-1.5,1.7l0,0c0,0-0.1,0-0.1,0l0,0C109.1,4.8,108.4,4.1,108.3,3.3z M122.7,4.5
			c-0.9,0-1.6-0.8-1.6-1.6l0,0c0-0.9,0.8-1.6,1.7-1.6l0,0c0.9,0,1.6,0.8,1.5,1.7l0,0C124.3,3.8,123.6,4.5,122.7,4.5L122.7,4.5
			C122.7,4.5,122.7,4.5,122.7,4.5z M114.7,2.9c0-0.9,0.7-1.6,1.6-1.6l0,0c0.9,0,1.6,0.7,1.6,1.6l0,0c0,0.9-0.7,1.6-1.6,1.6l0,0
			c0,0,0,0,0,0l0,0C115.4,4.5,114.7,3.8,114.7,2.9z"/>
		<g>
			<path class="st0" d="M23.5,125.5c5.6-0.9,10.1,2.6,11,8.1c0.7,4-1.1,6.7-3.2,8.4l-2.2-3.1c1.3-1,2.2-2.8,1.9-4.7
				c-0.6-3.3-3.5-5.3-6.9-4.7c-3.4,0.6-5.6,3.4-5,6.7c0.3,1.9,1.7,3.3,3.4,3.8l-1,3.6c-2.5-0.9-5.1-2.8-5.8-6.9
				C14.8,131.4,17.9,126.5,23.5,125.5z"/>
			<path class="st0" d="M24.4,162.9L29,157l-1.2-2.6l-6,2.6l-1.6-3.6l16.9-7.4l3.5,7.9c1.5,3.5,0.2,6.7-3,8.1
				c-3,1.3-5.4,0.1-6.6-1.5l-4.8,6.6L24.4,162.9z M36,158.3c1.4-0.6,1.8-2.1,1.2-3.5l-1.6-3.8l-4.6,2l1.6,3.8
				C33.3,158.2,34.6,158.9,36,158.3z"/>
			<path class="st0" d="M39,185.6l1.8-2.8l-4.8-6.3l-3.2,1l-2.7-3.6l19-5.6l3,3.9l-10.3,16.9L39,185.6z M47.4,172.7l-8.1,2.5
				l3.5,4.6L47.4,172.7z"/>
			<path class="st0" d="M48,195.1l11.7-14.3l10.1,8.3l-2.2,2.7l-7.1-5.8l-2.5,3l6.9,5.7l-2.2,2.7l-6.9-5.7l-4.8,5.9L48,195.1z"/>
			<path class="st0" d="M69.9,210.4l6.8-13.4l-4.8-2.4l1.6-3.1l13.1,6.7l-1.6,3.1l-4.8-2.4l-6.8,13.4L69.9,210.4z"/>
			<path class="st0" d="M86.2,214.9l2.8-2.4c0.9,1.6,2.6,3.2,5.1,3.9c2.1,0.5,3.4-0.2,3.6-1.2c0.8-3.2-10-3.6-8.3-10.3
				c0.8-3,4-4.8,8.2-3.7c2.8,0.7,5,2.2,6.3,4.3l-2.8,2.2c-1.1-1.7-2.9-2.8-4.7-3.3c-1.6-0.4-2.7,0.1-3,1.1c-0.7,2.8,10,3.6,8.3,10.2
				c-0.8,3.3-3.8,5.1-8.6,3.9C89.6,218.8,87.4,217,86.2,214.9z"/>
			<path class="st0" d="M126.1,222.5l-0.1-12.9l-5.1,13l-1.7,0l-5.3-12.9l0.1,12.9l-3.9,0l-0.2-18.4l5.5-0.1l4.6,11.1l4.4-11.2
				l5.5-0.1l0.2,18.4L126.1,222.5z"/>
			<path class="st0" d="M153.1,217l-2-2.7l-7.6,2.2l-0.2,3.3l-4.3,1.3l1.7-19.7l4.7-1.4l12,15.7L153.1,217z M144.2,204.5l-0.5,8.4
				l5.5-1.6L144.2,204.5z"/>
			<path class="st0" d="M176.5,205.5l-13.7-5.8l6.2,10.3l-3.4,2l-9.5-15.8l3.5-2.1l13.3,5.5l-6-9.9l3.4-2l9.5,15.8L176.5,205.5z"/>
			<path class="st0" d="M185.3,195.8l-0.6-3.6c1.9,0,4.1-0.6,5.9-2.4c1.5-1.5,1.6-3,0.8-3.7c-2.3-2.3-8.3,6.8-13.1,1.8
				c-2.2-2.2-2.1-5.9,1-8.9c2.1-2.1,4.4-3.2,6.9-3.2l0.5,3.6c-2,0.1-3.9,1-5.2,2.3c-1.2,1.2-1.3,2.4-0.6,3.2
				c2.1,2.1,8.2-6.8,13.1-1.9c2.4,2.4,2.5,5.9-1.1,9.4C190.4,194.9,187.7,195.8,185.3,195.8z"/>
			<path class="st0" d="M210.5,168.6l-6.6-4l-4.5,7.4l6.6,4l-2,3.4l-15.7-9.6l2-3.4l6.2,3.8l4.5-7.4l-6.2-3.8l2.1-3.4l15.7,9.6
				L210.5,168.6z"/>
			<path class="st0" d="M216.4,155.9l-17.3-6.4l1.4-3.7l17.3,6.4L216.4,155.9z"/>
			<path class="st0" d="M220.8,142.7l-18.2-3.1l1.5-8.5c0.7-4,3.7-5.6,6.9-5.1c3.2,0.5,5.5,3.2,4.8,7.1l-0.8,4.6l6.5,1.1
				L220.8,142.7z M210.3,130c-1.5-0.3-2.7,0.7-2.9,2.2l-0.7,4.1l4.9,0.8l0.7-4.1C212.5,131.5,211.8,130.2,210.3,130z"/>
		</g>
		<g>
			<path class="st0" d="M54.6,54.9c-3.4-4.2-3.1-9.7,1.2-13.2c4.2-3.4,9.7-2.5,13.1,1.7c1.7,2.1,2.5,4.6,2.3,6.9l2.6,0.4l-0.4,2.1
				l-2.6-0.4c-0.5,1.6-1.5,3-3,4.2C63.5,60.1,58,59.2,54.6,54.9z M68.6,52.1l-3.8-0.6l0.4-2.1l3.8,0.6c0-1.7-0.6-3.5-1.9-5.1
				c-2.7-3.4-6.8-4.2-10-1.6c-3.2,2.6-3.3,6.7-0.6,10.1c2.7,3.3,6.7,4.2,10,1.6C67.5,54.2,68.2,53.2,68.6,52.1z"/>
			<path class="st0" d="M77.6,40.9l-4.4-10.4l2.1-0.9l4.3,10.3c1.3,3.1,3.8,4.4,6.9,3.1c3.1-1.3,4-4,2.7-7.1L85,25.5l2.1-0.9
				L91.4,35c1.8,4.2,0.6,7.9-4,9.8C82.8,46.8,79.3,45.1,77.6,40.9z"/>
			<path class="st0" d="M113.6,38.1l-2.2-3.8l-9.1,1.3l-1,4.3l-2.6,0.4l4.8-19.3l2.8-0.4l9.9,17.2L113.6,38.1z M105.2,23.1
				l-2.5,10.4l7.7-1.1L105.2,23.1z"/>
			<path class="st0" d="M121.8,38.1l1.7-18.4l2.3,0.2l-1.5,16.3l8.5,0.8l-0.2,2L121.8,38.1z"/>
			<path class="st0" d="M139.1,40.6l4.7-17.8l2.2,0.6l-4.7,17.8L139.1,40.6z"/>
			<path class="st0" d="M152.8,45.4l6.9-14.9l-5.3-2.5l0.9-1.9l12.7,5.9l-0.9,1.9l-5.3-2.5l-6.9,14.9L152.8,45.4z"/>
			<path class="st0" d="M169.5,55.5l4.9-6.1l1-12.9l2.1,1.7l-0.9,10.3l9.8-3.1l2.1,1.7l-12.3,3.8l-4.9,6.1L169.5,55.5z"/>
		</g>
		<path class="st0" d="M119,190.3c-39,0-70.8-31.8-70.8-70.8S80,48.7,119,48.7c39.1,0,70.8,31.8,70.8,70.8S158.1,190.3,119,190.3z
			 M119,51.7c-37.4,0-67.8,30.4-67.8,67.8c0,37.4,30.4,67.8,67.8,67.8c37.4,0,67.8-30.4,67.8-67.8C186.8,82.1,156.4,51.7,119,51.7z"
			/>
		<g>
			<path class="st0" d="M145.4,134.5h-1v-0.4h2.4v0.4h-1v2.6h-0.4V134.5z M147.4,134.1h0.5l1.1,1.7l1.1-1.7h0.5v3h-0.4v-2.3
				l-1.1,1.6H149l-1.1-1.6v2.3h-0.4V134.1z"/>
		</g>
	</g>
</g>
</svg>
