<?xml version="1.0" encoding="utf-8"?>
<!-- Generator: Adobe Illustrator 19.1.0, SVG Export Plug-In . SVG Version: 6.00 Build 0)  -->
<!DOCTYPE svg PUBLIC "-//W3C//DTD SVG 1.1//EN" "http://www.w3.org/Graphics/SVG/1.1/DTD/svg11.dtd">
<svg version="1.1" id="Layer_1" xmlns="http://www.w3.org/2000/svg" xmlns:xlink="http://www.w3.org/1999/xlink" x="0px" y="0px"
	 viewBox="0 0 2200 1378.7" style="enable-background:new 0 0 2200 1378.7;" xml:space="preserve">
<style type="text/css">
	.st0{fill:#FFFFFF;}
	.st1{fill:#52BFE3;}
</style>
<rect class="st0" width="2200" height="1378.7"/>
<g>
	<g>
		<path class="st1" d="M174.1,1193.4h12v6.1h-12v39.9c0,4.7,0.7,7.5,5.9,7.8c2.1,0,4.1-0.1,6.2-0.3v6.2c-2.2,0-4.2,0.2-6.4,0.2
			c-9.6,0-13-3.2-12.8-13.3v-40.5h-10.3v-6.1h10.3v-17.8h7.2V1193.4z"/>
		<path class="st1" d="M223.8,1170.6h7.2v32.9h0.2c2.6-7.1,10.6-11.9,18.9-11.9c16.6,0,21.7,8.7,21.7,22.8v38.1h-7.2v-36.9
			c0-10.2-3.3-17.9-15-17.9c-11.5,0-18.3,8.7-18.6,20.3v34.5h-7.2V1170.6z"/>
		<path class="st1" d="M317.2,1224.9c0.1,10.5,5.6,23.3,19.5,23.3c10.5,0,16.3-6.2,18.6-15.1h7.2c-3.1,13.4-10.9,21.2-25.8,21.2
			c-18.8,0-26.7-14.4-26.7-31.3c0-15.6,7.9-31.3,26.7-31.3c19,0,26.6,16.6,26,33.3H317.2z M355.5,1218.8
			c-0.3-10.9-7.1-21.1-18.8-21.1c-11.8,0-18.4,10.3-19.5,21.1H355.5z"/>
		<path class="st1" d="M463.4,1224.9c0.1,10.5,5.6,23.3,19.5,23.3c10.5,0,16.3-6.2,18.6-15.1h7.2c-3.1,13.4-10.9,21.2-25.8,21.2
			c-18.8,0-26.7-14.4-26.7-31.3c0-15.6,7.9-31.3,26.7-31.3c19,0,26.6,16.6,26,33.3H463.4z M501.7,1218.8
			c-0.3-10.9-7.1-21.1-18.8-21.1c-11.8,0-18.4,10.3-19.5,21.1H501.7z"/>
		<path class="st1" d="M546.2,1170.6h7.2v81.9h-7.2V1170.6z"/>
		<path class="st1" d="M594.8,1170.6h7.2v81.9h-7.2V1170.6z"/>
		<path class="st1" d="M647.6,1224.9c0.1,10.5,5.6,23.3,19.5,23.3c10.6,0,16.3-6.2,18.6-15.1h7.2c-3.1,13.4-10.9,21.2-25.8,21.2
			c-18.8,0-26.7-14.4-26.7-31.3c0-15.6,7.9-31.3,26.7-31.3c19,0,26.6,16.6,26,33.3H647.6z M685.9,1218.8
			c-0.3-10.9-7.1-21.1-18.8-21.1c-11.8,0-18.4,10.3-19.5,21.1H685.9z"/>
		<path class="st1" d="M730.1,1193.4h7.2v10.2h0.2c2.6-7.1,10.6-11.9,18.9-11.9c16.6,0,21.7,8.7,21.7,22.8v38.1H771v-36.9
			c0-10.2-3.3-17.9-15-17.9c-11.5,0-18.3,8.7-18.6,20.3v34.5h-7.2V1193.4z"/>
		<path class="st1" d="M930.6,1252.5H924v-11.2h-0.2c-3.1,7.7-12.5,13-21.1,13c-18,0-26.6-14.6-26.6-31.3c0-16.7,8.6-31.3,26.6-31.3
			c8.8,0,17.4,4.5,20.5,13h0.2v-33.9h7.2V1252.5z M902.6,1248.2c15.4,0,20.8-13,20.8-25.2c0-12.3-5.4-25.2-20.8-25.2
			c-13.8,0-19.4,13-19.4,25.2C883.2,1235.2,888.9,1248.2,902.6,1248.2z"/>
		<path class="st1" d="M976,1224.9c0.1,10.5,5.6,23.3,19.5,23.3c10.6,0,16.3-6.2,18.6-15.1h7.2c-3.1,13.4-10.9,21.2-25.8,21.2
			c-18.8,0-26.7-14.4-26.7-31.3c0-15.6,7.9-31.3,26.7-31.3c19,0,26.6,16.6,26,33.3H976z M1014.3,1218.8
			c-0.3-10.9-7.1-21.1-18.8-21.1c-11.8,0-18.3,10.3-19.5,21.1H1014.3z"/>
		<path class="st1" d="M1108.7,1247.7c-0.1,17.7-6.9,28.4-26.3,28.4c-11.8,0-23.5-5.3-24.5-17.9h7.2c1.6,8.7,9.3,11.8,17.3,11.8
			c13.3,0,19-7.9,19-22.4v-8h-0.2c-3.3,7.2-10.3,12.2-18.8,12.2c-18.9,0-26.7-13.5-26.7-30.4c0-16.3,9.6-29.8,26.7-29.8
			c8.6,0,15.9,5.4,18.8,11.9h0.2v-10.2h7.2V1247.7z M1101.5,1222.3c0-11.6-5.4-24.5-19-24.5c-13.8,0-19.5,12.3-19.5,24.5
			c0,11.9,6.2,23.5,19.5,23.5C1094.9,1245.8,1101.5,1234.3,1101.5,1222.3z"/>
		<path class="st1" d="M1154.1,1224.9c0.1,10.5,5.6,23.3,19.5,23.3c10.6,0,16.3-6.2,18.6-15.1h7.2c-3.1,13.4-10.9,21.2-25.8,21.2
			c-18.8,0-26.7-14.4-26.7-31.3c0-15.6,7.9-31.3,26.7-31.3c19,0,26.6,16.6,26,33.3H1154.1z M1192.4,1218.8
			c-0.3-10.9-7.1-21.1-18.8-21.1c-11.8,0-18.3,10.3-19.5,21.1H1192.4z"/>
		<path class="st1" d="M1236.7,1193.4h7.2v10.2h0.2c2.6-7.1,10.5-11.9,18.9-11.9c16.6,0,21.7,8.7,21.7,22.8v38.1h-7.2v-36.9
			c0-10.2-3.3-17.9-15-17.9c-11.5,0-18.4,8.7-18.6,20.3v34.5h-7.2V1193.4z"/>
		<path class="st1" d="M1330,1224.9c0.1,10.5,5.6,23.3,19.5,23.3c10.5,0,16.3-6.2,18.6-15.1h7.2c-3.1,13.4-10.9,21.2-25.8,21.2
			c-18.8,0-26.7-14.4-26.7-31.3c0-15.6,7.9-31.3,26.7-31.3c19,0,26.6,16.6,26,33.3H1330z M1368.3,1218.8
			c-0.3-10.9-7.1-21.1-18.8-21.1c-11.8,0-18.4,10.3-19.5,21.1H1368.3z"/>
		<path class="st1" d="M1412.7,1193.4h6.6v13.9h0.2c3.7-9.5,11.7-15.1,22.4-14.7v7.2c-13.1-0.7-22,8.9-22,21.2v31.5h-7.2V1193.4z"/>
		<path class="st1" d="M1478.4,1224.9c0.1,10.5,5.6,23.3,19.5,23.3c10.6,0,16.3-6.2,18.6-15.1h7.2c-3.1,13.4-10.9,21.2-25.8,21.2
			c-18.8,0-26.7-14.4-26.7-31.3c0-15.6,7.9-31.3,26.7-31.3c19,0,26.6,16.6,26,33.3H1478.4z M1516.7,1218.8
			c-0.3-10.9-7.1-21.1-18.8-21.1c-11.8,0-18.3,10.3-19.5,21.1H1516.7z"/>
		<path class="st1" d="M1596.6,1210.7c-0.3-8.9-7.2-13-15.5-13c-6.4,0-14,2.5-14,10.2c0,6.4,7.3,8.7,12.3,10l9.6,2.2
			c8.3,1.3,16.9,6.1,16.9,16.4c0,12.9-12.7,17.8-23.7,17.8c-13.8,0-23.2-6.4-24.3-20.9h7.2c0.6,9.7,7.8,14.8,17.4,14.8
			c6.8,0,16.2-3,16.2-11.2c0-6.9-6.4-9.2-13-10.8l-9.3-2.1c-9.4-2.5-16.5-5.7-16.5-15.8c0-12,11.8-16.6,22.2-16.6
			c11.8,0,21.2,6.2,21.7,19H1596.6z"/>
		<path class="st1" d="M1738.4,1210.7c-0.3-8.9-7.2-13-15.5-13c-6.4,0-14,2.5-14,10.2c0,6.4,7.3,8.7,12.3,10l9.6,2.2
			c8.3,1.3,16.9,6.1,16.9,16.4c0,12.9-12.7,17.8-23.7,17.8c-13.8,0-23.2-6.4-24.3-20.9h7.2c0.6,9.7,7.8,14.8,17.4,14.8
			c6.8,0,16.2-3,16.2-11.2c0-6.9-6.4-9.2-13-10.8l-9.3-2.1c-9.4-2.5-16.5-5.7-16.5-15.8c0-12,11.8-16.6,22.3-16.6
			c11.8,0,21.2,6.2,21.7,19H1738.4z"/>
		<path class="st1" d="M1785.4,1170.6h7.2v32.9h0.2c2.6-7.1,10.5-11.9,18.9-11.9c16.6,0,21.7,8.7,21.7,22.8v38.1h-7.2v-36.9
			c0-10.2-3.3-17.9-15-17.9c-11.5,0-18.3,8.7-18.6,20.3v34.5h-7.2V1170.6z"/>
		<path class="st1" d="M1927.5,1222.9c0,17-9.9,31.3-28,31.3c-18.1,0-28-14.3-28-31.3c0-17,9.9-31.3,28-31.3
			C1917.7,1191.6,1927.5,1206,1927.5,1222.9z M1878.8,1222.9c0,12.6,6.9,25.2,20.8,25.2c13.9,0,20.8-12.6,20.8-25.2
			c0-12.6-6.9-25.2-20.8-25.2C1885.7,1197.7,1878.8,1210.3,1878.8,1222.9z"/>
		<path class="st1" d="M1959.8,1193.4h7.7l15.1,50.7h0.2l14.4-50.7h8.1l14.5,50.7h0.2l15.1-50.7h7.7l-19,59.2h-7.9l-14.6-49.8h-0.2
			l-14.5,49.8h-7.9L1959.8,1193.4z"/>
	</g>
</g>
<g>
	<g>
		<path class="st1" d="M174.3,848.1c0,132.1,88.1,246.6,256.4,246.6c174.2,0,222.1-106.7,239.7-170.3h19.6
			c-15.7,70.5-70.4,189.8-259.3,189.8c-170.2,0-275.9-113.5-275.9-266.1c0-152.6,105.7-266.1,275.9-266.1
			c145.8,0,267.1,97.8,267.1,266.1H174.3z M678.2,828.5c-7.8-118.4-93.9-227-247.6-227c-161.4,0-247.5,103.7-256.4,227H678.2z"/>
		<path class="st1" d="M776,399.9h19.6v698.6H776V399.9z"/>
		<path class="st1" d="M894.4,399.9H914v698.6h-19.6V399.9z"/>
		<path class="st1" d="M982.4,848.1c0,132.1,88.1,246.6,256.4,246.6c174.2,0,222.1-106.7,239.7-170.3h19.6
			c-15.7,70.5-70.4,189.8-259.3,189.8c-170.3,0-275.9-113.5-275.9-266.1c0-152.6,105.7-266.1,275.9-266.1
			c145.8,0,267.1,97.8,267.1,266.1H982.4z M1486.3,828.5c-7.8-118.4-93.9-227-247.5-227c-161.4,0-247.6,103.7-256.4,227H1486.3z"/>
		<path class="st1" d="M1564.6,597.6h19.6v112.5h2c39.1-89,116.4-128.2,226-128.2c191.8,0,225,105.7,225,201.6v315.1h-19.6V783.5
			c0-84.2-25.4-182-205.5-182c-208.4,0-228,151.7-228,216.2v280.8h-19.6V597.6z"/>
	</g>
</g>
<g>
	<path class="st1" d="M443.6,257.5h-67.8l-12,30.4h-43.2l64.9-147.6h48.4l64.9,147.6h-43.2L443.6,257.5z M409.7,172.2l-23.2,58.5
		h46.3L409.7,172.2z"/>
	<path class="st1" d="M609.8,183.1c-2.5-19.2-20.9-21.3-37-21.3c-16.5,0-27.3,7.4-27.3,17.4c0,7.9,6.6,12.2,17,13.8l50.2,8.1
		c26.9,4.3,47.3,14.5,47.3,41.3c0,27.5-18.6,49.6-76.7,49.6c-36,0-82.7-4.5-83.1-50.6h45.1c0.4,20.3,20.7,23.8,38,23.8
		c18.8,0,31.6-5.6,31.6-18.4c0-11.4-9.1-14.5-25-17l-36.6-5.6c-25.6-3.9-50.4-11.6-50.4-41.8c0-32.9,26.9-46.3,73.2-46.3
		c30.4,0,75.4,5.2,78.1,46.9H609.8z"/>
	<path class="st1" d="M854.7,183.1c-2.5-19.2-20.9-21.3-37-21.3c-16.5,0-27.3,7.4-27.3,17.4c0,7.9,6.6,12.2,17,13.8l50.2,8.1
		c26.9,4.3,47.3,14.5,47.3,41.3c0,27.5-18.6,49.6-76.7,49.6c-36,0-82.7-4.5-83.1-50.6h45.1c0.4,20.3,20.7,23.8,38,23.8
		c18.8,0,31.6-5.6,31.6-18.4c0-11.4-9.1-14.5-25-17l-36.6-5.6c-25.6-3.9-50.4-11.6-50.4-41.8c0-32.9,26.9-46.3,73.2-46.3
		c30.4,0,75.4,5.2,78.1,46.9H854.7z"/>
	<path class="st1" d="M923.3,140.3h137.9v28.1h-97.8V199h92.8v26.9h-92.8v33.9h98.6v28.1H923.3V140.3z"/>
	<path class="st1" d="M1084.2,140.3H1222v28.1h-97.8V199h92.8v26.9h-92.8v33.9h98.6v28.1h-138.7V140.3z"/>
	<path class="st1" d="M1369.4,140.3h38.9v147.6h-43.6L1284.3,185h-0.4v102.9H1245V140.3h46.5l77.5,102.9h0.4V140.3z"/>
	<path class="st1" d="M1596.4,136.2c79.4,0,91.8,47.1,91.8,77.9c0,30.8-12.4,77.9-91.8,77.9c-79.4,0-91.8-47.1-91.8-77.9
		C1504.6,183.3,1517,136.2,1596.4,136.2z M1596.4,263.9c36.4,0,49.2-26.9,49.2-49.8c0-22.9-12.8-49.8-49.2-49.8
		c-36.4,0-49.2,26.9-49.2,49.8C1547.2,237.1,1560,263.9,1596.4,263.9z"/>
	<path class="st1" d="M1832.5,140.3h38.9v147.6h-43.6L1747.3,185h-0.4v102.9H1708V140.3h46.5l77.5,102.9h0.4V140.3z"/>
</g>
</svg>
