<?xml version="1.0" encoding="utf-8"?>
<!-- Generator: Adobe Illustrator 18.1.1, SVG Export Plug-In . SVG Version: 6.00 Build 0)  -->
<!DOCTYPE svg PUBLIC "-//W3C//DTD SVG 1.1//EN" "http://www.w3.org/Graphics/SVG/1.1/DTD/svg11.dtd">
<svg version="1.1" id="Layer_1" xmlns="http://www.w3.org/2000/svg" xmlns:xlink="http://www.w3.org/1999/xlink" x="0px" y="0px"
	 viewBox="0 0 155 25" enable-background="new 0 0 155 25" xml:space="preserve">
<g>
	<g>
		<polygon fill="#F7941E" points="13,0.4 16.9,8.4 25.7,9.6 19.4,15.8 20.9,24.6 13,20.5 5.1,24.6 6.6,15.8 0.3,9.6 9.1,8.4 		"/>
		<polygon fill="#F7941E" points="45.3,0.4 49.2,8.4 58,9.6 51.6,15.8 53.1,24.6 45.3,20.5 37.4,24.6 38.9,15.8 32.5,9.6 41.3,8.4 
					"/>
		<polygon fill="#F7941E" points="77.5,0.4 81.4,8.4 90.2,9.6 83.9,15.8 85.4,24.6 77.5,20.5 69.6,24.6 71.1,15.8 64.8,9.6 
			73.6,8.4 		"/>
		<polygon fill="#F7941E" points="109.7,0.4 113.7,8.4 122.5,9.6 116.1,15.8 117.6,24.6 109.7,20.5 101.9,24.6 103.4,15.8 97,9.6 
			105.8,8.4 		"/>
		<polygon fill="#F7941E" points="142,0.4 145.9,8.4 154.7,9.6 148.4,15.8 149.9,24.6 142,20.5 134.1,24.6 135.6,15.8 129.3,9.6 
			138.1,8.4 		"/>
	</g>
</g>
</svg>
