<?xml version="1.0" encoding="utf-8"?>
<!-- Generator: Adobe Illustrator 19.1.0, SVG Export Plug-In . SVG Version: 6.00 Build 0)  -->
<!DOCTYPE svg PUBLIC "-//W3C//DTD SVG 1.1//EN" "http://www.w3.org/Graphics/SVG/1.1/DTD/svg11.dtd">
<svg version="1.1" id="Layer_1" xmlns="http://www.w3.org/2000/svg" xmlns:xlink="http://www.w3.org/1999/xlink" x="0px" y="0px"
	 viewBox="-105 107 25.5 25" style="enable-background:new -105 107 25.5 25;" xml:space="preserve">
<style type="text/css">
	.st0{fill:#FF9E14;}
</style>
<g>
	<path class="st0" d="M-92.2,110l2.9,5.9l0.2,0.5l0.5,0.1l6.5,1l-4.7,4.6l-0.4,0.4l0.1,0.5l1.1,6.5l-5.9-3.1l-0.5-0.2l-0.5,0.2
		l-5.9,3.1l1.1-6.5l0.1-0.5l-0.4-0.4l-4.7-4.6l6.5-1l0.5-0.1l0.2-0.5L-92.2,110z M-92.2,107.7l-3.8,7.7l-8.5,1.2l6.2,6l-1.5,8.5
		l7.6-4l7.6,4l-1.5-8.5l6.2-6l-8.5-1.2L-92.2,107.7z"/>
	<polygon class="st0" points="-92.2,127.2 -99.9,131.3 -98.4,122.8 -104.6,116.7 -96.1,115.5 -92.2,107.7 	"/>
</g>
</svg>
