<?xml version="1.0" encoding="utf-8"?>
<!-- Generator: Adobe Illustrator 19.1.0, SVG Export Plug-In . SVG Version: 6.00 Build 0)  -->
<!DOCTYPE svg PUBLIC "-//W3C//DTD SVG 1.1//EN" "http://www.w3.org/Graphics/SVG/1.1/DTD/svg11.dtd">
<svg version="1.1" id="Layer_1" xmlns="http://www.w3.org/2000/svg" xmlns:xlink="http://www.w3.org/1999/xlink" x="0px" y="0px"
	 viewBox="-38 36 108 40" style="enable-background:new -38 36 108 40;" xml:space="preserve">
<style type="text/css">
	.st0{fill:#71C5EE;}
	.st1{fill:#FFFFFF;}
	.st2{enable-background:new    ;}
	.st3{fill:#828282;}
</style>
<g>
	<rect x="-38" y="36" class="st0" width="40" height="40"/>
	<path class="st1" d="M-16.8,68.1c-6.9,0-11.9-5.4-11.9-11.9V56c0-6.6,5.1-12.1,12-12.1c4.4,0,7.1,1.6,9.2,4l-3.3,3.5
		c-1.6-1.7-3.3-2.9-6-2.9c-3.9,0-6.7,3.3-6.7,7.4V56c0,4.1,2.8,7.4,6.9,7.4c2.5,0,4.3-1.2,6-2.9l3.2,3.2
		C-9.6,66.3-12.2,68.1-16.8,68.1"/>
</g>
<g>
	<g class="st2">
		<path class="st3" d="M19.1,59.2c-0.2,0.4-0.5,0.8-0.9,1.1s-0.7,0.5-1.2,0.7c-0.4,0.2-0.9,0.2-1.4,0.2c-0.6,0-1.1-0.1-1.6-0.3
			c-0.5-0.2-0.9-0.5-1.3-0.9c-0.3-0.3-0.5-0.5-0.6-0.8s-0.3-0.6-0.3-1s-0.1-0.8-0.1-1.2c0-0.5,0-1,0-1.6c0-0.6,0-1.1,0-1.6
			s0.1-0.9,0.1-1.2s0.2-0.7,0.3-1s0.3-0.6,0.6-0.8c0.4-0.4,0.8-0.7,1.3-0.9c0.5-0.2,1-0.3,1.6-0.3c0.5,0,1,0.1,1.4,0.2
			c0.4,0.2,0.8,0.4,1.2,0.7s0.6,0.6,0.9,1.1c0.2,0.4,0.4,0.9,0.5,1.4h-1.2c-0.1-0.7-0.5-1.3-0.9-1.7c-0.5-0.4-1.1-0.6-1.8-0.6
			c-0.4,0-0.7,0.1-1.1,0.2c-0.3,0.1-0.6,0.3-0.9,0.6c-0.2,0.2-0.3,0.4-0.4,0.6c-0.1,0.2-0.2,0.5-0.2,0.8c-0.1,0.3-0.1,0.6-0.1,1.1
			c0,0.4,0,0.9,0,1.5c0,0.6,0,1.1,0,1.5c0,0.4,0.1,0.8,0.1,1.1c0.1,0.3,0.1,0.5,0.2,0.8c0.1,0.2,0.3,0.4,0.4,0.6
			c0.2,0.3,0.5,0.5,0.9,0.6c0.3,0.1,0.7,0.2,1.1,0.2c0.7,0,1.3-0.2,1.8-0.6c0.5-0.4,0.8-1,0.9-1.7h1.2
			C19.5,58.3,19.4,58.7,19.1,59.2z"/>
		<path class="st3" d="M28.1,57.1c0,0.3,0,0.6,0,0.9c0,0.3-0.1,0.6-0.1,0.8s-0.2,0.5-0.3,0.8c-0.1,0.2-0.3,0.5-0.5,0.7
			c-0.3,0.3-0.6,0.5-1,0.7c-0.4,0.2-0.8,0.2-1.3,0.2c-0.5,0-0.9-0.1-1.3-0.2c-0.4-0.2-0.7-0.4-1-0.7c-0.4-0.4-0.7-0.9-0.8-1.4
			c-0.1-0.5-0.2-1.1-0.2-1.7c0-0.6,0.1-1.2,0.2-1.7c0.1-0.5,0.4-1,0.8-1.4c0.3-0.3,0.6-0.5,1-0.7c0.4-0.2,0.8-0.2,1.3-0.2
			c0.5,0,0.9,0.1,1.3,0.2c0.4,0.2,0.7,0.4,1,0.7c0.2,0.2,0.4,0.4,0.5,0.7c0.1,0.2,0.2,0.5,0.3,0.8c0.1,0.3,0.1,0.5,0.1,0.8
			C28.1,56.5,28.1,56.8,28.1,57.1z M27,57.1c0-0.2,0-0.4,0-0.7c0-0.2,0-0.4-0.1-0.7c0-0.2-0.1-0.4-0.2-0.6s-0.2-0.4-0.3-0.5
			c-0.4-0.4-0.9-0.6-1.4-0.6c-0.6,0-1,0.2-1.4,0.6c-0.1,0.1-0.2,0.3-0.3,0.5c-0.1,0.2-0.2,0.4-0.2,0.6c0,0.2-0.1,0.4-0.1,0.7
			c0,0.2,0,0.4,0,0.7c0,0.2,0,0.4,0,0.7c0,0.2,0,0.4,0.1,0.7c0,0.2,0.1,0.4,0.2,0.6c0.1,0.2,0.2,0.4,0.3,0.5
			c0.4,0.4,0.9,0.6,1.4,0.6c0.6,0,1.1-0.2,1.4-0.6c0.1-0.1,0.3-0.3,0.3-0.5s0.1-0.4,0.2-0.6c0-0.2,0.1-0.4,0.1-0.7
			C26.9,57.5,27,57.3,27,57.1z"/>
		<path class="st3" d="M36.6,57.1c0,0.3,0,0.6,0,0.9s-0.1,0.6-0.1,0.8s-0.2,0.5-0.3,0.8c-0.1,0.2-0.3,0.5-0.5,0.7
			c-0.3,0.3-0.6,0.5-1,0.7c-0.4,0.2-0.8,0.2-1.3,0.2s-0.9-0.1-1.3-0.2c-0.4-0.2-0.7-0.4-1-0.7c-0.4-0.4-0.7-0.9-0.8-1.4
			c-0.1-0.5-0.2-1.1-0.2-1.7c0-0.6,0.1-1.2,0.2-1.7c0.1-0.5,0.4-1,0.8-1.4c0.3-0.3,0.6-0.5,1-0.7c0.4-0.2,0.8-0.2,1.3-0.2
			s0.9,0.1,1.3,0.2c0.4,0.2,0.7,0.4,1,0.7c0.2,0.2,0.4,0.4,0.5,0.7c0.1,0.2,0.2,0.5,0.3,0.8c0.1,0.3,0.1,0.5,0.1,0.8
			S36.6,56.8,36.6,57.1z M35.4,57.1c0-0.2,0-0.4,0-0.7c0-0.2,0-0.4-0.1-0.7c0-0.2-0.1-0.4-0.2-0.6s-0.2-0.4-0.3-0.5
			c-0.4-0.4-0.9-0.6-1.4-0.6c-0.6,0-1,0.2-1.4,0.6c-0.1,0.1-0.3,0.3-0.3,0.5c-0.1,0.2-0.2,0.4-0.2,0.6c0,0.2-0.1,0.4-0.1,0.7
			c0,0.2,0,0.4,0,0.7c0,0.2,0,0.4,0,0.7c0,0.2,0,0.4,0.1,0.7c0,0.2,0.1,0.4,0.2,0.6c0.1,0.2,0.2,0.4,0.3,0.5
			c0.4,0.4,0.9,0.6,1.4,0.6c0.6,0,1.1-0.2,1.4-0.6c0.1-0.1,0.3-0.3,0.3-0.5s0.1-0.4,0.2-0.6c0-0.2,0.1-0.4,0.1-0.7
			C35.4,57.5,35.4,57.3,35.4,57.1z"/>
		<path class="st3" d="M41,61c-0.7,0-1.2-0.2-1.5-0.6C39.2,60,39,59.5,39,58.9v-9.3h1.2v9.2c0,0.4,0.1,0.7,0.2,0.9
			c0.1,0.2,0.4,0.3,0.8,0.3h0.6v1H41z"/>
		<path class="st3" d="M55.3,58.5c-0.1,0.5-0.4,0.9-0.8,1.3c-0.4,0.4-0.9,0.8-1.4,1c-0.5,0.2-1.1,0.3-1.7,0.3
			c-0.6,0-1.1-0.1-1.6-0.3c-0.5-0.2-0.9-0.5-1.3-0.9c-0.3-0.3-0.5-0.5-0.6-0.8c-0.1-0.3-0.2-0.6-0.3-1s-0.1-0.8-0.1-1.2
			c0-0.5,0-1,0-1.6c0-0.6,0-1.1,0-1.6s0.1-0.9,0.1-1.2s0.2-0.7,0.3-1c0.1-0.3,0.3-0.6,0.6-0.8c0.8-0.8,1.8-1.2,2.9-1.2
			c0.5,0,1,0.1,1.5,0.2c0.5,0.2,0.9,0.4,1.2,0.7c0.3,0.3,0.6,0.7,0.8,1.1c0.2,0.4,0.4,0.9,0.5,1.4h-1.2c-0.2-0.7-0.5-1.3-1-1.7
			c-0.5-0.4-1.1-0.6-1.8-0.6c-0.4,0-0.7,0.1-1.1,0.2c-0.3,0.1-0.6,0.3-0.9,0.6c-0.2,0.2-0.3,0.4-0.4,0.6c-0.1,0.2-0.2,0.5-0.2,0.7
			c-0.1,0.3-0.1,0.6-0.1,1c0,0.4,0,0.9,0,1.5c0,0.6,0,1.1,0,1.5c0,0.4,0.1,0.8,0.1,1.1c0.1,0.3,0.1,0.5,0.2,0.8
			c0.1,0.2,0.3,0.4,0.4,0.6c0.2,0.3,0.5,0.5,0.9,0.6s0.7,0.2,1.1,0.2c0.4,0,0.8-0.1,1.2-0.2c0.4-0.2,0.7-0.4,1-0.7
			c0.2-0.3,0.4-0.6,0.5-0.9c0.1-0.3,0.1-0.7,0.1-1.2v-0.9h-2.8v-1.1h4v1.8C55.6,57.5,55.5,58.1,55.3,58.5z"/>
		<path class="st3" d="M58.9,57.4c0,0.9,0.2,1.5,0.6,2s1,0.7,1.7,0.7c0.5,0,0.8-0.1,1.1-0.2c0.3-0.1,0.6-0.4,0.9-0.7l0.8,0.7
			c-0.2,0.2-0.4,0.4-0.6,0.5c-0.2,0.2-0.4,0.3-0.6,0.4c-0.2,0.1-0.5,0.2-0.7,0.2s-0.6,0.1-0.9,0.1c-0.5,0-1-0.1-1.4-0.2
			c-0.4-0.2-0.8-0.4-1.1-0.7c-0.3-0.3-0.5-0.7-0.7-1.3c-0.2-0.5-0.2-1.1-0.2-1.8c0-1.3,0.3-2.3,0.9-3s1.4-1.1,2.4-1.1
			c1,0,1.8,0.3,2.4,1s0.8,1.6,0.8,2.8v0.5H58.9z M63,55.8c0-0.2-0.1-0.4-0.2-0.6c-0.1-0.4-0.4-0.7-0.7-0.9C61.8,54.1,61.4,54,61,54
			c-0.4,0-0.8,0.1-1.1,0.3c-0.3,0.2-0.6,0.5-0.7,0.9c0,0.1-0.1,0.2-0.1,0.3c0,0.1,0,0.2-0.1,0.3c0,0.1,0,0.2,0,0.3s0,0.3,0,0.4h4.2
			C63.1,56.2,63,56,63,55.8z"/>
		<path class="st3" d="M68.6,61c-0.7,0-1.2-0.2-1.5-0.6c-0.3-0.4-0.5-0.9-0.5-1.5v-9.3h1.2v9.2c0,0.4,0.1,0.7,0.2,0.9
			c0.1,0.2,0.4,0.3,0.8,0.3h0.6v1H68.6z"/>
	</g>
</g>
</svg>
