<?xml version="1.0" encoding="utf-8"?>
<!-- Generator: Adobe Illustrator 19.1.0, SVG Export Plug-In . SVG Version: 6.00 Build 0)  -->
<!DOCTYPE svg PUBLIC "-//W3C//DTD SVG 1.1//EN" "http://www.w3.org/Graphics/SVG/1.1/DTD/svg11.dtd">
<svg version="1.1" xmlns="http://www.w3.org/2000/svg" xmlns:xlink="http://www.w3.org/1999/xlink" x="0px" y="0px"
	 viewBox="-28 31 128 50" style="enable-background:new -28 31 128 50;" xml:space="preserve">
<style type="text/css">
	.st0{display:none;}
	.st1{display:inline;}
	.st2{fill:#828282;}
	.st3{font-family:'DINBek-Regular';}
	.st4{font-size:16px;}
	.st5{fill:#BBBDBF;}
	.st6{fill:#FFFFFF;}
	.st7{fill:#BABCBE;}
</style>
<g id="Layer_1" class="st0">
	<g class="st1">
		<text transform="matrix(1 0 0 1 7.613 61.4481)" class="st2 st3 st4">Sleeps Alone</text>
	</g>
	<g class="st1">
		<g>
			<path class="st5" d="M-12.8,43.2c-0.2,0-0.4,0.1-0.6,0.2c-0.3,0.3-0.3,0.8,0,1.1l9.7,9.1c0.3,0.3,0.8,0.3,1.1,0
				c0.3-0.3,0.3-0.8,0-1.1l-9.7-9.1C-12.4,43.3-12.6,43.2-12.8,43.2"/>
			<path class="st5" d="M-16.8,43.7c0-0.2-0.1-0.4-0.2-0.6c-0.3-0.3-0.8-0.3-1.1,0l-9.1,9.7c-0.3,0.3-0.3,0.8,0,1.1
				c0.3,0.3,0.8,0.3,1.1,0l9.1-9.7C-16.9,44.1-16.8,43.9-16.8,43.7"/>
		</g>
		<g>
			<path class="st5" d="M-17,80.8c-0.4,0-0.8-0.3-0.8-0.8V62.3c0-0.4,0.3-0.8,0.8-0.8c0.4,0,0.8,0.3,0.8,0.8V80
				C-16.2,80.5-16.5,80.8-17,80.8"/>
			<path class="st5" d="M-12.6,80.8c-0.4,0-0.8-0.3-0.8-0.8V62.3c0-0.4,0.3-0.8,0.8-0.8c0.4,0,0.8,0.3,0.8,0.8V80
				C-11.9,80.5-12.2,80.8-12.6,80.8"/>
			<path class="st6" d="M-9.9,48.1c0-2.8-2.2-5-5-5s-5,2.2-5,5v14.2h10V48.1z"/>
			<path class="st5" d="M-19.1,61.6h8.4V48.1c0-2.3-1.9-4.2-4.2-4.2s-4.2,1.9-4.2,4.2V61.6z M-9.9,63.1h-10c-0.4,0-0.8-0.3-0.8-0.8
				V48.1c0-3.2,2.6-5.8,5.8-5.8s5.8,2.6,5.8,5.8v14.2C-9.1,62.8-9.5,63.1-9.9,63.1"/>
			<path class="st5" d="M-14.8,43.9c-0.4,0-0.8-0.3-0.8-0.8v-2c0-0.4,0.3-0.8,0.8-0.8c0.4,0,0.8,0.3,0.8,0.8v2
				C-14,43.6-14.4,43.9-14.8,43.9"/>
			<path class="st5" d="M-14.8,32.7c-2.1,0-3.8,1.7-3.8,3.8s1.7,3.8,3.8,3.8s3.8-1.7,3.8-3.8S-12.7,32.7-14.8,32.7 M-14.8,41.9
				c-3,0-5.4-2.4-5.4-5.4s2.4-5.4,5.4-5.4s5.4,2.4,5.4,5.4S-11.8,41.9-14.8,41.9"/>
		</g>
	</g>
</g>
<g id="Layer_2">
	<g>
		<g>
			<path class="st2" d="M16.9,57.9c0,0.5-0.1,1-0.3,1.4c-0.2,0.4-0.5,0.7-0.8,1c-0.3,0.3-0.8,0.5-1.2,0.6c-0.5,0.1-1,0.2-1.6,0.2
				c-0.9,0-1.6-0.1-2.2-0.4c-0.6-0.2-1.2-0.6-1.7-1.2l0.8-0.8c0.5,0.5,0.9,0.8,1.4,1c0.5,0.2,1,0.3,1.7,0.3c0.8,0,1.5-0.2,2-0.6
				c0.5-0.4,0.7-0.9,0.7-1.6c0-0.3,0-0.6-0.1-0.8c-0.1-0.2-0.2-0.4-0.4-0.6c-0.2-0.2-0.4-0.3-0.6-0.3c-0.2-0.1-0.5-0.1-0.9-0.2
				l-1.3-0.2c-0.9-0.1-1.6-0.4-2.1-0.9c-0.6-0.5-0.9-1.2-0.9-2.1c0-0.5,0.1-0.9,0.3-1.3c0.2-0.4,0.4-0.7,0.7-1s0.7-0.5,1.1-0.6
				c0.4-0.2,1-0.2,1.5-0.2c0.7,0,1.3,0.1,1.9,0.3s1,0.5,1.5,1l-0.8,0.8c-0.4-0.3-0.7-0.6-1.1-0.7c-0.4-0.2-0.9-0.2-1.5-0.2
				c-0.8,0-1.4,0.2-1.8,0.6c-0.4,0.4-0.6,0.9-0.6,1.5c0,0.6,0.2,1,0.5,1.3c0.2,0.1,0.4,0.3,0.7,0.4c0.3,0.1,0.6,0.2,0.9,0.2l1.2,0.2
				c0.5,0.1,1,0.2,1.3,0.3s0.6,0.3,0.8,0.5C16.6,56.2,16.9,56.9,16.9,57.9z"/>
			<path class="st2" d="M25.3,57.1c0,0.3,0,0.6,0,0.9c0,0.3-0.1,0.6-0.1,0.8c-0.1,0.3-0.2,0.5-0.3,0.8c-0.1,0.2-0.3,0.5-0.5,0.7
				c-0.3,0.3-0.6,0.5-1,0.7c-0.4,0.2-0.8,0.2-1.3,0.2s-0.9-0.1-1.3-0.2s-0.7-0.4-1-0.7c-0.4-0.4-0.7-0.9-0.8-1.4
				c-0.1-0.5-0.2-1.1-0.2-1.7c0-0.6,0.1-1.2,0.2-1.7c0.1-0.5,0.4-1,0.8-1.4c0.3-0.3,0.6-0.5,1-0.7s0.8-0.2,1.3-0.2s0.9,0.1,1.3,0.2
				c0.4,0.2,0.7,0.4,1,0.7c0.2,0.2,0.4,0.4,0.5,0.7c0.1,0.2,0.2,0.5,0.3,0.8c0.1,0.3,0.1,0.5,0.1,0.8S25.3,56.8,25.3,57.1z
				 M24.1,57.1c0-0.2,0-0.4,0-0.7s0-0.4-0.1-0.7c0-0.2-0.1-0.4-0.2-0.6s-0.2-0.4-0.3-0.5c-0.4-0.4-0.9-0.6-1.4-0.6
				c-0.6,0-1,0.2-1.4,0.6c-0.1,0.1-0.3,0.3-0.3,0.5c-0.1,0.2-0.2,0.4-0.2,0.6c0,0.2-0.1,0.4-0.1,0.7s0,0.4,0,0.7c0,0.2,0,0.4,0,0.7
				s0,0.4,0.1,0.7c0,0.2,0.1,0.4,0.2,0.6c0.1,0.2,0.2,0.4,0.3,0.5c0.4,0.4,0.9,0.6,1.4,0.6c0.6,0,1.1-0.2,1.4-0.6
				c0.1-0.1,0.3-0.3,0.3-0.5s0.1-0.4,0.2-0.6c0-0.2,0.1-0.4,0.1-0.7S24.1,57.3,24.1,57.1z"/>
			<path class="st2" d="M29.7,61c-0.7,0-1.2-0.2-1.5-0.6c-0.3-0.4-0.5-0.9-0.5-1.5v-9.3h1.2v9.2c0,0.4,0.1,0.7,0.2,0.9
				c0.1,0.2,0.4,0.3,0.8,0.3h0.6v1H29.7z"/>
			<path class="st2" d="M38.5,57.1c0,0.3,0,0.6,0,0.9c0,0.3-0.1,0.6-0.1,0.8c-0.1,0.3-0.2,0.5-0.3,0.8c-0.1,0.2-0.3,0.5-0.5,0.7
				c-0.3,0.3-0.6,0.5-1,0.7c-0.4,0.2-0.8,0.2-1.3,0.2s-0.9-0.1-1.3-0.2s-0.7-0.4-1-0.7c-0.4-0.4-0.7-0.9-0.8-1.4
				c-0.1-0.5-0.2-1.1-0.2-1.7c0-0.6,0.1-1.2,0.2-1.7c0.1-0.5,0.4-1,0.8-1.4c0.3-0.3,0.6-0.5,1-0.7s0.8-0.2,1.3-0.2s0.9,0.1,1.3,0.2
				c0.4,0.2,0.7,0.4,1,0.7c0.2,0.2,0.4,0.4,0.5,0.7c0.1,0.2,0.2,0.5,0.3,0.8c0.1,0.3,0.1,0.5,0.1,0.8S38.5,56.8,38.5,57.1z
				 M37.4,57.1c0-0.2,0-0.4,0-0.7s0-0.4-0.1-0.7c0-0.2-0.1-0.4-0.2-0.6s-0.2-0.4-0.3-0.5c-0.4-0.4-0.9-0.6-1.4-0.6
				c-0.6,0-1,0.2-1.4,0.6c-0.1,0.1-0.3,0.3-0.3,0.5c-0.1,0.2-0.2,0.4-0.2,0.6c0,0.2-0.1,0.4-0.1,0.7s0,0.4,0,0.7c0,0.2,0,0.4,0,0.7
				s0,0.4,0.1,0.7c0,0.2,0.1,0.4,0.2,0.6c0.1,0.2,0.2,0.4,0.3,0.5c0.4,0.4,0.9,0.6,1.4,0.6c0.6,0,1.1-0.2,1.4-0.6
				c0.1-0.1,0.3-0.3,0.3-0.5s0.1-0.4,0.2-0.6c0-0.2,0.1-0.4,0.1-0.7S37.4,57.3,37.4,57.1z"/>
			<path class="st2" d="M50.6,58.7c0,0.4-0.1,0.7-0.2,1c-0.2,0.3-0.4,0.5-0.7,0.8c-0.3,0.2-0.6,0.4-1,0.5c-0.4,0.1-0.8,0.2-1.3,0.2
				c-0.7,0-1.3-0.1-1.8-0.3c-0.5-0.2-1-0.5-1.4-0.9l0.8-0.8c0.3,0.3,0.7,0.6,1.1,0.7s0.9,0.2,1.4,0.2c0.7,0,1.2-0.1,1.5-0.3
				c0.4-0.2,0.6-0.6,0.6-1c0-0.3-0.1-0.6-0.3-0.8c-0.2-0.2-0.5-0.3-1-0.4l-1.3-0.1c-0.8-0.1-1.4-0.3-1.8-0.6
				c-0.4-0.3-0.6-0.8-0.6-1.5c0-0.4,0.1-0.7,0.2-1c0.1-0.3,0.3-0.5,0.6-0.7c0.3-0.2,0.6-0.3,0.9-0.5c0.4-0.1,0.7-0.2,1.2-0.2
				c0.6,0,1.1,0.1,1.6,0.2c0.5,0.1,0.9,0.4,1.3,0.6l-0.8,0.8c-0.3-0.2-0.6-0.4-1-0.5S47.9,54,47.4,54c-0.6,0-1,0.1-1.3,0.3
				s-0.4,0.5-0.4,1c0,0.3,0.1,0.6,0.3,0.8s0.6,0.3,1.1,0.4l1.3,0.1c0.3,0,0.7,0.1,0.9,0.2s0.5,0.2,0.7,0.4c0.2,0.2,0.4,0.4,0.5,0.6
				C50.6,58.1,50.6,58.4,50.6,58.7z"/>
			<path class="st2" d="M54.9,61c-0.7,0-1.2-0.2-1.5-0.6c-0.3-0.4-0.5-0.9-0.5-1.5v-9.3H54v9.2c0,0.4,0.1,0.7,0.2,0.9
				c0.1,0.2,0.4,0.3,0.8,0.3h0.6v1H54.9z"/>
			<path class="st2" d="M58.4,57.4c0,0.9,0.2,1.5,0.6,2c0.4,0.5,1,0.7,1.7,0.7c0.5,0,0.8-0.1,1.1-0.2c0.3-0.1,0.6-0.4,0.9-0.7
				l0.8,0.7c-0.2,0.2-0.4,0.4-0.6,0.5s-0.4,0.3-0.6,0.4c-0.2,0.1-0.5,0.2-0.7,0.2c-0.3,0.1-0.6,0.1-0.9,0.1c-0.5,0-1-0.1-1.4-0.2
				c-0.4-0.2-0.8-0.4-1.1-0.7c-0.3-0.3-0.5-0.7-0.7-1.3c-0.2-0.5-0.2-1.1-0.2-1.8c0-1.3,0.3-2.3,0.9-3s1.4-1.1,2.4-1.1
				c1,0,1.8,0.3,2.4,1s0.8,1.6,0.8,2.8v0.5H58.4z M62.5,55.8c0-0.2-0.1-0.4-0.2-0.6c-0.1-0.4-0.4-0.7-0.7-0.9
				c-0.3-0.2-0.7-0.3-1.1-0.3c-0.4,0-0.8,0.1-1.1,0.3c-0.3,0.2-0.6,0.5-0.7,0.9c0,0.1-0.1,0.2-0.1,0.3c0,0.1,0,0.2-0.1,0.3
				c0,0.1,0,0.2,0,0.3c0,0.1,0,0.3,0,0.4h4.2C62.5,56.2,62.5,56,62.5,55.8z"/>
			<path class="st2" d="M66.9,57.4c0,0.9,0.2,1.5,0.6,2c0.4,0.5,1,0.7,1.7,0.7c0.5,0,0.8-0.1,1.1-0.2c0.3-0.1,0.6-0.4,0.9-0.7
				l0.8,0.7c-0.2,0.2-0.4,0.4-0.6,0.5c-0.2,0.2-0.4,0.3-0.6,0.4c-0.2,0.1-0.5,0.2-0.7,0.2c-0.3,0.1-0.6,0.1-0.9,0.1
				c-0.5,0-1-0.1-1.4-0.2c-0.4-0.2-0.8-0.4-1.1-0.7c-0.3-0.3-0.5-0.7-0.7-1.3c-0.2-0.5-0.2-1.1-0.2-1.8c0-1.3,0.3-2.3,0.9-3
				s1.4-1.1,2.4-1.1c1,0,1.8,0.3,2.4,1s0.8,1.6,0.8,2.8v0.5H66.9z M71,55.8c0-0.2-0.1-0.4-0.2-0.6c-0.1-0.4-0.4-0.7-0.7-0.9
				c-0.3-0.2-0.7-0.3-1.1-0.3s-0.8,0.1-1.1,0.3s-0.6,0.5-0.7,0.9c0,0.1-0.1,0.2-0.1,0.3c0,0.1,0,0.2-0.1,0.3c0,0.1,0,0.2,0,0.3
				c0,0.1,0,0.3,0,0.4H71C71,56.2,71,56,71,55.8z"/>
			<path class="st2" d="M80.9,57.1c0,0.3,0,0.6,0,0.9c0,0.3-0.1,0.6-0.1,0.9c-0.1,0.3-0.2,0.6-0.3,0.8c-0.1,0.3-0.3,0.5-0.5,0.7
				c-0.2,0.2-0.5,0.4-0.8,0.5c-0.3,0.1-0.7,0.2-1.1,0.2c-0.4,0-0.8-0.1-1.2-0.2c-0.4-0.1-0.7-0.4-1-0.8v4.4h-1.2V53.2h1.2v0.9
				c0.3-0.4,0.7-0.7,1-0.8c0.4-0.1,0.8-0.2,1.2-0.2c0.4,0,0.8,0.1,1.1,0.2c0.3,0.1,0.6,0.3,0.8,0.5c0.2,0.2,0.4,0.4,0.5,0.7
				c0.1,0.3,0.2,0.5,0.3,0.8c0.1,0.3,0.1,0.6,0.1,0.9C80.9,56.5,80.9,56.8,80.9,57.1z M79.7,57.1c0-0.4,0-0.8-0.1-1.1
				c0-0.4-0.1-0.7-0.3-1c-0.1-0.3-0.3-0.5-0.6-0.7c-0.3-0.2-0.6-0.3-1-0.3c-0.4,0-0.8,0.1-1,0.3c-0.3,0.2-0.5,0.4-0.6,0.7
				c-0.1,0.3-0.2,0.6-0.3,1c0,0.4-0.1,0.7-0.1,1.1c0,0.4,0,0.8,0.1,1.1c0,0.4,0.1,0.7,0.3,1s0.3,0.5,0.6,0.7c0.3,0.2,0.6,0.3,1,0.3
				c0.4,0,0.8-0.1,1-0.3c0.3-0.2,0.5-0.4,0.6-0.7s0.2-0.6,0.3-1C79.7,57.9,79.7,57.5,79.7,57.1z"/>
			<path class="st2" d="M84.1,57.4c0,0.9,0.2,1.5,0.6,2c0.4,0.5,1,0.7,1.7,0.7c0.5,0,0.8-0.1,1.1-0.2c0.3-0.1,0.6-0.4,0.9-0.7
				l0.8,0.7c-0.2,0.2-0.4,0.4-0.6,0.5c-0.2,0.2-0.4,0.3-0.6,0.4c-0.2,0.1-0.5,0.2-0.7,0.2c-0.3,0.1-0.6,0.1-0.9,0.1
				c-0.5,0-1-0.1-1.4-0.2c-0.4-0.2-0.8-0.4-1.1-0.7c-0.3-0.3-0.5-0.7-0.7-1.3c-0.2-0.5-0.2-1.1-0.2-1.8c0-1.3,0.3-2.3,0.9-3
				s1.4-1.1,2.4-1.1c1,0,1.8,0.3,2.4,1s0.8,1.6,0.8,2.8v0.5H84.1z M88.2,55.8c0-0.2-0.1-0.4-0.2-0.6c-0.1-0.4-0.4-0.7-0.7-0.9
				c-0.3-0.2-0.7-0.3-1.1-0.3s-0.8,0.1-1.1,0.3s-0.6,0.5-0.7,0.9c0,0.1-0.1,0.2-0.1,0.3c0,0.1,0,0.2-0.1,0.3c0,0.1,0,0.2,0,0.3
				c0,0.1,0,0.3,0,0.4h4.2C88.2,56.2,88.2,56,88.2,55.8z"/>
			<path class="st2" d="M96.2,54.7c-0.2-0.2-0.4-0.4-0.6-0.4c-0.2-0.1-0.4-0.1-0.8-0.1c-0.3,0-0.5,0.1-0.8,0.2
				c-0.2,0.1-0.4,0.3-0.6,0.4s-0.3,0.4-0.4,0.7C93,55.6,93,55.9,93,56.2V61h-1.2v-7.9H93v1c0.2-0.3,0.5-0.6,0.9-0.8
				c0.4-0.2,0.8-0.3,1.3-0.3c0.4,0,0.7,0.1,1,0.2c0.3,0.1,0.6,0.3,0.9,0.6L96.2,54.7z"/>
		</g>
	</g>
	<g>
		<g>
			<path class="st7" d="M-13,44.6c-0.2,0-0.4,0.1-0.5,0.2c-0.3,0.3-0.3,0.8,0,1.1l9.4,8.8c0.3,0.3,0.8,0.3,1.1,0
				c0.3-0.3,0.3-0.8,0-1.1l-9.4-8.8C-12.6,44.7-12.8,44.6-13,44.6"/>
			<path class="st7" d="M-16.9,45.1c0-0.2-0.1-0.4-0.2-0.5c-0.3-0.3-0.8-0.3-1.1,0l-8.8,9.4c-0.3,0.3-0.3,0.8,0,1.1
				c0.3,0.3,0.8,0.3,1.1,0l8.8-9.4C-17,45.4-16.9,45.2-16.9,45.1"/>
		</g>
		<g>
			<path class="st7" d="M-17,79c-0.4,0-0.8-0.3-0.8-0.8V63.1c0-0.4,0.3-0.8,0.8-0.8c0.4,0,0.8,0.3,0.8,0.8v15.2
				C-16.3,78.7-16.6,79-17,79"/>
			<path class="st7" d="M-12.9,79c-0.4,0-0.8-0.3-0.8-0.8V63.1c0-0.4,0.3-0.8,0.8-0.8c0.4,0,0.8,0.3,0.8,0.8v15.2
				C-12.1,78.7-12.4,79-12.9,79"/>
			<path class="st6" d="M-10.2,49.4c0-2.7-2.2-4.8-4.8-4.8c-2.7,0-4.8,2.2-4.8,4.8v13.7h9.7V49.4z"/>
			<path class="st7" d="M-19.1,62.4h8.2v-13c0-2.2-1.8-4.1-4.1-4.1c-2.2,0-4.1,1.8-4.1,4.1V62.4z M-10.2,63.9h-9.7
				c-0.4,0-0.8-0.3-0.8-0.8V49.4c0-3.1,2.5-5.6,5.6-5.6c3.1,0,5.6,2.5,5.6,5.6v13.7C-9.5,63.5-9.8,63.9-10.2,63.9"/>
			<path class="st7" d="M-15,45.3c-0.4,0-0.8-0.3-0.8-0.8v-1.9c0-0.4,0.3-0.8,0.8-0.8c0.4,0,0.8,0.3,0.8,0.8v1.9
				C-14.2,44.9-14.5,45.3-15,45.3"/>
			<path class="st7" d="M-15,34.5c-2,0-3.7,1.7-3.7,3.7s1.7,3.7,3.7,3.7c2,0,3.7-1.7,3.7-3.7S-12.9,34.5-15,34.5 M-15,43.4
				c-2.9,0-5.2-2.3-5.2-5.2S-17.8,33-15,33c2.9,0,5.2,2.3,5.2,5.2S-12.1,43.4-15,43.4"/>
		</g>
	</g>
</g>
</svg>
