<?xml version="1.0" encoding="utf-8"?>
<!-- Generator: Adobe Illustrator 19.1.0, SVG Export Plug-In . SVG Version: 6.00 Build 0)  -->
<!DOCTYPE svg PUBLIC "-//W3C//DTD SVG 1.1//EN" "http://www.w3.org/Graphics/SVG/1.1/DTD/svg11.dtd">
<svg version="1.1" id="Layer_1" xmlns="http://www.w3.org/2000/svg" xmlns:xlink="http://www.w3.org/1999/xlink" x="0px" y="0px"
	 viewBox="-472 273 15 15" style="enable-background:new -472 273 15 15;" xml:space="preserve">
<style type="text/css">
	.st0{fill:#808284;}
</style>
<path class="st0" d="M-470.1,273h11.1c1.1,0,2,0.9,2,1.9V286c0,1.1-0.9,1.9-1.9,1.9h-11.2c-1,0.1-1.9-0.8-1.9-1.8v-11.2
	C-472,273.9-471.1,273-470.1,273 M-461.1,274.7c-0.4,0-0.7,0.3-0.7,0.7v1.6c0,0.4,0.3,0.7,0.7,0.7h1.7c0.4,0,0.7-0.3,0.7-0.7v-1.7
	c0-0.4-0.3-0.7-0.7-0.7h-1.7V274.7z M-458.7,279.3h-1.3c0.1,0.4,0.2,0.8,0.2,1.3c0,2.5-2.1,4.5-4.7,4.5s-4.7-2-4.7-4.5
	c0-0.4,0.1-0.9,0.2-1.3h-1.3v6.3c0,0.3,0.3,0.6,0.6,0.6h10.4c0.3,0,0.6-0.3,0.6-0.6V279.3z M-464.5,277.5c-1.7,0-3,1.3-3,2.9
	s1.3,2.9,3,2.9s3-1.3,3-2.9C-461.5,278.9-462.8,277.5-464.5,277.5"/>
</svg>
