<?xml version="1.0" encoding="utf-8"?>
<!-- Generator: Adobe Illustrator 19.1.0, SVG Export Plug-In . SVG Version: 6.00 Build 0)  -->
<!DOCTYPE svg PUBLIC "-//W3C//DTD SVG 1.1//EN" "http://www.w3.org/Graphics/SVG/1.1/DTD/svg11.dtd">
<svg version="1.1" id="Layer_1" xmlns="http://www.w3.org/2000/svg" xmlns:xlink="http://www.w3.org/1999/xlink" x="0px" y="0px"
	 viewBox="-472 273 15 15" style="enable-background:new -472 273 15 15;" xml:space="preserve">
<style type="text/css">
	.st0{fill:#808284;}
</style>
<path class="st0" d="M-457,275.8c-0.6,0.2-1.1,0.4-1.8,0.5c0.6-0.4,1.1-1,1.4-1.7c-0.6,0.4-1.3,0.6-2,0.7c-0.6-0.6-1.4-1-2.2-1
	c-1.7,0-3.1,1.4-3.1,3.1c0,0.2,0,0.5,0.1,0.7c-2.6-0.1-4.8-1.3-6.4-3.2c-0.3,0.5-0.4,1-0.4,1.5c0,1.1,0.5,2,1.4,2.6
	c-0.5,0-1-0.1-1.4-0.4l0,0c0,1.5,1.1,2.7,2.5,3c-0.3,0.2-0.6,0.2-0.8,0.2c-0.2,0-0.4,0-0.6-0.1c0.4,1.2,1.5,2.1,2.9,2.1
	c-1.1,0.8-2.4,1.3-3.8,1.3c-0.2,0-0.5,0-0.7,0c1.4,0.9,3,1.4,4.7,1.4c5.7,0,8.8-4.7,8.8-8.8c0-0.1,0-0.3,0-0.4
	C-457.9,276.9-457.4,276.4-457,275.8"/>
</svg>
