<?xml version="1.0" encoding="utf-8"?>
<!-- Generator: Adobe Illustrator 19.1.0, SVG Export Plug-In . SVG Version: 6.00 Build 0)  -->
<!DOCTYPE svg PUBLIC "-//W3C//DTD SVG 1.1//EN" "http://www.w3.org/Graphics/SVG/1.1/DTD/svg11.dtd">
<svg version="1.1" id="Layer_1" xmlns="http://www.w3.org/2000/svg" xmlns:xlink="http://www.w3.org/1999/xlink" x="0px" y="0px"
	 viewBox="-472 273 15 15" style="enable-background:new -472 273 15 15;" xml:space="preserve">
<style type="text/css">
	.st0{fill:#808284;}
</style>
<path class="st0" d="M-457.2,276.3c0,0-0.1-1-0.6-1.5c-0.6-0.6-1.2-0.6-1.5-0.6c-2.1-0.2-5.2-0.2-5.2-0.2l0,0c0,0-3.1,0-5.2,0.2
	c-0.3,0-0.9,0-1.5,0.6c-0.5,0.4-0.7,1.5-0.7,1.5s-0.1,1.2-0.1,2.4v1.1c0,1.2,0.1,2.5,0.1,2.5s0.1,1,0.6,1.5c0.6,0.6,1.3,0.6,1.7,0.6
	c1.2,0.1,5.1,0.2,5.1,0.2s3.1,0,5.2-0.2c0.3,0,0.9,0,1.5-0.6c0.4-0.5,0.6-1.5,0.6-1.5s0.2-1.3,0.2-2.5v-1.1
	C-457,277.5-457.2,276.3-457.2,276.3 M-466.1,281.2V277l4,2.1L-466.1,281.2z"/>
</svg>
