<?xml version="1.0" encoding="utf-8"?>
<!-- Generator: Adobe Illustrator 19.1.0, SVG Export Plug-In . SVG Version: 6.00 Build 0)  -->
<!DOCTYPE svg PUBLIC "-//W3C//DTD SVG 1.1//EN" "http://www.w3.org/Graphics/SVG/1.1/DTD/svg11.dtd">
<svg version="1.1" id="Layer_1" xmlns="http://www.w3.org/2000/svg" xmlns:xlink="http://www.w3.org/1999/xlink" x="0px" y="0px"
	 viewBox="0 0 100 109" style="enable-background:new 0 0 100 109;" xml:space="preserve">
<style type="text/css">
	.st0{fill:none;stroke:#FF6B00;stroke-width:2.1593;stroke-linecap:round;stroke-linejoin:round;stroke-miterlimit:10;}
	.st1{fill:#F2F2F2;stroke:#FF6B00;stroke-width:2.1593;stroke-linecap:round;stroke-linejoin:round;stroke-miterlimit:10;}
	.st2{fill:none;stroke:#FF6B00;stroke-width:1.746;stroke-linecap:round;stroke-linejoin:round;stroke-miterlimit:10;}
	.st3{fill:none;stroke:#FF6B00;stroke-width:1.164;stroke-miterlimit:10;}
	.st4{fill:none;stroke:#FF6B00;stroke-width:3.3156;stroke-linecap:round;stroke-linejoin:round;stroke-miterlimit:10;}
</style>
<g id="XMLID_37_">
	<g id="XMLID_43_">
		<line id="XMLID_50_" class="st0" x1="85.2" y1="26.2" x2="68.5" y2="41.9"/>
		<line id="XMLID_49_" class="st0" x1="84.4" y1="107.4" x2="84.4" y2="63.1"/>
		<line id="XMLID_48_" class="st0" x1="93.2" y1="107.4" x2="93.2" y2="63.1"/>
		<path id="XMLID_47_" class="st1" d="M98.8,34.1c0-5.6-4.6-10.2-10.2-10.2s-10.2,4.6-10.2,10.2v29h20.4V34.1z"/>
		<line id="XMLID_46_" class="st0" x1="88.8" y1="23.9" x2="88.8" y2="19.9"/>
		<circle id="XMLID_45_" class="st0" cx="88.8" cy="10.5" r="9.4"/>
		<line id="XMLID_44_" class="st0" x1="88.5" y1="29.6" x2="68.7" y2="48.2"/>
	</g>
	<path id="XMLID_42_" class="st0" d="M73.2,70.5c-3.6,5.4-1.9,16.9-1.3,22.3c0.6,4.7-3.1,8.6-9.2,8.2c0,0-40.8,0-40.8,0
		c-3,0-11.7,1.9-13.5-3.4C7.2,94,8.9,89.9,8.6,86.9c-0.9-8.1-4.2-9.1-4-14.3C5,63.7,8.4,61.4,1.4,56.5"/>
	<g id="XMLID_39_">
		<path id="XMLID_41_" class="st2" d="M53.9,29.2c8.1,0,14.6,6.5,14.7,14.6l-14.6,0.1L53.9,29.2z"/>
		<line id="XMLID_40_" class="st3" x1="58.7" y1="38.3" x2="53.9" y2="38.4"/>
	</g>
	<path id="XMLID_38_" class="st4" d="M15.7,62.3h42.6c2.4,0,4.4,2,4.4,4.4v23.9c0,2.4-2,4.4-4.4,4.4H20.1c-2.4,0-4.4-2-4.4-4.4V77.2
		c0-2.4,2-4.4,4.4-4.4l29.8,0c2.4,0,4.4,2,4.4,4.4l0,2.7c0,2.4-2,4.4-4.4,4.4H24.1"/>
</g>
</svg>
